<?xml version="1.0" encoding="UTF-8"?>
<svg width="132px" height="19px" viewBox="0 0 132 19" version="1.1" xmlns="http://www.w3.org/2000/svg" xmlns:xlink="http://www.w3.org/1999/xlink">
    <!-- Generator: Sketch 49.3 (51167) - http://www.bohemiancoding.com/sketch -->
    <title>1</title>
    <desc>Created with Sketch.</desc>
    <defs></defs>
    <g id="Page-1" stroke="none" stroke-width="1" fill="none" fill-rule="evenodd">
        <g id="1" fill="#000000" fill-rule="nonzero">
            <path d="M4.3,18.2 C3.8,18.2 3.4,17.9 3.4,17.3 L3.4,3.7 L2.2,5.4 C1.5,6.4 -0.1,5.3 0.7,4.3 L3.1,1.1 C3.2,0.9 3.5,0.8 3.9,0.8 L4.7,0.8 C5.2,0.8 5.4,1.1 5.4,1.6 L5.4,17.3 C5.3,17.9 4.8,18.2 4.3,18.2 Z" id="Shape"></path>
            <path d="M11.6,18.2 C11.1,18.2 10.7,17.9 10.7,17.3 L10.7,16.8 C10.7,16.2 11.2,15.9 11.6,15.9 C12,15.9 12.5,16.2 12.5,16.8 L12.5,17.3 C12.6,17.9 12.1,18.2 11.6,18.2 Z" id="Shape"></path>
            <path d="M29.4,18.1 L25.6,18.1 C25.1,18.1 24.7,17.7 24.7,17.2 L24.7,1.9 C24.7,1.4 25.1,1 25.6,1 L29.4,1 C32.1,1 33.9,2.9 33.9,5.5 C33.9,7.4 33,8.7 32,9.3 C33,9.9 34.1,11.2 34.1,13.2 L34.1,13.4 C34.1,16 32,18.1 29.4,18.1 Z M32.1,5.4 C32.1,3.8 31,2.8 29.5,2.8 L26.6,2.8 L26.6,8.3 L29.5,8.3 C30.9,8.3 32.1,7.1 32.1,5.4 Z M32.3,13.1 C32.3,11.5 31,10.1 29.5,10.1 L26.6,10.1 L26.6,16.1 L29.5,16.1 C31.1,16.1 32.3,14.8 32.3,13.3 L32.3,13.1 Z" id="Shape"></path>
            <path d="M44.3,10.4 L47.4,16.8 C47.5,16.9 47.5,17.1 47.5,17.2 C47.5,17.7 47.1,18.1 46.5,18.1 C46.2,18.1 45.9,18 45.7,17.6 L42.3,10.5 L39.8,10.5 L39.8,17.2 C39.8,17.8 39.3,18.1 38.9,18.1 C38.4,18.1 38,17.8 38,17.2 L38,1.8 C38,1.3 38.4,0.9 38.9,0.9 L43.1,0.9 C45.7,0.9 47.8,3 47.8,5.6 L47.8,5.8 C47.7,8 46.3,9.8 44.3,10.4 Z M45.8,5.6 C45.8,4 44.5,2.8 43,2.8 L39.8,2.8 L39.8,8.7 L43.1,8.7 C44.7,8.7 45.8,7.4 45.8,5.9 L45.8,5.6 Z" id="Shape"></path>
            <path d="M59.9,18.1 L52.1,18.1 C51.6,18.1 51.2,17.7 51.2,17.2 L51.2,1.9 C51.2,1.4 51.6,1 52.1,1 L59.9,1 C60.6,1 60.8,1.5 60.8,1.9 C60.8,2.3 60.5,2.8 59.9,2.8 L53.1,2.8 L53.1,8.3 L57.9,8.3 C58.5,8.3 58.8,8.8 58.8,9.2 C58.8,9.6 58.5,10.1 57.9,10.1 L53.1,10.1 L53.1,16.1 L59.9,16.1 C60.6,16.1 60.8,16.6 60.8,17 C60.8,17.4 60.6,18.1 59.9,18.1 Z" id="Shape"></path>
            <path d="M73.5,18.2 C73.1,18.2 72.8,18 72.6,17.6 L71.5,14 L65.4,14 L64.3,17.6 C64.2,18.1 63.8,18.2 63.4,18.2 C62.8,18.2 62.4,17.8 62.4,17.3 C62.4,17.2 62.4,17.1 62.4,17 L67.3,1.4 C67.4,0.9 67.9,0.7 68.4,0.7 C68.9,0.7 69.4,0.9 69.5,1.4 L74.4,17 C74.4,17.1 74.4,17.2 74.4,17.3 C74.4,17.8 74,18.2 73.5,18.2 Z M68.4,4.1 L65.9,12.1 L70.8,12.1 L68.4,4.1 Z" id="Shape"></path>
            <path d="M83.9,2.8 L81.2,2.8 L81.2,17.3 C81.2,17.9 80.7,18.2 80.3,18.2 C79.8,18.2 79.4,17.9 79.4,17.3 L79.4,2.8 L76.7,2.8 C76.1,2.8 75.8,2.3 75.8,1.9 C75.8,1.5 76.1,1 76.7,1 L84.1,1 C84.7,1 85,1.5 85,1.9 C85,2.3 84.5,2.8 83.9,2.8 Z" id="Shape"></path>
            <path d="M96.1,18.2 C95.6,18.2 95.2,18 95.2,17.3 L95.2,10.2 L89.3,10.2 L89.3,17.3 C89.3,17.9 88.8,18.2 88.4,18.2 C88,18.2 87.5,17.9 87.5,17.3 L87.5,1.7 C87.5,1.1 88,0.8 88.4,0.8 C88.8,0.8 89.3,1.1 89.3,1.7 L89.3,8.3 L95.2,8.3 L95.2,1.7 C95.2,1.1 95.7,0.8 96.1,0.8 C96.5,0.8 97,1.1 97,1.7 L97,17.3 C97.1,17.9 96.6,18.2 96.1,18.2 Z" id="Shape"></path>
            <path d="M102.8,18.2 C102.3,18.2 101.9,17.9 101.9,17.3 L101.9,1.7 C101.9,1.1 102.4,0.8 102.8,0.8 C103.3,0.8 103.7,1.1 103.7,1.7 L103.7,17.3 C103.7,17.9 103.2,18.2 102.8,18.2 Z" id="Shape"></path>
            <path d="M117,18.2 C116.6,18.2 116.1,18.2 115.7,17.4 L110.3,5.1 L110.3,17.3 C110.3,17.9 109.8,18.2 109.4,18.2 C108.9,18.2 108.5,17.9 108.5,17.3 L108.5,1.7 C108.5,1 109,0.7 109.6,0.7 C110.2,0.7 110.6,0.8 110.9,1.5 L116.3,13.8 L116.3,1.6 C116.3,1 116.8,0.7 117.3,0.7 C117.8,0.7 118.2,1 118.2,1.6 L118.2,17 C118.1,17.9 117.6,18.2 117,18.2 Z" id="Shape"></path>
            <path d="M127.2,18.2 L127,18.2 C124.4,18.2 122.3,16.1 122.3,13.5 L122.3,5.5 C122.3,2.9 124.4,0.8 127,0.8 L127.2,0.8 C129.6,0.8 131.6,2.5 131.9,4.9 L131.9,5 C131.9,5.6 131.4,5.9 131,5.9 C130.6,5.9 130.2,5.7 130.1,5.1 C129.8,3.7 128.9,2.7 127.3,2.7 L127.1,2.7 C125.5,2.7 124.3,4 124.3,5.5 L124.3,13.6 C124.3,15.2 125.6,16.4 127.1,16.4 L127.3,16.4 C128.9,16.4 130.1,15.1 130.1,13.6 L130.1,10.7 L127.5,10.7 C126.9,10.7 126.6,10.2 126.6,9.8 C126.6,9.3 126.9,8.9 127.5,8.9 L131.1,8.9 C131.6,8.9 132,9.3 132,9.8 L132,13.7 C131.9,16.1 129.8,18.2 127.2,18.2 Z" id="Shape"></path>
        </g>
    </g>
</svg>