<?xml version="1.0" encoding="UTF-8"?>
<svg width="146px" height="19px" viewBox="0 0 146 19" version="1.1" xmlns="http://www.w3.org/2000/svg" xmlns:xlink="http://www.w3.org/1999/xlink">
    <!-- Generator: Sketch 49.3 (51167) - http://www.bohemiancoding.com/sketch -->
    <title>2</title>
    <desc>Created with Sketch.</desc>
    <defs></defs>
    <g id="Page-1" stroke="none" stroke-width="1" fill="none" fill-rule="evenodd">
        <g id="2" fill="#000000" fill-rule="nonzero">
            <path d="M7.7,18.4 L1.3,18.4 C0.2,18.4 0.1,17.1 0.5,16.4 L6.1,6.9 C6.6,6.1 6.6,5.8 6.6,5.3 L6.6,5.2 C6.6,4 5.8,3 4.5,3 L4.4,3 C3.2,3 2.3,3.9 2.3,5.1 L2.3,5.4 C2.3,6 1.8,6.3 1.4,6.3 C0.9,6.3 0.4,6 0.4,5.4 L0.4,5 C0.4,2.8 2.2,1 4.4,1 L4.5,1 C6.7,1 8.5,2.7 8.5,5 L8.5,5.2 C8.5,5.9 8.4,6.7 7.9,7.7 L2.7,16.5 L7.7,16.5 C8.3,16.5 8.7,17 8.7,17.4 C8.7,17.9 8.3,18.4 7.7,18.4 Z" id="Shape"></path>
            <path d="M12.6,18.5 C12.1,18.5 11.7,18.2 11.7,17.6 L11.7,17 C11.7,16.4 12.2,16.1 12.6,16.1 C13,16.1 13.5,16.4 13.5,17 L13.5,17.5 C13.6,18.2 13.1,18.5 12.6,18.5 Z" id="Shape"></path>
            <path d="M35.2,18.5 C34.8,18.5 34.5,18.3 34.3,17.9 L33.2,14.3 L27.1,14.3 L26,17.9 C25.9,18.4 25.5,18.5 25.1,18.5 C24.5,18.5 24.1,18.1 24.1,17.6 C24.1,17.5 24.1,17.4 24.1,17.3 L28.9,1.7 C29,1.2 29.5,1 30,1 C30.5,1 31,1.2 31.1,1.7 L35.9,17.3 C35.9,17.4 35.9,17.5 35.9,17.6 C36.2,18.1 35.8,18.5 35.2,18.5 Z M30.2,4.4 L27.7,12.4 L32.6,12.4 L30.2,4.4 Z" id="Shape"></path>
            <path d="M51.9,17.8 C51.8,18.2 51.6,18.5 51,18.5 L50.6,18.5 C50.1,18.5 49.8,18.1 49.7,17.8 L46.7,5 L43.7,17.8 C43.6,18.2 43.3,18.5 42.8,18.5 L42.4,18.5 C41.9,18.5 41.6,18.2 41.5,17.8 L38.2,2.2 C38.1,1.6 38.5,1.1 39.1,1.1 C39.5,1.1 39.9,1.3 40,1.8 L42.7,14.3 L45.6,1.7 C45.7,1.3 46,1 46.5,1 L46.9,1 C47.4,1 47.7,1.3 47.8,1.7 L50.7,14.3 L53.4,1.8 C53.5,1.3 53.9,1.1 54.3,1.1 C55,1.1 55.4,1.6 55.2,2.2 L51.9,17.8 Z" id="Shape"></path>
            <path d="M68,18.5 C67.6,18.5 67.3,18.3 67.1,17.9 L66,14.3 L59.9,14.3 L58.8,17.9 C58.7,18.4 58.3,18.5 57.9,18.5 C57.3,18.5 56.9,18.1 56.9,17.6 C56.9,17.5 56.9,17.4 56.9,17.3 L61.8,1.7 C61.9,1.2 62.4,1 62.9,1 C63.4,1 63.9,1.2 64,1.7 L68.9,17.3 C68.9,17.4 68.9,17.5 68.9,17.6 C69,18.1 68.6,18.5 68,18.5 Z M63,4.4 L60.5,12.4 L65.4,12.4 L63,4.4 Z" id="Shape"></path>
            <path d="M78.4,10.7 L81.5,17.1 C81.6,17.2 81.6,17.4 81.6,17.5 C81.6,18 81.2,18.4 80.6,18.4 C80.3,18.4 80,18.3 79.8,17.9 L76.4,10.8 L73.9,10.8 L73.9,17.5 C73.9,18.1 73.4,18.4 73,18.4 C72.5,18.4 72.1,18.1 72.1,17.5 L72.1,2.1 C72.1,1.6 72.5,1.2 73,1.2 L77.2,1.2 C79.8,1.2 81.9,3.3 81.9,5.9 L81.9,6.1 C81.8,8.3 80.5,10.1 78.4,10.7 Z M80,5.9 C80,4.3 78.7,3.1 77.2,3.1 L74,3.1 L74,9 L77.3,9 C78.9,9 80,7.7 80,6.2 L80,5.9 Z" id="Shape"></path>
            <path d="M94.1,18.4 L86.3,18.4 C85.8,18.4 85.4,18 85.4,17.5 L85.4,2.2 C85.4,1.7 85.8,1.3 86.3,1.3 L94.1,1.3 C94.8,1.3 95,1.8 95,2.2 C95,2.6 94.7,3.1 94.1,3.1 L87.3,3.1 L87.3,8.6 L92.1,8.6 C92.7,8.6 93,9.1 93,9.5 C93,9.9 92.7,10.4 92.1,10.4 L87.3,10.4 L87.3,16.4 L94.1,16.4 C94.8,16.4 95,16.9 95,17.3 C95,17.9 94.7,18.4 94.1,18.4 Z" id="Shape"></path>
            <path d="M106.6,18.5 C106.2,18.5 105.7,18.5 105.3,17.7 L99.9,5.4 L99.9,17.6 C99.9,18.2 99.4,18.5 99,18.5 C98.6,18.5 98.1,18.2 98.1,17.6 L98.1,2 C98.1,1.3 98.6,1 99.2,1 C99.8,1 100.2,1.1 100.5,1.8 L105.9,14.1 L105.9,2 C105.9,1.4 106.4,1.1 106.9,1.1 C107.4,1.1 107.8,1.4 107.8,2 L107.8,17.4 C107.7,18.2 107.2,18.5 106.6,18.5 Z" id="Shape"></path>
            <path d="M120.9,18.4 L113.1,18.4 C112.6,18.4 112.2,18 112.2,17.5 L112.2,2.2 C112.2,1.7 112.6,1.3 113.1,1.3 L120.9,1.3 C121.6,1.3 121.8,1.8 121.8,2.2 C121.8,2.6 121.5,3.1 120.9,3.1 L114,3.1 L114,8.6 L118.8,8.6 C119.4,8.6 119.7,9.1 119.7,9.5 C119.7,9.9 119.4,10.4 118.8,10.4 L114,10.4 L114,16.4 L120.8,16.4 C121.5,16.4 121.7,16.9 121.7,17.3 C121.8,17.9 121.5,18.4 120.9,18.4 Z" id="Shape"></path>
            <path d="M129,18.5 L128.8,18.5 C126.2,18.5 123.9,16.9 123.9,13.9 C123.9,13.3 124.4,13 124.8,13 C125.3,13 125.7,13.3 125.7,13.9 C125.7,15.7 127.1,16.6 128.8,16.6 L129,16.6 C131,16.6 131.8,15.6 131.8,13.8 C131.8,11.8 130.4,11.2 128.8,10.3 C126.4,9 124,8.4 124,5.2 C124,2.8 126.1,0.9 128.7,0.9 L128.9,0.9 C131.3,0.9 133.4,2.6 133.4,4.9 C133.4,5.5 133,5.8 132.5,5.8 C132,5.8 131.6,5.5 131.5,4.9 C131.4,3.7 130.3,2.8 128.8,2.8 L128.6,2.8 C126.5,2.8 125.9,4.3 125.9,5.2 C125.9,7 127.4,7.6 128.8,8.3 C131.3,9.6 133.6,10.4 133.6,13.8 C133.7,16.7 132,18.5 129,18.5 Z" id="Shape"></path>
            <path d="M141.3,18.5 L141.1,18.5 C138.5,18.5 136.2,16.9 136.2,13.9 C136.2,13.3 136.7,13 137.1,13 C137.5,13 138,13.3 138,13.9 C138,15.7 139.4,16.6 141.1,16.6 L141.3,16.6 C143.3,16.6 144.1,15.6 144.1,13.8 C144.1,11.8 142.7,11.2 141.1,10.3 C138.7,9 136.3,8.4 136.3,5.2 C136.3,2.8 138.4,0.9 141,0.9 L141.2,0.9 C143.6,0.9 145.7,2.6 145.7,4.9 C145.7,5.5 145.3,5.8 144.8,5.8 C144.3,5.8 143.9,5.5 143.8,4.9 C143.7,3.7 142.6,2.8 141.1,2.8 L140.9,2.8 C138.8,2.8 138.2,4.3 138.2,5.2 C138.2,7 139.7,7.6 141.1,8.3 C143.6,9.6 146,10.4 146,13.8 C146.1,16.7 144.3,18.5 141.3,18.5 Z" id="Shape"></path>
        </g>
    </g>
</svg>