<?xml version="1.0" encoding="UTF-8"?>
<svg width="104px" height="18px" viewBox="0 0 104 18" version="1.1" xmlns="http://www.w3.org/2000/svg" xmlns:xlink="http://www.w3.org/1999/xlink">
    <!-- Generator: Sketch 49.3 (51167) - http://www.bohemiancoding.com/sketch -->
    <title>3</title>
    <desc>Created with Sketch.</desc>
    <defs></defs>
    <g id="Page-1" stroke="none" stroke-width="1" fill="none" fill-rule="evenodd">
        <g id="3" fill="#000000" fill-rule="nonzero">
            <path d="M4.7,17.8 L4.2,17.8 C2,17.8 0.2,16.1 0.2,13.8 C0.2,13.1 0.7,12.9 1.1,12.9 C1.5,12.9 2,13.2 2,13.8 C2,15 2.9,15.9 4.1,15.9 L4.6,15.9 C5.8,15.9 6.7,15 6.7,13.8 L6.7,12.1 C6.7,9.7 5.8,9.4 3.8,9.4 C3.1,9.4 2.8,8.9 2.8,8.5 C2.8,8.1 3.1,7.6 3.8,7.6 C5.1,7.6 6.7,7.5 6.7,5 L6.7,4.4 C6.7,3 5.6,2.3 4.4,2.3 C3.3,2.3 2.2,3 2.2,4.4 C2.2,5 1.7,5.3 1.3,5.3 C0.8,5.3 0.4,5 0.4,4.4 C0.4,1.7 2.5,0.4 4.5,0.4 C6.6,0.4 8.7,1.7 8.7,4.4 L8.7,5 C8.7,6.8 8.1,7.9 7.3,8.6 C8.2,9.3 8.7,10.5 8.7,12.3 L8.7,14 C8.7,16 6.9,17.8 4.7,17.8 Z" id="Shape"></path>
            <path d="M12.6,17.8 C12.1,17.8 11.7,17.5 11.7,16.9 L11.7,16.4 C11.7,15.8 12.2,15.5 12.6,15.5 C13,15.5 13.5,15.8 13.5,16.4 L13.5,16.9 C13.6,17.5 13.1,17.8 12.6,17.8 Z" id="Shape"></path>
            <path d="M37.3,17.8 C36.8,17.8 36.4,17.5 36.4,16.9 L36.4,4.7 L33.1,12.2 C32.9,12.7 32.5,12.8 32.1,12.8 C31.6,12.8 31.2,12.6 31,12.2 L27.6,4.7 L27.6,16.9 C27.6,17.5 27.1,17.8 26.7,17.8 C26.2,17.8 25.8,17.5 25.8,16.9 L25.8,1.5 C25.8,0.8 26,0.4 26.9,0.4 L27,0.4 C27.7,0.4 27.9,0.7 28.1,1.1 L32.1,10 L36.1,1.1 C36.3,0.7 36.5,0.4 37.2,0.4 L37.3,0.4 C38.2,0.4 38.4,0.8 38.4,1.5 L38.4,16.9 C38.2,17.5 37.7,17.8 37.3,17.8 Z" id="Shape"></path>
            <path d="M47.3,17.8 L47,17.8 C44.4,17.8 42.3,15.7 42.3,13.1 L42.3,5 C42.3,2.4 44.4,0.3 47,0.3 L47.2,0.3 C49.8,0.3 51.9,2.4 51.9,5 L51.9,13.1 C52,15.7 49.9,17.8 47.3,17.8 Z M50.1,5 C50.1,3.4 48.9,2.2 47.3,2.2 L47,2.2 C45.4,2.2 44.2,3.5 44.2,5 L44.2,13.1 C44.2,14.7 45.5,15.9 47,15.9 L47.2,15.9 C48.8,15.9 50,14.6 50,13.1 L50,5 L50.1,5 Z" id="Shape"></path>
            <path d="M64.7,1.5 L60.8,17.1 C60.7,17.6 60.3,17.8 59.8,17.8 C59.4,17.8 58.9,17.6 58.8,17.1 L54.9,1.5 C54.9,1.4 54.9,1.4 54.9,1.3 C54.9,0.8 55.3,0.4 55.9,0.4 C56.3,0.4 56.7,0.6 56.8,1.1 L59.9,14.1 L63,1.1 C63.1,0.6 63.5,0.4 63.9,0.4 C64.5,0.4 64.9,0.8 64.9,1.3 C64.7,1.2 64.7,1.3 64.7,1.5 Z" id="Shape"></path>
            <path d="M76.6,17.8 C76.2,17.8 75.7,17.8 75.3,17 L69.9,4.7 L69.9,16.9 C69.9,17.5 69.4,17.8 69,17.8 C68.6,17.8 68.1,17.5 68.1,16.9 L68.1,1.3 C68.1,0.6 68.6,0.3 69.2,0.3 C69.8,0.3 70.2,0.4 70.5,1.1 L75.9,13.4 L75.9,1.2 C75.9,0.6 76.4,0.3 76.9,0.3 C77.4,0.3 77.8,0.6 77.8,1.2 L77.8,16.6 C77.6,17.5 77.1,17.8 76.6,17.8 Z" id="Shape"></path>
            <path d="M91.7,17.8 C91.3,17.8 91,17.6 90.8,17.2 L89.7,13.6 L83.6,13.6 L82.5,17.2 C82.4,17.7 82,17.8 81.6,17.8 C81,17.8 80.6,17.4 80.6,16.9 C80.6,16.8 80.6,16.7 80.6,16.6 L85.4,1 C85.5,0.5 86,0.3 86.5,0.3 C87,0.3 87.5,0.5 87.6,1 L92.4,16.6 C92.4,16.7 92.4,16.8 92.4,16.9 C92.7,17.4 92.3,17.8 91.7,17.8 Z M86.6,3.7 L84.1,11.7 L89,11.7 L86.6,3.7 Z" id="Shape"></path>
            <path d="M102.1,2.3 L99.4,2.3 L99.4,16.8 C99.4,17.4 98.9,17.7 98.5,17.7 C98.1,17.7 97.6,17.4 97.6,16.8 L97.6,2.3 L94.9,2.3 C94.3,2.3 94,1.8 94,1.4 C94,1 94.3,0.5 94.9,0.5 L102.3,0.5 C102.9,0.5 103.2,1 103.2,1.4 C103.2,1.8 102.7,2.3 102.1,2.3 Z" id="Shape"></path>
        </g>
    </g>
</svg>