<?xml version="1.0" encoding="UTF-8"?>
<svg width="144px" height="48px" viewBox="0 0 144 48" version="1.1" xmlns="http://www.w3.org/2000/svg" xmlns:xlink="http://www.w3.org/1999/xlink">
    <!-- Generator: Sketch 49.3 (51167) - http://www.bohemiancoding.com/sketch -->
    <title>4</title>
    <desc>Created with Sketch.</desc>
    <defs></defs>
    <g id="Page-1" stroke="none" stroke-width="1" fill="none" fill-rule="evenodd">
        <g id="4" fill="#000000" fill-rule="nonzero">
            <path d="M8.8,13.5 L7.7,13.5 L7.7,16.6 C7.7,17.2 7.2,17.5 6.8,17.5 C6.3,17.5 5.9,17.2 5.9,16.6 L5.9,13.5 L1.5,13.5 C0.8,13.5 0.4,13 0.4,12.4 C0.4,12.2 0.4,12.1 0.5,11.9 L5.4,0.6 C5.6,0.2 5.8,-5.68434189e-14 6.2,-5.68434189e-14 C6.8,-5.68434189e-14 7.2,0.4 7.2,0.9 C7.2,1 7.2,1.2 7.1,1.3 L2.5,11.6 L5.8,11.6 L5.8,9.6 C5.8,8.9 6.3,8.7 6.7,8.7 C7.1,8.7 7.6,9 7.6,9.6 L7.6,11.6 L8.7,11.6 C9.4,11.6 9.7,12.1 9.7,12.5 C9.7,12.9 9.4,13.5 8.8,13.5 Z" id="Shape"></path>
            <path d="M13.1,17.5 C12.6,17.5 12.2,17.2 12.2,16.6 L12.2,16 C12.2,15.4 12.7,15.1 13.1,15.1 C13.5,15.1 14,15.4 14,16 L14,16.5 C14.1,17.2 13.6,17.5 13.1,17.5 Z" id="Shape"></path>
            <g id="Group" transform="translate(25.000000, 0.000000)">
                <path d="M5.7,17.5 L5.5,17.5 C2.9,17.5 0.8,15.4 0.8,12.8 L0.8,4.7 C0.8,2.1 2.9,0 5.5,0 L5.7,0 C8.1,0 10.1,1.7 10.4,4.1 L10.4,4.2 C10.4,4.8 10,5.1 9.5,5.1 C9.1,5.1 8.7,4.9 8.6,4.3 C8.3,2.9 7.2,1.9 5.8,1.9 L5.6,1.9 C4,1.9 2.8,3.2 2.8,4.7 L2.8,12.8 C2.8,14.4 4.1,15.6 5.6,15.6 L5.8,15.6 C7.2,15.6 8.3,14.6 8.6,13.2 C8.7,12.6 9.1,12.4 9.5,12.4 C10,12.4 10.4,12.7 10.4,13.3 L10.4,13.5 C10.1,15.8 8.1,17.5 5.7,17.5 Z" id="Shape"></path>
                <path d="M18.2,17.5 L18,17.5 C15.4,17.5 13.3,15.4 13.3,12.8 L13.3,4.7 C13.3,2.1 15.4,0 18,0 L18.2,0 C20.8,0 22.9,2.1 22.9,4.7 L22.9,12.8 C22.9,15.5 20.8,17.5 18.2,17.5 Z M21.1,4.8 C21.1,3.2 19.9,2 18.3,2 L18,2 C16.4,2 15.2,3.3 15.2,4.8 L15.2,12.9 C15.2,14.5 16.5,15.7 18,15.7 L18.2,15.7 C19.8,15.7 21,14.4 21,12.9 L21,4.8 L21.1,4.8 Z" id="Shape"></path>
                <path d="M38.7,17.5 C38.2,17.5 37.8,17.2 37.8,16.6 L37.8,4.4 L34.5,11.9 C34.3,12.4 33.9,12.5 33.5,12.5 C33,12.5 32.6,12.3 32.4,11.9 L29,4.4 L29,16.6 C29,17.2 28.5,17.5 28.1,17.5 C27.6,17.5 27.2,17.2 27.2,16.6 L27.2,1.2 C27.2,0.5 27.4,0.1 28.3,0.1 L28.4,0.1 C29.1,0.1 29.3,0.4 29.5,0.8 L33.5,9.7 L37.5,0.8 C37.7,0.4 37.9,0.1 38.6,0.1 L38.7,0.1 C39.6,0.1 39.8,0.5 39.8,1.2 L39.8,16.6 C39.6,17.2 39.1,17.5 38.7,17.5 Z" id="Shape"></path>
                <path d="M49,9.6 L46,9.6 L46,16.6 C46,17.2 45.5,17.5 45.1,17.5 C44.7,17.5 44.2,17.2 44.2,16.6 L44.2,1.2 C44.2,0.7 44.6,0.3 45.1,0.3 L49.1,0.3 C51.7,0.3 53.8,2.4 53.8,5 C53.8,7.5 51.6,9.6 49,9.6 Z M49,2.1 L46,2.1 L46,7.7 L49.1,7.7 C50.7,7.7 51.9,6.4 51.9,4.9 C51.9,3.4 50.6,2.1 49,2.1 Z" id="Shape"></path>
                <path d="M64.4,17.4 L57.6,17.4 C57.1,17.4 56.7,17 56.7,16.5 L56.7,1 C56.7,0.4 57.2,0.1 57.6,0.1 C58,0.1 58.5,0.4 58.5,1 L58.5,15.5 L64.3,15.5 C64.9,15.5 65.2,16 65.2,16.4 C65.3,16.9 65,17.4 64.4,17.4 Z" id="Shape"></path>
                <path d="M77,17.4 L69.2,17.4 C68.7,17.4 68.3,17 68.3,16.5 L68.3,1.2 C68.3,0.7 68.7,0.3 69.2,0.3 L77,0.3 C77.7,0.3 77.9,0.8 77.9,1.2 C77.9,1.6 77.6,2.1 77,2.1 L70.2,2.1 L70.2,7.6 L75,7.6 C75.6,7.6 75.9,8.1 75.9,8.5 C75.9,8.9 75.6,9.4 75,9.4 L70.2,9.4 L70.2,15.4 L77,15.4 C77.7,15.4 77.9,15.9 77.9,16.3 C78,16.9 77.7,17.4 77,17.4 Z" id="Shape"></path>
                <path d="M88.9,17.5 C88.5,17.5 88.3,17.3 88.1,17 L84.9,10.6 L81.7,17 C81.5,17.4 81.2,17.5 80.9,17.5 C80.1,17.5 79.7,16.8 80,16.2 L83.8,8.5 L80.3,1.4 C80,0.7 80.4,0 81.2,0 C81.5,0 81.8,0.1 82,0.5 L84.9,6.3 L87.8,0.5 C88,0.1 88.3,0 88.6,0 C89.4,0 89.8,0.7 89.5,1.4 L86,8.5 L89.8,16.2 C90.1,16.8 89.7,17.5 88.9,17.5 Z" id="Shape"></path>
            </g>
            <g id="Group" transform="translate(25.000000, 29.000000)">
                <path d="M12.4,18.4 C11.9,18.4 11.5,18.1 11.5,17.5 L11.5,5.3 L8.2,12.8 C8,13.3 7.6,13.4 7.2,13.4 C6.7,13.4 6.3,13.2 6.1,12.8 L2.7,5.3 L2.7,17.5 C2.7,18.1 2.2,18.4 1.8,18.4 C1.4,18.4 0.9,18.1 0.9,17.5 L0.9,2 C0.9,1.3 1.1,0.9 2,0.9 L2.1,0.9 C2.8,0.9 3,1.2 3.2,1.6 L7.2,10.5 L11.2,1.6 C11.4,1.2 11.6,0.9 12.3,0.9 L12.4,0.9 C13.3,0.9 13.5,1.3 13.5,2 L13.5,17.4 C13.3,18.1 12.9,18.4 12.4,18.4 Z" id="Shape"></path>
                <path d="M22.4,18.4 L22.2,18.4 C19.6,18.4 17.5,16.3 17.5,13.7 L17.5,5.6 C17.5,3 19.6,0.9 22.2,0.9 L22.4,0.9 C25,0.9 27.1,3 27.1,5.6 L27.1,13.7 C27.1,16.3 25,18.4 22.4,18.4 Z M25.2,5.6 C25.2,4 24,2.8 22.4,2.8 L22.2,2.8 C20.6,2.8 19.4,4.1 19.4,5.6 L19.4,13.7 C19.4,15.3 20.7,16.5 22.2,16.5 L22.4,16.5 C24,16.5 25.2,15.2 25.2,13.7 L25.2,5.6 Z" id="Shape"></path>
                <path d="M39.8,2.1 L35.9,17.7 C35.8,18.2 35.4,18.4 34.9,18.4 C34.5,18.4 34,18.2 33.9,17.7 L30,2.1 C30,2 30,2 30,1.9 C30,1.4 30.4,1 31,1 C31.4,1 31.8,1.2 31.9,1.7 L35,14.7 L38.1,1.7 C38.2,1.2 38.6,1 39,1 C39.6,1 40,1.4 40,1.9 C39.8,1.8 39.8,1.9 39.8,2.1 Z" id="Shape"></path>
                <path d="M51.8,18.2 L44,18.2 C43.5,18.2 43.1,17.8 43.1,17.3 L43.1,2 C43.1,1.5 43.5,1.1 44,1.1 L51.8,1.1 C52.5,1.1 52.7,1.6 52.7,2 C52.7,2.4 52.4,2.9 51.8,2.9 L45,2.9 L45,8.4 L49.8,8.4 C50.4,8.4 50.7,8.9 50.7,9.3 C50.7,9.7 50.4,10.2 49.8,10.2 L45,10.2 L45,16.2 L51.8,16.2 C52.5,16.2 52.7,16.7 52.7,17.1 C52.7,17.8 52.5,18.2 51.8,18.2 Z" id="Shape"></path>
                <path d="M67.3,18.4 C66.8,18.4 66.4,18.1 66.4,17.5 L66.4,5.3 L63.1,12.8 C62.9,13.3 62.5,13.4 62.1,13.4 C61.6,13.4 61.2,13.2 61,12.8 L57.6,5.3 L57.6,17.5 C57.6,18.1 57.1,18.4 56.7,18.4 C56.2,18.4 55.8,18.1 55.8,17.5 L55.8,2 C55.8,1.3 56,0.9 56.9,0.9 L57,0.9 C57.7,0.9 57.9,1.2 58.1,1.6 L62.1,10.5 L66.1,1.6 C66.3,1.2 66.5,0.9 67.2,0.9 L67.3,0.9 C68.2,0.9 68.4,1.3 68.4,2 L68.4,17.4 C68.3,18.1 67.8,18.4 67.3,18.4 Z" id="Shape"></path>
                <path d="M81.5,18.2 L73.7,18.2 C73.2,18.2 72.8,17.8 72.8,17.3 L72.8,2 C72.8,1.5 73.2,1.1 73.7,1.1 L81.5,1.1 C82.2,1.1 82.4,1.6 82.4,2 C82.4,2.4 82.1,2.9 81.5,2.9 L74.7,2.9 L74.7,8.4 L79.5,8.4 C80.1,8.4 80.4,8.9 80.4,9.3 C80.4,9.7 80.1,10.2 79.5,10.2 L74.7,10.2 L74.7,16.2 L81.5,16.2 C82.2,16.2 82.4,16.7 82.4,17.1 C82.4,17.8 82.2,18.2 81.5,18.2 Z" id="Shape"></path>
                <path d="M94,18.4 C93.6,18.4 93.1,18.4 92.7,17.6 L87.3,5.3 L87.3,17.5 C87.3,18.1 86.8,18.4 86.4,18.4 C86,18.4 85.5,18.1 85.5,17.5 L85.5,1.9 C85.5,1.2 86,0.9 86.6,0.9 C87.2,0.9 87.6,1 87.9,1.7 L93.3,14 L93.3,1.8 C93.3,1.2 93.8,0.9 94.3,0.9 C94.8,0.9 95.2,1.2 95.2,1.8 L95.2,17.2 C95.1,18.1 94.6,18.4 94,18.4 Z" id="Shape"></path>
                <path d="M106,2.9 L103.3,2.9 L103.3,17.4 C103.3,18 102.8,18.3 102.4,18.3 C102,18.3 101.5,18 101.5,17.4 L101.5,2.9 L98.8,2.9 C98.2,2.9 97.9,2.4 97.9,2 C97.9,1.6 98.2,1.1 98.8,1.1 L106.2,1.1 C106.8,1.1 107.1,1.6 107.1,2 C107.1,2.4 106.6,2.9 106,2.9 Z" id="Shape"></path>
                <path d="M113.7,18.4 L113.5,18.4 C110.9,18.4 108.6,16.8 108.6,13.8 C108.6,13.2 109.1,12.9 109.5,12.9 C109.9,12.9 110.4,13.2 110.4,13.8 C110.4,15.6 111.8,16.5 113.5,16.5 L113.7,16.5 C115.7,16.5 116.5,15.5 116.5,13.7 C116.5,11.7 115.1,11.1 113.5,10.2 C111.1,8.9 108.7,8.3 108.7,5.1 C108.7,2.7 110.8,0.8 113.4,0.8 L113.6,0.8 C116,0.8 118.1,2.5 118.1,4.8 C118.1,5.4 117.7,5.7 117.2,5.7 C116.7,5.7 116.3,5.4 116.2,4.8 C116.1,3.6 115,2.7 113.5,2.7 L113.3,2.7 C111.2,2.7 110.6,4.2 110.6,5.1 C110.6,6.9 112.1,7.5 113.5,8.2 C116,9.5 118.4,10.3 118.4,13.7 C118.5,16.6 116.7,18.4 113.7,18.4 Z" id="Shape"></path>
            </g>
        </g>
    </g>
</svg>