<?xml version="1.0" encoding="UTF-8"?>
<svg width="120px" height="48px" viewBox="0 0 120 48" version="1.1" xmlns="http://www.w3.org/2000/svg" xmlns:xlink="http://www.w3.org/1999/xlink">
    <!-- Generator: Sketch 56.3 (81716) - https://sketch.com -->
    <title>4 Flow movements_Zeichenfläche 1</title>
    <desc>Created with Sketch.</desc>
    <g id="Page-1" stroke="none" stroke-width="1" fill="none" fill-rule="evenodd">
        <g id="4-Flow-movements_Zeichenfläche-1" fill="#000000" fill-rule="nonzero">
            <path d="M9.2,13.9 L8,13.9 L8,17 C8,17.6 7.5,17.9 7.1,17.9 C6.6,17.9 6.2,17.6 6.2,17 L6.2,13.9 L1.7,13.9 C1,13.9 0.6,13.4 0.6,12.8 C0.6,12.6 0.6,12.5 0.7,12.3 L5.6,1 C5.8,0.6 6,0.4 6.4,0.4 C7,0.4 7.4,0.8 7.4,1.3 C7.4,1.4 7.4,1.6 7.3,1.7 L2.8,12 L6.1,12 L6.1,10 C6.1,9.3 6.6,9.1 7,9.1 C7.4,9.1 8,9.3 8,10 L8,12 L9.1,12 C9.8,12 10.1,12.5 10.1,12.9 C10.1,13.3 9.8,13.9 9.2,13.9 Z" id="Path"></path>
            <path d="M13.5,17.8 C13,17.8 12.6,17.5 12.6,16.9 L12.6,16.4 C12.6,15.8 13.1,15.5 13.5,15.5 C13.9,15.5 14.4,15.8 14.4,16.4 L14.4,16.9 C14.5,17.5 14,17.8 13.5,17.8 Z" id="Path"></path>
            <path d="M35.3,2.4 L28.5,2.4 L28.5,7.9 L33.3,7.9 C33.9,7.9 34.2,8.4 34.2,8.8 C34.2,9.2 33.9,9.7 33.3,9.7 L28.5,9.7 L28.5,16.8 C28.5,17.4 28,17.7 27.6,17.7 C27.1,17.7 26.7,17.4 26.7,16.8 L26.7,1.5 C26.7,1 27.1,0.6 27.6,0.6 L35.4,0.6 C36.1,0.6 36.3,1.1 36.3,1.5 C36.3,1.9 35.9,2.4 35.3,2.4 Z" id="Path"></path>
            <path d="M46.2,17.7 L39.4,17.7 C38.9,17.7 38.5,17.3 38.5,16.8 L38.5,1.3 C38.5,0.7 39,0.4 39.4,0.4 C39.9,0.4 40.3,0.7 40.3,1.3 L40.3,15.8 L46.1,15.8 C46.7,15.8 47,16.3 47,16.7 C47.1,17.2 46.8,17.7 46.2,17.7 Z" id="Path"></path>
            <path d="M54.7,17.8 L54.5,17.8 C51.9,17.8 49.8,15.7 49.8,13.1 L49.8,5 C49.8,2.4 51.9,0.3 54.5,0.3 L54.7,0.3 C57.3,0.3 59.4,2.4 59.4,5 L59.4,13.1 C59.4,15.8 57.3,17.8 54.7,17.8 Z M57.5,5.1 C57.5,3.5 56.3,2.3 54.7,2.3 L54.5,2.3 C52.9,2.3 51.7,3.6 51.7,5.1 L51.7,13.2 C51.7,14.8 53,16 54.5,16 L54.7,16 C56.3,16 57.5,14.7 57.5,13.2 L57.5,5.1 Z" id="Shape"></path>
            <path d="M76.2,17.1 C76.1,17.5 75.9,17.8 75.3,17.8 L74.9,17.8 C74.4,17.8 74.1,17.4 74,17.1 L71,4.3 L68,17.1 C67.9,17.5 67.6,17.8 67.1,17.8 L66.7,17.8 C66.2,17.8 65.9,17.5 65.8,17.1 L62.3,1.5 C62.2,0.9 62.6,0.4 63.2,0.4 C63.6,0.4 64,0.6 64.1,1.1 L66.8,13.6 L69.7,1 C69.8,0.6 70.1,0.3 70.6,0.3 L71,0.3 C71.5,0.3 71.8,0.6 71.9,1 L75,13.6 L77.7,1.1 C77.8,0.6 78.2,0.4 78.6,0.4 C79.3,0.4 79.7,0.9 79.5,1.5 L76.2,17.1 Z" id="Path"></path>
            <path d="M13.2,47.7 C12.7,47.7 12.3,47.4 12.3,46.8 L12.3,34.6 L9,42.1 C8.8,42.6 8.4,42.7 8,42.7 C7.5,42.7 7.1,42.5 6.9,42.1 L3.5,34.6 L3.5,46.8 C3.5,47.4 3,47.7 2.6,47.7 C2.1,47.7 1.7,47.4 1.7,46.8 L1.7,31.3 C1.7,30.6 1.9,30.2 2.8,30.2 L2.9,30.2 C3.6,30.2 3.8,30.5 4,30.9 L8,39.8 L12,30.9 C12.2,30.5 12.4,30.2 13.1,30.2 L13.2,30.2 C14.1,30.2 14.3,30.6 14.3,31.3 L14.3,46.7 C14.2,47.4 13.7,47.7 13.2,47.7 Z" id="Path"></path>
            <path d="M23.3,47.7 L23,47.7 C20.4,47.7 18.3,45.6 18.3,43 L18.3,34.9 C18.3,32.3 20.4,30.2 23,30.2 L23.2,30.2 C25.8,30.2 27.9,32.3 27.9,34.9 L27.9,43 C28,45.6 25.9,47.7 23.3,47.7 Z M26.1,34.9 C26.1,33.3 24.9,32.1 23.3,32.1 L23,32.1 C21.4,32.1 20.2,33.4 20.2,34.9 L20.2,43 C20.2,44.6 21.5,45.8 23,45.8 L23.2,45.8 C24.8,45.8 26,44.5 26,43 L26,34.9 L26.1,34.9 Z" id="Shape"></path>
            <path d="M40.6,31.4 L36.8,47 C36.7,47.5 36.3,47.7 35.8,47.7 C35.4,47.7 34.9,47.5 34.8,47 L30.9,31.4 C30.9,31.3 30.9,31.3 30.9,31.2 C30.9,30.7 31.3,30.3 31.9,30.3 C32.3,30.3 32.7,30.5 32.8,31 L35.9,44 L39,31 C39.1,30.5 39.5,30.3 39.9,30.3 C40.5,30.3 40.9,30.7 40.9,31.2 C40.7,31.2 40.7,31.3 40.6,31.4 Z" id="Path"></path>
            <path d="M52.7,47.6 L44.9,47.6 C44.4,47.6 44,47.2 44,46.7 L44,31.3 C44,30.8 44.4,30.4 44.9,30.4 L52.7,30.4 C53.4,30.4 53.6,30.9 53.6,31.3 C53.6,31.7 53.3,32.2 52.7,32.2 L45.9,32.2 L45.9,37.7 L50.7,37.7 C51.3,37.7 51.6,38.2 51.6,38.6 C51.6,39 51.3,39.5 50.7,39.5 L45.9,39.5 L45.9,45.5 L52.7,45.5 C53.4,45.5 53.6,46 53.6,46.4 C53.6,47.1 53.3,47.6 52.7,47.6 Z" id="Path"></path>
            <path d="M68.2,47.7 C67.7,47.7 67.3,47.4 67.3,46.8 L67.3,34.6 L64,42.1 C63.8,42.6 63.4,42.7 63,42.7 C62.5,42.7 62.1,42.5 61.9,42.1 L58.5,34.6 L58.5,46.8 C58.5,47.4 58,47.7 57.6,47.7 C57.2,47.7 56.7,47.4 56.7,46.8 L56.7,31.3 C56.7,30.6 56.9,30.2 57.8,30.2 L57.9,30.2 C58.6,30.2 58.8,30.5 59,30.9 L63,39.8 L67,30.9 C67.2,30.5 67.4,30.2 68.1,30.2 L68.2,30.2 C69.1,30.2 69.3,30.6 69.3,31.3 L69.3,46.7 C69.1,47.4 68.7,47.7 68.2,47.7 Z" id="Path"></path>
            <path d="M82.4,47.6 L74.6,47.6 C74.1,47.6 73.7,47.2 73.7,46.7 L73.7,31.3 C73.7,30.8 74.1,30.4 74.6,30.4 L82.4,30.4 C83.1,30.4 83.3,30.9 83.3,31.3 C83.3,31.7 83,32.2 82.4,32.2 L75.6,32.2 L75.6,37.7 L80.4,37.7 C81,37.7 81.3,38.2 81.3,38.6 C81.3,39 81,39.5 80.4,39.5 L75.6,39.5 L75.6,45.5 L82.4,45.5 C83.1,45.5 83.3,46 83.3,46.4 C83.3,47.1 83,47.6 82.4,47.6 Z" id="Path"></path>
            <path d="M94.9,47.7 C94.5,47.7 94,47.7 93.6,46.9 L88.2,34.6 L88.2,46.8 C88.2,47.4 87.7,47.7 87.3,47.7 C86.9,47.7 86.4,47.4 86.4,46.8 L86.4,31.2 C86.4,30.5 86.9,30.2 87.5,30.2 C88.1,30.2 88.5,30.3 88.8,31 L94.2,43.3 L94.2,31.2 C94.2,30.6 94.7,30.3 95.2,30.3 C95.7,30.3 96.1,30.6 96.1,31.2 L96.1,46.6 C96,47.4 95.5,47.7 94.9,47.7 Z" id="Path"></path>
            <path d="M106.9,32.3 L104.2,32.3 L104.2,46.8 C104.2,47.4 103.7,47.7 103.3,47.7 C102.8,47.7 102.4,47.4 102.4,46.8 L102.4,32.3 L99.7,32.3 C99.1,32.3 98.8,31.8 98.8,31.4 C98.8,31 99.1,30.5 99.7,30.5 L107.1,30.5 C107.7,30.5 108,31 108,31.4 C108,31.8 107.5,32.3 106.9,32.3 Z" id="Path"></path>
            <path d="M114.6,47.7 L114.4,47.7 C111.8,47.7 109.5,46.1 109.5,43.1 C109.5,42.5 110,42.2 110.4,42.2 C110.8,42.2 111.3,42.5 111.3,43.1 C111.3,44.9 112.7,45.8 114.4,45.8 L114.6,45.8 C116.6,45.8 117.4,44.8 117.4,43 C117.4,41 116,40.4 114.4,39.5 C112,38.2 109.6,37.6 109.6,34.4 C109.6,32 111.7,30.1 114.3,30.1 L114.5,30.1 C116.9,30.1 119,31.8 119,34.1 C119,34.7 118.6,35 118.1,35 C117.6,35 117.2,34.7 117.1,34.1 C117,32.9 115.9,32 114.4,32 L114.2,32 C112.1,32 111.5,33.5 111.5,34.4 C111.5,36.2 113,36.8 114.4,37.5 C116.9,38.8 119.3,39.6 119.3,43 C119.3,45.9 117.6,47.7 114.6,47.7 Z" id="Path"></path>
        </g>
    </g>
</svg>