<?xml version="1.0" encoding="UTF-8"?>
<svg width="120px" height="18px" viewBox="0 0 120 18" version="1.1" xmlns="http://www.w3.org/2000/svg" xmlns:xlink="http://www.w3.org/1999/xlink">
    <!-- Generator: Sketch 56.3 (81716) - https://sketch.com -->
    <title>5 z health_Zeichenfläche 1</title>
    <desc>Created with Sketch.</desc>
    <g id="Page-1" stroke="none" stroke-width="1" fill="none" fill-rule="evenodd">
        <g id="5-z-health_Zeichenfläche-1" fill="#000000" fill-rule="nonzero">
            <path d="M4.6,17.9 L4.3,17.9 C2,17.9 0.4,16.4 0.4,13.7 C0.4,13.1 0.9,12.8 1.3,12.8 C1.8,12.8 2.2,13.1 2.2,13.7 C2.2,15.5 3,16 4.2,16 L4.5,16 C5.7,16 6.6,15.1 6.6,13.9 L6.6,10 C6.6,8.8 5.7,7.9 4.5,7.9 L4.3,7.9 C3.5,7.9 2.9,8.3 2.5,8.9 C2.3,9.3 2,9.4 1.6,9.4 C1.1,9.4 0.6,9.1 0.6,8.4 L0.6,1.5 C0.6,1 1,0.6 1.5,0.6 L7.1,0.6 C7.7,0.6 8.1,1.1 8.1,1.5 C8.1,1.9 7.8,2.4 7.2,2.4 L2.4,2.4 L2.4,6.6 C2.8,6.3 3.6,6 4.3,6 L4.6,6 C6.8,6 8.6,7.8 8.6,10 L8.6,13.9 C8.6,16.2 6.8,17.9 4.6,17.9 Z" id="Path"></path>
            <path d="M12.7,17.9 C12.2,17.9 11.8,17.6 11.8,17 L11.8,16.5 C11.8,15.9 12.3,15.6 12.7,15.6 C13.1,15.6 13.6,15.9 13.6,16.5 L13.6,17 C13.6,17.6 13.1,17.9 12.7,17.9 Z" id="Path"></path>
            <path d="M33,17.8 L25.5,17.8 C24.8,17.8 24.4,17.2 24.4,16.6 C24.4,16.4 24.4,16.2 24.5,16 L31.5,2.5 L25.6,2.5 C24.9,2.5 24.7,2 24.7,1.6 C24.7,1.2 25,0.7 25.6,0.7 L32.7,0.7 C33.6,0.7 34.1,1.6 33.7,2.4 L26.6,16 L33,16 C33.6,16 33.9,16.5 33.9,16.9 C34,17.3 33.6,17.8 33,17.8 Z" id="Path"></path>
            <path d="M43.5,12.1 L37,12.1 C36.4,12.1 36.1,11.6 36.1,11.2 C36.1,10.8 36.4,10.3 37,10.3 L43.5,10.3 C44.2,10.3 44.5,10.8 44.5,11.2 C44.5,11.6 44.2,12.1 43.5,12.1 Z" id="Path"></path>
            <path d="M56.6,17.9 C56.1,17.9 55.7,17.7 55.7,17 L55.7,9.9 L49.8,9.9 L49.8,17 C49.8,17.6 49.3,17.9 48.9,17.9 C48.4,17.9 48,17.6 48,17 L48,1.4 C48,0.8 48.5,0.5 48.9,0.5 C49.4,0.5 49.8,0.8 49.8,1.4 L49.8,8 L55.7,8 L55.7,1.4 C55.7,0.8 56.2,0.5 56.6,0.5 C57,0.5 57.5,0.8 57.5,1.4 L57.5,17 C57.5,17.7 57,17.9 56.6,17.9 Z" id="Path"></path>
            <path d="M70.7,17.8 L62.9,17.8 C62.4,17.8 62,17.4 62,16.9 L62,1.5 C62,1 62.4,0.6 62.9,0.6 L70.7,0.6 C71.4,0.6 71.6,1.1 71.6,1.5 C71.6,1.9 71.3,2.4 70.7,2.4 L63.9,2.4 L63.9,8 L68.7,8 C69.3,8 69.6,8.5 69.6,8.9 C69.6,9.3 69.3,9.8 68.7,9.8 L63.9,9.8 L63.9,15.8 L70.7,15.8 C71.4,15.8 71.6,16.3 71.6,16.7 C71.7,17.3 71.4,17.8 70.7,17.8 Z" id="Path"></path>
            <path d="M84.2,17.9 C83.8,17.9 83.5,17.7 83.3,17.3 L82.2,13.7 L76.1,13.7 L75,17.3 C74.9,17.8 74.5,17.9 74.1,17.9 C73.5,17.9 73.1,17.5 73.1,17 C73.1,16.9 73.1,16.8 73.1,16.7 L78,1.1 C78.1,0.6 78.6,0.4 79.1,0.4 C79.6,0.4 80.1,0.6 80.2,1.1 L85.1,16.7 C85.1,16.8 85.1,16.9 85.1,17 C85.2,17.5 84.8,17.9 84.2,17.9 Z M79.2,3.8 L76.7,11.8 L81.6,11.8 L79.2,3.8 Z" id="Shape"></path>
            <path d="M95.9,17.8 L89.1,17.8 C88.6,17.8 88.2,17.4 88.2,16.9 L88.2,1.4 C88.2,0.8 88.7,0.5 89.1,0.5 C89.6,0.5 90,0.8 90,1.4 L90,15.9 L95.8,15.9 C96.4,15.9 96.7,16.4 96.7,16.8 C96.9,17.3 96.6,17.8 95.9,17.8 Z" id="Path"></path>
            <path d="M106.3,2.5 L103.6,2.5 L103.6,17 C103.6,17.6 103.1,17.9 102.7,17.9 C102.3,17.9 101.8,17.6 101.8,17 L101.8,2.5 L99.1,2.5 C98.5,2.5 98.2,2 98.2,1.6 C98.2,1.2 98.5,0.7 99.1,0.7 L106.5,0.7 C107.1,0.7 107.4,1.2 107.4,1.6 C107.4,2 106.9,2.5 106.3,2.5 Z" id="Path"></path>
            <path d="M118.6,17.9 C118.1,17.9 117.7,17.7 117.7,17 L117.7,9.9 L111.8,9.9 L111.8,17 C111.8,17.6 111.3,17.9 110.9,17.9 C110.4,17.9 110,17.6 110,17 L110,1.4 C110,0.8 110.5,0.5 110.9,0.5 C111.4,0.5 111.8,0.8 111.8,1.4 L111.8,8 L117.7,8 L117.7,1.4 C117.7,0.8 118.2,0.5 118.6,0.5 C119.1,0.5 119.5,0.8 119.5,1.4 L119.5,17 C119.5,17.7 119.1,17.9 118.6,17.9 Z" id="Path"></path>
        </g>
    </g>
</svg>