<?xml version="1.0" encoding="UTF-8"?>
<svg width="131px" height="49px" viewBox="0 0 131 49" version="1.1" xmlns="http://www.w3.org/2000/svg" xmlns:xlink="http://www.w3.org/1999/xlink">
    <!-- Generator: Sketch 49.3 (51167) - http://www.bohemiancoding.com/sketch -->
    <title>5</title>
    <desc>Created with Sketch.</desc>
    <defs></defs>
    <g id="Page-1" stroke="none" stroke-width="1" fill="none" fill-rule="evenodd">
        <g id="5" fill="#000000" fill-rule="nonzero">
            <path d="M5,18.3 L4.7,18.3 C2.4,18.3 0.8,16.8 0.8,14.1 C0.8,13.5 1.3,13.2 1.7,13.2 C2.2,13.2 2.6,13.5 2.6,14.1 C2.6,15.9 3.4,16.4 4.6,16.4 L4.9,16.4 C6.1,16.4 7,15.5 7,14.3 L7,10.4 C7,9.2 6.1,8.3 4.9,8.3 L4.6,8.3 C3.8,8.3 3.2,8.7 2.8,9.3 C2.6,9.7 2.3,9.8 1.9,9.8 C1.4,9.8 0.9,9.5 0.9,8.8 L0.9,1.9 C0.9,1.4 1.3,1 1.8,1 L7.4,1 C8,1 8.4,1.5 8.4,1.9 C8.4,2.3 8.1,2.8 7.5,2.8 L2.8,2.8 L2.8,7 C3.2,6.6 4,6.3 4.6,6.3 L4.9,6.3 C7.1,6.3 8.9,8.1 8.9,10.3 L8.9,14.2 C9.1,16.5 7.3,18.3 5,18.3 Z" id="Shape"></path>
            <path d="M13.1,18.3 C12.6,18.3 12.2,18 12.2,17.4 L12.2,16.9 C12.2,16.3 12.7,16 13.1,16 C13.5,16 14,16.3 14,16.9 L14,17.4 C14.1,18 13.6,18.3 13.1,18.3 Z" id="Shape"></path>
            <g id="Group" transform="translate(26.000000, 0.000000)">
                <path d="M3.5,21.1 L1.5,21.1 C1,21.1 0.6,20.7 0.6,20.2 L0.6,1.8 C0.6,1.3 1,0.9 1.5,0.9 L3.5,0.9 C4.1,0.9 4.4,1.4 4.4,1.8 C4.4,2.2 4.1,2.7 3.5,2.7 L2.5,2.7 L2.5,19.2 L3.5,19.2 C4.1,19.2 4.4,19.7 4.4,20.1 C4.4,20.5 4.2,21.1 3.5,21.1 Z" id="Shape"></path>
                <path d="M16.6,18.3 C16.2,18.3 15.7,18.3 15.3,17.5 L9.9,5.2 L9.9,17.4 C9.9,18 9.4,18.3 9,18.3 C8.5,18.3 8.1,18 8.1,17.4 L8.1,1.8 C8.1,1.1 8.6,0.8 9.2,0.8 C9.8,0.8 10.2,0.9 10.5,1.6 L15.9,13.9 L15.9,1.7 C15.9,1.1 16.4,0.8 16.9,0.8 C17.4,0.8 17.8,1.1 17.8,1.7 L17.8,17.1 C17.6,18 17.1,18.3 16.6,18.3 Z" id="Shape"></path>
                <path d="M30.9,18.2 L23.1,18.2 C22.6,18.2 22.2,17.8 22.2,17.3 L22.2,2 C22.2,1.5 22.6,1.1 23.1,1.1 L30.9,1.1 C31.6,1.1 31.8,1.6 31.8,2 C31.8,2.4 31.5,2.9 30.9,2.9 L24,2.9 L24,8.4 L28.8,8.4 C29.4,8.4 29.7,8.9 29.7,9.3 C29.7,9.7 29.4,10.2 28.8,10.2 L24,10.2 L24,16.2 L30.8,16.2 C31.5,16.2 31.7,16.7 31.7,17.1 C31.8,17.7 31.5,18.2 30.9,18.2 Z" id="Shape"></path>
                <path d="M39.8,18.3 L39.6,18.3 C37,18.3 34.9,16.2 34.9,13.6 L34.9,1.8 C34.9,1.2 35.4,0.9 35.8,0.9 C36.2,0.9 36.7,1.2 36.7,1.8 L36.7,13.6 C36.7,15.2 38,16.4 39.5,16.4 L39.7,16.4 C41.3,16.4 42.5,15.1 42.5,13.6 L42.5,1.8 C42.5,1.2 43,0.9 43.4,0.9 C43.9,0.9 44.3,1.2 44.3,1.8 L44.3,13.6 C44.5,16.2 42.3,18.3 39.8,18.3 Z" id="Shape"></path>
                <path d="M55.4,10.5 L58.5,16.9 C58.6,17 58.6,17.2 58.6,17.3 C58.6,17.8 58.2,18.2 57.6,18.2 C57.3,18.2 57,18.1 56.8,17.7 L53.4,10.6 L50.9,10.6 L50.9,17.3 C50.9,17.9 50.4,18.2 50,18.2 C49.5,18.2 49.1,17.9 49.1,17.3 L49.1,1.9 C49.1,1.4 49.5,1 50,1 L54.2,1 C56.8,1 58.9,3.1 58.9,5.7 L58.9,5.9 C58.8,8.1 57.4,9.9 55.4,10.5 Z M56.9,5.7 C56.9,4.1 55.6,2.9 54.1,2.9 L50.9,2.9 L50.9,8.8 L54.2,8.8 C55.8,8.8 56.9,7.5 56.9,6 L56.9,5.7 Z" id="Shape"></path>
                <path d="M66.9,18.3 L66.7,18.3 C64.1,18.3 62,16.2 62,13.6 L62,5.5 C62,2.9 64.1,0.8 66.7,0.8 L66.9,0.8 C69.5,0.8 71.6,2.9 71.6,5.5 L71.6,13.6 C71.6,16.2 69.5,18.3 66.9,18.3 Z M69.7,5.6 C69.7,4 68.5,2.8 66.9,2.8 L66.7,2.8 C65.1,2.8 63.9,4.1 63.9,5.6 L63.9,13.7 C63.9,15.3 65.2,16.5 66.7,16.5 L66.9,16.5 C68.5,16.5 69.7,15.2 69.7,13.7 L69.7,5.6 Z" id="Shape"></path>
                <path d="M77.6,21.1 L75.6,21.1 C75,21.1 74.7,20.6 74.7,20.2 C74.7,19.8 75,19.3 75.6,19.3 L76.6,19.3 L76.6,2.8 L75.6,2.8 C75,2.8 74.7,2.3 74.7,1.9 C74.7,1.5 75,1 75.6,1 L77.6,1 C78.1,1 78.5,1.4 78.5,1.9 L78.5,20.3 C78.5,20.6 78.1,21.1 77.6,21.1 Z" id="Shape"></path>
            </g>
            <g id="Group" transform="translate(26.000000, 30.000000)">
                <path d="M5.4,18 L1.6,18 C1.1,18 0.7,17.6 0.7,17.1 L0.7,1.8 C0.7,1.3 1.1,0.9 1.6,0.9 L5.4,0.9 C8.1,0.9 9.9,2.8 9.9,5.4 C9.9,7.3 9,8.6 8,9.2 C9,9.8 10.1,11.1 10.1,13.1 L10.1,13.3 C10.1,15.9 8,18 5.4,18 Z M8,5.4 C8,3.8 6.9,2.8 5.4,2.8 L2.5,2.8 L2.5,8.3 L5.4,8.3 C6.9,8.2 8,7 8,5.4 Z M8.2,13.1 C8.2,11.5 6.9,10.1 5.4,10.1 L2.5,10.1 L2.5,16.1 L5.4,16.1 C7,16.1 8.2,14.8 8.2,13.3 L8.2,13.1 Z" id="Shape"></path>
                <path d="M15.1,18.1 C14.6,18.1 14.2,17.8 14.2,17.2 L14.2,1.6 C14.2,1 14.7,0.7 15.1,0.7 C15.5,0.7 16,1 16,1.6 L16,17.2 C16,17.8 15.5,18.1 15.1,18.1 Z" id="Shape"></path>
                <path d="M25.3,18.1 L25.1,18.1 C22.5,18.1 20.4,16 20.4,13.4 L20.4,5.3 C20.4,2.7 22.5,0.6 25.1,0.6 L25.3,0.6 C27.9,0.6 30,2.7 30,5.3 L30,13.4 C30,16.1 27.9,18.1 25.3,18.1 Z M28.1,5.4 C28.1,3.8 26.9,2.6 25.3,2.6 L25.1,2.6 C23.5,2.6 22.3,3.9 22.3,5.4 L22.3,13.5 C22.3,15.1 23.6,16.3 25.1,16.3 L25.3,16.3 C26.9,16.3 28.1,15 28.1,13.5 L28.1,5.4 Z" id="Shape"></path>
                <path d="M51.4,18.1 C50.9,18.1 50.5,17.9 50.5,17.2 L50.5,10.1 L44.6,10.1 L44.6,17.2 C44.6,17.8 44.1,18.1 43.7,18.1 C43.3,18.1 42.8,17.8 42.8,17.2 L42.8,1.6 C42.8,1 43.3,0.7 43.7,0.7 C44.1,0.7 44.6,1 44.6,1.6 L44.6,8.2 L50.5,8.2 L50.5,1.6 C50.5,1 51,0.7 51.4,0.7 C51.8,0.7 52.3,1 52.3,1.6 L52.3,17.2 C52.4,17.9 51.9,18.1 51.4,18.1 Z" id="Shape"></path>
                <path d="M66.5,18.1 C66.1,18.1 65.8,17.9 65.6,17.5 L64.5,13.9 L58.4,13.9 L57.3,17.5 C57.2,18 56.8,18.1 56.4,18.1 C55.8,18.1 55.4,17.7 55.4,17.2 C55.4,17.1 55.4,17 55.4,16.9 L60.2,1.3 C60.3,0.8 60.8,0.6 61.3,0.6 C61.8,0.6 62.3,0.8 62.4,1.3 L67.2,16.9 C67.2,17 67.2,17.1 67.2,17.2 C67.4,17.7 67,18.1 66.5,18.1 Z M61.4,4.1 L58.9,12.1 L63.8,12.1 L61.4,4.1 Z" id="Shape"></path>
                <path d="M75,18.1 L74.8,18.1 C72.2,18.1 70.1,16 70.1,13.4 L70.1,5.3 C70.1,2.7 72.2,0.6 74.8,0.6 L75,0.6 C77.4,0.6 79.4,2.3 79.7,4.7 L79.7,4.8 C79.7,5.4 79.3,5.7 78.8,5.7 C78.4,5.7 78,5.5 77.9,4.9 C77.6,3.5 76.5,2.5 75.1,2.5 L74.9,2.5 C73.3,2.5 72.1,3.8 72.1,5.3 L72.1,13.4 C72.1,15 73.4,16.2 74.9,16.2 L75.1,16.2 C76.5,16.2 77.6,15.2 77.9,13.8 C78,13.2 78.4,13 78.8,13 C79.3,13 79.7,13.3 79.7,13.9 L79.7,14.1 C79.4,16.4 77.4,18.1 75,18.1 Z" id="Shape"></path>
                <path d="M91.6,18.1 C91.2,18.1 91,17.9 90.8,17.6 L86.9,9.7 L84.8,12.9 L84.8,17.3 C84.8,17.9 84.3,18.2 83.9,18.2 C83.4,18.2 83,17.9 83,17.3 L83,1.7 C83,1.1 83.5,0.8 83.9,0.8 C84.4,0.8 84.8,1.1 84.8,1.7 L84.8,9.6 L90.5,1.2 C90.7,0.9 90.9,0.8 91.2,0.8 C91.8,0.8 92.2,1.2 92.2,1.7 C92.2,1.9 92.2,2.1 92,2.2 L88.1,7.9 L92.5,16.8 C92.6,17 92.6,17.1 92.6,17.2 C92.6,17.7 92.2,18.1 91.6,18.1 Z" id="Shape"></path>
                <path d="M99.8,18.1 L99.6,18.1 C97,18.1 94.7,16.5 94.7,13.5 C94.7,12.9 95.2,12.6 95.6,12.6 C96,12.6 96.5,12.9 96.5,13.5 C96.5,15.3 97.9,16.2 99.6,16.2 L99.8,16.2 C101.8,16.2 102.6,15.2 102.6,13.4 C102.6,11.4 101.2,10.8 99.6,9.9 C97.2,8.6 94.8,8 94.8,4.8 C94.8,2.4 96.9,0.5 99.5,0.5 L99.7,0.5 C102.1,0.5 104.2,2.2 104.2,4.5 C104.2,5.1 103.8,5.4 103.3,5.4 C102.8,5.4 102.4,5.1 102.3,4.5 C102.2,3.3 101.1,2.4 99.6,2.4 L99.4,2.4 C97.3,2.4 96.7,3.9 96.7,4.8 C96.7,6.6 98.2,7.2 99.6,7.9 C102.1,9.2 104.5,10 104.5,13.4 C104.5,16.4 102.8,18.1 99.8,18.1 Z" id="Shape"></path>
            </g>
        </g>
    </g>
</svg>