<?xml version="1.0" encoding="UTF-8"?>
<svg width="137px" height="48px" viewBox="0 0 137 48" version="1.1" xmlns="http://www.w3.org/2000/svg" xmlns:xlink="http://www.w3.org/1999/xlink">
    <!-- Generator: Sketch 49.3 (51167) - http://www.bohemiancoding.com/sketch -->
    <title>6</title>
    <desc>Created with Sketch.</desc>
    <defs></defs>
    <g id="Page-1" stroke="none" stroke-width="1" fill="none" fill-rule="evenodd">
        <g id="6" fill="#000000" fill-rule="nonzero">
            <path d="M5.1,17.6 L4.8,17.6 C2.6,17.6 0.8,15.9 0.8,13.6 L0.8,4.1 C0.8,1.9 2.6,0.1 4.8,0.1 L5.1,0.1 C7.4,0.1 8.9,1.5 9.1,3.4 C9.1,3.4 9.1,3.5 9.1,3.5 C9.1,4.1 8.6,4.5 8.1,4.5 C7.7,4.5 7.3,4.3 7.2,3.7 C7.1,2.7 6.5,2 5.1,2 L4.9,2 C3.7,2 2.8,3 2.8,4.1 L2.8,7.2 C3.4,6.6 4.7,6.4 5,6.4 L5.2,6.4 C7.5,6.4 9.2,8.2 9.2,10.4 L9.2,13.5 C9.1,15.8 7.4,17.6 5.1,17.6 Z M7.2,10.5 C7.2,9.3 6.3,8.4 5.1,8.4 L4.9,8.4 C3.7,8.4 2.7,9.1 2.7,10.4 L2.7,13.6 C2.7,14.8 3.6,15.7 4.8,15.7 L5.1,15.7 C6.3,15.7 7.2,14.8 7.2,13.6 L7.2,10.5 Z" id="Shape"></path>
            <path d="M13.1,17.6 C12.6,17.6 12.2,17.3 12.2,16.7 L12.2,16.2 C12.2,15.6 12.7,15.3 13.1,15.3 C13.5,15.3 14,15.6 14,16.2 L14,16.7 C14.1,17.3 13.6,17.6 13.1,17.6 Z" id="Shape"></path>
            <g id="Group" transform="translate(26.000000, 0.000000)">
                <path d="M1.3,17.6 C0.8,17.6 0.4,17.3 0.4,16.7 L0.4,1 C0.4,0.4 0.9,0.1 1.3,0.1 C1.7,0.1 2.2,0.4 2.2,1 L2.2,16.6 C2.3,17.3 1.8,17.6 1.3,17.6 Z" id="Shape"></path>
                <path d="M15.6,17.6 C15.2,17.6 14.7,17.6 14.3,16.8 L8.9,4.5 L8.9,16.7 C8.9,17.3 8.4,17.6 8,17.6 C7.5,17.6 7.1,17.3 7.1,16.7 L7.1,1.1 C7.1,0.4 7.6,0.1 8.2,0.1 C8.8,0.1 9.2,0.2 9.5,0.9 L14.9,13.2 L14.9,1 C14.9,0.4 15.4,0.1 15.9,0.1 C16.4,0.1 16.8,0.4 16.8,1 L16.8,16.4 C16.7,17.3 16.2,17.6 15.6,17.6 Z" id="Shape"></path>
                <path d="M26.1,17.4 L22.1,17.4 C21.6,17.4 21.2,17 21.2,16.5 L21.2,1.2 C21.2,0.7 21.6,0.3 22.1,0.3 L26.1,0.3 C28.7,0.3 30.8,2.4 30.8,5 L30.8,12.8 C30.8,15.3 28.7,17.4 26.1,17.4 Z M29,5 C29,3.4 27.8,2.2 26.2,2.2 L23,2.2 L23,15.6 L26.1,15.6 C27.7,15.6 28.9,14.3 28.9,12.8 L28.9,5 L29,5 Z" id="Shape"></path>
                <path d="M36.1,17.6 C35.6,17.6 35.2,17.3 35.2,16.7 L35.2,1 C35.2,0.4 35.7,0.1 36.1,0.1 C36.6,0.1 37,0.4 37,1 L37,16.6 C37.1,17.3 36.6,17.6 36.1,17.6 Z" id="Shape"></path>
                <path d="M50.4,1.3 L46.5,16.9 C46.4,17.4 46,17.6 45.5,17.6 C45.1,17.6 44.6,17.4 44.5,16.9 L40.6,1.3 C40.6,1.2 40.6,1.2 40.6,1.1 C40.6,0.6 41,0.2 41.6,0.2 C42,0.2 42.4,0.4 42.5,0.9 L45.6,13.9 L48.7,0.9 C48.8,0.4 49.2,0.2 49.6,0.2 C50.2,0.2 50.6,0.6 50.6,1.1 C50.4,1 50.4,1.1 50.4,1.3 Z" id="Shape"></path>
                <path d="M54.9,17.6 C54.4,17.6 54,17.3 54,16.7 L54,1 C54,0.4 54.5,0.1 54.9,0.1 C55.3,0.1 55.8,0.4 55.8,1 L55.8,16.6 C55.8,17.3 55.3,17.6 54.9,17.6 Z" id="Shape"></path>
                <path d="M65.5,17.4 L61.5,17.4 C61,17.4 60.6,17 60.6,16.5 L60.6,1.2 C60.6,0.7 61,0.3 61.5,0.3 L65.5,0.3 C68.1,0.3 70.2,2.4 70.2,5 L70.2,12.8 C70.2,15.3 68.1,17.4 65.5,17.4 Z M68.3,5 C68.3,3.4 67.1,2.2 65.5,2.2 L62.4,2.2 L62.4,15.6 L65.5,15.6 C67.1,15.6 68.3,14.3 68.3,12.8 L68.3,5 Z" id="Shape"></path>
                <path d="M79.3,17.6 L79,17.6 C76.4,17.6 74.3,15.5 74.3,12.9 L74.3,1 C74.3,0.4 74.8,0.1 75.2,0.1 C75.7,0.1 76.1,0.4 76.1,1 L76.1,12.8 C76.1,14.4 77.4,15.6 78.9,15.6 L79.1,15.6 C80.7,15.6 81.9,14.3 81.9,12.8 L81.9,1 C81.9,0.4 82.4,0.1 82.8,0.1 C83.2,0.1 83.7,0.4 83.7,1 L83.7,12.8 C84,15.5 81.9,17.6 79.3,17.6 Z" id="Shape"></path>
                <path d="M98,17.6 C97.6,17.6 97.3,17.4 97.1,17 L96,13.4 L89.9,13.4 L88.8,17 C88.7,17.5 88.3,17.6 87.9,17.6 C87.3,17.6 86.9,17.2 86.9,16.7 C86.9,16.6 86.9,16.5 86.9,16.4 L91.7,0.8 C91.8,0.3 92.3,0.1 92.8,0.1 C93.3,0.1 93.8,0.3 93.9,0.8 L98.8,16.4 C98.8,16.5 98.8,16.6 98.8,16.7 C99,17.2 98.6,17.6 98,17.6 Z M93,3.5 L90.5,11.5 L95.4,11.5 L93,3.5 Z" id="Shape"></path>
                <path d="M109.7,17.4 L102.9,17.4 C102.4,17.4 102,17 102,16.5 L102,1 C102,0.4 102.5,0.1 102.9,0.1 C103.3,0.1 103.8,0.4 103.8,1 L103.8,15.5 L109.6,15.5 C110.2,15.5 110.5,16 110.5,16.4 C110.5,16.8 110.4,17.4 109.7,17.4 Z" id="Shape"></path>
            </g>
            <g id="Group" transform="translate(26.000000, 29.000000)">
                <path d="M5.3,10.5 L2.2,10.5 L2.2,17.5 C2.2,18.1 1.7,18.4 1.3,18.4 C0.9,18.4 0.4,18.1 0.4,17.5 L0.4,2 C0.4,1.5 0.8,1.1 1.3,1.1 L5.3,1.1 C7.9,1.1 10,3.2 10,5.8 C10,8.4 7.9,10.5 5.3,10.5 Z M5.3,3 L2.2,3 L2.2,8.6 L5.3,8.6 C6.9,8.6 8.1,7.3 8.1,5.8 C8.2,4.3 6.9,3 5.3,3 Z" id="Shape"></path>
                <path d="M22.5,18.4 C22.1,18.4 21.8,18.2 21.6,17.8 L20.5,14.2 L14.4,14.2 L13.3,17.8 C13.2,18.3 12.8,18.4 12.4,18.4 C11.8,18.4 11.4,18 11.4,17.5 C11.4,17.4 11.4,17.3 11.4,17.2 L16.3,1.6 C16.4,1.1 16.9,0.9 17.4,0.9 C17.9,0.9 18.4,1.1 18.5,1.6 L23.3,17.2 C23.3,17.3 23.3,17.4 23.3,17.5 C23.5,18 23.1,18.4 22.5,18.4 Z M17.4,4.3 L14.9,12.3 L19.8,12.3 L17.4,4.3 Z" id="Shape"></path>
                <path d="M32.9,3 L30.2,3 L30.2,17.5 C30.2,18.1 29.7,18.4 29.3,18.4 C28.8,18.4 28.4,18.1 28.4,17.5 L28.4,3 L25.7,3 C25.1,3 24.8,2.5 24.8,2.1 C24.8,1.7 25.1,1.2 25.7,1.2 L33.1,1.2 C33.7,1.2 34,1.7 34,2.1 C34,2.5 33.5,3 32.9,3 Z" id="Shape"></path>
                <path d="M42.9,3 L40.2,3 L40.2,17.5 C40.2,18.1 39.7,18.4 39.3,18.4 C38.9,18.4 38.4,18.1 38.4,17.5 L38.4,3 L35.7,3 C35.1,3 34.8,2.5 34.8,2.1 C34.8,1.7 35.1,1.2 35.7,1.2 L43.1,1.2 C43.7,1.2 44,1.7 44,2.1 C44,2.5 43.5,3 42.9,3 Z" id="Shape"></path>
                <path d="M55.2,18.3 L47.4,18.3 C46.9,18.3 46.5,17.9 46.5,17.4 L46.5,2 C46.5,1.5 46.9,1.1 47.4,1.1 L55.2,1.1 C55.9,1.1 56.1,1.6 56.1,2 C56.1,2.4 55.8,2.9 55.2,2.9 L48.4,2.9 L48.4,8.4 L53.2,8.4 C53.8,8.4 54.1,8.9 54.1,9.3 C54.1,9.7 53.8,10.2 53.2,10.2 L48.4,10.2 L48.4,16.2 L55.2,16.2 C55.9,16.2 56.1,16.7 56.1,17.1 C56.1,17.5 55.9,18.3 55.2,18.3 Z" id="Shape"></path>
                <path d="M65.6,10.6 L68.7,17 C68.8,17.1 68.8,17.3 68.8,17.4 C68.8,17.9 68.4,18.3 67.8,18.3 C67.5,18.3 67.2,18.2 67,17.8 L63.6,10.7 L61,10.7 L61,17.4 C61,18 60.5,18.3 60.1,18.3 C59.6,18.3 59.2,18 59.2,17.4 L59.2,2 C59.2,1.5 59.6,1.1 60.1,1.1 L64.3,1.1 C66.9,1.1 69,3.2 69,5.8 L69,6 C69,8.2 67.6,10 65.6,10.6 Z M67.1,5.8 C67.1,4.2 65.8,3 64.3,3 L61,3 L61,8.9 L64.3,8.9 C65.9,8.9 67,7.6 67,6.1 L67,5.8 L67.1,5.8 Z" id="Shape"></path>
                <path d="M81.1,18.4 C80.7,18.4 80.2,18.4 79.8,17.6 L74.4,5.3 L74.4,17.5 C74.4,18.1 73.9,18.4 73.5,18.4 C73.1,18.4 72.6,18.1 72.6,17.5 L72.6,1.9 C72.6,1.2 73.1,0.9 73.7,0.9 C74.3,0.9 74.7,1 75,1.7 L80.4,14 L80.4,1.8 C80.4,1.2 80.9,0.9 81.4,0.9 C81.9,0.9 82.3,1.2 82.3,1.8 L82.3,17.2 C82.1,18.1 81.6,18.4 81.1,18.4 Z" id="Shape"></path>
                <path d="M90.8,18.4 L90.6,18.4 C88,18.4 85.7,16.8 85.7,13.8 C85.7,13.2 86.2,12.9 86.6,12.9 C87,12.9 87.5,13.2 87.5,13.8 C87.5,15.6 88.9,16.5 90.6,16.5 L90.8,16.5 C92.8,16.5 93.6,15.5 93.6,13.7 C93.6,11.7 92.2,11.1 90.6,10.2 C88.2,8.9 85.8,8.3 85.8,5.1 C85.8,2.7 87.9,0.8 90.5,0.8 L90.7,0.8 C93.1,0.8 95.2,2.5 95.2,4.8 C95.2,5.4 94.8,5.7 94.3,5.7 C93.8,5.7 93.4,5.4 93.3,4.8 C93.2,3.6 92.1,2.7 90.6,2.7 L90.4,2.7 C88.3,2.7 87.7,4.2 87.7,5.1 C87.7,6.9 89.2,7.5 90.6,8.2 C93.1,9.5 95.5,10.3 95.5,13.7 C95.5,16.7 93.8,18.4 90.8,18.4 Z" id="Shape"></path>
            </g>
        </g>
    </g>
</svg>