<?xml version="1.0" encoding="UTF-8"?>
<svg viewBox="0 0 330 329" version="1.1" xmlns="http://www.w3.org/2000/svg" xmlns:xlink="http://www.w3.org/1999/xlink">
    <!-- Generator: Sketch 49.3 (51167) - http://www.bohemiancoding.com/sketch -->
    <title>Diagramm III</title>
    <desc>Created with Sketch.</desc>
    <defs></defs>
    <g id="Page-1" stroke="none" stroke-width="1" fill="none" fill-rule="evenodd">
        <g id="Diagramm-III" fill="#16182E" fill-rule="nonzero">
            <path d="M128.2,151.7 L128.3,151.7 C129.1,151.7 129.5,152.1 129.6,152.7 C129.7,153 129.9,153.2 130.1,153.2 C130.4,153.2 130.7,153 130.7,152.6 C130.7,152.6 130.7,152.5 130.7,152.5 C130.6,151.4 129.7,150.5 128.4,150.5 L128.2,150.5 C126.9,150.5 125.9,151.6 125.9,152.9 L125.9,158.4 C125.9,159.7 126.9,160.7 128.2,160.7 L128.4,160.7 C129.7,160.7 130.8,159.7 130.8,158.4 L130.8,156.6 C130.8,155.3 129.8,154.3 128.4,154.3 L128.3,154.3 C128.1,154.3 127.4,154.4 127,154.8 L127,153 C127,152.2 127.5,151.7 128.2,151.7 Z M128.3,155.4 L128.4,155.4 C129.1,155.4 129.7,155.9 129.7,156.6 L129.7,158.4 C129.7,159.1 129.1,159.6 128.4,159.6 L128.2,159.6 C127.5,159.6 127,159 127,158.4 L127,156.5 C127,155.8 127.6,155.4 128.3,155.4 Z" id="Shape"></path>
            <path d="M132.5,159.9 L132.5,160.2 C132.5,160.6 132.8,160.7 133.1,160.7 C133.4,160.7 133.7,160.5 133.7,160.2 L133.7,159.9 C133.7,159.5 133.4,159.3 133.1,159.3 C132.8,159.4 132.5,159.6 132.5,159.9 Z" id="Shape"></path>
            <path d="M142,160.3 L142,151.2 C142,150.8 141.7,150.6 141.4,150.6 C141.1,150.6 140.8,150.8 140.8,151.2 L140.8,160.3 C140.8,160.7 141.1,160.8 141.4,160.8 C141.7,160.8 142,160.6 142,160.3 Z" id="Shape"></path>
            <path d="M145.8,160.3 L145.8,153.2 L149,160.4 C149.2,160.9 149.5,160.9 149.8,160.9 C150.1,160.9 150.4,160.7 150.4,160.3 L150.4,151.3 C150.4,150.9 150.1,150.7 149.9,150.7 C149.6,150.7 149.3,150.9 149.3,151.3 L149.3,158.4 L146.1,151.2 C145.9,150.8 145.7,150.7 145.4,150.7 C145.1,150.7 144.7,150.9 144.7,151.3 L144.7,160.4 C144.7,160.8 145,160.9 145.3,160.9 C145.6,160.8 145.8,160.6 145.8,160.3 Z" id="Shape"></path>
            <path d="M153.6,150.6 C153.3,150.6 153,150.9 153,151.2 L153,160.2 C153,160.5 153.3,160.8 153.6,160.8 L156,160.8 C157.5,160.8 158.8,159.6 158.8,158 L158.8,153.5 C158.8,152 157.6,150.7 156,150.7 L153.6,150.7 L153.6,150.6 Z M157.6,153.4 L157.6,157.9 C157.6,158.8 156.9,159.6 155.9,159.6 L154.1,159.6 L154.1,151.7 L155.9,151.7 C156.9,151.8 157.6,152.5 157.6,153.4 Z" id="Shape"></path>
            <path d="M161.2,151.1 L161.2,160.2 C161.2,160.6 161.5,160.7 161.8,160.7 C162.1,160.7 162.4,160.5 162.4,160.2 L162.4,151.1 C162.4,150.7 162.1,150.5 161.8,150.5 C161.5,150.6 161.2,150.8 161.2,151.1 Z" id="Shape"></path>
            <path d="M167.3,160.8 C167.6,160.8 167.8,160.7 167.9,160.4 L170.2,151.3 C170.2,151.2 170.2,151.2 170.2,151.2 C170.2,150.9 170,150.7 169.6,150.7 C169.4,150.7 169.1,150.8 169.1,151.1 L167.3,158.7 L165.5,151.1 C165.4,150.8 165.2,150.7 165,150.7 C164.7,150.7 164.4,150.9 164.4,151.2 C164.4,151.3 164.4,151.3 164.4,151.3 L166.7,160.4 C166.8,160.7 167,160.8 167.3,160.8 Z" id="Shape"></path>
            <path d="M172.2,151.1 L172.2,160.2 C172.2,160.6 172.5,160.7 172.8,160.7 C173.1,160.7 173.4,160.5 173.4,160.2 L173.4,151.1 C173.4,150.7 173.1,150.5 172.8,150.5 C172.5,150.6 172.2,150.8 172.2,151.1 Z" id="Shape"></path>
            <path d="M181.7,158 L181.7,153.5 C181.7,152 180.5,150.7 178.9,150.7 L176.5,150.7 C176.2,150.7 175.9,151 175.9,151.3 L175.9,160.3 C175.9,160.6 176.2,160.9 176.5,160.9 L178.9,160.9 C180.5,160.7 181.7,159.5 181.7,158 Z M180.7,158 C180.7,158.9 180,159.7 179,159.7 L177.2,159.7 L177.2,151.8 L179,151.8 C179.9,151.8 180.6,152.5 180.6,153.5 L180.6,158 L180.7,158 Z" id="Shape"></path>
            <path d="M187.1,160.8 C188.6,160.8 189.9,159.6 189.9,158 L189.9,151.1 C189.9,150.7 189.6,150.5 189.3,150.5 C189,150.5 188.7,150.7 188.7,151.1 L188.7,158 C188.7,158.9 188,159.7 187.1,159.7 L187,159.7 C186.1,159.7 185.3,159 185.3,158 L185.3,151.1 C185.3,150.7 185,150.5 184.7,150.5 C184.4,150.5 184.1,150.7 184.1,151.1 L184.1,158 C184.1,159.5 185.3,160.8 186.9,160.8 L187.1,160.8 Z" id="Shape"></path>
            <path d="M197.5,160.4 C197.6,160.7 197.8,160.8 198,160.8 C198.3,160.8 198.6,160.6 198.6,160.3 C198.6,160.3 198.6,160.2 198.6,160.1 L195.8,151 C195.7,150.7 195.4,150.6 195.1,150.6 C194.8,150.6 194.5,150.7 194.4,151 L191.6,160.1 C191.6,160.2 191.6,160.2 191.6,160.3 C191.6,160.6 191.8,160.8 192.2,160.8 C192.4,160.8 192.6,160.7 192.7,160.4 L193.4,158.3 L197,158.3 L197.5,160.4 Z M193.6,157.2 L195,152.5 L196.5,157.2 L193.6,157.2 Z" id="Shape"></path>
            <path d="M200.9,150.6 C200.6,150.6 200.3,150.8 200.3,151.2 L200.3,160.3 C200.3,160.6 200.6,160.9 200.9,160.9 L204.9,160.9 C205.3,160.9 205.5,160.6 205.5,160.3 C205.5,160 205.3,159.7 204.9,159.7 L201.5,159.7 L201.5,151.2 C201.5,150.8 201.2,150.6 200.9,150.6 Z" id="Shape"></path>
            <path d="M138.3,168.1 C138,168.1 137.7,168.4 137.7,168.7 L137.7,177.7 C137.7,178.1 138,178.2 138.3,178.2 C138.6,178.2 138.9,178 138.9,177.7 L138.9,173.6 L140.7,173.6 C142.2,173.6 143.5,172.4 143.5,170.8 C143.5,169.3 142.3,168.1 140.7,168.1 L138.3,168.1 Z M142.3,170.9 C142.3,171.8 141.6,172.6 140.6,172.6 L138.8,172.6 L138.8,169.3 L140.6,169.3 C141.6,169.2 142.3,170 142.3,170.9 Z" id="Shape"></path>
            <path d="M144.3,177.7 C144.3,178 144.5,178.2 144.9,178.2 C145.1,178.2 145.3,178.1 145.4,177.8 L146.1,175.7 L149.7,175.7 L150.3,177.8 C150.4,178.1 150.6,178.2 150.8,178.2 C151.1,178.2 151.4,178 151.4,177.7 C151.4,177.7 151.4,177.6 151.4,177.5 L148.6,168.4 C148.5,168.1 148.2,168 147.9,168 C147.6,168 147.3,168.1 147.2,168.4 L144.4,177.5 C144.3,177.6 144.3,177.7 144.3,177.7 Z M147.8,170 L149.3,174.7 L146.4,174.7 L147.8,170 Z" id="Shape"></path>
            <path d="M156.8,168.1 L152.5,168.1 C152.1,168.1 151.9,168.4 151.9,168.7 C151.9,169 152.1,169.3 152.5,169.3 L154.1,169.3 L154.1,177.8 C154.1,178.2 154.4,178.3 154.7,178.3 C155,178.3 155.3,178.1 155.3,177.8 L155.3,169.3 L156.9,169.3 C157.3,169.3 157.5,169 157.5,168.7 C157.4,168.4 157.2,168.1 156.8,168.1 Z" id="Shape"></path>
            <path d="M162.7,168.1 L158.4,168.1 C158,168.1 157.8,168.4 157.8,168.7 C157.8,169 158,169.3 158.4,169.3 L160,169.3 L160,177.8 C160,178.2 160.3,178.3 160.6,178.3 C160.9,178.3 161.2,178.1 161.2,177.8 L161.2,169.3 L162.8,169.3 C163.2,169.3 163.4,169 163.4,168.7 C163.3,168.4 163.1,168.1 162.7,168.1 Z" id="Shape"></path>
            <path d="M169.9,169.2 C170.3,169.2 170.5,168.9 170.5,168.6 C170.5,168.3 170.3,168 169.9,168 L165.3,168 C165,168 164.7,168.3 164.7,168.6 L164.7,177.6 C164.7,177.9 165,178.2 165.3,178.2 L169.9,178.2 C170.3,178.2 170.5,177.9 170.5,177.6 C170.5,177.3 170.3,177 169.9,177 L165.9,177 L165.9,173.5 L168.7,173.5 C169.1,173.5 169.3,173.2 169.3,172.9 C169.3,172.6 169.1,172.3 168.7,172.3 L165.9,172.3 L165.9,169.1 L169.9,169.1 L169.9,169.2 Z" id="Shape"></path>
            <path d="M176.8,178 C176.9,178.2 177.1,178.3 177.3,178.3 C177.7,178.3 177.9,178.1 177.9,177.8 C177.9,177.7 177.9,177.6 177.8,177.6 L176,173.8 C177.2,173.5 178,172.4 178,171.1 L178,171 C178,169.5 176.8,168.2 175.2,168.2 L172.8,168.2 C172.5,168.2 172.2,168.5 172.2,168.8 L172.2,177.8 C172.2,178.2 172.5,178.3 172.8,178.3 C173.1,178.3 173.4,178.1 173.4,177.8 L173.4,173.9 L174.9,173.9 L176.8,178 Z M173.3,169.2 L175.2,169.2 C176.1,169.2 176.9,169.9 176.9,170.9 L176.9,171 C176.9,171.9 176.2,172.7 175.3,172.7 L173.3,172.7 L173.3,169.2 Z" id="Shape"></path>
            <path d="M180.6,178.3 C180.9,178.3 181.2,178.1 181.2,177.8 L181.2,170.7 L184.4,177.9 C184.6,178.4 184.9,178.4 185.2,178.4 C185.5,178.4 185.8,178.2 185.8,177.8 L185.8,168.8 C185.8,168.4 185.5,168.2 185.3,168.2 C185.1,168.2 184.7,168.4 184.7,168.8 L184.7,175.9 L181.5,168.7 C181.3,168.3 181.1,168.2 180.8,168.2 C180.5,168.2 180.1,168.4 180.1,168.8 L180.1,177.9 C180,178.1 180.3,178.3 180.6,178.3 Z" id="Shape"></path>
            <path d="M190.8,177.2 L190.7,177.2 C189.8,177.2 188.9,176.7 188.9,175.6 C188.9,175.2 188.6,175 188.3,175 C188,175 187.7,175.2 187.7,175.5 C187.7,177.3 189.1,178.2 190.6,178.2 L190.7,178.2 C192.5,178.2 193.5,177.2 193.5,175.5 C193.5,173.5 192.1,173.1 190.7,172.3 C189.9,171.9 189,171.6 189,170.5 C189,170 189.4,169.1 190.6,169.1 L190.7,169.1 C191.6,169.1 192.2,169.6 192.3,170.3 C192.3,170.7 192.6,170.8 192.9,170.8 C193.2,170.8 193.4,170.6 193.4,170.3 C193.4,169 192.1,168 190.7,168 L190.6,168 C189.1,168 187.9,169.1 187.9,170.5 C187.9,172.4 189.3,172.7 190.7,173.5 C191.6,174 192.4,174.3 192.4,175.5 C192.4,176.6 191.9,177.2 190.8,177.2 Z" id="Shape"></path>
            <polygon id="Shape" points="44.5 134.1 47.4 134.1 46 129.5"></polygon>
            <path d="M54.3,128.7 L52.4,128.7 L52.4,132.2 L54.4,132.2 C55.3,132.2 56,131.5 56,130.5 L56,130.4 C55.9,129.4 55.2,128.7 54.3,128.7 Z" id="Shape"></path>
            <polygon id="Shape" points="25.3 134.1 28.2 134.1 26.8 129.5"></polygon>
            <path d="M92,164.5 C92,143.4 100.9,124.4 115.2,111 L61.5,37.1 C24.6,67.3 0.9,113.2 0.9,164.5 C0.9,179 2.8,193.1 6.4,206.6 L93.3,178.4 C92.5,173.9 92,169.2 92,164.5 Z M13.6,137.6 L9.8,137.6 C9.2,137.6 9.1,136.8 9.3,136.4 L12.6,130.9 C12.9,130.4 12.9,130.2 12.9,130 L12.9,129.9 C12.9,129.2 12.4,128.6 11.7,128.6 C11,128.6 10.5,129.2 10.5,129.8 L10.5,130 C10.5,130.4 10.2,130.6 9.9,130.6 C9.6,130.6 9.3,130.4 9.3,130 L9.3,129.8 C9.3,128.5 10.3,127.5 11.6,127.5 C12.9,127.5 14,128.5 14,129.8 L14,129.9 C14,130.3 14,130.8 13.6,131.4 L10.5,136.6 L13.5,136.6 C13.9,136.6 14.1,136.9 14.1,137.2 C14.2,137.3 14,137.6 13.6,137.6 Z M17,137.2 C17,137.6 16.7,137.7 16.4,137.7 C16.1,137.7 15.8,137.5 15.8,137.2 L15.8,136.9 C15.8,136.5 16.1,136.3 16.4,136.3 C16.7,136.3 17,136.5 17,136.9 L17,137.2 Z M29.7,137.7 C29.5,137.7 29.3,137.6 29.2,137.3 L28.6,135.2 L25,135.2 L24.3,137.3 C24.2,137.6 24,137.7 23.8,137.7 C23.5,137.7 23.2,137.5 23.2,137.2 C23.2,137.2 23.2,137.1 23.2,137 L26,127.9 C26.1,127.6 26.4,127.5 26.7,127.5 C27,127.5 27.3,127.6 27.4,127.9 L30.2,137 C30.2,137.1 30.2,137.1 30.2,137.2 C30.3,137.5 30.1,137.7 29.7,137.7 Z M39.5,137.3 C39.5,137.5 39.3,137.7 39,137.7 L38.7,137.7 C38.4,137.7 38.2,137.5 38.2,137.3 L36.5,129.8 L34.8,137.3 C34.8,137.5 34.6,137.7 34.3,137.7 L34,137.7 C33.7,137.7 33.5,137.5 33.5,137.3 L31.5,128.2 C31.4,127.8 31.7,127.5 32.1,127.5 C32.3,127.5 32.6,127.6 32.6,127.9 L34.2,135.2 L35.9,127.8 C36,127.6 36.1,127.4 36.5,127.4 L36.7,127.4 C37,127.4 37.2,127.6 37.3,127.8 L39,135.2 L40.6,127.9 C40.7,127.6 40.9,127.5 41.1,127.5 C41.5,127.5 41.7,127.8 41.7,128.2 L39.5,137.3 Z M48.9,137.7 C48.7,137.7 48.5,137.6 48.4,137.3 L47.8,135.2 L44.2,135.2 L43.5,137.3 C43.4,137.6 43.2,137.7 43,137.7 C42.7,137.7 42.4,137.5 42.4,137.2 C42.4,137.2 42.4,137.1 42.4,137 L45.2,127.9 C45.3,127.6 45.6,127.5 45.9,127.5 C46.2,127.5 46.5,127.6 46.6,127.9 L49.4,137 C49.4,137.1 49.4,137.1 49.4,137.2 C49.5,137.5 49.3,137.7 48.9,137.7 Z M57,130.5 C57,131.8 56.2,132.8 55,133.2 L56.8,137 C56.8,137.1 56.9,137.2 56.9,137.2 C56.9,137.5 56.7,137.7 56.3,137.7 C56.1,137.7 55.9,137.6 55.8,137.4 L53.8,133.2 L52.3,133.2 L52.3,137.1 C52.3,137.5 52,137.6 51.7,137.6 C51.4,137.6 51.1,137.4 51.1,137.1 L51.1,128 C51.1,127.7 51.4,127.4 51.7,127.4 L54.1,127.4 C55.6,127.4 56.9,128.6 56.9,130.2 L56.9,130.5 L57,130.5 Z M63,131.9 C63.4,131.9 63.6,132.2 63.6,132.5 C63.6,132.8 63.4,133.1 63,133.1 L60.2,133.1 L60.2,136.6 L64.2,136.6 C64.6,136.6 64.8,136.9 64.8,137.2 C64.8,137.5 64.6,137.8 64.2,137.8 L59.6,137.8 C59.3,137.8 59,137.5 59,137.2 L59,128.2 C59,127.9 59.3,127.6 59.6,127.6 L64.2,127.6 C64.6,127.6 64.8,127.9 64.8,128.2 C64.8,128.5 64.6,128.8 64.2,128.8 L60.2,128.8 L60.2,132 L63,132 L63,131.9 Z M72.2,137.1 C72.2,137.6 71.9,137.7 71.6,137.7 C71.4,137.7 71.1,137.7 70.8,137.2 L67.6,130 L67.6,137.1 C67.6,137.5 67.3,137.6 67,137.6 C66.7,137.6 66.4,137.4 66.4,137.1 L66.4,128 C66.4,127.6 66.7,127.4 67.1,127.4 C67.4,127.4 67.7,127.5 67.8,127.9 L71,135.1 L71,128 C71,127.6 71.3,127.4 71.6,127.4 C71.9,127.4 72.1,127.6 72.1,128 L72.1,137.1 L72.2,137.1 Z M78.7,131.9 C79.1,131.9 79.3,132.2 79.3,132.5 C79.3,132.8 79.1,133.1 78.7,133.1 L75.9,133.1 L75.9,136.6 L79.9,136.6 C80.3,136.6 80.5,136.9 80.5,137.2 C80.5,137.5 80.3,137.8 79.9,137.8 L75.3,137.8 C75,137.8 74.7,137.5 74.7,137.2 L74.7,128.2 C74.7,127.9 75,127.6 75.3,127.6 L79.9,127.6 C80.3,127.6 80.5,127.9 80.5,128.2 C80.5,128.5 80.3,128.8 79.9,128.8 L75.9,128.8 L75.9,132 L78.7,132 L78.7,131.9 Z M84.6,137.7 L84.5,137.7 C83,137.7 81.6,136.8 81.6,135 C81.6,134.6 81.9,134.5 82.2,134.5 C82.5,134.5 82.8,134.7 82.8,135.1 C82.8,136.1 83.6,136.7 84.6,136.7 L84.7,136.7 C85.9,136.7 86.3,136.1 86.3,135.1 C86.3,133.9 85.5,133.6 84.6,133.1 C83.2,132.3 81.8,132 81.8,130.1 C81.8,128.7 83,127.6 84.5,127.6 L84.6,127.6 C86,127.6 87.3,128.6 87.3,129.9 C87.3,130.3 87.1,130.4 86.8,130.4 C86.5,130.4 86.3,130.2 86.2,129.9 C86.1,129.2 85.5,128.7 84.6,128.7 L84.5,128.7 C83.3,128.7 82.9,129.6 82.9,130.1 C82.9,131.2 83.8,131.5 84.6,131.9 C86.1,132.7 87.4,133.2 87.4,135.1 C87.4,136.7 86.4,137.7 84.6,137.7 Z M91.7,137.7 C90.2,137.7 88.8,136.8 88.8,135 C88.8,134.6 89.1,134.5 89.4,134.5 C89.7,134.5 90,134.7 90,135.1 C90,136.1 90.8,136.7 91.8,136.7 L91.9,136.7 C93.1,136.7 93.5,136.1 93.5,135.1 C93.5,133.9 92.7,133.6 91.8,133.1 C90.4,132.3 89,132 89,130.1 C89,128.7 90.2,127.6 91.7,127.6 L91.8,127.6 C93.2,127.6 94.5,128.6 94.5,129.9 C94.5,130.3 94.3,130.4 94,130.4 C93.7,130.4 93.5,130.2 93.4,129.9 C93.3,129.2 92.7,128.7 91.8,128.7 L91.7,128.7 C90.5,128.7 90.1,129.6 90.1,130.1 C90.1,131.2 91,131.5 91.8,131.9 C93.3,132.7 94.6,133.2 94.6,135.1 C94.6,136.8 93.6,137.8 91.8,137.8 L91.7,137.8 L91.7,137.7 Z" id="Shape"></path>
            <path d="M151.2,45.8 L151.2,45.7 C151.2,44.8 150.5,44 149.5,44 L147.6,44 L147.6,47.5 L149.6,47.5 C150.6,47.4 151.2,46.7 151.2,45.8 Z" id="Shape"></path>
            <polygon id="Shape" points="164.5 44.7 163 49.4 165.9 49.4"></polygon>
            <path d="M143.3,50.2 L143.3,50 C143.3,49.1 142.5,48.3 141.6,48.3 L139.9,48.3 L139.9,51.8 L141.6,51.8 C142.5,51.8 143.3,51.1 143.3,50.2 Z" id="Shape"></path>
            <path d="M143.2,45.5 C143.2,44.6 142.6,43.9 141.7,43.9 L140,43.9 L140,47.1 L141.7,47.1 C142.5,47.2 143.2,46.5 143.2,45.5 Z" id="Shape"></path>
            <path d="M165.4,91.2 C178.2,91.2 190.3,94.5 200.8,100.3 L254.5,26.4 C228.8,9.8 198.2,0.1 165.4,0.1 C132.6,0.1 102,9.8 76.3,26.4 L130,100.3 C140.5,94.5 152.5,91.2 165.4,91.2 Z M196,45.5 C196,44 197.2,42.7 198.8,42.7 L198.9,42.7 C200.3,42.7 201.5,43.7 201.7,45.1 L201.7,45.2 C201.7,45.5 201.4,45.7 201.1,45.7 C200.9,45.7 200.6,45.6 200.5,45.2 C200.3,44.4 199.8,43.8 198.8,43.8 L198.7,43.8 C197.8,43.8 197,44.6 197,45.4 L197,50.1 C197,51 197.7,51.8 198.7,51.8 L198.8,51.8 C199.7,51.8 200.5,51.1 200.5,50.1 L200.5,48.4 L199,48.4 C198.6,48.4 198.4,48.1 198.4,47.8 C198.4,47.5 198.6,47.2 199,47.2 L201.1,47.2 C201.4,47.2 201.7,47.5 201.7,47.8 L201.7,50.1 C201.7,51.6 200.5,52.9 198.9,52.9 L198.8,52.9 C197.3,52.9 196,51.7 196,50.1 L196,45.5 Z M187.9,43.3 C187.9,42.9 188.2,42.7 188.6,42.7 C188.9,42.7 189.2,42.8 189.3,43.2 L192.5,50.4 L192.5,43.3 C192.5,42.9 192.8,42.7 193.1,42.7 C193.4,42.7 193.6,42.9 193.6,43.3 L193.6,52.3 C193.6,52.8 193.3,52.9 193,52.9 C192.8,52.9 192.5,52.9 192.2,52.4 L189,45.2 L189,52.3 C189,52.7 188.7,52.8 188.4,52.8 C188.1,52.8 187.8,52.6 187.8,52.3 L187.8,43.3 L187.9,43.3 Z M184,43.3 C184,42.9 184.3,42.7 184.6,42.7 C184.9,42.7 185.2,42.9 185.2,43.3 L185.2,52.4 C185.2,52.8 184.9,52.9 184.6,52.9 C184.3,52.9 184,52.7 184,52.4 L184,43.3 Z M175.6,43.3 C175.6,42.9 175.9,42.7 176.2,42.7 C176.5,42.7 176.8,42.9 176.8,43.3 L176.8,47.1 L180.3,47.1 L180.3,43.3 C180.3,42.9 180.6,42.7 180.9,42.7 C181.2,42.7 181.5,42.9 181.5,43.3 L181.5,52.4 C181.5,52.8 181.2,52.9 180.9,52.9 C180.6,52.9 180.3,52.8 180.3,52.4 L180.3,48.2 L176.8,48.2 L176.8,52.4 C176.8,52.8 176.5,52.9 176.2,52.9 C175.9,52.9 175.6,52.7 175.6,52.4 L175.6,43.3 Z M169.2,42.9 L173.5,42.9 C173.9,42.9 174.1,43.2 174.1,43.5 C174.1,43.8 173.9,44.1 173.5,44.1 L171.9,44.1 L171.9,52.6 C171.9,53 171.6,53.1 171.3,53.1 C171,53.1 170.7,52.9 170.7,52.6 L170.7,44 L169.1,44 C168.7,44 168.5,43.7 168.5,43.4 C168.6,43.1 168.8,42.9 169.2,42.9 Z M161,52.3 L163.8,43.2 C163.9,42.9 164.2,42.8 164.5,42.8 C164.8,42.8 165.1,42.9 165.2,43.2 L168,52.3 C168,52.4 168,52.4 168,52.5 C168,52.8 167.8,53 167.4,53 C167.2,53 167,52.9 166.9,52.6 L166.3,50.5 L162.7,50.5 L162,52.6 C161.9,52.9 161.7,53 161.5,53 C161.2,53 160.9,52.8 160.9,52.5 C160.9,52.4 160.9,52.4 161,52.3 Z M154.4,43.4 C154.4,43.1 154.7,42.8 155,42.8 L159.6,42.8 C160,42.8 160.2,43.1 160.2,43.4 C160.2,43.7 160,44 159.6,44 L155.6,44 L155.6,47.2 L158.4,47.2 C158.8,47.2 159,47.5 159,47.8 C159,48.1 158.8,48.4 158.4,48.4 L155.6,48.4 L155.6,51.9 L159.6,51.9 C160,51.9 160.2,52.2 160.2,52.5 C160.2,52.8 160,53.1 159.6,53.1 L155,53.1 C154.7,53.1 154.4,52.8 154.4,52.5 L154.4,43.4 Z M146.6,43.4 C146.6,43.1 146.9,42.8 147.2,42.8 L149.6,42.8 C151.1,42.8 152.4,44 152.4,45.6 L152.4,45.7 C152.4,47 151.6,48 150.4,48.4 L152.2,52.2 C152.2,52.3 152.3,52.4 152.3,52.4 C152.3,52.7 152.1,52.9 151.7,52.9 C151.5,52.9 151.3,52.8 151.2,52.6 L149.2,48.4 L147.7,48.4 L147.7,52.3 C147.7,52.7 147.4,52.8 147.1,52.8 C146.8,52.8 146.5,52.6 146.5,52.3 L146.5,43.4 L146.6,43.4 Z M138.8,43.4 C138.8,43.1 139.1,42.8 139.4,42.8 L141.6,42.8 C143.2,42.8 144.3,43.9 144.3,45.5 C144.3,46.6 143.8,47.4 143.2,47.7 C143.8,48.1 144.5,48.8 144.5,50 L144.5,50.1 C144.5,51.6 143.3,52.9 141.7,52.9 L139.5,52.9 C139.2,52.9 138.9,52.6 138.9,52.3 L138.9,43.4 L138.8,43.4 Z M130.7,52.1 C130.7,51.7 131,51.5 131.3,51.5 C131.6,51.5 131.9,51.7 131.9,52.1 L131.9,52.4 C131.9,52.8 131.6,52.9 131.3,52.9 C131,52.9 130.7,52.7 130.7,52.4 L130.7,52.1 Z M127.5,52.5 C127.5,52.9 127.2,53 126.9,53 C126.6,53 126.3,52.8 126.3,52.5 L126.3,44.5 L125.6,45.5 C125.2,46.1 124.3,45.4 124.7,44.9 L126.1,43 C126.2,42.9 126.3,42.8 126.6,42.8 L127.1,42.8 C127.4,42.8 127.5,43 127.5,43.3 L127.5,52.5 Z" id="Shape"></path>
            <polygon id="Shape" points="286.2 143.1 289.1 143.1 287.6 138.4"></polygon>
            <path d="M254.9,142 L253.2,142 L253.2,145.5 L254.9,145.5 C255.8,145.5 256.6,144.8 256.6,143.8 L256.6,143.7 C256.5,142.8 255.7,142 254.9,142 Z" id="Shape"></path>
            <path d="M305.3,128.1 L305.4,128.1 C306.3,128.1 307,127.4 307,126.4 L307,121.7 C307,120.8 306.3,120 305.4,120 L305.3,120 C304.4,120 303.6,120.8 303.6,121.6 L303.6,126.3 C303.7,127.4 304.4,128.1 305.3,128.1 Z" id="Shape"></path>
            <path d="M256.4,139.2 C256.4,138.3 255.8,137.6 254.9,137.6 L253.2,137.6 L253.2,140.8 L254.9,140.8 C255.7,140.9 256.4,140.2 256.4,139.2 Z" id="Shape"></path>
            <path d="M266.5,137.6 L266.4,137.6 C265.5,137.6 264.7,138.4 264.7,139.2 L264.7,143.9 C264.7,144.8 265.4,145.6 266.4,145.6 L266.5,145.6 C267.4,145.6 268.1,144.9 268.1,143.9 L268.1,139.2 C268.2,138.3 267.4,137.6 266.5,137.6 Z" id="Shape"></path>
            <path d="M299.6,122 L299.6,121.9 C299.6,121 298.9,120.2 297.9,120.2 L296,120.2 L296,123.7 L298,123.7 C298.9,123.6 299.6,122.9 299.6,122 Z" id="Shape"></path>
            <path d="M269.2,37.1 L215.5,111 C229.8,124.4 238.7,143.4 238.7,164.5 C238.7,169.2 238.3,173.9 237.4,178.3 L324.3,206.5 C327.9,193.1 329.8,179 329.8,164.4 C329.8,113.2 306.1,67.3 269.2,37.1 Z M310.6,120.1 C310.2,120.1 310,119.8 310,119.5 C310,119.2 310.2,118.9 310.6,118.9 L311.8,118.9 C312.1,118.9 312.4,119.2 312.4,119.5 L312.4,130.3 C312.4,130.6 312.1,130.9 311.8,130.9 L310.6,130.9 C310.2,130.9 310,130.6 310,130.3 C310,130 310.2,129.7 310.6,129.7 L311.2,129.7 L311.2,120.1 L310.6,120.1 Z M302.5,121.7 C302.5,120.2 303.7,118.9 305.3,118.9 L305.4,118.9 C306.9,118.9 308.2,120.1 308.2,121.7 L308.2,126.4 C308.2,127.9 307,129.2 305.4,129.2 L305.3,129.2 C303.8,129.2 302.5,128 302.5,126.4 L302.5,121.7 Z M279.3,119.6 C279.3,119.3 279.6,119 279.9,119 L284.5,119 C284.9,119 285.1,119.3 285.1,119.6 C285.1,119.9 284.9,120.2 284.5,120.2 L280.5,120.2 L280.5,123.4 L283.3,123.4 C283.7,123.4 283.9,123.7 283.9,124 C283.9,124.3 283.7,124.6 283.3,124.6 L280.5,124.6 L280.5,128.1 L284.5,128.1 C284.9,128.1 285.1,128.4 285.1,128.7 C285.1,129 284.9,129.3 284.5,129.3 L279.9,129.3 C279.6,129.3 279.3,129 279.3,128.7 L279.3,119.6 Z M266.7,119.5 C266.7,119.2 267,118.9 267.3,118.9 L268.5,118.9 C268.9,118.9 269.1,119.2 269.1,119.5 C269.1,119.8 268.9,120.1 268.5,120.1 L267.9,120.1 L267.9,129.7 L268.5,129.7 C268.9,129.7 269.1,130 269.1,130.3 C269.1,130.6 268.9,130.9 268.5,130.9 L267.3,130.9 C267,130.9 266.7,130.6 266.7,130.3 L266.7,119.5 Z M254,123.3 L253.8,123.3 C253.3,123.3 253,123.5 252.7,123.9 C252.6,124.1 252.4,124.2 252.2,124.2 C251.9,124.2 251.6,124 251.6,123.6 L251.6,119.5 C251.6,119.2 251.9,118.9 252.2,118.9 L255.5,118.9 C255.9,118.9 256.1,119.2 256.1,119.5 C256.1,119.8 255.9,120.1 255.5,120.1 L252.8,120.1 L252.8,122.6 C253,122.4 253.5,122.2 253.9,122.2 L254.1,122.2 C255.4,122.2 256.5,123.2 256.5,124.6 L256.5,126.9 C256.5,128.2 255.5,129.2 254.2,129.2 L254,129.2 C252.7,129.2 251.7,128.3 251.7,126.8 C251.7,126.4 252,126.2 252.3,126.2 C252.6,126.2 252.9,126.4 252.9,126.8 C252.9,127.8 253.4,128.2 254.1,128.2 L254.3,128.2 C255,128.2 255.6,127.7 255.6,127 L255.6,124.7 C255.3,123.9 254.7,123.3 254,123.3 Z M257.6,143.8 C257.6,145.3 256.4,146.6 254.8,146.6 L252.6,146.6 C252.3,146.6 252,146.3 252,146 L252,137 C252,136.7 252.3,136.4 252.6,136.4 L254.8,136.4 C256.4,136.4 257.5,137.5 257.5,139.1 C257.5,140.2 257,141 256.4,141.3 C257,141.7 257.7,142.4 257.7,143.6 L257.7,143.8 L257.6,143.8 Z M259.3,128.7 C259.3,129.1 259,129.2 258.7,129.2 C258.4,129.2 258.1,129 258.1,128.7 L258.1,128.4 C258.1,128 258.4,127.8 258.7,127.8 C259,127.8 259.3,128 259.3,128.4 L259.3,128.7 Z M261.1,146.1 C261.1,146.5 260.8,146.6 260.5,146.6 C260.2,146.6 259.9,146.4 259.9,146.1 L259.9,137 C259.9,136.6 260.2,136.4 260.5,136.4 C260.8,136.4 261.1,136.6 261.1,137 L261.1,146.1 Z M269.3,143.9 C269.3,145.4 268.1,146.7 266.5,146.7 L266.4,146.7 C264.9,146.7 263.6,145.5 263.6,143.9 L263.6,139.2 C263.6,137.7 264.8,136.4 266.4,136.4 L266.5,136.4 C268,136.4 269.3,137.6 269.3,139.2 L269.3,143.9 Z M276.6,128.6 C276.6,129.1 276.3,129.2 276,129.2 C275.8,129.2 275.5,129.2 275.2,128.7 L272,121.5 L272,128.6 C272,129 271.7,129.1 271.4,129.1 C271.1,129.1 270.8,128.9 270.8,128.6 L270.8,119.5 C270.8,119.1 271.1,118.9 271.5,118.9 C271.9,118.9 272.1,119 272.2,119.4 L275.4,126.6 L275.4,119.5 C275.4,119.1 275.7,118.9 276,118.9 C276.3,118.9 276.5,119.1 276.5,119.5 L276.5,128.6 L276.6,128.6 Z M282.4,146.1 C282.4,146.5 282.1,146.6 281.8,146.6 C281.5,146.6 281.2,146.5 281.2,146.1 L281.2,142 L277.7,142 L277.7,146.2 C277.7,146.6 277.4,146.7 277.1,146.7 C276.8,146.7 276.5,146.5 276.5,146.2 L276.5,137 C276.5,136.6 276.8,136.4 277.1,136.4 C277.4,136.4 277.7,136.6 277.7,137 L277.7,140.8 L281.2,140.8 L281.2,137 C281.2,136.6 281.5,136.4 281.8,136.4 C282.1,136.4 282.4,136.6 282.4,137 L282.4,146.1 Z M290.6,146.7 C290.4,146.7 290.2,146.6 290.1,146.3 L289.5,144.2 L285.9,144.2 L285.2,146.3 C285.1,146.6 284.9,146.7 284.7,146.7 C284.4,146.7 284.1,146.5 284.1,146.2 C284.1,146.2 284.1,146.1 284.1,146 L286.9,136.9 C287,136.6 287.3,136.5 287.6,136.5 C287.9,136.5 288.2,136.6 288.3,136.9 L291.1,146 C291.1,146.1 291.1,146.1 291.1,146.2 C291.2,146.4 291,146.7 290.6,146.7 Z M292.3,126.4 C292.3,127.9 291.1,129.2 289.5,129.2 L289.4,129.2 C287.9,129.2 286.6,128 286.6,126.4 L286.6,119.5 C286.6,119.1 286.9,118.9 287.2,118.9 C287.5,118.9 287.8,119.1 287.8,119.5 L287.8,126.4 C287.8,127.3 288.5,128.1 289.5,128.1 L289.6,128.1 C290.5,128.1 291.2,127.4 291.2,126.4 L291.2,119.5 C291.2,119.1 291.5,118.9 291.8,118.9 C292.1,118.9 292.4,119.1 292.4,119.5 L292.4,126.4 L292.3,126.4 Z M298.4,138.9 C298.4,139.2 298.1,139.4 297.9,139.4 C297.7,139.4 297.4,139.3 297.3,138.9 C297.1,138.1 296.5,137.5 295.7,137.5 L295.6,137.5 C294.7,137.5 293.9,138.3 293.9,139.1 L293.9,143.8 C293.9,144.7 294.6,145.5 295.6,145.5 L295.7,145.5 C296.5,145.5 297.2,144.9 297.3,144.1 C297.4,143.8 297.6,143.6 297.9,143.6 C298.2,143.6 298.4,143.8 298.4,144.1 L298.4,144.2 C298.2,145.5 297,146.5 295.7,146.5 L295.6,146.5 C294.1,146.5 292.8,145.3 292.8,143.7 L292.8,139 C292.8,137.5 294,136.2 295.6,136.2 L295.7,136.2 C297,136.4 298.2,137.5 298.4,138.9 Z M299.5,128.9 L297.5,124.7 L296,124.7 L296,128.6 C296,129 295.7,129.1 295.4,129.1 C295.1,129.1 294.8,128.9 294.8,128.6 L294.8,119.5 C294.8,119.2 295.1,118.9 295.4,118.9 L297.8,118.9 C299.3,118.9 300.6,120.1 300.6,121.7 L300.6,121.8 C300.6,123.1 299.8,124.1 298.6,124.5 L300.4,128.3 C300.4,128.4 300.5,128.5 300.5,128.5 C300.5,128.8 300.3,129 299.9,129 C299.8,129.2 299.6,129.1 299.5,128.9 Z M305.4,146.7 C305.2,146.7 305,146.6 304.9,146.4 L302.6,141.8 L301.3,143.7 L301.3,146.3 C301.3,146.7 301,146.8 300.7,146.8 C300.4,146.8 300.1,146.6 300.1,146.3 L300.1,137 C300.1,136.6 300.4,136.4 300.7,136.4 C301,136.4 301.3,136.6 301.3,137 L301.3,141.6 L304.6,136.7 C304.7,136.5 304.8,136.5 305,136.5 C305.3,136.5 305.6,136.8 305.6,137.1 C305.6,137.2 305.6,137.3 305.5,137.4 L303.2,140.8 L305.8,146 C305.8,146.1 305.9,146.2 305.9,146.2 C305.9,146.4 305.7,146.7 305.4,146.7 Z M310.1,146.7 L310,146.7 C308.5,146.7 307.1,145.8 307.1,144 C307.1,143.6 307.4,143.5 307.7,143.5 C308,143.5 308.3,143.7 308.3,144.1 C308.3,145.1 309.1,145.7 310.1,145.7 L310.2,145.7 C311.4,145.7 311.8,145.1 311.8,144.1 C311.8,142.9 311,142.6 310.1,142.1 C308.7,141.3 307.3,141 307.3,139.1 C307.3,137.7 308.5,136.6 310,136.6 L310.1,136.6 C311.5,136.6 312.8,137.6 312.8,138.9 C312.8,139.3 312.6,139.4 312.3,139.4 C312,139.4 311.8,139.2 311.7,138.9 C311.6,138.2 311,137.7 310.1,137.7 L310,137.7 C308.8,137.7 308.4,138.6 308.4,139.1 C308.4,140.2 309.3,140.5 310.1,140.9 C311.6,141.7 312.9,142.2 312.9,144.1 C312.9,145.7 311.9,146.7 310.1,146.7 Z" id="Shape"></path>
            <path d="M241.8,253.9 C241.8,253 241.1,252.3 240.1,252.3 L238.3,252.3 L238.3,255.6 L240.1,255.6 C241,255.5 241.8,254.8 241.8,253.9 Z" id="Shape"></path>
            <path d="M222.1,252.1 L222,252.1 C221.1,252.1 220.3,252.9 220.3,253.7 L220.3,258.4 C220.3,259.3 221,260.1 222,260.1 L222.1,260.1 C223,260.1 223.7,259.4 223.7,258.4 L223.7,253.7 C223.7,252.9 223,252.1 222.1,252.1 Z" id="Shape"></path>
            <path d="M211.5,269.6 L211.4,269.6 C210.5,269.6 209.7,270.4 209.7,271.2 L209.7,275.9 C209.7,276.8 210.4,277.6 211.4,277.6 L211.5,277.6 C212.4,277.6 213.1,276.9 213.1,275.9 L213.1,271.2 C213.1,270.4 212.4,269.6 211.5,269.6 Z" id="Shape"></path>
            <path d="M174.5,237.3 L174.5,328.7 C240.3,325.1 295.9,282.6 318.7,223.9 L231.8,195.7 C221.2,217.9 199.8,234.1 174.5,237.3 Z M203.9,260.4 C203.9,260 204.2,259.8 204.5,259.8 C204.8,259.8 205.1,260 205.1,260.4 L205.1,260.7 C205.1,261.1 204.8,261.2 204.5,261.2 C204.2,261.2 203.9,261 203.9,260.7 L203.9,260.4 Z M196.9,258.3 C196.9,258.2 196.9,258.1 197,258 L199.9,251.4 C200,251.2 200.2,251.1 200.4,251.1 C200.7,251.1 201,251.3 201,251.6 C201,251.7 201,251.8 201,251.8 L198.3,257.8 L200.2,257.8 L200.2,256.6 C200.2,256.2 200.5,256 200.8,256 C201.1,256 201.4,256.2 201.4,256.6 L201.4,257.8 L202.1,257.8 C202.5,257.8 202.7,258.1 202.7,258.4 C202.7,258.7 202.5,259 202.1,259 L201.4,259 L201.4,260.8 C201.4,261.2 201.1,261.3 200.8,261.3 C200.5,261.3 200.2,261.1 200.2,260.8 L200.2,259 L197.6,259 C197.1,258.9 196.9,258.6 196.9,258.3 Z M206.1,278.2 C206.1,278.6 205.8,278.7 205.5,278.7 C205.2,278.7 204.9,278.5 204.9,278.2 L204.9,271.1 L203,275.5 C202.9,275.8 202.6,275.9 202.4,275.9 C202.1,275.9 201.9,275.8 201.8,275.5 L199.8,271.1 L199.8,278.2 C199.8,278.6 199.5,278.7 199.2,278.7 C198.9,278.7 198.6,278.5 198.6,278.2 L198.6,269.2 C198.6,268.8 198.7,268.6 199.3,268.6 C199.7,268.6 199.9,268.8 200,269 L202.3,274.2 L204.6,269 C204.7,268.8 204.9,268.6 205.3,268.6 C205.8,268.6 205.9,268.8 205.9,269.2 L205.9,278.2 L206.1,278.2 Z M214.2,276 C214.2,277.5 213,278.8 211.4,278.8 L211.3,278.8 C209.8,278.8 208.5,277.6 208.5,276 L208.5,271.3 C208.5,269.8 209.7,268.5 211.3,268.5 L211.4,268.5 C212.9,268.5 214.2,269.7 214.2,271.3 L214.2,276 Z M214.6,261.3 C213.1,261.3 211.8,260.1 211.8,258.5 L211.8,253.8 C211.8,252.3 213,251 214.6,251 L214.7,251 C216.1,251 217.3,252 217.4,253.4 L217.4,253.5 C217.4,253.8 217.1,254 216.9,254 C216.7,254 216.4,253.9 216.3,253.5 C216.1,252.7 215.5,252.1 214.7,252.1 L214.6,252.1 C213.7,252.1 212.9,252.9 212.9,253.7 L212.9,258.4 C212.9,259.3 213.6,260.1 214.6,260.1 L214.7,260.1 C215.5,260.1 216.2,259.5 216.3,258.7 C216.4,258.4 216.6,258.2 216.9,258.2 C217.2,258.2 217.4,258.4 217.4,258.7 L217.4,258.8 C217.2,260.1 216,261.1 214.7,261.1 L214.6,261.1 L214.6,261.3 Z M221.6,269.2 L219.3,278.3 C219.2,278.6 219,278.7 218.7,278.7 C218.5,278.7 218.2,278.6 218.1,278.3 L215.8,269.2 C215.8,269.2 215.8,269.1 215.8,269.1 C215.8,268.8 216,268.6 216.4,268.6 C216.6,268.6 216.9,268.7 216.9,269 L218.7,276.6 L220.5,269 C220.6,268.7 220.8,268.6 221,268.6 C221.3,268.6 221.6,268.8 221.6,269.1 C221.7,269.1 221.6,269.1 221.6,269.2 Z M221.9,261.3 C220.4,261.3 219.1,260.1 219.1,258.5 L219.1,253.8 C219.1,252.3 220.3,251 221.9,251 L222,251 C223.5,251 224.8,252.2 224.8,253.8 L224.8,258.5 C224.8,260 223.6,261.3 222,261.3 L221.9,261.3 Z M227.4,272.9 C227.8,272.9 228,273.2 228,273.5 C228,273.8 227.8,274.1 227.4,274.1 L224.6,274.1 L224.6,277.6 L228.6,277.6 C229,277.6 229.2,277.9 229.2,278.2 C229.2,278.5 229,278.8 228.6,278.8 L224,278.8 C223.7,278.8 223.4,278.5 223.4,278.2 L223.4,269.2 C223.4,268.9 223.7,268.6 224,268.6 L228.6,268.6 C229,268.6 229.2,268.9 229.2,269.2 C229.2,269.5 229,269.8 228.6,269.8 L224.6,269.8 L224.6,273 L227.4,273 L227.4,272.9 Z M244.8,272.9 C245.2,272.9 245.4,273.2 245.4,273.5 C245.4,273.8 245.2,274.1 244.8,274.1 L242,274.1 L242,277.6 L246,277.6 C246.4,277.6 246.6,277.9 246.6,278.2 C246.6,278.5 246.4,278.8 246,278.8 L241.4,278.8 C241.1,278.8 240.8,278.5 240.8,278.2 L240.8,269.2 C240.8,268.9 241.1,268.6 241.4,268.6 L246,268.6 C246.4,268.6 246.6,268.9 246.6,269.2 C246.6,269.5 246.4,269.8 246,269.8 L242,269.8 L242,273 L244.8,273 L244.8,272.9 Z M260.4,269.7 L258.8,269.7 L258.8,278.2 C258.8,278.6 258.5,278.7 258.2,278.7 C257.9,278.7 257.6,278.5 257.6,278.2 L257.6,269.7 L256,269.7 C255.6,269.7 255.4,269.4 255.4,269.1 C255.4,268.8 255.6,268.5 256,268.5 L260.3,268.5 C260.7,268.5 260.9,268.8 260.9,269.1 C261,269.4 260.8,269.7 260.4,269.7 Z M265,268.5 C266.4,268.5 267.7,269.5 267.7,270.8 C267.7,271.2 267.5,271.3 267.2,271.3 C266.9,271.3 266.7,271.1 266.6,270.8 C266.5,270.1 265.9,269.6 265,269.6 L264.9,269.6 C263.7,269.6 263.3,270.5 263.3,271 C263.3,272.1 264.2,272.4 265,272.8 C266.5,273.6 267.8,274.1 267.8,276 C267.8,277.7 266.8,278.7 265,278.7 L264.9,278.7 C263.4,278.7 262,277.8 262,276 C262,275.6 262.3,275.5 262.6,275.5 C262.9,275.5 263.2,275.7 263.2,276.1 C263.2,277.1 264,277.7 265,277.7 L265.1,277.7 C266.3,277.7 266.7,277.1 266.7,276.1 C266.7,274.9 265.9,274.6 265,274.1 C263.6,273.3 262.2,273 262.2,271.1 C262.2,269.7 263.4,268.6 264.9,268.6 L265,268.6 L265,268.5 Z M258.3,260.5 L260.5,256 L258.4,251.8 C258.2,251.4 258.5,251 258.9,251 C259.1,251 259.3,251.1 259.4,251.3 L261.1,254.7 L262.8,251.3 C262.9,251.1 263.1,251 263.3,251 C263.8,251 264,251.4 263.8,251.8 L261.7,256 L263.9,260.5 C264.1,260.9 263.8,261.3 263.4,261.3 C263.2,261.3 263,261.2 262.9,261 L261,257.3 L259.1,261 C259,261.2 258.8,261.3 258.6,261.3 C258.3,261.3 258.1,260.9 258.3,260.5 Z M251.4,251.7 C251.4,251.4 251.7,251.1 252,251.1 L256.6,251.1 C257,251.1 257.2,251.4 257.2,251.7 C257.2,252 257,252.3 256.6,252.3 L252.6,252.3 L252.6,255.5 L255.4,255.5 C255.8,255.5 256,255.8 256,256.1 C256,256.4 255.8,256.7 255.4,256.7 L252.6,256.7 L252.6,260.2 L256.6,260.2 C257,260.2 257.2,260.5 257.2,260.8 C257.2,261.1 257,261.4 256.6,261.4 L252,261.4 C251.7,261.4 251.4,261.1 251.4,260.8 L251.4,251.7 Z M252.9,276.2 L252.9,269.1 C252.9,268.7 253.2,268.5 253.5,268.5 C253.8,268.5 254,268.7 254,269.1 L254,278.1 C254,278.6 253.7,278.7 253.4,278.7 C253.2,278.7 252.9,278.7 252.6,278.2 L249.4,271 L249.4,278.1 C249.4,278.5 249.1,278.6 248.8,278.6 C248.5,278.6 248.2,278.4 248.2,278.1 L248.2,269 C248.2,268.6 248.5,268.4 248.9,268.4 C249.3,268.4 249.5,268.5 249.6,268.9 L252.9,276.2 Z M244.5,251.6 C244.5,251.2 244.8,251 245.1,251 C245.4,251 245.7,251.2 245.7,251.6 L245.7,260.1 L249.1,260.1 C249.5,260.1 249.7,260.4 249.7,260.7 C249.7,261 249.5,261.3 249.1,261.3 L245.1,261.3 C244.8,261.3 244.5,261 244.5,260.7 L244.5,251.6 Z M237.2,251.7 C237.2,251.4 237.5,251.1 237.8,251.1 L240.1,251.1 C241.6,251.1 242.9,252.3 242.9,253.8 C242.9,255.3 241.7,256.6 240.1,256.6 L238.3,256.6 L238.3,260.7 C238.3,261.1 238,261.2 237.7,261.2 C237.4,261.2 237.1,261 237.1,260.7 L237.1,251.7 L237.2,251.7 Z M237,268.9 C237.1,268.7 237.3,268.5 237.7,268.5 C238.2,268.5 238.3,268.7 238.3,269.1 L238.3,278.1 C238.3,278.5 238,278.6 237.7,278.6 C237.4,278.6 237.1,278.4 237.1,278.1 L237.1,271 L235.2,275.4 C235.1,275.7 234.8,275.8 234.6,275.8 C234.3,275.8 234.1,275.7 234,275.4 L232,271 L232,278.1 C232,278.5 231.7,278.6 231.4,278.6 C231.1,278.6 230.8,278.4 230.8,278.1 L230.8,269.1 C230.8,268.7 230.9,268.5 231.5,268.5 C231.9,268.5 232.1,268.7 232.2,268.9 L234.5,274.1 L237,268.9 Z M233.9,251 C234.5,251 234.6,251.2 234.6,251.6 L234.6,260.7 C234.6,261.1 234.3,261.2 234,261.2 C233.7,261.2 233.4,261 233.4,260.7 L233.4,253.6 L231.5,258 C231.4,258.3 231.1,258.4 230.9,258.4 C230.6,258.4 230.4,258.3 230.3,258 L228.3,253.6 L228.3,260.7 C228.3,261.1 228,261.2 227.7,261.2 C227.4,261.2 227.1,261 227.1,260.7 L227.1,251.6 C227.1,251.2 227.2,251 227.8,251 C228.2,251 228.4,251.2 228.5,251.4 L230.8,256.6 L233.1,251.4 C233.3,251.2 233.5,251 233.9,251 Z" id="Shape"></path>
            <polygon id="Shape" points="117.7 252.9 116.3 257.6 119.2 257.6"></polygon>
            <path d="M94.7,252 L94.6,252 C93.7,252 92.9,252.8 92.9,253.6 L92.9,258.3 C92.9,259.2 93.6,260 94.6,260 L94.7,260 C95.6,260 96.3,259.3 96.3,258.3 L96.3,253.6 C96.3,252.8 95.6,252 94.7,252 Z" id="Shape"></path>
            <path d="M99,195.6 L12.1,223.8 C34.9,282.5 90.5,324.9 156.3,328.6 L156.3,237.2 C130.9,234.1 109.5,217.9 99,195.6 Z M72.1,253.6 C72.1,254.7 71.8,255.3 71.3,255.7 C71.8,256.1 72.1,256.8 72.1,257.8 L72.1,258.8 C72.1,260.1 71,261.1 69.7,261.1 L69.4,261.1 C68.1,261.1 67.1,260.1 67.1,258.8 C67.1,258.4 67.4,258.2 67.7,258.2 C68,258.2 68.3,258.4 68.3,258.8 C68.3,259.5 68.9,260 69.5,260 L69.8,260 C70.5,260 71.1,259.5 71.1,258.8 L71.1,257.8 C71.1,256.4 70.5,256.2 69.4,256.2 C69,256.2 68.8,255.9 68.8,255.6 C68.8,255.3 69,255 69.4,255 C70.2,255 71.1,255 71.1,253.5 L71.1,253.2 C71.1,252.4 70.4,252 69.8,252 C69.1,252 68.5,252.4 68.5,253.2 C68.5,253.6 68.2,253.8 67.9,253.8 C67.6,253.8 67.3,253.6 67.3,253.2 C67.3,251.6 68.5,250.9 69.7,250.9 C70.9,250.9 72.1,251.7 72.1,253.2 L72.1,253.6 Z M74.9,260.6 C74.9,261 74.6,261.1 74.3,261.1 C74,261.1 73.7,260.9 73.7,260.6 L73.7,260.3 C73.7,259.9 74,259.7 74.3,259.7 C74.6,259.7 74.9,259.9 74.9,260.3 L74.9,260.6 Z M89.3,260.6 C89.3,261 89,261.1 88.7,261.1 C88.4,261.1 88.1,260.9 88.1,260.6 L88.1,253.5 L86.2,257.9 C86.1,258.2 85.8,258.3 85.6,258.3 C85.3,258.3 85.1,258.2 85,257.9 L83,253.5 L83,260.6 C83,261 82.7,261.1 82.4,261.1 C82.1,261.1 81.8,260.9 81.8,260.6 L81.8,251.6 C81.8,251.2 81.9,251 82.5,251 C82.9,251 83.1,251.2 83.2,251.4 L85.5,256.6 L87.8,251.4 C87.9,251.2 88.1,251 88.5,251 C89,251 89.1,251.2 89.1,251.6 L89.1,260.6 L89.3,260.6 Z M97.4,258.4 C97.4,259.9 96.2,261.2 94.6,261.2 L94.5,261.2 C93,261.2 91.7,260 91.7,258.4 L91.7,253.7 C91.7,252.2 92.9,250.9 94.5,250.9 L94.6,250.9 C96.1,250.9 97.4,252.1 97.4,253.7 L97.4,258.4 Z M104.8,251.6 L102.5,260.7 C102.4,261 102.2,261.1 101.9,261.1 C101.7,261.1 101.4,261 101.3,260.7 L99,251.6 C99,251.6 99,251.5 99,251.5 C99,251.2 99.2,251 99.6,251 C99.8,251 100.1,251.1 100.1,251.4 L101.9,259 L103.7,251.4 C103.8,251.1 104,251 104.2,251 C104.5,251 104.8,251.2 104.8,251.5 C104.9,251.5 104.9,251.5 104.8,251.6 Z M112.4,260.5 C112.4,261 112.1,261.1 111.8,261.1 C111.6,261.1 111.3,261.1 111,260.6 L107.8,253.4 L107.8,260.5 C107.8,260.9 107.5,261 107.2,261 C106.9,261 106.6,260.8 106.6,260.5 L106.6,251.4 C106.6,251 106.9,250.8 107.3,250.8 C107.6,250.8 107.9,250.9 108,251.3 L111.2,258.5 L111.2,251.4 C111.2,251 111.5,250.8 111.8,250.8 C112.1,250.8 112.3,251 112.3,251.4 L112.3,260.5 L112.4,260.5 Z M122.5,251 L126.8,251 C127.2,251 127.4,251.3 127.4,251.6 C127.4,251.9 127.2,252.2 126.8,252.2 L125.2,252.2 L125.2,260.7 C125.2,261.1 124.9,261.2 124.6,261.2 C124.3,261.2 124,261 124,260.7 L124,252.2 L122.4,252.2 C122,252.2 121.8,251.9 121.8,251.6 C121.9,251.3 122.1,251 122.5,251 Z M114.2,260.5 L117,251.4 C117.1,251.1 117.4,251 117.7,251 C118,251 118.3,251.1 118.4,251.4 L121.2,260.5 C121.2,260.6 121.2,260.6 121.2,260.7 C121.2,261 121,261.2 120.6,261.2 C120.4,261.2 120.2,261.1 120.1,260.8 L119.5,258.7 L115.9,258.7 L115.2,260.8 C115.1,261.1 114.9,261.2 114.7,261.2 C114.4,261.2 114.1,261 114.1,260.7 C114.2,260.6 114.2,260.5 114.2,260.5 Z" id="Shape"></path>
        </g>
    </g>
</svg>