<?xml version="1.0" encoding="UTF-8"?>
<svg width="87px" height="26px" viewBox="0 0 64 19" version="1.1" xmlns="http://www.w3.org/2000/svg" xmlns:xlink="http://www.w3.org/1999/xlink">
    <!-- Generator: Sketch 49.3 (51167) - http://www.bohemiancoding.com/sketch -->
    <title>ABOUT</title>
    <desc>Created with Sketch.</desc>
    <defs></defs>
    <g id="Page-1" stroke="none" stroke-width="1" fill="none" fill-rule="evenodd">
        <g id="ABOUT" fill="#000000" fill-rule="nonzero">
            <path d="M11.34,18.4 C10.97,18.4 10.59,18.23 10.44,17.75 L9.35,14.17 L3.21,14.17 L2.09,17.75 C1.94,18.22 1.59,18.4 1.22,18.4 C0.65,18.4 0.25,18 0.25,17.5 C0.25,17.42 0.27,17.33 0.3,17.2 L5.15,1.63 C5.3,1.16 5.77,0.93 6.27,0.93 C6.79,0.93 7.26,1.15 7.41,1.63 L12.26,17.2 C12.28,17.32 12.31,17.42 12.31,17.5 C12.31,18 11.91,18.4 11.34,18.4 Z M6.26,4.32 L3.8,12.28 L8.75,12.28 L6.26,4.32 Z" id="Shape"></path>
            <path d="M20.07,18.27 L16.24,18.27 C15.74,18.27 15.29,17.82 15.29,17.32 L15.29,2.02 C15.29,1.52 15.74,1.07 16.24,1.07 L20.07,1.07 C22.73,1.07 24.6,3.01 24.6,5.6 L24.6,5.62 C24.6,7.49 23.73,8.8 22.66,9.4 C23.7,10 24.8,11.29 24.8,13.31 L24.8,13.53 C24.79,16.16 22.68,18.27 20.07,18.27 Z M22.7,5.61 C22.7,4.02 21.63,2.97 20.06,2.97 L17.18,2.97 L17.18,8.47 L20.06,8.47 C21.55,8.47 22.7,7.3 22.7,5.63 L22.7,5.61 Z M22.9,13.32 C22.9,11.7 21.58,10.36 20.06,10.36 L17.18,10.36 L17.18,16.38 L20.06,16.38 C21.63,16.38 22.9,15.11 22.9,13.54 L22.9,13.32 Z" id="Shape"></path>
            <path d="M33.12,18.4 L32.87,18.4 C30.26,18.4 28.14,16.34 28.14,13.7 L28.14,5.64 C28.14,3.05 30.25,0.94 32.87,0.94 L33.12,0.94 C35.71,0.94 37.82,3.05 37.82,5.64 L37.82,13.7 C37.82,16.33 35.71,18.4 33.12,18.4 Z M35.93,5.66 C35.93,4.09 34.69,2.82 33.12,2.82 L32.87,2.82 C31.3,2.82 30.03,4.11 30.03,5.63 L30.03,13.69 C30.03,15.26 31.3,16.52 32.87,16.52 L33.12,16.52 C34.69,16.52 35.93,15.25 35.93,13.69 L35.93,5.66 Z" id="Shape"></path>
            <path d="M46.9,18.4 L46.65,18.4 C44.04,18.4 41.92,16.34 41.92,13.7 L41.92,1.89 C41.92,1.27 42.39,0.95 42.87,0.95 C43.34,0.95 43.81,1.27 43.81,1.89 L43.81,13.7 C43.81,15.27 45.08,16.53 46.65,16.53 L46.9,16.53 C48.47,16.53 49.71,15.26 49.71,13.7 L49.71,1.89 C49.71,1.27 50.18,0.95 50.66,0.95 C51.14,0.95 51.61,1.27 51.61,1.89 L51.61,13.7 C51.6,16.33 49.49,18.4 46.9,18.4 Z" id="Shape"></path>
            <path d="M62.52,2.97 L59.78,2.97 L59.78,17.47 C59.78,18.09 59.31,18.39 58.83,18.39 C58.36,18.39 57.89,18.09 57.89,17.47 L57.89,2.97 L55.15,2.97 C54.53,2.97 54.2,2.5 54.2,2.02 C54.2,1.54 54.52,1.07 55.15,1.07 L62.51,1.07 C63.13,1.07 63.45,1.54 63.45,2.02 C63.45,2.5 63.14,2.97 62.52,2.97 Z" id="Shape"></path>
        </g>
    </g>
</svg>