<?xml version="1.0" encoding="UTF-8"?>
<svg width="123px" height="18px" viewBox="0 0 123 18" version="1.1" xmlns="http://www.w3.org/2000/svg" xmlns:xlink="http://www.w3.org/1999/xlink">
    <!-- Generator: Sketch 49.3 (51167) - http://www.bohemiancoding.com/sketch -->
    <title>awareness</title>
    <desc>Created with Sketch.</desc>
    <defs></defs>
    <g id="Page-1" stroke="none" stroke-width="1" fill="none" fill-rule="evenodd">
        <g id="awareness" fill="#000000" fill-rule="nonzero">
            <path d="M11.95,17.69 C11.58,17.69 11.2,17.52 11.05,17.04 L9.96,13.46 L3.82,13.46 L2.7,17.04 C2.55,17.51 2.2,17.69 1.83,17.69 C1.26,17.69 0.86,17.29 0.86,16.79 C0.86,16.71 0.88,16.62 0.91,16.49 L5.76,0.92 C5.91,0.45 6.38,0.22 6.88,0.22 C7.4,0.22 7.87,0.44 8.02,0.92 L12.87,16.49 C12.9,16.61 12.92,16.71 12.92,16.79 C12.92,17.29 12.52,17.69 11.95,17.69 Z M6.88,3.61 L4.42,11.57 L9.37,11.57 L6.88,3.61 Z" id="Shape"></path>
            <path d="M28.56,16.97 C28.49,17.34 28.21,17.69 27.64,17.69 L27.19,17.69 C26.67,17.69 26.34,17.32 26.27,16.99 L23.29,4.23 L20.31,16.99 C20.24,17.36 19.91,17.69 19.39,17.69 L18.94,17.69 C18.42,17.69 18.09,17.34 18.02,16.97 L14.69,1.38 C14.57,0.76 14.96,0.24 15.63,0.24 C16.03,0.24 16.4,0.46 16.53,0.99 L19.22,13.5 L22.16,0.92 C22.26,0.52 22.53,0.25 23.1,0.25 L23.5,0.25 C24.02,0.25 24.35,0.52 24.44,0.92 L27.38,13.5 L30.07,0.99 C30.17,0.47 30.57,0.24 30.97,0.24 C31.64,0.24 32.04,0.76 31.91,1.38 L28.56,16.97 Z" id="Shape"></path>
            <path d="M44.75,17.69 C44.38,17.69 44,17.52 43.85,17.04 L42.76,13.46 L36.62,13.46 L35.5,17.04 C35.35,17.51 35,17.69 34.63,17.69 C34.06,17.69 33.66,17.29 33.66,16.79 C33.66,16.71 33.68,16.62 33.71,16.49 L38.56,0.92 C38.71,0.45 39.18,0.22 39.68,0.22 C40.2,0.22 40.68,0.44 40.82,0.92 L45.67,16.49 C45.69,16.61 45.72,16.71 45.72,16.79 C45.73,17.29 45.33,17.69 44.75,17.69 Z M39.68,3.61 L37.22,11.57 L42.17,11.57 L39.68,3.61 Z" id="Shape"></path>
            <path d="M55.15,9.91 L58.23,16.35 C58.3,16.47 58.33,16.62 58.33,16.77 C58.33,17.29 57.93,17.69 57.34,17.69 C57.04,17.69 56.72,17.57 56.52,17.17 L53.14,10.06 L50.6,10.06 L50.6,16.77 C50.6,17.39 50.13,17.69 49.66,17.69 C49.19,17.69 48.71,17.39 48.71,16.77 L48.71,1.32 C48.71,0.82 49.16,0.37 49.66,0.37 L53.84,0.37 C56.45,0.37 58.57,2.48 58.57,5.1 L58.57,5.32 C58.56,7.52 57.17,9.31 55.15,9.91 Z M56.67,5.1 C56.67,3.53 55.4,2.27 53.83,2.27 L50.6,2.27 L50.6,8.16 L53.93,8.16 C55.5,8.16 56.67,6.89 56.67,5.33 L56.67,5.1 Z" id="Shape"></path>
            <path d="M70.77,17.57 L62.99,17.57 C62.49,17.57 62.04,17.12 62.04,16.62 L62.04,1.32 C62.04,0.82 62.49,0.37 62.99,0.37 L70.77,0.37 C71.44,0.37 71.72,0.84 71.72,1.32 C71.72,1.8 71.45,2.27 70.77,2.27 L63.93,2.27 L63.93,7.74 L68.68,7.74 C69.3,7.74 69.62,8.21 69.62,8.69 C69.62,9.17 69.3,9.64 68.68,9.64 L63.93,9.64 L63.93,15.68 L70.77,15.68 C71.44,15.68 71.72,16.15 71.72,16.62 C71.71,17.09 71.44,17.57 70.77,17.57 Z" id="Shape"></path>
            <path d="M83.3,17.69 C82.93,17.69 82.38,17.69 82.01,16.87 L76.59,4.61 L76.59,16.77 C76.59,17.39 76.12,17.69 75.64,17.69 C75.16,17.69 74.69,17.39 74.69,16.77 L74.69,1.2 C74.69,0.53 75.24,0.23 75.81,0.23 C76.38,0.23 76.78,0.35 77.08,1.03 L82.48,13.34 L82.48,1.18 C82.48,0.56 82.98,0.24 83.45,0.24 C83.92,0.24 84.37,0.56 84.37,1.18 L84.37,16.6 C84.37,17.42 83.88,17.69 83.3,17.69 Z" id="Shape"></path>
            <path d="M97.58,17.57 L89.8,17.57 C89.3,17.57 88.86,17.12 88.86,16.62 L88.86,1.32 C88.86,0.82 89.31,0.37 89.8,0.37 L97.58,0.37 C98.25,0.37 98.53,0.84 98.53,1.32 C98.53,1.8 98.26,2.27 97.58,2.27 L90.74,2.27 L90.74,7.74 L95.49,7.74 C96.11,7.74 96.44,8.21 96.44,8.69 C96.44,9.17 96.12,9.64 95.49,9.64 L90.74,9.64 L90.74,15.68 L97.58,15.68 C98.25,15.68 98.53,16.15 98.53,16.62 C98.52,17.09 98.25,17.57 97.58,17.57 Z" id="Shape"></path>
            <path d="M105.66,17.69 L105.44,17.69 C102.88,17.69 100.52,16.12 100.52,13.11 C100.52,12.49 100.99,12.19 101.47,12.19 C101.94,12.19 102.41,12.46 102.41,13.14 C102.41,14.91 103.85,15.83 105.47,15.83 L105.72,15.83 C107.68,15.83 108.53,14.86 108.53,13.07 C108.53,11.03 107.09,10.46 105.57,9.61 C103.18,8.27 100.77,7.67 100.77,4.49 C100.77,2.08 102.83,0.24 105.45,0.24 L105.7,0.24 C108.09,0.24 110.23,1.93 110.23,4.22 C110.23,4.84 109.81,5.14 109.34,5.14 C108.87,5.14 108.42,4.84 108.34,4.24 C108.22,3.02 107.17,2.13 105.65,2.13 L105.43,2.13 C103.37,2.13 102.69,3.62 102.69,4.49 C102.69,6.31 104.23,6.85 105.57,7.57 C108.06,8.91 110.42,9.71 110.42,13.09 C110.41,15.95 108.67,17.69 105.66,17.69 Z" id="Shape"></path>
            <path d="M118.05,17.69 L117.83,17.69 C115.27,17.69 112.91,16.12 112.91,13.11 C112.91,12.49 113.38,12.19 113.86,12.19 C114.34,12.19 114.81,12.46 114.81,13.14 C114.81,14.91 116.25,15.83 117.87,15.83 L118.12,15.83 C120.08,15.83 120.93,14.86 120.93,13.07 C120.93,11.03 119.49,10.46 117.97,9.61 C115.58,8.27 113.17,7.67 113.17,4.49 C113.17,2.08 115.23,0.24 117.85,0.24 L118.1,0.24 C120.49,0.24 122.63,1.93 122.63,4.22 C122.63,4.84 122.21,5.14 121.73,5.14 C121.25,5.14 120.81,4.84 120.73,4.24 C120.61,3.02 119.56,2.13 118.04,2.13 L117.82,2.13 C115.76,2.13 115.08,3.62 115.08,4.49 C115.08,6.31 116.62,6.85 117.96,7.57 C120.45,8.91 122.81,9.71 122.81,13.09 C122.8,15.95 121.06,17.69 118.05,17.69 Z" id="Shape"></path>
        </g>
    </g>
</svg>