<?xml version="1.0" encoding="UTF-8"?>
<svg width="108px" height="19px" viewBox="0 0 108 19" version="1.1" xmlns="http://www.w3.org/2000/svg" xmlns:xlink="http://www.w3.org/1999/xlink">
    <!-- Generator: Sketch 49.3 (51167) - http://www.bohemiancoding.com/sketch -->
    <title>breathing</title>
    <desc>Created with Sketch.</desc>
    <defs></defs>
    <g id="Page-1" stroke="none" stroke-width="1" fill="none" fill-rule="evenodd">
        <g id="breathing" fill="#000000" fill-rule="nonzero">
            <path d="M5.13,18.03 L1.3,18.03 C0.8,18.03 0.35,17.58 0.35,17.08 L0.35,1.78 C0.35,1.28 0.8,0.83 1.3,0.83 L5.13,0.83 C7.79,0.83 9.66,2.77 9.66,5.36 L9.66,5.39 C9.66,7.26 8.79,8.57 7.72,9.17 C8.76,9.77 9.86,11.06 9.86,13.07 L9.86,13.29 C9.85,15.92 7.74,18.03 5.13,18.03 Z M7.76,5.37 C7.76,3.78 6.69,2.73 5.12,2.73 L2.23,2.73 L2.23,8.23 L5.12,8.23 C6.61,8.23 7.76,7.06 7.76,5.4 L7.76,5.37 Z M7.96,13.08 C7.96,11.46 6.64,10.12 5.12,10.12 L2.23,10.12 L2.23,16.14 L5.12,16.14 C6.69,16.14 7.96,14.87 7.96,13.31 L7.96,13.08 Z" id="Shape"></path>
            <path d="M20.02,10.37 L23.1,16.81 C23.17,16.93 23.2,17.08 23.2,17.23 C23.2,17.75 22.8,18.15 22.21,18.15 C21.91,18.15 21.59,18.03 21.39,17.63 L18.01,10.52 L15.47,10.52 L15.47,17.24 C15.47,17.86 15,18.16 14.52,18.16 C14.04,18.16 13.57,17.86 13.57,17.24 L13.57,1.79 C13.57,1.29 14.02,0.84 14.52,0.84 L18.7,0.84 C21.31,0.84 23.43,2.95 23.43,5.57 L23.43,5.79 C23.43,7.99 22.04,9.78 20.02,10.37 Z M21.54,5.57 C21.54,4 20.27,2.73 18.7,2.73 L15.47,2.73 L15.47,8.63 L18.8,8.63 C20.37,8.63 21.54,7.36 21.54,5.79 L21.54,5.57 Z" id="Shape"></path>
            <path d="M35.64,18.03 L27.85,18.03 C27.35,18.03 26.9,17.58 26.9,17.08 L26.9,1.78 C26.9,1.28 27.35,0.83 27.85,0.83 L35.64,0.83 C36.31,0.83 36.58,1.3 36.58,1.78 C36.58,2.26 36.31,2.72 35.64,2.72 L28.8,2.72 L28.8,8.19 L33.55,8.19 C34.17,8.19 34.49,8.66 34.49,9.13 C34.49,9.6 34.17,10.08 33.55,10.08 L28.8,10.08 L28.8,16.12 L35.64,16.12 C36.31,16.12 36.58,16.59 36.58,17.07 C36.58,17.55 36.31,18.03 35.64,18.03 Z" id="Shape"></path>
            <path d="M49.17,18.16 C48.8,18.16 48.42,17.99 48.27,17.51 L47.18,13.93 L41.04,13.93 L39.92,17.51 C39.77,17.98 39.42,18.16 39.05,18.16 C38.48,18.16 38.08,17.76 38.08,17.26 C38.08,17.19 38.1,17.09 38.13,16.96 L42.98,1.39 C43.13,0.92 43.6,0.69 44.1,0.69 C44.62,0.69 45.1,0.91 45.24,1.39 L50.09,16.96 C50.11,17.08 50.14,17.18 50.14,17.26 C50.14,17.76 49.74,18.16 49.17,18.16 Z M44.1,4.08 L41.64,12.04 L46.59,12.04 L44.1,4.08 Z" id="Shape"></path>
            <path d="M59.57,2.74 L56.83,2.74 L56.83,17.24 C56.83,17.86 56.36,18.16 55.88,18.16 C55.4,18.16 54.94,17.86 54.94,17.24 L54.94,2.74 L52.2,2.74 C51.58,2.74 51.26,2.27 51.26,1.8 C51.26,1.33 51.58,0.85 52.2,0.85 L59.56,0.85 C60.18,0.85 60.51,1.32 60.51,1.8 C60.51,2.28 60.19,2.74 59.57,2.74 Z" id="Shape"></path>
            <path d="M71.85,18.16 C71.38,18.16 70.9,17.91 70.9,17.24 L70.9,10.1 L65.01,10.1 L65.01,17.24 C65.01,17.86 64.54,18.16 64.06,18.16 C63.58,18.16 63.12,17.86 63.12,17.24 L63.12,1.65 C63.12,1.03 63.59,0.7 64.06,0.7 C64.53,0.7 65.01,1.02 65.01,1.65 L65.01,8.22 L70.9,8.22 L70.9,1.65 C70.9,1.03 71.37,0.7 71.85,0.7 C72.33,0.7 72.79,1.02 72.79,1.65 L72.79,17.24 C72.8,17.91 72.33,18.16 71.85,18.16 Z" id="Shape"></path>
            <path d="M78.47,18.16 C78,18.16 77.52,17.86 77.52,17.24 L77.52,1.65 C77.52,1.03 77.99,0.7 78.47,0.7 C78.95,0.7 79.42,1.02 79.42,1.65 L79.42,17.24 C79.41,17.86 78.94,18.16 78.47,18.16 Z" id="Shape"></path>
            <path d="M92.74,18.16 C92.37,18.16 91.82,18.16 91.45,17.34 L86.03,5.08 L86.03,17.24 C86.03,17.86 85.56,18.16 85.09,18.16 C84.62,18.16 84.15,17.86 84.15,17.24 L84.15,1.67 C84.15,1 84.7,0.7 85.27,0.7 C85.84,0.7 86.24,0.82 86.54,1.5 L91.94,13.81 L91.94,1.65 C91.94,1.03 92.44,0.7 92.91,0.7 C93.38,0.7 93.83,1.02 93.83,1.65 L93.83,17.07 C93.81,17.88 93.32,18.16 92.74,18.16 Z" id="Shape"></path>
            <path d="M102.89,18.16 L102.64,18.16 C100.03,18.16 97.91,16.1 97.91,13.46 L97.91,5.43 C97.91,2.79 100.02,0.7 102.64,0.7 L102.89,0.7 C105.3,0.7 107.29,2.42 107.62,4.75 L107.62,4.9 C107.62,5.5 107.15,5.82 106.67,5.82 C106.25,5.82 105.82,5.6 105.73,5.02 C105.46,3.63 104.51,2.58 102.89,2.58 L102.64,2.58 C101.07,2.58 99.81,3.87 99.81,5.39 L99.81,13.45 C99.81,15.02 101.08,16.29 102.64,16.29 L102.89,16.29 C104.46,16.29 105.73,15.02 105.73,13.45 L105.73,10.54 L103.12,10.54 C102.5,10.54 102.18,10.07 102.18,9.59 C102.18,9.11 102.5,8.64 103.12,8.64 L106.68,8.64 C107.18,8.64 107.63,9.09 107.63,9.59 L107.63,13.44 C107.62,16.09 105.5,18.16 102.89,18.16 Z" id="Shape"></path>
        </g>
    </g>
</svg>