<?xml version="1.0" encoding="utf-8"?>
<!-- Generator: Adobe Illustrator 23.0.0, SVG Export Plug-In . SVG Version: 6.00 Build 0)  -->
<svg version="1.1" id="Ebene_1" xmlns="http://www.w3.org/2000/svg" xmlns:xlink="http://www.w3.org/1999/xlink" x="0px" y="0px"
	 viewBox="0 0 595.28 841.89" style="enable-background:new 0 0 595.28 841.89;" xml:space="preserve">
<g>
	<path d="M220.24,458.5h-0.25c-2.61,0-4.73-2.06-4.73-4.7v-8.06c0-2.59,2.11-4.7,4.73-4.7h0.25c2.39,0,4.35,1.74,4.68,4.05v0.15
		c0,0.6-0.45,0.92-0.92,0.92c-0.42,0-0.82-0.25-0.94-0.82c-0.27-1.37-1.39-2.41-2.81-2.41h-0.25c-1.57,0-2.83,1.29-2.83,2.81v8.06
		c0,1.57,1.27,2.83,2.83,2.83h0.25c1.42,0,2.54-1.04,2.81-2.41c0.12-0.57,0.55-0.82,0.94-0.82c0.47,0,0.92,0.32,0.92,0.92v0.17
		C224.59,456.78,222.58,458.5,220.24,458.5z"/>
	<path d="M236.88,458.5c-0.47,0-0.94-0.25-0.94-0.92v-7.14h-5.89v7.14c0,0.62-0.47,0.92-0.95,0.92s-0.95-0.3-0.95-0.92v-15.59
		c0-0.62,0.47-0.95,0.95-0.95s0.95,0.32,0.95,0.95v6.57h5.89v-6.57c0-0.62,0.47-0.95,0.94-0.95c0.47,0,0.95,0.32,0.95,0.95v15.59
		C237.83,458.25,237.35,458.5,236.88,458.5z"/>
	<path d="M251.9,458.5c-0.37,0-0.75-0.17-0.9-0.65l-1.09-3.58h-6.14l-1.12,3.58c-0.15,0.47-0.5,0.65-0.87,0.65
		c-0.57,0-0.97-0.4-0.97-0.9c0-0.07,0.02-0.17,0.05-0.3l4.85-15.57c0.15-0.47,0.62-0.7,1.12-0.7c0.52,0,1,0.22,1.14,0.7l4.85,15.57
		c0.02,0.12,0.05,0.22,0.05,0.3C252.87,458.1,252.47,458.5,251.9,458.5z M246.83,444.42l-2.46,7.96h4.95L246.83,444.42z"/>
	<path d="M260.81,450.59h-3.06v6.99c0,0.62-0.47,0.92-0.95,0.92s-0.95-0.3-0.95-0.92v-15.45c0-0.5,0.45-0.95,0.95-0.95h4
		c2.61,0,4.73,2.06,4.73,4.68S263.42,450.59,260.81,450.59z M260.81,443.08h-3.06v5.62h3.06c1.57,0,2.84-1.27,2.84-2.84
		C263.64,444.35,262.37,443.08,260.81,443.08z"/>
	<path d="M274.83,443.08h-2.74v14.5c0,0.62-0.47,0.92-0.95,0.92c-0.47,0-0.94-0.3-0.94-0.92v-14.5h-2.74
		c-0.62,0-0.95-0.47-0.95-0.95s0.32-0.95,0.95-0.95h7.36c0.62,0,0.95,0.47,0.95,0.95S275.45,443.08,274.83,443.08z"/>
	<path d="M287.12,458.37h-7.78c-0.5,0-0.95-0.45-0.95-0.95v-15.3c0-0.5,0.45-0.95,0.95-0.95h7.78c0.67,0,0.95,0.47,0.95,0.95
		s-0.27,0.95-0.95,0.95h-6.84v5.47h4.75c0.62,0,0.95,0.47,0.95,0.95s-0.32,0.94-0.95,0.94h-4.75v6.04h6.84
		c0.67,0,0.95,0.47,0.95,0.95S287.79,458.37,287.12,458.37z"/>
	<path d="M297.49,450.71l3.08,6.44c0.07,0.12,0.1,0.27,0.1,0.42c0,0.52-0.4,0.92-1,0.92c-0.3,0-0.62-0.12-0.82-0.52l-3.38-7.11
		h-2.54v6.72c0,0.62-0.47,0.92-0.95,0.92s-0.95-0.3-0.95-0.92v-15.45c0-0.5,0.45-0.95,0.95-0.95h4.18c2.61,0,4.73,2.11,4.73,4.73
		v0.22C300.9,448.33,299.5,450.12,297.49,450.71z M299.01,445.91c0-1.57-1.27-2.83-2.83-2.83h-3.23v5.89h3.33
		c1.57,0,2.74-1.27,2.74-2.84V445.91z"/>
	<path d="M319.92,458.37h-6.42c-1.09,0-1.22-1.29-0.77-2.04l5.65-9.45c0.47-0.77,0.47-1.12,0.47-1.62v-0.15
		c0-1.19-0.8-2.19-2.11-2.19h-0.07c-1.17,0-2.06,0.95-2.06,2.09v0.27c0,0.62-0.47,0.95-0.95,0.95s-0.97-0.32-0.97-0.95v-0.27
		c0-2.21,1.77-3.98,3.96-3.98h0.07c2.19,0,4.03,1.74,4.03,3.98v0.17c0,0.72-0.07,1.52-0.65,2.49l-5.25,8.8h5.05
		c0.62,0,0.97,0.47,0.97,0.95S320.54,458.37,319.92,458.37z"/>
</g>
</svg>
