<?xml version="1.0" encoding="UTF-8"?>
<svg width="104px" height="18px" viewBox="0 0 104 18" version="1.1" xmlns="http://www.w3.org/2000/svg" xmlns:xlink="http://www.w3.org/1999/xlink">
    <!-- Generator: Sketch 49.3 (51167) - http://www.bohemiancoding.com/sketch -->
    <title>CHAPTER 1</title>
    <desc>Created with Sketch.</desc>
    <defs></defs>
    <g id="Page-1" stroke="none" stroke-width="1" fill="none" fill-rule="evenodd">
        <g id="CHAPTER-1" fill="#000000" fill-rule="nonzero">
            <path d="M5.24,17.5 L4.99,17.5 C2.38,17.5 0.26,15.44 0.26,12.8 L0.26,4.74 C0.26,2.15 2.37,0.04 4.99,0.04 L5.24,0.04 C7.63,0.04 9.59,1.78 9.92,4.09 L9.92,4.24 C9.92,4.84 9.47,5.16 9,5.16 C8.58,5.16 8.18,4.91 8.06,4.34 C7.79,2.97 6.67,1.93 5.25,1.93 L5,1.93 C3.43,1.93 2.17,3.22 2.17,4.74 L2.17,12.8 C2.17,14.37 3.44,15.63 5,15.63 L5.25,15.63 C6.67,15.63 7.79,14.59 8.06,13.22 C8.18,12.65 8.61,12.4 9,12.4 C9.47,12.4 9.92,12.72 9.92,13.32 L9.92,13.49 C9.59,15.78 7.58,17.5 5.24,17.5 Z" id="Shape"></path>
            <path d="M21.88,17.5 C21.41,17.5 20.94,17.25 20.94,16.58 L20.94,9.44 L15.05,9.44 L15.05,16.58 C15.05,17.2 14.58,17.5 14.1,17.5 C13.62,17.5 13.15,17.2 13.15,16.58 L13.15,0.99 C13.15,0.37 13.62,0.04 14.1,0.04 C14.58,0.04 15.05,0.36 15.05,0.99 L15.05,7.56 L20.94,7.56 L20.94,0.99 C20.94,0.37 21.41,0.04 21.88,0.04 C22.35,0.04 22.83,0.36 22.83,0.99 L22.83,16.58 C22.83,17.25 22.35,17.5 21.88,17.5 Z" id="Shape"></path>
            <path d="M36.9,17.5 C36.53,17.5 36.15,17.33 36,16.85 L34.91,13.27 L28.77,13.27 L27.65,16.85 C27.5,17.32 27.15,17.5 26.78,17.5 C26.21,17.5 25.81,17.1 25.81,16.6 C25.81,16.53 25.83,16.43 25.86,16.3 L30.71,0.73 C30.86,0.26 31.33,0.03 31.83,0.03 C32.35,0.03 32.83,0.25 32.97,0.73 L37.82,16.3 C37.84,16.42 37.87,16.52 37.87,16.6 C37.87,17.1 37.47,17.5 36.9,17.5 Z M31.83,3.42 L29.37,11.38 L34.32,11.38 L31.83,3.42 Z" id="Shape"></path>
            <path d="M45.81,9.59 L42.75,9.59 L42.75,16.58 C42.75,17.2 42.28,17.5 41.8,17.5 C41.32,17.5 40.85,17.2 40.85,16.58 L40.85,1.13 C40.85,0.63 41.3,0.18 41.8,0.18 L45.8,0.18 C48.41,0.18 50.53,2.24 50.53,4.86 C50.53,7.48 48.42,9.59 45.81,9.59 Z M45.81,2.08 L42.75,2.08 L42.75,7.7 L45.81,7.7 C47.38,7.7 48.65,6.43 48.65,4.86 C48.64,3.35 47.37,2.08 45.81,2.08 Z" id="Shape"></path>
            <path d="M59.83,2.08 L57.09,2.08 L57.09,16.58 C57.09,17.2 56.62,17.5 56.14,17.5 C55.67,17.5 55.2,17.2 55.2,16.58 L55.2,2.08 L52.46,2.08 C51.84,2.08 51.51,1.61 51.51,1.13 C51.51,0.65 51.83,0.18 52.46,0.18 L59.82,0.18 C60.44,0.18 60.77,0.65 60.77,1.13 C60.77,1.61 60.45,2.08 59.83,2.08 Z" id="Shape"></path>
            <path d="M72.12,17.37 L64.34,17.37 C63.84,17.37 63.39,16.92 63.39,16.42 L63.39,1.12 C63.39,0.62 63.84,0.17 64.34,0.17 L72.12,0.17 C72.79,0.17 73.07,0.64 73.07,1.12 C73.07,1.6 72.8,2.07 72.12,2.07 L65.28,2.07 L65.28,7.54 L70.03,7.54 C70.65,7.54 70.98,8.01 70.98,8.49 C70.98,8.97 70.66,9.43 70.03,9.43 L65.28,9.43 L65.28,15.47 L72.12,15.47 C72.79,15.47 73.07,15.94 73.07,16.42 C73.07,16.9 72.79,17.37 72.12,17.37 Z" id="Shape"></path>
            <path d="M82.49,9.71 L85.57,16.15 C85.64,16.27 85.67,16.42 85.67,16.57 C85.67,17.09 85.27,17.49 84.67,17.49 C84.37,17.49 84.05,17.37 83.85,16.97 L80.47,9.86 L77.93,9.86 L77.93,16.58 C77.93,17.2 77.46,17.5 76.98,17.5 C76.5,17.5 76.03,17.2 76.03,16.58 L76.03,1.13 C76.03,0.63 76.48,0.18 76.98,0.18 L81.16,0.18 C83.77,0.18 85.89,2.29 85.89,4.91 L85.89,5.13 C85.9,7.33 84.5,9.12 82.49,9.71 Z M84.01,4.91 C84.01,3.34 82.74,2.08 81.18,2.08 L77.95,2.08 L77.95,7.97 L81.28,7.97 C82.85,7.97 84.02,6.7 84.02,5.13 L84.02,4.91 L84.01,4.91 Z" id="Shape"></path>
            <path d="M102.56,17.5 C102.09,17.5 101.61,17.2 101.61,16.58 L101.61,2.95 L100.39,4.69 C99.67,5.73 98.1,4.59 98.85,3.6 L101.24,0.39 C101.39,0.17 101.64,0.04 102.01,0.04 L102.81,0.04 C103.31,0.04 103.51,0.36 103.51,0.86 L103.51,16.58 C103.5,17.2 103.03,17.5 102.56,17.5 Z" id="Shape"></path>
        </g>
    </g>
</svg>