<?xml version="1.0" encoding="UTF-8"?>
<svg width="220px" height="19px" viewBox="0 0 220 19" version="1.1" xmlns="http://www.w3.org/2000/svg" xmlns:xlink="http://www.w3.org/1999/xlink">
    <!-- Generator: Sketch 49.3 (51167) - http://www.bohemiancoding.com/sketch -->
    <title>complexmovements</title>
    <desc>Created with Sketch.</desc>
    <defs></defs>
    <g id="Page-1" stroke="none" stroke-width="1" fill="none" fill-rule="evenodd">
        <g id="complexmovements" fill="#000000" fill-rule="nonzero">
            <path d="M5.95,18.27 L5.7,18.27 C3.09,18.27 0.97,16.21 0.97,13.57 L0.97,5.51 C0.97,2.92 3.08,0.81 5.7,0.81 L5.95,0.81 C8.34,0.81 10.3,2.55 10.63,4.86 L10.63,5.01 C10.63,5.61 10.18,5.93 9.71,5.93 C9.29,5.93 8.89,5.68 8.76,5.11 C8.49,3.74 7.37,2.7 5.95,2.7 L5.7,2.7 C4.13,2.7 2.86,3.99 2.86,5.51 L2.86,13.57 C2.86,15.14 4.13,16.41 5.7,16.41 L5.95,16.41 C7.37,16.41 8.49,15.37 8.76,14 C8.88,13.43 9.31,13.18 9.71,13.18 C10.18,13.18 10.63,13.5 10.63,14.1 L10.63,14.27 C10.3,16.55 8.29,18.27 5.95,18.27 Z" id="Shape"></path>
            <path d="M18.46,18.27 L18.21,18.27 C15.6,18.27 13.48,16.21 13.48,13.57 L13.48,5.51 C13.48,2.92 15.59,0.81 18.21,0.81 L18.46,0.81 C21.05,0.81 23.16,2.92 23.16,5.51 L23.16,13.57 C23.16,16.2 21.05,18.27 18.46,18.27 Z M21.27,5.53 C21.27,3.96 20.03,2.69 18.46,2.69 L18.21,2.69 C16.64,2.69 15.37,3.98 15.37,5.5 L15.37,13.56 C15.37,15.13 16.64,16.4 18.21,16.4 L18.46,16.4 C20.03,16.4 21.27,15.13 21.27,13.56 L21.27,5.53 Z" id="Shape"></path>
            <path d="M38.88,18.27 C38.41,18.27 37.93,17.97 37.93,17.35 L37.93,5.19 L34.65,12.73 C34.45,13.2 34.03,13.38 33.61,13.38 C33.14,13.38 32.74,13.16 32.54,12.73 L29.16,5.19 L29.16,17.35 C29.16,17.97 28.69,18.27 28.22,18.27 C27.75,18.27 27.27,17.97 27.27,17.35 L27.27,1.9 C27.27,1.23 27.52,0.81 28.39,0.81 L28.46,0.81 C29.13,0.81 29.41,1.16 29.58,1.53 L33.56,10.43 L37.51,1.53 C37.68,1.16 37.96,0.81 38.65,0.81 L38.72,0.81 C39.59,0.81 39.81,1.23 39.81,1.9 L39.81,17.35 C39.83,17.97 39.35,18.27 38.88,18.27 Z" id="Shape"></path>
            <path d="M49.25,10.36 L46.19,10.36 L46.19,17.35 C46.19,17.97 45.72,18.27 45.24,18.27 C44.77,18.27 44.3,17.97 44.3,17.35 L44.3,1.9 C44.3,1.4 44.75,0.95 45.24,0.95 L49.24,0.95 C51.85,0.95 53.97,3.01 53.97,5.63 C53.98,8.24 51.86,10.36 49.25,10.36 Z M49.25,2.85 L46.19,2.85 L46.19,8.47 L49.25,8.47 C50.82,8.47 52.09,7.2 52.09,5.63 C52.09,4.11 50.82,2.85 49.25,2.85 Z" id="Shape"></path>
            <path d="M64.57,18.14 L57.78,18.14 C57.28,18.14 56.84,17.69 56.84,17.19 L56.84,1.74 C56.84,1.12 57.31,0.8 57.78,0.8 C58.25,0.8 58.73,1.12 58.73,1.74 L58.73,16.24 L64.57,16.24 C65.19,16.24 65.52,16.71 65.52,17.18 C65.52,17.67 65.19,18.14 64.57,18.14 Z" id="Shape"></path>
            <path d="M77.23,18.14 L69.45,18.14 C68.95,18.14 68.5,17.69 68.5,17.19 L68.5,1.89 C68.5,1.39 68.95,0.94 69.45,0.94 L77.23,0.94 C77.9,0.94 78.18,1.41 78.18,1.89 C78.18,2.37 77.91,2.83 77.23,2.83 L70.39,2.83 L70.39,8.3 L75.14,8.3 C75.76,8.3 76.09,8.77 76.09,9.24 C76.09,9.71 75.77,10.18 75.14,10.18 L70.39,10.18 L70.39,16.22 L77.23,16.22 C77.9,16.22 78.18,16.69 78.18,17.16 C78.18,17.67 77.9,18.14 77.23,18.14 Z" id="Shape"></path>
            <path d="M89.12,18.27 C88.75,18.27 88.47,18.1 88.3,17.77 L85.14,11.4 L81.96,17.77 C81.79,18.14 81.46,18.27 81.16,18.27 C80.39,18.27 79.94,17.6 80.26,16.93 L84.07,9.27 L80.56,2.18 C80.24,1.51 80.66,0.81 81.43,0.81 C81.73,0.81 82.08,0.96 82.25,1.33 L85.13,7.15 L88.02,1.33 C88.19,0.96 88.52,0.81 88.84,0.81 C89.61,0.81 90.03,1.51 89.71,2.18 L86.18,9.27 L89.99,16.93 C90.31,17.59 89.89,18.27 89.12,18.27 Z" id="Shape"></path>
            <path d="M113.76,18.27 C113.29,18.27 112.81,17.97 112.81,17.35 L112.81,5.19 L109.53,12.73 C109.33,13.2 108.91,13.38 108.49,13.38 C108.02,13.38 107.62,13.16 107.42,12.73 L104.04,5.19 L104.04,17.35 C104.04,17.97 103.57,18.27 103.09,18.27 C102.61,18.27 102.14,17.97 102.14,17.35 L102.14,1.9 C102.14,1.23 102.39,0.81 103.26,0.81 L103.34,0.81 C104.01,0.81 104.29,1.16 104.46,1.53 L108.44,10.43 L112.39,1.53 C112.56,1.16 112.84,0.81 113.53,0.81 L113.6,0.81 C114.47,0.81 114.69,1.23 114.69,1.9 L114.69,17.35 C114.71,17.97 114.24,18.27 113.76,18.27 Z" id="Shape"></path>
            <path d="M123.79,18.27 L123.54,18.27 C120.93,18.27 118.81,16.21 118.81,13.57 L118.81,5.51 C118.81,2.92 120.92,0.81 123.54,0.81 L123.79,0.81 C126.38,0.81 128.49,2.92 128.49,5.51 L128.49,13.57 C128.49,16.2 126.37,18.27 123.79,18.27 Z M126.6,5.53 C126.6,3.96 125.36,2.69 123.79,2.69 L123.54,2.69 C121.97,2.69 120.7,3.98 120.7,5.5 L120.7,13.56 C120.7,15.13 121.97,16.4 123.54,16.4 L123.79,16.4 C125.36,16.4 126.6,15.13 126.6,13.56 L126.6,5.53 Z" id="Shape"></path>
            <path d="M141.17,1.98 L137.29,17.55 C137.17,18.05 136.74,18.27 136.27,18.27 C135.85,18.27 135.4,18.05 135.28,17.55 L131.37,1.98 C131.35,1.91 131.35,1.83 131.35,1.73 C131.35,1.21 131.75,0.81 132.32,0.81 C132.72,0.81 133.09,1.03 133.22,1.53 L136.28,14.54 L139.34,1.53 C139.46,1.03 139.86,0.81 140.24,0.81 C140.81,0.81 141.24,1.21 141.24,1.73 C141.22,1.75 141.2,1.85 141.17,1.98 Z" id="Shape"></path>
            <path d="M153.18,18.14 L145.4,18.14 C144.9,18.14 144.45,17.69 144.45,17.19 L144.45,1.89 C144.45,1.39 144.9,0.94 145.4,0.94 L153.18,0.94 C153.85,0.94 154.13,1.41 154.13,1.89 C154.13,2.37 153.86,2.83 153.18,2.83 L146.34,2.83 L146.34,8.3 L151.09,8.3 C151.71,8.3 152.04,8.77 152.04,9.24 C152.04,9.71 151.72,10.18 151.09,10.18 L146.34,10.18 L146.34,16.22 L153.18,16.22 C153.85,16.22 154.13,16.69 154.13,17.16 C154.13,17.67 153.86,18.14 153.18,18.14 Z" id="Shape"></path>
            <path d="M168.73,18.27 C168.26,18.27 167.79,17.97 167.79,17.35 L167.79,5.19 L164.51,12.73 C164.31,13.2 163.89,13.38 163.47,13.38 C163,13.38 162.6,13.16 162.4,12.73 L159.02,5.19 L159.02,17.35 C159.02,17.97 158.55,18.27 158.07,18.27 C157.59,18.27 157.13,17.97 157.13,17.35 L157.13,1.9 C157.13,1.23 157.38,0.81 158.25,0.81 L158.32,0.81 C158.99,0.81 159.27,1.16 159.44,1.53 L163.42,10.43 L167.37,1.53 C167.54,1.16 167.82,0.81 168.51,0.81 L168.58,0.81 C169.45,0.81 169.67,1.23 169.67,1.9 L169.67,17.35 C169.67,17.97 169.2,18.27 168.73,18.27 Z" id="Shape"></path>
            <path d="M182.88,18.14 L175.09,18.14 C174.59,18.14 174.15,17.69 174.15,17.19 L174.15,1.89 C174.15,1.39 174.6,0.94 175.09,0.94 L182.88,0.94 C183.55,0.94 183.83,1.41 183.83,1.89 C183.83,2.37 183.56,2.83 182.88,2.83 L176.04,2.83 L176.04,8.3 L180.79,8.3 C181.41,8.3 181.74,8.77 181.74,9.24 C181.74,9.71 181.42,10.18 180.79,10.18 L176.04,10.18 L176.04,16.22 L182.88,16.22 C183.55,16.22 183.83,16.69 183.83,17.16 C183.82,17.67 183.55,18.14 182.88,18.14 Z" id="Shape"></path>
            <path d="M195.41,18.27 C195.04,18.27 194.49,18.27 194.12,17.45 L188.7,5.19 L188.7,17.35 C188.7,17.97 188.23,18.27 187.75,18.27 C187.27,18.27 186.8,17.97 186.8,17.35 L186.8,1.78 C186.8,1.11 187.35,0.81 187.92,0.81 C188.49,0.81 188.89,0.93 189.19,1.61 L194.59,13.92 L194.59,1.76 C194.59,1.14 195.09,0.82 195.56,0.82 C196.03,0.82 196.48,1.14 196.48,1.76 L196.48,17.18 C196.48,17.99 195.99,18.27 195.41,18.27 Z" id="Shape"></path>
            <path d="M207.4,2.85 L204.66,2.85 L204.66,17.35 C204.66,17.97 204.19,18.27 203.71,18.27 C203.23,18.27 202.76,17.97 202.76,17.35 L202.76,2.85 L200.02,2.85 C199.4,2.85 199.07,2.38 199.07,1.91 C199.07,1.44 199.39,0.96 200.02,0.96 L207.38,0.96 C208,0.96 208.33,1.43 208.33,1.91 C208.33,2.39 208.02,2.85 207.4,2.85 Z" id="Shape"></path>
            <path d="M215.11,18.27 L214.89,18.27 C212.33,18.27 209.97,16.7 209.97,13.69 C209.97,13.07 210.44,12.77 210.92,12.77 C211.4,12.77 211.86,13.04 211.86,13.72 C211.86,15.49 213.3,16.41 214.92,16.41 L215.17,16.41 C217.13,16.41 217.98,15.44 217.98,13.65 C217.98,11.61 216.54,11.04 215.02,10.19 C212.63,8.85 210.22,8.25 210.22,5.07 C210.22,2.66 212.28,0.82 214.9,0.82 L215.15,0.82 C217.54,0.82 219.68,2.51 219.68,4.8 C219.68,5.42 219.26,5.72 218.78,5.72 C218.3,5.72 217.86,5.42 217.78,4.82 C217.66,3.6 216.61,2.71 215.09,2.71 L214.87,2.71 C212.81,2.71 212.13,4.2 212.13,5.07 C212.13,6.89 213.67,7.43 215.01,8.15 C217.5,9.49 219.86,10.29 219.86,13.67 C219.86,16.53 218.12,18.27 215.11,18.27 Z" id="Shape"></path>
        </g>
    </g>
</svg>