<?xml version="1.0" encoding="UTF-8"?>
<svg width="124px" height="26px" viewBox="0 0 86 18" version="1.1" xmlns="http://www.w3.org/2000/svg" xmlns:xlink="http://www.w3.org/1999/xlink">
    <!-- Generator: Sketch 49.3 (51167) - http://www.bohemiancoding.com/sketch -->
    <title>concept</title>
    <desc>Created with Sketch.</desc>
    <defs></defs>
    <g id="Page-1" stroke="none" stroke-width="1" fill="none" fill-rule="evenodd">
        <g id="concept" fill="#000000" fill-rule="nonzero">
            <path d="M5.34,17.68 L5.09,17.68 C2.48,17.68 0.36,15.62 0.36,12.98 L0.36,4.92 C0.36,2.33 2.47,0.22 5.09,0.22 L5.34,0.22 C7.73,0.22 9.69,1.96 10.02,4.27 L10.02,4.42 C10.02,5.02 9.57,5.34 9.1,5.34 C8.68,5.34 8.28,5.09 8.15,4.52 C7.88,3.15 6.76,2.11 5.34,2.11 L5.09,2.11 C3.52,2.11 2.25,3.4 2.25,4.92 L2.25,12.98 C2.25,14.55 3.52,15.81 5.09,15.81 L5.34,15.81 C6.76,15.81 7.88,14.77 8.15,13.4 C8.27,12.83 8.7,12.58 9.1,12.58 C9.57,12.58 10.02,12.9 10.02,13.5 L10.02,13.67 C9.69,15.96 7.68,17.68 5.34,17.68 Z" id="Shape"></path>
            <path d="M17.85,17.68 L17.6,17.68 C14.99,17.68 12.87,15.62 12.87,12.98 L12.87,4.92 C12.87,2.33 14.98,0.22 17.6,0.22 L17.85,0.22 C20.44,0.22 22.55,2.33 22.55,4.92 L22.55,12.98 C22.55,15.61 20.43,17.68 17.85,17.68 Z M20.66,4.94 C20.66,3.37 19.42,2.1 17.85,2.1 L17.6,2.1 C16.03,2.1 14.76,3.39 14.76,4.91 L14.76,12.97 C14.76,14.54 16.03,15.8 17.6,15.8 L17.85,15.8 C19.42,15.8 20.66,14.53 20.66,12.97 L20.66,4.94 Z" id="Shape"></path>
            <path d="M35.26,17.68 C34.89,17.68 34.34,17.68 33.97,16.86 L28.55,4.6 L28.55,16.76 C28.55,17.38 28.08,17.68 27.61,17.68 C27.14,17.68 26.66,17.38 26.66,16.76 L26.66,1.19 C26.66,0.52 27.21,0.22 27.78,0.22 C28.35,0.22 28.75,0.34 29.05,1.02 L34.45,13.33 L34.45,1.17 C34.45,0.55 34.95,0.23 35.42,0.23 C35.89,0.23 36.34,0.55 36.34,1.17 L36.34,16.59 C36.33,17.4 35.83,17.68 35.26,17.68 Z" id="Shape"></path>
            <path d="M45.4,17.68 L45.15,17.68 C42.54,17.68 40.42,15.62 40.42,12.98 L40.42,4.92 C40.42,2.33 42.53,0.22 45.15,0.22 L45.4,0.22 C47.79,0.22 49.75,1.96 50.08,4.27 L50.08,4.42 C50.08,5.02 49.63,5.34 49.16,5.34 C48.74,5.34 48.34,5.09 48.22,4.52 C47.95,3.15 46.83,2.11 45.41,2.11 L45.16,2.11 C43.59,2.11 42.32,3.4 42.32,4.92 L42.32,12.98 C42.32,14.55 43.59,15.81 45.16,15.81 L45.41,15.81 C46.83,15.81 47.95,14.77 48.22,13.4 C48.34,12.83 48.77,12.58 49.16,12.58 C49.63,12.58 50.08,12.9 50.08,13.5 L50.08,13.67 C49.76,15.96 47.74,17.68 45.4,17.68 Z" id="Shape"></path>
            <path d="M62.04,17.55 L54.26,17.55 C53.76,17.55 53.31,17.1 53.31,16.6 L53.31,1.3 C53.31,0.8 53.76,0.35 54.26,0.35 L62.04,0.35 C62.71,0.35 62.99,0.82 62.99,1.3 C62.99,1.78 62.72,2.25 62.04,2.25 L55.2,2.25 L55.2,7.72 L59.95,7.72 C60.57,7.72 60.89,8.19 60.89,8.67 C60.89,9.15 60.57,9.62 59.95,9.62 L55.2,9.62 L55.2,15.66 L62.04,15.66 C62.71,15.66 62.99,16.13 62.99,16.6 C62.99,17.08 62.71,17.55 62.04,17.55 Z" id="Shape"></path>
            <path d="M70.92,9.77 L67.86,9.77 L67.86,16.76 C67.86,17.38 67.39,17.68 66.91,17.68 C66.43,17.68 65.97,17.38 65.97,16.76 L65.97,1.31 C65.97,0.81 66.42,0.36 66.91,0.36 L70.91,0.36 C73.52,0.36 75.64,2.42 75.64,5.04 C75.65,7.65 73.53,9.77 70.92,9.77 Z M70.92,2.25 L67.86,2.25 L67.86,7.87 L70.92,7.87 C72.49,7.87 73.76,6.6 73.76,5.03 C73.76,3.52 72.49,2.25 70.92,2.25 Z" id="Shape"></path>
            <path d="M84.95,2.25 L82.21,2.25 L82.21,16.75 C82.21,17.37 81.74,17.67 81.26,17.67 C80.78,17.67 80.31,17.37 80.31,16.75 L80.31,2.25 L77.57,2.25 C76.95,2.25 76.62,1.78 76.62,1.3 C76.62,0.82 76.94,0.35 77.57,0.35 L84.93,0.35 C85.55,0.35 85.88,0.82 85.88,1.3 C85.88,1.78 85.57,2.25 84.95,2.25 Z" id="Shape"></path>
        </g>
    </g>
</svg>