<?xml version="1.0" encoding="UTF-8"?>
<svg width="122px" height="26px" viewBox="0 0 122 26" version="1.1" xmlns="http://www.w3.org/2000/svg" xmlns:xlink="http://www.w3.org/1999/xlink">
    <!-- Generator: Sketch 49.3 (51167) - http://www.bohemiancoding.com/sketch -->
    <title>CONTACT</title>
    <desc>Created with Sketch.</desc>
    <defs></defs>
    <g id="Page-1" stroke="none" stroke-width="1" fill="none" fill-rule="evenodd">
        <g id="CONTACT" fill="#000000" fill-rule="nonzero">
            <path d="M7.4,25.9 L7,25.9 C3.2,25.9 0.2,22.9 0.2,19.1 L0.2,7.5 C0.2,3.8 3.3,0.7 7,0.7 L7.4,0.7 C10.8,0.7 13.7,3.2 14.1,6.6 L14.1,6.8 C14.1,7.7 13.5,8.1 12.8,8.1 C12.2,8.1 11.6,7.7 11.4,6.9 C11,4.9 9.4,3.4 7.3,3.4 L7,3.4 C4.7,3.4 2.9,5.3 2.9,7.5 L2.9,19.1 C2.9,21.4 4.7,23.2 7,23.2 L7.4,23.2 C9.4,23.2 11.1,21.7 11.5,19.7 C11.7,18.9 12.3,18.5 12.9,18.5 C13.6,18.5 14.2,19 14.2,19.8 L14.2,20.1 C13.7,23.4 10.8,25.9 7.4,25.9 Z" id="Shape"></path>
            <path d="M25.4,25.9 L25,25.9 C21.2,25.9 18.2,22.9 18.2,19.1 L18.2,7.5 C18.2,3.8 21.3,0.7 25,0.7 L25.4,0.7 C29.1,0.7 32.2,3.8 32.2,7.5 L32.2,19.1 C32.2,22.9 29.2,25.9 25.4,25.9 Z M29.5,7.5 C29.5,5.2 27.7,3.4 25.4,3.4 L25,3.4 C22.7,3.4 20.9,5.3 20.9,7.5 L20.9,19.1 C20.9,21.4 22.7,23.2 25,23.2 L25.4,23.2 C27.7,23.2 29.5,21.4 29.5,19.1 L29.5,7.5 Z" id="Shape"></path>
            <path d="M50.6,25.9 C50.1,25.9 49.3,25.9 48.7,24.7 L40.9,7 L40.9,24.6 C40.9,25.5 40.2,25.9 39.5,25.9 C38.8,25.9 38.1,25.5 38.1,24.6 L38.1,2.1 C38.1,1.1 38.9,0.7 39.7,0.7 C40.5,0.7 41.1,0.9 41.5,1.8 L49.3,19.6 L49.3,2 C49.3,1.1 50,0.6 50.7,0.6 C51.4,0.6 52,1.1 52,2 L52,24.3 C52.1,25.5 51.4,25.9 50.6,25.9 Z" id="Shape"></path>
            <path d="M67.9,3.7 L64,3.7 L64,24.6 C64,25.5 63.3,25.9 62.6,25.9 C61.9,25.9 61.2,25.5 61.2,24.6 L61.2,3.7 L57.3,3.7 C56.4,3.7 55.9,3 55.9,2.3 C55.9,1.6 56.4,0.9 57.3,0.9 L67.9,0.9 C68.8,0.9 69.3,1.6 69.3,2.3 C69.3,3 68.8,3.7 67.9,3.7 Z" id="Shape"></path>
            <path d="M86.9,25.9 C86.4,25.9 85.8,25.6 85.6,25 L84,19.8 L75.1,19.8 L73.5,25 C73.3,25.7 72.8,25.9 72.2,25.9 C71.4,25.9 70.8,25.3 70.8,24.6 C70.8,24.5 70.8,24.3 70.9,24.2 L77.9,1.7 C78.1,1 78.8,0.7 79.5,0.7 C80.3,0.7 80.9,1 81.2,1.7 L88.2,24.2 C88.2,24.4 88.3,24.5 88.3,24.6 C88.3,25.3 87.7,25.9 86.9,25.9 Z M79.6,5.6 L76,17.1 L83.1,17.1 L79.6,5.6 Z" id="Shape"></path>
            <path d="M99.3,25.9 L98.9,25.9 C95.1,25.9 92.1,22.9 92.1,19.1 L92.1,7.5 C92.1,3.8 95.2,0.7 98.9,0.7 L99.3,0.7 C102.7,0.7 105.6,3.2 106,6.6 L106,6.8 C106,7.7 105.4,8.1 104.7,8.1 C104.1,8.1 103.5,7.7 103.3,6.9 C102.9,4.9 101.3,3.4 99.2,3.4 L98.8,3.4 C96.5,3.4 94.7,5.3 94.7,7.5 L94.7,19.1 C94.7,21.4 96.5,23.2 98.8,23.2 L99.2,23.2 C101.2,23.2 102.9,21.7 103.3,19.7 C103.5,18.9 104.1,18.5 104.7,18.5 C105.4,18.5 106,19 106,19.8 L106,20.1 C105.5,23.4 102.6,25.9 99.3,25.9 Z" id="Shape"></path>
            <path d="M120,3.7 L116,3.7 L116,24.6 C116,25.5 115.3,25.9 114.6,25.9 C113.9,25.9 113.2,25.5 113.2,24.6 L113.2,3.7 L109.3,3.7 C108.4,3.7 107.9,3 107.9,2.3 C107.9,1.6 108.4,0.9 109.3,0.9 L120,0.9 C120.9,0.9 121.4,1.6 121.4,2.3 C121.3,3 120.9,3.7 120,3.7 Z" id="Shape"></path>
        </g>
    </g>
</svg>