<?xml version="1.0" encoding="utf-8"?>
<!-- Generator: Adobe Illustrator 23.0.0, SVG Export Plug-In . SVG Version: 6.00 Build 0)  -->
<svg version="1.1" id="Ebene_1" xmlns="http://www.w3.org/2000/svg" xmlns:xlink="http://www.w3.org/1999/xlink" x="0px" y="0px"
	 viewBox="0 0 595.28 841.89" style="enable-background:new 0 0 595.28 841.89;" xml:space="preserve">
<g>
	<path d="M344.4,366.67h-4.05c-0.5,0-0.95-0.45-0.95-0.95v-15.37c0-0.5,0.45-0.95,0.95-0.95h4.05c2.6,0,4.72,2.12,4.72,4.72v7.8
		C349.13,364.55,347,366.67,344.4,366.67z M347.25,354.15c0-1.57-1.25-2.85-2.82-2.85h-3.12v13.47h3.1c1.58,0,2.85-1.27,2.85-2.85
		V354.15z"/>
	<path d="M362.9,366.8c-0.38,0-0.75-0.17-0.9-0.65l-1.1-3.6h-6.17l-1.12,3.6c-0.15,0.48-0.5,0.65-0.88,0.65
		c-0.58,0-0.97-0.4-0.97-0.9c0-0.07,0.02-0.17,0.05-0.3l4.87-15.65c0.15-0.48,0.62-0.7,1.12-0.7c0.52,0,1,0.23,1.15,0.7l4.87,15.65
		c0.02,0.12,0.05,0.23,0.05,0.3C363.88,366.4,363.48,366.8,362.9,366.8z M357.8,352.65l-2.47,8h4.97L357.8,352.65z"/>
	<path d="M368.08,366.8c-0.47,0-0.95-0.3-0.95-0.92V350.2c0-0.62,0.48-0.95,0.95-0.95s0.95,0.33,0.95,0.95v15.67
		C369.03,366.5,368.55,366.8,368.08,366.8z"/>
	<path d="M381.55,366.67h-6.82c-0.5,0-0.95-0.45-0.95-0.95V350.2c0-0.62,0.48-0.95,0.95-0.95s0.95,0.33,0.95,0.95v14.57h5.87
		c0.62,0,0.95,0.47,0.95,0.95C382.5,366.2,382.18,366.67,381.55,366.67z"/>
	<path d="M390.15,360v5.87c0,0.62-0.47,0.92-0.95,0.92c-0.47,0-0.95-0.3-0.95-0.92V360l-3.92-9.42c-0.28-0.67,0.2-1.32,0.92-1.32
		c0.33,0,0.65,0.18,0.83,0.6l3.12,7.5l3.12-7.5c0.17-0.42,0.52-0.6,0.85-0.6c0.72,0,1.17,0.65,0.9,1.32L390.15,360z"/>
	<path d="M412.5,358.97l3.1,6.47c0.08,0.12,0.1,0.27,0.1,0.42c0,0.52-0.4,0.92-1,0.92c-0.3,0-0.62-0.12-0.82-0.52l-3.4-7.15h-2.55
		v6.75c0,0.62-0.48,0.92-0.95,0.92s-0.95-0.3-0.95-0.92v-15.52c0-0.5,0.45-0.95,0.95-0.95h4.2c2.62,0,4.75,2.12,4.75,4.75v0.23
		C415.93,356.57,414.53,358.37,412.5,358.97z M414.03,354.15c0-1.57-1.27-2.85-2.85-2.85h-3.25v5.92h3.35
		c1.58,0,2.75-1.27,2.75-2.85V354.15z"/>
	<path d="M424.05,366.8h-0.25c-2.62,0-4.75-2.07-4.75-4.72v-8.1c0-2.6,2.12-4.72,4.75-4.72h0.25c2.6,0,4.72,2.12,4.72,4.72v8.1
		C428.78,364.72,426.65,366.8,424.05,366.8z M426.88,354c0-1.57-1.25-2.85-2.82-2.85h-0.25c-1.57,0-2.85,1.3-2.85,2.82v8.1
		c0,1.57,1.27,2.85,2.85,2.85h0.25c1.58,0,2.82-1.27,2.82-2.85V354z"/>
	<path d="M437.9,366.8h-0.25c-2.62,0-4.75-2.07-4.75-4.72V350.2c0-0.62,0.48-0.95,0.95-0.95s0.95,0.33,0.95,0.95v11.87
		c0,1.57,1.27,2.85,2.85,2.85h0.25c1.58,0,2.82-1.27,2.82-2.85V350.2c0-0.62,0.48-0.95,0.95-0.95s0.95,0.33,0.95,0.95v11.87
		C442.63,364.72,440.5,366.8,437.9,366.8z"/>
	<path d="M453.6,351.3h-2.75v14.57c0,0.62-0.47,0.92-0.95,0.92c-0.47,0-0.95-0.3-0.95-0.92V351.3h-2.75c-0.62,0-0.95-0.48-0.95-0.95
		c0-0.48,0.33-0.95,0.95-0.95h7.4c0.62,0,0.95,0.48,0.95,0.95C454.55,350.83,454.23,351.3,453.6,351.3z"/>
	<path d="M458.38,366.8c-0.47,0-0.95-0.3-0.95-0.92V350.2c0-0.62,0.48-0.95,0.95-0.95s0.95,0.33,0.95,0.95v15.67
		C459.33,366.5,458.85,366.8,458.38,366.8z"/>
	<path d="M472.73,366.8c-0.38,0-0.92,0-1.3-0.82l-5.45-12.32v12.22c0,0.62-0.48,0.92-0.95,0.92s-0.95-0.3-0.95-0.92v-15.65
		c0-0.67,0.55-0.98,1.12-0.98s0.97,0.12,1.27,0.8l5.42,12.37V350.2c0-0.62,0.5-0.95,0.97-0.95c0.48,0,0.92,0.33,0.92,0.95v15.5
		C473.8,366.52,473.3,366.8,472.73,366.8z"/>
	<path d="M487.08,366.67h-7.82c-0.5,0-0.95-0.45-0.95-0.95v-15.37c0-0.5,0.45-0.95,0.95-0.95h7.82c0.67,0,0.95,0.48,0.95,0.95
		c0,0.47-0.27,0.95-0.95,0.95h-6.87v5.5h4.77c0.62,0,0.95,0.47,0.95,0.95s-0.33,0.95-0.95,0.95h-4.77v6.07h6.87
		c0.67,0,0.95,0.47,0.95,0.95C488.02,366.2,487.75,366.67,487.08,366.67z"/>
</g>
</svg>
