<?xml version="1.0" encoding="UTF-8"?>
<svg width="127px" height="110px" viewBox="0 0 127 110" version="1.1" xmlns="http://www.w3.org/2000/svg" xmlns:xlink="http://www.w3.org/1999/xlink">
    <!-- Generator: Sketch 49.3 (51167) - http://www.bohemiancoding.com/sketch -->
    <title>daily routine_grafik</title>
    <desc>Created with Sketch.</desc>
    <defs></defs>
    <g id="Page-1" stroke="none" stroke-width="1" fill="none" fill-rule="evenodd">
        <g id="daily-routine_grafik" fill-rule="nonzero">
            <g id="Group" transform="translate(2.000000, 0.000000)" fill="#000000">
                <path d="M5.14,8.54 C4.93,8.54 4.72,8.41 4.72,8.13 L4.72,2.75 L3.27,6.08 C3.18,6.29 2.99,6.37 2.81,6.37 C2.6,6.37 2.43,6.27 2.34,6.08 L0.84,2.75 L0.84,8.13 C0.84,8.4 0.63,8.54 0.42,8.54 C0.21,8.54 2.84217094e-14,8.41 2.84217094e-14,8.13 L2.84217094e-14,1.3 C2.84217094e-14,1 0.11,0.82 0.5,0.82 L0.53,0.82 C0.83,0.82 0.95,0.97 1.03,1.14 L2.79,5.08 L4.54,1.14 C4.62,0.97 4.74,0.82 5.05,0.82 L5.08,0.82 C5.46,0.82 5.56,1.01 5.56,1.3 L5.56,8.13 C5.55,8.41 5.35,8.54 5.14,8.54 Z" id="Shape"></path>
                <path d="M9.13,8.54 L9.02,8.54 C8.04,8.54 7.25,7.77 7.25,6.78 L7.25,4.89 C7.25,3.91 8.04,3.12 9.02,3.12 L9.13,3.12 C10.11,3.12 10.9,3.91 10.9,4.89 L10.9,6.78 C10.9,7.77 10.11,8.54 9.13,8.54 Z M10.06,4.89 C10.06,4.37 9.64,3.95 9.12,3.95 L9.01,3.95 C8.49,3.95 8.07,4.37 8.07,4.89 L8.07,6.78 C8.07,7.3 8.49,7.72 9.02,7.72 L9.12,7.72 C9.64,7.72 10.06,7.3 10.06,6.78 L10.06,4.89 Z" id="Shape"></path>
            </g>
            <rect id="Rectangle-path" fill="#16182E" opacity="0.2" x="0.32" y="10.67" width="13.97" height="13.97"></rect>
            <rect id="Rectangle-path" fill="#16182E" opacity="0.2" x="0.32" y="26.47" width="13.97" height="13.97"></rect>
            <rect id="Rectangle-path" fill="#16182E" opacity="0.2" x="0.32" y="42.26" width="13.97" height="13.97"></rect>
            <rect id="Rectangle-path" fill="#16182E" opacity="0.2" x="0.32" y="63.79" width="13.97" height="13.97"></rect>
            <rect id="Rectangle-path" fill="#16182E" opacity="0.2" x="0.32" y="79.59" width="13.97" height="13.97"></rect>
            <rect id="Rectangle-path" fill="#16182E" opacity="0.2" x="0.32" y="95.38" width="13.97" height="13.97"></rect>
            <g id="Group" transform="translate(19.000000, 0.000000)" fill="#000000">
                <path d="M4.58,1.72 L3.37,1.72 L3.37,8.13 C3.37,8.4 3.16,8.54 2.95,8.54 C2.74,8.54 2.53,8.41 2.53,8.13 L2.53,1.72 L1.32,1.72 C1.05,1.72 0.9,1.51 0.9,1.3 C0.9,1.09 1.04,0.88 1.32,0.88 L4.58,0.88 C4.86,0.88 5,1.09 5,1.3 C5,1.51 4.85,1.72 4.58,1.72 Z" id="Shape"></path>
                <path d="M9.12,8.54 C8.93,8.54 8.75,8.44 8.7,8.22 C8.49,8.43 8.14,8.54 7.75,8.54 L7.65,8.54 C6.7,8.54 5.88,8 5.88,6.78 L5.88,3.53 C5.88,3.26 6.09,3.11 6.3,3.11 C6.51,3.11 6.72,3.25 6.72,3.53 L6.72,6.78 C6.72,7.3 7.14,7.72 7.66,7.72 L7.76,7.72 C8.29,7.72 8.71,7.3 8.71,6.78 L8.71,3.53 C8.71,3.26 8.92,3.11 9.13,3.11 C9.34,3.11 9.55,3.25 9.55,3.53 L9.55,8.13 C9.54,8.4 9.33,8.54 9.12,8.54 Z" id="Shape"></path>
            </g>
            <rect id="Rectangle-path" fill="#16182E" opacity="0.2" x="19.05" y="10.67" width="13.97" height="13.97"></rect>
            <rect id="Rectangle-path" fill="#16182E" opacity="0.2" x="19.05" y="26.47" width="13.97" height="13.97"></rect>
            <rect id="Rectangle-path" fill="#16182E" opacity="0.2" x="19.05" y="42.26" width="13.97" height="13.97"></rect>
            <rect id="Rectangle-path" fill="#16182E" opacity="0.2" x="19.05" y="63.79" width="13.97" height="13.97"></rect>
            <rect id="Rectangle-path" fill="#16182E" opacity="0.2" x="19.05" y="79.59" width="13.97" height="13.97"></rect>
            <rect id="Rectangle-path" fill="#16182E" opacity="0.2" x="19.05" y="95.38" width="13.97" height="13.97"></rect>
            <g id="Group" transform="translate(38.000000, 0.000000)" fill="#000000">
                <path d="M7.06,8.22 C7.03,8.39 6.91,8.54 6.65,8.54 L6.45,8.54 C6.22,8.54 6.08,8.37 6.04,8.23 L4.72,2.59 L3.4,8.23 C3.37,8.4 3.22,8.54 2.99,8.54 L2.79,8.54 C2.56,8.54 2.42,8.39 2.38,8.22 L0.91,1.32 C0.85,1.05 1.03,0.81 1.33,0.81 C1.51,0.81 1.67,0.91 1.73,1.14 L2.92,6.67 L4.22,1.1 C4.26,0.92 4.39,0.8 4.64,0.8 L4.82,0.8 C5.05,0.8 5.19,0.92 5.24,1.1 L6.54,6.67 L7.73,1.14 C7.77,0.91 7.95,0.81 8.13,0.81 C8.43,0.81 8.6,1.04 8.55,1.32 L7.06,8.22 Z" id="Shape"></path>
                <path d="M12.92,6.22 L10.52,6.22 L10.52,6.78 C10.52,7.3 10.94,7.72 11.46,7.72 L11.57,7.72 C12,7.72 12.28,7.47 12.43,7.16 C12.51,6.97 12.65,6.9 12.79,6.9 C13.01,6.9 13.22,7.08 13.22,7.33 C13.22,7.4 13.21,7.46 13.18,7.52 C12.92,8.14 12.32,8.55 11.57,8.55 L11.46,8.55 C10.48,8.55 9.69,7.78 9.69,6.79 L9.69,4.9 C9.69,3.92 10.48,3.13 11.46,3.13 L11.57,3.13 C12.55,3.13 13.34,3.89 13.34,4.91 L13.34,5.81 C13.34,6.02 13.15,6.22 12.92,6.22 Z M12.5,4.9 C12.5,4.36 12.06,3.95 11.58,3.95 L11.47,3.95 C10.95,3.95 10.52,4.36 10.52,4.89 L10.52,5.44 L12.5,5.44 L12.5,4.9 Z" id="Shape"></path>
            </g>
            <rect id="Rectangle-path" fill="#16182E" opacity="0.2" x="37.78" y="10.67" width="13.97" height="13.97"></rect>
            <rect id="Rectangle-path" fill="#16182E" opacity="0.2" x="37.78" y="26.47" width="13.97" height="13.97"></rect>
            <rect id="Rectangle-path" fill="#16182E" opacity="0.2" x="37.78" y="42.26" width="13.97" height="13.97"></rect>
            <rect id="Rectangle-path" fill="#16182E" opacity="0.2" x="37.78" y="63.79" width="13.97" height="13.97"></rect>
            <rect id="Rectangle-path" fill="#16182E" opacity="0.2" x="37.78" y="79.59" width="13.97" height="13.97"></rect>
            <rect id="Rectangle-path" fill="#16182E" opacity="0.2" x="37.78" y="95.38" width="13.97" height="13.97"></rect>
            <g id="Group" transform="translate(57.000000, 0.000000)" fill="#000000">
                <path d="M4.04,1.72 L2.83,1.72 L2.83,8.13 C2.83,8.4 2.62,8.54 2.41,8.54 C2.2,8.54 1.99,8.41 1.99,8.13 L1.99,1.72 L0.78,1.72 C0.51,1.72 0.36,1.51 0.36,1.3 C0.36,1.09 0.5,0.88 0.78,0.88 L4.04,0.88 C4.32,0.88 4.46,1.09 4.46,1.3 C4.46,1.51 4.31,1.72 4.04,1.72 Z" id="Shape"></path>
                <path d="M8.85,8.54 C8.64,8.54 8.43,8.41 8.43,8.13 L8.43,4.88 C8.43,4.23 7.93,3.94 7.45,3.94 C6.95,3.94 6.45,4.25 6.45,4.82 L6.45,8.12 C6.45,8.39 6.24,8.53 6.03,8.53 C5.82,8.53 5.61,8.4 5.61,8.12 L5.61,1.22 C5.61,0.95 5.82,0.8 6.03,0.8 C6.24,0.8 6.45,0.94 6.45,1.22 L6.45,3.43 C6.64,3.22 7.02,3.1 7.41,3.1 L7.5,3.1 C8.48,3.1 9.27,3.89 9.27,4.87 L9.27,8.12 C9.26,8.41 9.06,8.54 8.85,8.54 Z" id="Shape"></path>
            </g>
            <rect id="Rectangle-path" fill="#16182E" opacity="0.2" x="56.51" y="10.67" width="13.97" height="13.97"></rect>
            <rect id="Rectangle-path" fill="#16182E" opacity="0.2" x="56.51" y="26.47" width="13.97" height="13.97"></rect>
            <rect id="Rectangle-path" fill="#16182E" opacity="0.2" x="56.51" y="42.26" width="13.97" height="13.97"></rect>
            <rect id="Rectangle-path" fill="#16182E" opacity="0.2" x="56.51" y="63.79" width="13.97" height="13.97"></rect>
            <rect id="Rectangle-path" fill="#16182E" opacity="0.2" x="56.51" y="79.59" width="13.97" height="13.97"></rect>
            <rect id="Rectangle-path" fill="#16182E" opacity="0.2" x="56.51" y="95.38" width="13.97" height="13.97"></rect>
            <g id="Group" transform="translate(76.000000, 0.000000)" fill="#000000">
                <path d="M4.78,1.72 L1.75,1.72 L1.75,4.14 L3.85,4.14 C4.12,4.14 4.27,4.35 4.27,4.56 C4.27,4.77 4.13,4.98 3.85,4.98 L1.75,4.98 L1.75,8.14 C1.75,8.41 1.54,8.55 1.33,8.55 C1.12,8.55 0.91,8.42 0.91,8.14 L0.91,1.31 C0.91,1.09 1.11,0.89 1.33,0.89 L4.77,0.89 C5.07,0.89 5.19,1.1 5.19,1.31 C5.19,1.52 5.08,1.72 4.78,1.72 Z" id="Shape"></path>
                <path d="M8.39,4.34 C8.27,4.34 8.15,4.28 8.05,4.19 C7.96,4.1 7.82,3.96 7.54,3.96 C6.88,3.96 6.8,4.35 6.8,4.7 L6.8,8.12 C6.8,8.42 6.59,8.55 6.38,8.55 C6.17,8.55 5.96,8.42 5.96,8.12 L5.96,3.54 C5.96,3.28 6.18,3.12 6.39,3.12 C6.53,3.12 6.68,3.17 6.75,3.34 C6.75,3.34 6.97,3.12 7.54,3.12 C7.97,3.12 8.42,3.27 8.68,3.66 C8.75,3.76 8.78,3.85 8.78,3.95 C8.8,4.17 8.61,4.34 8.39,4.34 Z" id="Shape"></path>
            </g>
            <rect id="Rectangle-path" fill="#16182E" opacity="0.2" x="75.24" y="10.67" width="13.97" height="13.97"></rect>
            <rect id="Rectangle-path" fill="#16182E" opacity="0.2" x="75.24" y="26.47" width="13.97" height="13.97"></rect>
            <rect id="Rectangle-path" fill="#16182E" opacity="0.2" x="75.24" y="42.26" width="13.97" height="13.97"></rect>
            <rect id="Rectangle-path" fill="#16182E" opacity="0.2" x="75.24" y="63.79" width="13.97" height="13.97"></rect>
            <rect id="Rectangle-path" fill="#16182E" opacity="0.2" x="75.24" y="79.59" width="13.97" height="13.97"></rect>
            <rect id="Rectangle-path" fill="#16182E" opacity="0.2" x="75.24" y="95.38" width="13.97" height="13.97"></rect>
            <g id="Group" transform="translate(95.000000, 0.000000)" fill="#000000">
                <path d="M2.49,8.54 L2.39,8.54 C1.26,8.54 0.21,7.85 0.21,6.52 C0.21,6.25 0.42,6.11 0.63,6.11 C0.84,6.11 1.05,6.23 1.05,6.53 C1.05,7.31 1.69,7.72 2.4,7.72 L2.51,7.72 C3.38,7.72 3.75,7.29 3.75,6.5 C3.75,5.6 3.11,5.34 2.44,4.97 C1.38,4.38 0.32,4.11 0.32,2.7 C0.32,1.63 1.23,0.82 2.39,0.82 L2.5,0.82 C3.56,0.82 4.5,1.57 4.5,2.58 C4.5,2.85 4.31,2.99 4.1,2.99 C3.89,2.99 3.69,2.86 3.66,2.59 C3.61,2.05 3.14,1.65 2.47,1.65 L2.37,1.65 C1.46,1.65 1.16,2.31 1.16,2.7 C1.16,3.5 1.84,3.74 2.44,4.06 C3.54,4.65 4.59,5.01 4.59,6.5 C4.59,7.77 3.82,8.54 2.49,8.54 Z" id="Shape"></path>
                <path d="M9.57,8.54 C9.54,8.54 9.5,8.54 9.49,8.53 C9.11,8.47 8.88,8.32 8.74,8.11 C8.42,8.38 8,8.54 7.55,8.54 L7.45,8.54 C6.57,8.54 5.68,8 5.68,6.97 L5.68,6.84 C5.68,5.1 8.19,5.4 8.46,5.04 C8.49,5 8.49,4.91 8.49,4.85 C8.49,4.19 8.08,3.96 7.6,3.96 L7.52,3.96 C7.07,3.96 6.84,4.15 6.63,4.51 C6.54,4.68 6.4,4.73 6.26,4.73 C6.05,4.73 5.84,4.58 5.84,4.35 C5.84,4.27 5.85,4.21 5.88,4.15 C6.23,3.36 6.95,3.13 7.52,3.13 L7.6,3.13 C8.58,3.13 9.33,3.89 9.33,4.82 L9.33,7.37 C9.33,7.58 9.43,7.7 9.62,7.73 C9.87,7.77 9.97,7.95 9.97,8.13 C9.98,8.34 9.84,8.54 9.57,8.54 Z M8.5,5.91 C7.69,6.11 6.52,6.11 6.52,6.86 L6.52,6.95 C6.52,7.42 6.89,7.72 7.46,7.72 L7.56,7.72 C8.08,7.72 8.51,7.31 8.51,6.78 L8.51,5.91 L8.5,5.91 Z" id="Shape"></path>
            </g>
            <rect id="Rectangle-path" fill="#16182E" opacity="0.2" x="93.97" y="10.67" width="13.97" height="13.97"></rect>
            <rect id="Rectangle-path" fill="#16182E" opacity="0.2" x="93.97" y="26.47" width="13.97" height="13.97"></rect>
            <rect id="Rectangle-path" fill="#16182E" opacity="0.2" x="93.97" y="42.26" width="13.97" height="13.97"></rect>
            <rect id="Rectangle-path" fill="#16182E" opacity="0.2" x="93.97" y="63.79" width="13.97" height="13.97"></rect>
            <rect id="Rectangle-path" fill="#16182E" opacity="0.2" x="93.97" y="79.59" width="13.97" height="13.97"></rect>
            <rect id="Rectangle-path" fill="#16182E" opacity="0.2" x="93.97" y="95.38" width="13.97" height="13.97"></rect>
            <g id="Group" transform="translate(113.000000, 0.000000)" fill="#000000">
                <path d="M3.22,8.54 L3.12,8.54 C1.99,8.54 0.94,7.85 0.94,6.52 C0.94,6.25 1.15,6.11 1.36,6.11 C1.57,6.11 1.78,6.23 1.78,6.53 C1.78,7.31 2.42,7.72 3.13,7.72 L3.24,7.72 C4.11,7.72 4.48,7.29 4.48,6.5 C4.48,5.6 3.84,5.34 3.17,4.97 C2.11,4.38 1.05,4.11 1.05,2.7 C1.05,1.63 1.96,0.82 3.12,0.82 L3.23,0.82 C4.29,0.82 5.23,1.57 5.23,2.58 C5.23,2.85 5.04,2.99 4.83,2.99 C4.62,2.99 4.42,2.86 4.39,2.59 C4.34,2.05 3.87,1.65 3.2,1.65 L3.1,1.65 C2.19,1.65 1.89,2.31 1.89,2.7 C1.89,3.5 2.57,3.74 3.17,4.06 C4.27,4.65 5.32,5.01 5.32,6.5 C5.32,7.77 4.55,8.54 3.22,8.54 Z" id="Shape"></path>
                <path d="M8.45,8.54 L8.34,8.54 C7.36,8.54 6.57,7.77 6.57,6.78 L6.57,4.89 C6.57,3.91 7.36,3.12 8.34,3.12 L8.45,3.12 C9.43,3.12 10.22,3.91 10.22,4.89 L10.22,6.78 C10.23,7.77 9.43,8.54 8.45,8.54 Z M9.39,4.89 C9.39,4.37 8.97,3.95 8.45,3.95 L8.34,3.95 C7.82,3.95 7.4,4.37 7.4,4.89 L7.4,6.78 C7.4,7.3 7.82,7.72 8.35,7.72 L8.45,7.72 C8.97,7.72 9.39,7.3 9.39,6.78 L9.39,4.89 Z" id="Shape"></path>
            </g>
            <rect id="Rectangle-path" fill="#16182E" opacity="0.2" x="112.71" y="10.67" width="13.97" height="13.97"></rect>
            <rect id="Rectangle-path" fill="#16182E" opacity="0.2" x="112.71" y="26.47" width="13.97" height="13.97"></rect>
            <rect id="Rectangle-path" fill="#16182E" opacity="0.2" x="112.71" y="42.26" width="13.97" height="13.97"></rect>
            <rect id="Rectangle-path" fill="#16182E" opacity="0.2" x="112.71" y="63.79" width="13.97" height="13.97"></rect>
            <rect id="Rectangle-path" fill="#16182E" opacity="0.2" x="112.71" y="79.59" width="13.97" height="13.97"></rect>
            <rect id="Rectangle-path" fill="#16182E" opacity="0.2" x="112.71" y="95.38" width="13.97" height="13.97"></rect>
            <rect id="Rectangle-path" fill="#16182E" x="0.32" y="26.47" width="13.97" height="13.97"></rect>
            <rect id="Rectangle-path" fill="#16182E" x="19.05" y="26.47" width="13.97" height="13.97"></rect>
            <rect id="Rectangle-path" fill="#16182E" x="37.78" y="26.47" width="13.97" height="13.97"></rect>
            <rect id="Rectangle-path" fill="#16182E" x="56.51" y="26.47" width="13.97" height="13.97"></rect>
            <rect id="Rectangle-path" fill="#16182E" x="75.24" y="26.47" width="13.97" height="13.97"></rect>
        </g>
    </g>
</svg>