<?xml version="1.0" encoding="UTF-8"?>
<svg width="149px" height="18px" viewBox="0 0 149 18" version="1.1" xmlns="http://www.w3.org/2000/svg" xmlns:xlink="http://www.w3.org/1999/xlink">
    <!-- Generator: Sketch 49.3 (51167) - http://www.bohemiancoding.com/sketch -->
    <title>daily routine</title>
    <desc>Created with Sketch.</desc>
    <defs></defs>
    <g id="Page-1" stroke="none" stroke-width="1" fill="none" fill-rule="evenodd">
        <g id="daily-routine" fill="#000000" fill-rule="nonzero">
            <path d="M5.4,17.67 L1.35,17.67 C0.85,17.67 0.4,17.22 0.4,16.72 L0.4,1.35 C0.4,0.85 0.85,0.4 1.35,0.4 L5.4,0.4 C8,0.4 10.12,2.52 10.12,5.12 L10.12,12.92 C10.13,15.55 8,17.67 5.4,17.67 Z M8.25,5.15 C8.25,3.58 7,2.3 5.43,2.3 L2.31,2.3 L2.31,15.77 L5.41,15.77 C6.99,15.77 8.26,14.5 8.26,12.92 L8.26,5.15 L8.25,5.15 Z" id="Shape"></path>
            <path d="M23.9,17.8 C23.52,17.8 23.15,17.63 23,17.15 L21.9,13.55 L15.73,13.55 L14.61,17.15 C14.46,17.63 14.11,17.8 13.73,17.8 C13.15,17.8 12.76,17.4 12.76,16.9 C12.76,16.83 12.78,16.73 12.81,16.6 L17.68,0.95 C17.83,0.47 18.3,0.25 18.8,0.25 C19.32,0.25 19.8,0.48 19.95,0.95 L24.82,16.6 C24.84,16.72 24.87,16.83 24.87,16.9 C24.88,17.4 24.48,17.8 23.9,17.8 Z M18.8,3.65 L16.33,11.65 L21.3,11.65 L18.8,3.65 Z" id="Shape"></path>
            <path d="M29.08,17.8 C28.61,17.8 28.13,17.5 28.13,16.88 L28.13,1.2 C28.13,0.58 28.61,0.25 29.08,0.25 C29.55,0.25 30.03,0.58 30.03,1.2 L30.03,16.87 C30.03,17.5 29.55,17.8 29.08,17.8 Z" id="Shape"></path>
            <path d="M42.55,17.67 L35.73,17.67 C35.23,17.67 34.78,17.22 34.78,16.72 L34.78,1.2 C34.78,0.58 35.26,0.25 35.73,0.25 C36.2,0.25 36.68,0.58 36.68,1.2 L36.68,15.77 L42.55,15.77 C43.17,15.77 43.5,16.24 43.5,16.72 C43.5,17.2 43.18,17.67 42.55,17.67 Z" id="Shape"></path>
            <path d="M51.15,11 L51.15,16.87 C51.15,17.49 50.68,17.79 50.2,17.79 C49.73,17.79 49.25,17.49 49.25,16.87 L49.25,11 L45.33,1.58 C45.05,0.91 45.53,0.26 46.25,0.26 C46.58,0.26 46.9,0.44 47.08,0.86 L50.2,8.36 L53.32,0.86 C53.49,0.44 53.84,0.26 54.17,0.26 C54.89,0.26 55.34,0.91 55.07,1.58 L51.15,11 Z" id="Shape"></path>
            <path d="M73.5,9.97 L76.6,16.44 C76.68,16.56 76.7,16.71 76.7,16.86 C76.7,17.38 76.3,17.78 75.7,17.78 C75.4,17.78 75.08,17.66 74.88,17.26 L71.48,10.11 L68.93,10.11 L68.93,16.86 C68.93,17.48 68.45,17.78 67.98,17.78 C67.51,17.78 67.03,17.48 67.03,16.86 L67.03,1.34 C67.03,0.84 67.48,0.39 67.98,0.39 L72.18,0.39 C74.8,0.39 76.93,2.51 76.93,5.14 L76.93,5.37 C76.93,7.57 75.53,9.37 73.5,9.97 Z M75.03,5.15 C75.03,3.58 73.76,2.3 72.18,2.3 L68.93,2.3 L68.93,8.22 L72.28,8.22 C73.86,8.22 75.03,6.95 75.03,5.37 L75.03,5.15 Z" id="Shape"></path>
            <path d="M85.05,17.8 L84.8,17.8 C82.18,17.8 80.05,15.73 80.05,13.08 L80.05,4.98 C80.05,2.38 82.17,0.26 84.8,0.26 L85.05,0.26 C87.65,0.26 89.77,2.38 89.77,4.98 L89.77,13.08 C89.78,15.72 87.65,17.8 85.05,17.8 Z M87.88,5 C87.88,3.43 86.63,2.15 85.06,2.15 L84.81,2.15 C83.24,2.15 81.96,3.45 81.96,4.97 L81.96,13.07 C81.96,14.64 83.23,15.92 84.81,15.92 L85.06,15.92 C86.64,15.92 87.88,14.65 87.88,13.07 L87.88,5 Z" id="Shape"></path>
            <path d="M98.9,17.8 L98.65,17.8 C96.03,17.8 93.9,15.73 93.9,13.08 L93.9,1.2 C93.9,0.58 94.38,0.25 94.85,0.25 C95.32,0.25 95.8,0.58 95.8,1.2 L95.8,13.07 C95.8,14.64 97.07,15.92 98.65,15.92 L98.9,15.92 C100.48,15.92 101.72,14.65 101.72,13.07 L101.72,1.2 C101.72,0.58 102.2,0.25 102.67,0.25 C103.14,0.25 103.62,0.58 103.62,1.2 L103.62,13.07 C103.63,15.72 101.5,17.8 98.9,17.8 Z" id="Shape"></path>
            <path d="M114.6,2.3 L111.85,2.3 L111.85,16.87 C111.85,17.49 111.38,17.79 110.9,17.79 C110.43,17.79 109.95,17.49 109.95,16.87 L109.95,2.3 L107.2,2.3 C106.58,2.3 106.25,1.82 106.25,1.35 C106.25,0.87 106.58,0.4 107.2,0.4 L114.6,0.4 C115.22,0.4 115.55,0.88 115.55,1.35 C115.55,1.83 115.23,2.3 114.6,2.3 Z" id="Shape"></path>
            <path d="M119.38,17.8 C118.91,17.8 118.43,17.5 118.43,16.88 L118.43,1.2 C118.43,0.58 118.91,0.25 119.38,0.25 C119.85,0.25 120.33,0.58 120.33,1.2 L120.33,16.87 C120.33,17.5 119.85,17.8 119.38,17.8 Z" id="Shape"></path>
            <path d="M133.73,17.8 C133.35,17.8 132.81,17.8 132.43,16.98 L126.98,4.66 L126.98,16.88 C126.98,17.5 126.5,17.8 126.03,17.8 C125.56,17.8 125.08,17.5 125.08,16.88 L125.08,1.23 C125.08,0.56 125.63,0.25 126.2,0.25 C126.77,0.25 127.17,0.37 127.47,1.05 L132.89,13.42 L132.89,1.2 C132.89,0.58 133.39,0.25 133.86,0.25 C134.34,0.25 134.78,0.58 134.78,1.2 L134.78,16.7 C134.8,17.52 134.3,17.8 133.73,17.8 Z" id="Shape"></path>
            <path d="M148.08,17.67 L140.26,17.67 C139.76,17.67 139.31,17.22 139.31,16.72 L139.31,1.35 C139.31,0.85 139.76,0.4 140.26,0.4 L148.08,0.4 C148.75,0.4 149.03,0.88 149.03,1.35 C149.03,1.82 148.76,2.3 148.08,2.3 L141.21,2.3 L141.21,7.8 L145.98,7.8 C146.6,7.8 146.93,8.27 146.93,8.75 C146.93,9.23 146.6,9.7 145.98,9.7 L141.21,9.7 L141.21,15.77 L148.08,15.77 C148.75,15.77 149.03,16.24 149.03,16.72 C149.02,17.2 148.75,17.67 148.08,17.67 Z" id="Shape"></path>
        </g>
    </g>
</svg>