<?xml version="1.0" encoding="UTF-8"?>
<svg width="238px" height="238px" viewBox="0 0 238 238" version="1.1" xmlns="http://www.w3.org/2000/svg" xmlns:xlink="http://www.w3.org/1999/xlink">
    <!-- Generator: Sketch 49.3 (51167) - http://www.bohemiancoding.com/sketch -->
    <title>Diagram</title>
    <desc>Created with Sketch.</desc>
    <defs></defs>
    <g id="Page-1" stroke="none" stroke-width="1" fill="none" fill-rule="evenodd">
        <g id="Diagram" fill="#16182E" fill-rule="nonzero">
            <path d="M154.5,179.68 L154.39,179.68 C153.73,179.68 153.19,180.23 153.19,180.87 L153.19,184.28 C153.19,184.94 153.73,185.48 154.39,185.48 L154.5,185.48 C155.16,185.48 155.69,184.94 155.69,184.28 L155.69,180.89 C155.69,180.22 155.16,179.68 154.5,179.68 Z" id="Shape"></path>
            <path d="M152.11,192.29 L152,192.29 C151.34,192.29 150.8,192.84 150.8,193.48 L150.8,196.89 C150.8,197.55 151.34,198.09 152,198.09 L152.11,198.09 C152.77,198.09 153.3,197.55 153.3,196.89 L153.3,193.5 C153.29,192.83 152.77,192.29 152.11,192.29 Z" id="Shape"></path>
            <path d="M168.71,180.92 C168.71,180.28 168.17,179.74 167.51,179.74 L166.22,179.74 L166.22,182.12 L167.51,182.12 C168.17,182.12 168.71,181.58 168.71,180.92 Z" id="Shape"></path>
            <path d="M125.43,171.59 L125.43,237.48 C172.87,234.88 212.97,204.26 229.41,161.93 L166.75,141.57 C159.17,157.65 143.74,169.32 125.43,171.59 Z M148.27,198.48 C148.27,198.74 148.07,198.87 147.87,198.87 C147.67,198.87 147.47,198.74 147.47,198.48 L147.47,193.34 L146.08,196.52 C146,196.72 145.82,196.79 145.64,196.79 C145.44,196.79 145.27,196.7 145.19,196.52 L143.76,193.34 L143.76,198.48 C143.76,198.74 143.56,198.87 143.36,198.87 C143.16,198.87 142.96,198.74 142.96,198.48 L142.96,191.95 C142.96,191.67 143.07,191.49 143.43,191.49 L143.46,191.49 C143.74,191.49 143.86,191.64 143.93,191.79 L145.61,195.55 L147.28,191.79 C147.35,191.63 147.47,191.49 147.76,191.49 L147.79,191.49 C148.16,191.49 148.25,191.67 148.25,191.95 L148.25,198.48 L148.27,198.48 Z M149.11,186.26 C148.01,186.26 147.11,185.39 147.11,184.27 L147.11,180.86 C147.11,179.77 148,178.87 149.11,178.87 L149.22,178.87 C150.23,178.87 151.06,179.61 151.2,180.58 L151.2,180.64 C151.2,180.89 151.01,181.03 150.81,181.03 C150.63,181.03 150.46,180.93 150.41,180.68 C150.29,180.1 149.82,179.66 149.22,179.66 L149.11,179.66 C148.45,179.66 147.91,180.21 147.91,180.85 L147.91,184.26 C147.91,184.92 148.45,185.46 149.11,185.46 L149.22,185.46 C149.82,185.46 150.29,185.02 150.41,184.44 C150.46,184.2 150.64,184.09 150.81,184.09 C151.01,184.09 151.2,184.23 151.2,184.48 L151.2,184.55 C151.06,185.52 150.21,186.24 149.22,186.24 L149.11,186.24 L149.11,186.26 Z M154.09,196.88 C154.09,197.99 153.2,198.87 152.1,198.87 L152,198.87 C150.9,198.87 150,198 150,196.88 L150,193.47 C150,192.38 150.89,191.48 152,191.48 L152.11,191.48 C153.2,191.48 154.1,192.37 154.1,193.47 L154.1,196.88 L154.09,196.88 Z M154.4,186.26 C153.3,186.26 152.4,185.39 152.4,184.27 L152.4,180.86 C152.4,179.77 153.29,178.87 154.4,178.87 L154.51,178.87 C155.6,178.87 156.5,179.76 156.5,180.86 L156.5,184.27 C156.5,185.38 155.61,186.26 154.51,186.26 L154.4,186.26 Z M159.45,191.98 L157.81,198.56 C157.76,198.77 157.58,198.86 157.38,198.86 C157.2,198.86 157.01,198.77 156.96,198.56 L155.31,191.98 C155.3,191.95 155.3,191.92 155.3,191.87 C155.3,191.65 155.47,191.48 155.71,191.48 C155.88,191.48 156.04,191.57 156.09,191.78 L157.38,197.28 L158.67,191.78 C158.72,191.57 158.89,191.48 159.05,191.48 C159.29,191.48 159.47,191.65 159.47,191.87 C159.47,191.89 159.46,191.93 159.45,191.98 Z M160.45,183.92 L159.02,180.74 L159.02,185.88 C159.02,186.14 158.82,186.27 158.62,186.27 C158.42,186.27 158.22,186.14 158.22,185.88 L158.22,179.35 C158.22,179.07 158.33,178.89 158.69,178.89 L158.72,178.89 C159,178.89 159.12,179.04 159.19,179.19 L160.87,182.95 L162.54,179.19 C162.61,179.03 162.73,178.89 163.02,178.89 L163.05,178.89 C163.42,178.89 163.51,179.07 163.51,179.35 L163.51,185.88 C163.51,186.14 163.31,186.27 163.11,186.27 C162.91,186.27 162.71,186.14 162.71,185.88 L162.71,180.74 L161.32,183.92 C161.24,184.12 161.06,184.19 160.88,184.19 C160.7,184.19 160.53,184.1 160.45,183.92 Z M163.64,194.66 C163.9,194.66 164.04,194.86 164.04,195.06 C164.04,195.26 163.9,195.46 163.64,195.46 L161.63,195.46 L161.63,198.01 L164.52,198.01 C164.8,198.01 164.92,198.21 164.92,198.41 C164.92,198.61 164.8,198.81 164.52,198.81 L161.23,198.81 C161.02,198.81 160.83,198.62 160.83,198.41 L160.83,191.95 C160.83,191.74 161.02,191.55 161.23,191.55 L164.52,191.55 C164.8,191.55 164.92,191.75 164.92,191.95 C164.92,192.15 164.8,192.35 164.52,192.35 L161.63,192.35 L161.63,194.66 L163.64,194.66 Z M176.19,194.66 C176.45,194.66 176.59,194.86 176.59,195.06 C176.59,195.26 176.45,195.46 176.19,195.46 L174.18,195.46 L174.18,198.01 L177.07,198.01 C177.35,198.01 177.47,198.21 177.47,198.41 C177.47,198.61 177.35,198.81 177.07,198.81 L173.78,198.81 C173.57,198.81 173.38,198.62 173.38,198.41 L173.38,191.95 C173.38,191.74 173.57,191.55 173.78,191.55 L177.07,191.55 C177.35,191.55 177.47,191.75 177.47,191.95 C177.47,192.15 177.35,192.35 177.07,192.35 L174.18,192.35 L174.18,194.66 L176.19,194.66 Z M190.64,195.45 C189.63,194.88 188.61,194.63 188.61,193.28 C188.61,192.26 189.48,191.48 190.59,191.48 L190.7,191.48 C191.71,191.48 192.61,192.2 192.61,193.16 C192.61,193.42 192.43,193.55 192.23,193.55 C192.03,193.55 191.84,193.42 191.81,193.17 C191.76,192.66 191.32,192.28 190.67,192.28 L190.58,192.28 C189.71,192.28 189.42,192.91 189.42,193.28 C189.42,194.05 190.07,194.28 190.64,194.58 C191.69,195.15 192.69,195.48 192.69,196.91 C192.69,198.12 191.95,198.85 190.68,198.85 L190.59,198.85 C189.51,198.85 188.51,198.19 188.51,196.92 C188.51,196.66 188.71,196.53 188.91,196.53 C189.11,196.53 189.31,196.65 189.31,196.93 C189.31,197.68 189.92,198.07 190.6,198.07 L190.71,198.07 C191.54,198.07 191.9,197.66 191.9,196.9 C191.89,196.05 191.28,195.81 190.64,195.45 Z M187.83,191.95 C187.83,192.15 187.69,192.35 187.43,192.35 L186.27,192.35 L186.27,198.48 C186.27,198.74 186.07,198.87 185.87,198.87 C185.67,198.87 185.47,198.74 185.47,198.48 L185.47,192.35 L184.31,192.35 C184.05,192.35 183.91,192.15 183.91,191.95 C183.91,191.75 184.05,191.55 184.31,191.55 L187.42,191.55 C187.69,191.55 187.83,191.75 187.83,191.95 Z M180.61,185.69 L182.22,182.45 L180.74,179.45 C180.6,179.17 180.78,178.87 181.11,178.87 C181.24,178.87 181.38,178.93 181.46,179.09 L182.68,181.55 L183.9,179.09 C183.97,178.93 184.11,178.87 184.25,178.87 C184.58,178.87 184.75,179.16 184.62,179.45 L183.13,182.45 L184.74,185.69 C184.88,185.97 184.7,186.26 184.37,186.26 C184.21,186.26 184.1,186.19 184.02,186.05 L182.69,183.36 L181.34,186.05 C181.27,186.21 181.13,186.26 181,186.26 C180.66,186.26 180.47,185.98 180.61,185.69 Z M182.02,197.03 L182.02,191.89 C182.02,191.63 182.23,191.49 182.43,191.49 C182.63,191.49 182.82,191.63 182.82,191.89 L182.82,198.41 C182.82,198.76 182.61,198.87 182.37,198.87 C182.21,198.87 181.98,198.87 181.82,198.52 L179.53,193.34 L179.53,198.48 C179.53,198.74 179.33,198.87 179.13,198.87 C178.93,198.87 178.73,198.74 178.73,198.48 L178.73,191.9 C178.73,191.62 178.96,191.49 179.2,191.49 C179.44,191.49 179.61,191.54 179.74,191.83 L182.02,197.03 Z M175.64,179.35 C175.64,179.14 175.83,178.95 176.04,178.95 L179.33,178.95 C179.61,178.95 179.73,179.15 179.73,179.35 C179.73,179.55 179.61,179.75 179.33,179.75 L176.44,179.75 L176.44,182.06 L178.45,182.06 C178.71,182.06 178.85,182.26 178.85,182.46 C178.85,182.66 178.71,182.86 178.45,182.86 L176.44,182.86 L176.44,185.41 L179.33,185.41 C179.61,185.41 179.73,185.61 179.73,185.81 C179.73,186.01 179.61,186.21 179.33,186.21 L176.04,186.21 C175.83,186.21 175.64,186.02 175.64,185.81 L175.64,179.35 Z M170.71,179.28 C170.71,179.02 170.91,178.88 171.11,178.88 C171.31,178.88 171.51,179.02 171.51,179.28 L171.51,185.41 L173.98,185.41 C174.24,185.41 174.38,185.61 174.38,185.81 C174.38,186.01 174.24,186.21 173.98,186.21 L171.11,186.21 C170.9,186.21 170.71,186.02 170.71,185.81 L170.71,179.28 Z M171,191.49 L171.03,191.49 C171.4,191.49 171.49,191.67 171.49,191.95 L171.49,198.48 C171.49,198.74 171.29,198.87 171.09,198.87 C170.89,198.87 170.69,198.74 170.69,198.48 L170.69,193.34 L169.3,196.52 C169.22,196.72 169.04,196.79 168.86,196.79 C168.66,196.79 168.49,196.7 168.41,196.52 L166.98,193.34 L166.98,198.48 C166.98,198.74 166.78,198.87 166.58,198.87 C166.38,198.87 166.18,198.74 166.18,198.48 L166.18,191.95 C166.18,191.67 166.29,191.49 166.65,191.49 L166.68,191.49 C166.96,191.49 167.08,191.64 167.15,191.79 L168.83,195.55 L170.5,191.79 C170.59,191.64 170.7,191.49 171,191.49 Z M169.51,180.92 C169.51,182.02 168.62,182.92 167.51,182.92 L166.22,182.92 L166.22,185.87 C166.22,186.13 166.02,186.26 165.82,186.26 C165.62,186.26 165.42,186.13 165.42,185.87 L165.42,179.34 C165.42,179.13 165.61,178.94 165.82,178.94 L167.51,178.94 C168.61,178.95 169.51,179.82 169.51,180.92 Z" id="Shape"></path>
            <path d="M207.31,84.57 L207.31,84.48 C207.31,83.82 206.77,83.28 206.11,83.28 L204.74,83.28 L204.74,85.77 L206.15,85.77 C206.82,85.77 207.31,85.23 207.31,84.57 Z" id="Shape"></path>
            <path d="M180.29,99 L179.07,99 L179.07,101.54 L180.29,101.54 C180.95,101.54 181.49,101 181.49,100.34 L181.49,100.25 C181.48,99.57 180.93,99 180.29,99 Z" id="Shape"></path>
            <polygon id="Shape" points="202.89 99.81 204.99 99.81 203.93 96.45"></polygon>
            <path d="M181.4,97.01 L181.4,97 C181.4,96.33 180.95,95.89 180.29,95.89 L179.07,95.89 L179.07,98.21 L180.29,98.21 C180.92,98.21 181.4,97.71 181.4,97.01 Z" id="Shape"></path>
            <path d="M188.7,95.82 L188.59,95.82 C187.93,95.82 187.39,96.37 187.39,97.01 L187.39,100.42 C187.39,101.08 187.93,101.62 188.59,101.62 L188.7,101.62 C189.36,101.62 189.89,101.08 189.89,100.42 L189.89,97.03 C189.89,96.36 189.36,95.82 188.7,95.82 Z" id="Shape"></path>
            <path d="M193.72,27.23 L155.01,80.52 C165.31,90.18 171.76,103.9 171.76,119.1 C171.76,122.51 171.44,125.85 170.81,129.08 L233.48,149.44 C236.05,139.75 237.42,129.58 237.42,119.1 C237.42,82.09 220.37,48.98 193.72,27.23 Z M215.22,83.21 C214.96,83.21 214.82,83.01 214.82,82.81 C214.82,82.61 214.96,82.41 215.22,82.41 L216.05,82.41 C216.26,82.41 216.45,82.6 216.45,82.81 L216.45,90.57 C216.45,90.78 216.26,90.97 216.05,90.97 L215.22,90.97 C214.96,90.97 214.82,90.77 214.82,90.57 C214.82,90.37 214.96,90.17 215.22,90.17 L215.65,90.17 L215.65,83.21 L215.22,83.21 Z M197.97,82.81 C197.97,82.55 198.17,82.41 198.37,82.41 C198.57,82.41 198.77,82.55 198.77,82.81 L198.77,87.8 C198.77,88.46 199.31,89 199.97,89 L200.08,89 C200.74,89 201.27,88.46 201.27,87.8 L201.27,82.81 C201.27,82.55 201.47,82.41 201.67,82.41 C201.87,82.41 202.07,82.55 202.07,82.81 L202.07,87.8 C202.07,88.91 201.18,89.79 200.08,89.79 L199.97,89.79 C198.87,89.79 197.97,88.92 197.97,87.8 L197.97,82.81 Z M182.28,100.35 C182.28,101.45 181.39,102.35 180.28,102.35 L178.66,102.35 C178.45,102.35 178.26,102.16 178.26,101.95 L178.26,95.49 C178.26,95.28 178.45,95.09 178.66,95.09 L180.28,95.09 C181.4,95.09 182.19,95.91 182.19,97 L182.19,97.01 C182.19,97.8 181.82,98.36 181.37,98.61 C181.81,98.86 182.27,99.41 182.27,100.26 L182.27,100.35 L182.28,100.35 Z M184.76,102.01 C184.76,102.27 184.56,102.4 184.36,102.4 C184.16,102.4 183.96,102.27 183.96,102.01 L183.96,95.42 C183.96,95.16 184.16,95.02 184.36,95.02 C184.56,95.02 184.76,95.16 184.76,95.42 L184.76,102.01 Z M184.78,90.17 C185.04,90.17 185.18,90.37 185.18,90.57 C185.18,90.77 185.04,90.97 184.78,90.97 L183.95,90.97 C183.74,90.97 183.55,90.78 183.55,90.57 L183.55,82.81 C183.55,82.6 183.74,82.41 183.95,82.41 L184.78,82.41 C185.04,82.41 185.18,82.61 185.18,82.81 C185.18,83.01 185.04,83.21 184.78,83.21 L184.35,83.21 L184.35,90.17 L184.78,90.17 Z M190.69,100.41 C190.69,101.52 189.8,102.4 188.7,102.4 L188.59,102.4 C187.49,102.4 186.59,101.53 186.59,100.41 L186.59,97 C186.59,95.91 187.48,95.01 188.59,95.01 L188.7,95.01 C189.79,95.01 190.69,95.9 190.69,97 L190.69,100.41 Z M190.74,89.33 C190.74,89.68 190.53,89.79 190.29,89.79 C190.13,89.79 189.9,89.79 189.74,89.44 L187.45,84.26 L187.45,89.4 C187.45,89.66 187.25,89.79 187.05,89.79 C186.85,89.79 186.65,89.66 186.65,89.4 L186.65,82.82 C186.65,82.54 186.88,82.41 187.12,82.41 C187.36,82.41 187.53,82.46 187.66,82.75 L189.94,87.95 L189.94,82.81 C189.94,82.55 190.15,82.41 190.35,82.41 C190.55,82.41 190.74,82.55 190.74,82.81 L190.74,89.33 Z M192.62,89.34 L192.62,82.88 C192.62,82.67 192.81,82.48 193.02,82.48 L196.31,82.48 C196.59,82.48 196.71,82.68 196.71,82.88 C196.71,83.08 196.59,83.28 196.31,83.28 L193.42,83.28 L193.42,85.59 L195.43,85.59 C195.69,85.59 195.83,85.79 195.83,85.99 C195.83,86.19 195.69,86.39 195.43,86.39 L193.42,86.39 L193.42,88.94 L196.31,88.94 C196.59,88.94 196.71,89.14 196.71,89.34 C196.71,89.54 196.59,89.74 196.31,89.74 L193.02,89.74 C192.81,89.74 192.62,89.55 192.62,89.34 Z M200.13,102.01 C200.13,102.29 199.93,102.4 199.73,102.4 C199.53,102.4 199.33,102.29 199.33,102.01 L199.33,98.99 L196.84,98.99 L196.84,102.01 C196.84,102.27 196.64,102.4 196.44,102.4 C196.24,102.4 196.04,102.27 196.04,102.01 L196.04,95.42 C196.04,95.16 196.24,95.02 196.44,95.02 C196.64,95.02 196.84,95.16 196.84,95.42 L196.84,98.19 L199.33,98.19 L199.33,95.42 C199.33,95.16 199.53,95.02 199.73,95.02 C199.93,95.02 200.13,95.16 200.13,95.42 L200.13,102.01 Z M206.08,102.4 C205.92,102.4 205.76,102.33 205.7,102.13 L205.24,100.62 L202.64,100.62 L202.17,102.13 C202.11,102.33 201.96,102.4 201.8,102.4 C201.56,102.4 201.39,102.23 201.39,102.02 C201.39,101.99 201.4,101.95 201.41,101.89 L203.46,95.31 C203.52,95.11 203.72,95.02 203.93,95.02 C204.15,95.02 204.35,95.11 204.41,95.31 L206.46,101.89 C206.47,101.94 206.48,101.98 206.48,102.02 C206.49,102.23 206.32,102.4 206.08,102.4 Z M207.25,89.57 L205.82,86.56 L204.75,86.56 L204.75,89.4 C204.75,89.66 204.55,89.79 204.35,89.79 C204.15,89.79 203.95,89.66 203.95,89.4 L203.95,82.87 C203.95,82.66 204.14,82.47 204.35,82.47 L206.12,82.47 C207.22,82.47 208.12,83.36 208.12,84.47 L208.12,84.56 C208.12,85.48 207.53,86.24 206.68,86.49 L207.98,89.21 C208.01,89.26 208.02,89.33 208.02,89.39 C208.02,89.61 207.85,89.78 207.6,89.78 C207.47,89.79 207.33,89.74 207.25,89.57 Z M211.67,96.8 C211.67,97.05 211.48,97.19 211.28,97.19 C211.1,97.19 210.93,97.09 210.88,96.84 C210.76,96.26 210.29,95.82 209.69,95.82 L209.58,95.82 C208.92,95.82 208.38,96.37 208.38,97.01 L208.38,100.42 C208.38,101.08 208.92,101.62 209.58,101.62 L209.69,101.62 C210.29,101.62 210.76,101.18 210.88,100.6 C210.93,100.36 211.11,100.25 211.28,100.25 C211.48,100.25 211.67,100.39 211.67,100.64 L211.67,100.71 C211.53,101.68 210.68,102.4 209.69,102.4 L209.58,102.4 C208.48,102.4 207.58,101.53 207.58,100.41 L207.58,97 C207.58,95.91 208.47,95.01 209.58,95.01 L209.69,95.01 C210.7,95.01 211.53,95.75 211.67,96.72 L211.67,96.8 Z M211.53,89.79 L211.42,89.79 C210.32,89.79 209.42,88.92 209.42,87.8 L209.42,84.39 C209.42,83.3 210.31,82.4 211.42,82.4 L211.53,82.4 C212.62,82.4 213.52,83.29 213.52,84.39 L213.52,87.8 C213.51,88.92 212.62,89.79 211.53,89.79 Z M216.71,102.4 C216.55,102.4 216.44,102.33 216.36,102.18 L214.73,98.83 L213.83,100.16 L213.83,102.01 C213.83,102.27 213.63,102.4 213.43,102.4 C213.23,102.4 213.03,102.27 213.03,102.01 L213.03,95.42 C213.03,95.16 213.23,95.02 213.43,95.02 C213.63,95.02 213.83,95.16 213.83,95.42 L213.83,98.74 L216.24,95.2 C216.31,95.08 216.42,95.02 216.56,95.02 C216.8,95.02 216.98,95.21 216.98,95.42 C216.98,95.5 216.96,95.58 216.91,95.65 L215.26,98.07 L217.1,101.83 C217.13,101.9 217.14,101.96 217.14,102.01 C217.13,102.23 216.95,102.4 216.71,102.4 Z M220.15,102.4 L220.06,102.4 C218.98,102.4 217.98,101.74 217.98,100.47 C217.98,100.21 218.18,100.08 218.38,100.08 C218.58,100.08 218.78,100.2 218.78,100.48 C218.78,101.23 219.39,101.62 220.07,101.62 L220.18,101.62 C221.01,101.62 221.37,101.21 221.37,100.45 C221.37,99.59 220.76,99.35 220.12,98.99 C219.11,98.42 218.09,98.17 218.09,96.82 C218.09,95.8 218.96,95.02 220.07,95.02 L220.17,95.02 C221.18,95.02 222.08,95.74 222.08,96.7 C222.08,96.96 221.9,97.09 221.7,97.09 C221.5,97.09 221.31,96.96 221.28,96.71 C221.23,96.2 220.79,95.82 220.14,95.82 L220.05,95.82 C219.18,95.82 218.89,96.45 218.89,96.82 C218.89,97.59 219.54,97.82 220.11,98.12 C221.16,98.69 222.16,99.02 222.16,100.45 C222.15,101.66 221.42,102.4 220.15,102.4 Z" id="Shape"></path>
            <path d="M211.53,83.21 L211.42,83.21 C210.76,83.21 210.22,83.76 210.22,84.4 L210.22,87.81 C210.22,88.47 210.76,89.01 211.42,89.01 L211.53,89.01 C212.19,89.01 212.72,88.47 212.72,87.81 L212.72,84.42 C212.71,83.75 212.19,83.21 211.53,83.21 Z" id="Shape"></path>
            <path d="M98.44,33.29 L98.44,33.28 C98.44,32.61 97.99,32.17 97.33,32.17 L96.11,32.17 L96.11,34.49 L97.33,34.49 C97.96,34.49 98.44,33.99 98.44,33.29 Z" id="Shape"></path>
            <path d="M104.27,33.46 L104.27,33.37 C104.27,32.71 103.73,32.17 103.07,32.17 L101.7,32.17 L101.7,34.66 L103.11,34.66 C103.77,34.66 104.27,34.12 104.27,33.46 Z" id="Shape"></path>
            <path d="M118.86,66.21 C128.11,66.21 136.82,68.6 144.39,72.79 L183.11,19.51 C164.59,7.51 142.52,0.54 118.86,0.54 C95.2,0.54 73.14,7.51 54.62,19.51 L93.33,72.79 C100.9,68.6 109.61,66.21 118.86,66.21 Z M136.53,33.3 C136.53,32.19 137.42,31.3 138.53,31.3 L138.64,31.3 C139.66,31.3 140.5,32.03 140.64,33.01 L140.64,33.07 C140.64,33.32 140.44,33.46 140.24,33.46 C140.06,33.46 139.88,33.37 139.84,33.12 C139.72,32.53 139.33,32.09 138.64,32.09 L138.53,32.09 C137.87,32.09 137.33,32.64 137.33,33.28 L137.33,36.69 C137.33,37.35 137.87,37.89 138.53,37.89 L138.64,37.89 C139.3,37.89 139.84,37.35 139.84,36.69 L139.84,35.46 L138.74,35.46 C138.48,35.46 138.34,35.26 138.34,35.06 C138.34,34.86 138.48,34.66 138.74,34.66 L140.24,34.66 C140.45,34.66 140.64,34.85 140.64,35.06 L140.64,36.69 C140.64,37.8 139.75,38.68 138.64,38.68 L138.53,38.68 C137.43,38.68 136.53,37.81 136.53,36.69 L136.53,33.3 Z M130.71,31.71 C130.71,31.43 130.94,31.3 131.18,31.3 C131.42,31.3 131.59,31.35 131.72,31.64 L134,36.84 L134,31.7 C134,31.44 134.21,31.3 134.41,31.3 C134.61,31.3 134.8,31.44 134.8,31.7 L134.8,38.22 C134.8,38.57 134.59,38.68 134.35,38.68 C134.19,38.68 133.96,38.68 133.8,38.33 L131.51,33.15 L131.51,38.29 C131.51,38.55 131.31,38.68 131.11,38.68 C130.91,38.68 130.71,38.55 130.71,38.29 L130.71,31.71 Z M127.91,31.7 C127.91,31.44 128.11,31.3 128.31,31.3 C128.51,31.3 128.71,31.44 128.71,31.7 L128.71,38.29 C128.71,38.55 128.51,38.68 128.31,38.68 C128.11,38.68 127.91,38.55 127.91,38.29 L127.91,31.7 Z M121.83,31.7 C121.83,31.44 122.03,31.3 122.23,31.3 C122.43,31.3 122.63,31.44 122.63,31.7 L122.63,34.47 L125.12,34.47 L125.12,31.7 C125.12,31.44 125.32,31.3 125.52,31.3 C125.72,31.3 125.92,31.44 125.92,31.7 L125.92,38.29 C125.92,38.57 125.72,38.68 125.52,38.68 C125.32,38.68 125.12,38.57 125.12,38.29 L125.12,35.27 L122.63,35.27 L122.63,38.29 C122.63,38.55 122.43,38.68 122.23,38.68 C122.03,38.68 121.83,38.55 121.83,38.29 L121.83,31.7 Z M117.22,31.37 L120.33,31.37 C120.59,31.37 120.73,31.57 120.73,31.77 C120.73,31.97 120.59,32.17 120.33,32.17 L119.17,32.17 L119.17,38.3 C119.17,38.56 118.97,38.69 118.77,38.69 C118.57,38.69 118.37,38.56 118.37,38.3 L118.37,32.17 L117.21,32.17 C116.95,32.17 116.81,31.97 116.81,31.77 C116.81,31.57 116.96,31.37 117.22,31.37 Z M111.27,38.18 L113.32,31.6 C113.38,31.4 113.58,31.31 113.79,31.31 C114.01,31.31 114.21,31.4 114.27,31.6 L116.32,38.18 C116.33,38.23 116.34,38.27 116.34,38.31 C116.34,38.52 116.17,38.69 115.93,38.69 C115.77,38.69 115.61,38.62 115.55,38.42 L115.09,36.91 L112.49,36.91 L112.02,38.42 C111.96,38.62 111.81,38.69 111.65,38.69 C111.41,38.69 111.24,38.52 111.24,38.31 C111.25,38.27 111.26,38.23 111.27,38.18 Z M106.53,31.76 C106.53,31.55 106.72,31.36 106.93,31.36 L110.22,31.36 C110.5,31.36 110.62,31.56 110.62,31.76 C110.62,31.96 110.5,32.16 110.22,32.16 L107.33,32.16 L107.33,34.47 L109.34,34.47 C109.6,34.47 109.74,34.67 109.74,34.87 C109.74,35.07 109.6,35.27 109.34,35.27 L107.33,35.27 L107.33,37.82 L110.22,37.82 C110.5,37.82 110.62,38.02 110.62,38.22 C110.62,38.42 110.5,38.62 110.22,38.62 L106.93,38.62 C106.72,38.62 106.53,38.43 106.53,38.22 L106.53,31.76 Z M100.9,31.76 C100.9,31.55 101.09,31.36 101.3,31.36 L103.07,31.36 C104.17,31.36 105.07,32.25 105.07,33.36 L105.07,33.45 C105.07,34.37 104.48,35.13 103.63,35.38 L104.93,38.1 C104.96,38.15 104.97,38.22 104.97,38.28 C104.97,38.5 104.8,38.67 104.55,38.67 C104.42,38.67 104.29,38.62 104.2,38.45 L102.77,35.44 L101.7,35.44 L101.7,38.28 C101.7,38.54 101.5,38.67 101.3,38.67 C101.1,38.67 100.9,38.54 100.9,38.28 L100.9,31.76 Z M95.31,31.76 C95.31,31.55 95.5,31.36 95.71,31.36 L97.33,31.36 C98.45,31.36 99.24,32.18 99.24,33.27 L99.24,33.28 C99.24,34.07 98.87,34.63 98.42,34.88 C98.86,35.13 99.32,35.68 99.32,36.53 L99.32,36.62 C99.32,37.72 98.43,38.62 97.32,38.62 L95.7,38.62 C95.49,38.62 95.3,38.43 95.3,38.22 L95.3,31.76 L95.31,31.76 Z" id="Shape"></path>
            <polygon id="Shape" points="113.79 32.73 112.75 36.1 114.85 36.1"></polygon>
            <path d="M98.53,36.63 L98.53,36.54 C98.53,35.86 97.97,35.29 97.33,35.29 L96.11,35.29 L96.11,37.83 L97.33,37.83 C97.99,37.83 98.53,37.29 98.53,36.63 Z" id="Shape"></path>
            <path d="M31.51,93.25 L30.14,93.25 L30.14,95.74 L31.55,95.74 C32.21,95.74 32.71,95.2 32.71,94.54 L32.71,94.45 C32.71,93.79 32.17,93.25 31.51,93.25 Z" id="Shape"></path>
            <polygon id="Shape" points="24.49 97.19 26.58 97.19 25.53 93.82"></polygon>
            <path d="M65.97,119.1 C65.97,103.9 72.41,90.18 82.72,80.53 L44,27.24 C17.35,48.99 0.3,82.09 0.3,119.1 C0.3,129.58 1.67,139.75 4.24,149.44 L66.92,129.08 C66.29,125.85 65.97,122.51 65.97,119.1 Z M13.82,99.77 C13.66,99.77 13.5,99.7 13.44,99.5 L12.98,97.99 L10.38,97.99 L9.91,99.5 C9.85,99.7 9.7,99.77 9.54,99.77 C9.3,99.77 9.13,99.6 9.13,99.39 C9.13,99.36 9.14,99.32 9.15,99.26 L11.2,92.68 C11.26,92.48 11.46,92.39 11.67,92.39 C11.89,92.39 12.09,92.48 12.15,92.68 L14.2,99.26 C14.21,99.31 14.22,99.35 14.22,99.39 C14.23,99.6 14.06,99.77 13.82,99.77 Z M20.84,99.47 C20.81,99.63 20.69,99.77 20.45,99.77 L20.26,99.77 C20.04,99.77 19.9,99.61 19.87,99.48 L18.61,94.09 L17.35,99.48 C17.32,99.64 17.18,99.77 16.96,99.77 L16.77,99.77 C16.55,99.77 16.41,99.62 16.38,99.47 L14.97,92.88 C14.92,92.62 15.09,92.4 15.37,92.4 C15.54,92.4 15.7,92.49 15.75,92.72 L16.89,98.01 L18.13,92.69 C18.17,92.52 18.29,92.41 18.53,92.41 L18.7,92.41 C18.92,92.41 19.06,92.53 19.1,92.69 L20.34,98.01 L21.48,92.72 C21.52,92.5 21.69,92.4 21.86,92.4 C22.14,92.4 22.31,92.62 22.26,92.88 L20.84,99.47 Z M27.67,99.77 C27.51,99.77 27.35,99.7 27.29,99.5 L26.83,97.99 L24.23,97.99 L23.76,99.5 C23.7,99.7 23.55,99.77 23.39,99.77 C23.15,99.77 22.98,99.6 22.98,99.39 C22.98,99.36 22.99,99.32 23,99.26 L25.05,92.68 C25.11,92.48 25.31,92.39 25.52,92.39 C25.74,92.39 25.94,92.48 26,92.68 L28.05,99.26 C28.06,99.31 28.07,99.35 28.07,99.39 C28.08,99.6 27.92,99.77 27.67,99.77 Z M33.51,94.55 C33.51,95.47 32.92,96.23 32.07,96.48 L33.37,99.2 C33.4,99.25 33.41,99.32 33.41,99.38 C33.41,99.6 33.24,99.77 32.99,99.77 C32.86,99.77 32.73,99.72 32.64,99.55 L31.21,96.54 L30.14,96.54 L30.14,99.38 C30.14,99.64 29.94,99.77 29.74,99.77 C29.54,99.77 29.34,99.64 29.34,99.38 L29.34,92.85 C29.34,92.64 29.53,92.45 29.74,92.45 L31.51,92.45 C32.61,92.45 33.51,93.34 33.51,94.45 L33.51,94.55 Z M37.78,95.57 C38.04,95.57 38.18,95.77 38.18,95.97 C38.18,96.17 38.04,96.37 37.78,96.37 L35.77,96.37 L35.77,98.92 L38.66,98.92 C38.94,98.92 39.06,99.12 39.06,99.32 C39.06,99.52 38.94,99.72 38.66,99.72 L35.37,99.72 C35.16,99.72 34.97,99.53 34.97,99.32 L34.97,92.86 C34.97,92.65 35.16,92.46 35.37,92.46 L38.66,92.46 C38.94,92.46 39.06,92.66 39.06,92.86 C39.06,93.06 38.94,93.26 38.66,93.26 L35.77,93.26 L35.77,95.57 L37.78,95.57 Z M44.41,99.31 C44.41,99.66 44.2,99.77 43.96,99.77 C43.8,99.77 43.57,99.77 43.41,99.42 L41.12,94.24 L41.12,99.38 C41.12,99.64 40.92,99.77 40.72,99.77 C40.52,99.77 40.32,99.64 40.32,99.38 L40.32,92.8 C40.32,92.52 40.55,92.39 40.79,92.39 C41.03,92.39 41.2,92.44 41.33,92.73 L43.61,97.93 L43.61,92.79 C43.61,92.53 43.82,92.39 44.02,92.39 C44.22,92.39 44.41,92.53 44.41,92.79 L44.41,99.31 Z M49.11,95.57 C49.37,95.57 49.51,95.77 49.51,95.97 C49.51,96.17 49.37,96.37 49.11,96.37 L47.1,96.37 L47.1,98.92 L49.99,98.92 C50.27,98.92 50.39,99.12 50.39,99.32 C50.39,99.52 50.27,99.72 49.99,99.72 L46.7,99.72 C46.49,99.72 46.3,99.53 46.3,99.32 L46.3,92.86 C46.3,92.65 46.49,92.46 46.7,92.46 L49.99,92.46 C50.27,92.46 50.39,92.66 50.39,92.86 C50.39,93.06 50.27,93.26 49.99,93.26 L47.1,93.26 L47.1,95.57 L49.11,95.57 Z M53.4,99.77 L53.31,99.77 C52.23,99.77 51.23,99.11 51.23,97.84 C51.23,97.58 51.43,97.45 51.63,97.45 C51.83,97.45 52.03,97.57 52.03,97.85 C52.03,98.6 52.64,98.99 53.32,98.99 L53.43,98.99 C54.26,98.99 54.62,98.58 54.62,97.82 C54.62,96.96 54.01,96.72 53.37,96.36 C52.36,95.79 51.34,95.54 51.34,94.19 C51.34,93.17 52.21,92.39 53.32,92.39 L53.43,92.39 C54.44,92.39 55.34,93.11 55.34,94.07 C55.34,94.33 55.16,94.46 54.96,94.46 C54.76,94.46 54.57,94.33 54.54,94.08 C54.49,93.57 54.05,93.19 53.4,93.19 L53.31,93.19 C52.44,93.19 52.15,93.82 52.15,94.19 C52.15,94.96 52.8,95.19 53.37,95.49 C54.42,96.06 55.42,96.39 55.42,97.82 C55.41,99.04 54.68,99.77 53.4,99.77 Z M58.64,99.77 L58.55,99.77 C57.47,99.77 56.47,99.11 56.47,97.84 C56.47,97.58 56.67,97.45 56.87,97.45 C57.07,97.45 57.27,97.57 57.27,97.85 C57.27,98.6 57.88,98.99 58.56,98.99 L58.67,98.99 C59.5,98.99 59.86,98.58 59.86,97.82 C59.86,96.96 59.25,96.72 58.61,96.36 C57.6,95.79 56.58,95.54 56.58,94.19 C56.58,93.17 57.45,92.39 58.56,92.39 L58.67,92.39 C59.68,92.39 60.58,93.11 60.58,94.07 C60.58,94.33 60.4,94.46 60.2,94.46 C60,94.46 59.81,94.33 59.78,94.08 C59.73,93.57 59.29,93.19 58.64,93.19 L58.55,93.19 C57.68,93.19 57.39,93.82 57.39,94.19 C57.39,94.96 58.04,95.19 58.61,95.49 C59.66,96.06 60.66,96.39 60.66,97.82 C60.64,99.04 59.91,99.77 58.64,99.77 Z" id="Shape"></path>
            <polygon id="Shape" points="10.63 97.19 12.72 97.19 11.67 93.82"></polygon>
            <path d="M71.22,192.82 L71.22,192.9 C71.22,193.35 71.58,193.64 72.11,193.64 L72.2,193.64 C72.69,193.64 73.1,193.25 73.1,192.75 L73.1,191.92 C72.33,192.1 71.22,192.1 71.22,192.82 Z" id="Shape"></path>
            <path d="M70.98,141.57 L8.31,161.93 C24.76,204.26 64.86,234.88 112.3,237.48 L112.3,171.59 C93.99,169.32 78.56,157.65 70.98,141.57 Z M53.53,194.04 C53.53,194.3 53.33,194.43 53.13,194.43 C52.93,194.43 52.73,194.3 52.73,194.04 L52.73,188.9 L51.34,192.08 C51.26,192.28 51.08,192.35 50.9,192.35 C50.7,192.35 50.53,192.26 50.45,192.08 L49.02,188.9 L49.02,194.04 C49.02,194.3 48.82,194.43 48.62,194.43 C48.42,194.43 48.22,194.3 48.22,194.04 L48.22,187.51 C48.22,187.23 48.33,187.05 48.69,187.05 L48.72,187.05 C49,187.05 49.12,187.2 49.19,187.35 L50.87,191.11 L52.54,187.35 C52.61,187.19 52.73,187.05 53.02,187.05 L53.05,187.05 C53.42,187.05 53.51,187.23 53.51,187.51 L53.51,194.04 L53.53,194.04 Z M58.63,192.74 C58.63,193.69 57.87,194.42 56.94,194.42 L56.83,194.42 C55.89,194.42 55.14,193.68 55.14,192.74 L55.14,190.93 C55.14,189.99 55.9,189.24 56.83,189.24 L56.94,189.24 C57.88,189.24 58.63,190 58.63,190.93 L58.63,192.74 Z M63.47,189.77 L62.04,194.16 C61.98,194.34 61.79,194.42 61.66,194.42 L61.57,194.42 C61.43,194.42 61.24,194.36 61.18,194.16 L59.75,189.77 C59.74,189.72 59.73,189.66 59.73,189.63 C59.73,189.42 59.9,189.24 60.14,189.24 C60.3,189.24 60.44,189.31 60.51,189.51 L61.61,192.89 L62.71,189.51 C62.77,189.31 62.92,189.24 63.08,189.24 C63.32,189.24 63.5,189.42 63.5,189.63 C63.5,189.69 63.49,189.73 63.47,189.77 Z M68.95,193.96 C68.95,194.31 68.74,194.42 68.5,194.42 C68.34,194.42 68.11,194.42 67.95,194.07 L65.66,188.89 L65.66,194.03 C65.66,194.29 65.46,194.42 65.26,194.42 C65.06,194.42 64.86,194.29 64.86,194.03 L64.86,187.45 C64.86,187.17 65.09,187.04 65.33,187.04 C65.57,187.04 65.74,187.09 65.87,187.38 L68.15,192.58 L68.15,187.44 C68.15,187.18 68.36,187.04 68.56,187.04 C68.76,187.04 68.95,187.18 68.95,187.44 L68.95,193.96 Z M74.13,194.43 C74.1,194.43 74.07,194.43 74.06,194.42 C73.69,194.37 73.48,194.22 73.35,194.02 C73.05,194.28 72.65,194.43 72.21,194.43 L72.12,194.43 C71.28,194.43 70.43,193.92 70.43,192.93 L70.43,192.8 C70.43,191.14 72.83,191.42 73.09,191.08 C73.12,191.04 73.12,190.95 73.12,190.9 C73.12,190.27 72.73,190.05 72.27,190.05 L72.2,190.05 C71.77,190.05 71.55,190.23 71.35,190.58 C71.27,190.74 71.13,190.79 70.99,190.79 C70.79,190.79 70.59,190.64 70.59,190.42 C70.59,190.35 70.6,190.28 70.63,190.23 C70.97,189.47 71.65,189.25 72.2,189.25 L72.27,189.25 C73.21,189.25 73.92,189.98 73.92,190.87 L73.92,193.31 C73.92,193.51 74.01,193.63 74.19,193.66 C74.43,193.7 74.53,193.87 74.53,194.04 C74.52,194.24 74.38,194.43 74.13,194.43 Z M77.45,194.43 C76.68,194.43 76.07,193.82 76.07,193.05 L76.07,190.08 L75.7,190.08 C75.44,190.08 75.3,189.88 75.3,189.68 C75.3,189.48 75.44,189.28 75.7,189.28 L76.07,189.28 L76.07,187.45 C76.07,187.19 76.27,187.05 76.47,187.05 C76.67,187.05 76.87,187.19 76.87,187.45 L76.87,189.28 L77.44,189.28 C77.7,189.28 77.84,189.48 77.84,189.68 C77.84,189.88 77.7,190.08 77.44,190.08 L76.87,190.08 L76.87,193.04 C76.87,193.41 77.15,193.62 77.48,193.64 C77.73,193.66 77.85,193.84 77.85,194.04 C77.85,194.24 77.73,194.43 77.45,194.43 Z" id="Shape"></path>
            <path d="M56.94,190.04 L56.83,190.04 C56.34,190.04 55.94,190.44 55.94,190.93 L55.94,192.74 C55.94,193.23 56.34,193.63 56.84,193.63 L56.93,193.63 C57.42,193.63 57.82,193.23 57.82,192.74 L57.82,190.93 C57.83,190.44 57.44,190.04 56.94,190.04 Z" id="Shape"></path>
            <path d="M95.93,108.79 L95.93,115.38 C95.93,115.64 96.13,115.77 96.33,115.77 C96.53,115.77 96.73,115.64 96.73,115.38 L96.73,108.79 C96.73,108.53 96.53,108.39 96.33,108.39 C96.13,108.39 95.93,108.53 95.93,108.79 Z" id="Shape"></path>
            <path d="M99.53,115.38 L99.53,110.24 L101.82,115.42 C101.98,115.77 102.21,115.77 102.37,115.77 C102.61,115.77 102.82,115.65 102.82,115.31 L102.82,108.79 C102.82,108.53 102.63,108.39 102.43,108.39 C102.23,108.39 102.02,108.53 102.02,108.79 L102.02,113.93 L99.74,108.73 C99.61,108.45 99.45,108.39 99.2,108.39 C98.96,108.39 98.73,108.52 98.73,108.8 L98.73,115.38 C98.73,115.64 98.93,115.77 99.13,115.77 C99.33,115.77 99.53,115.64 99.53,115.38 Z" id="Shape"></path>
            <path d="M108.79,110.44 C108.79,109.35 107.9,108.45 106.8,108.45 L105.1,108.45 C104.89,108.45 104.7,108.64 104.7,108.85 L104.7,115.31 C104.7,115.52 104.89,115.71 105.1,115.71 L106.8,115.71 C107.89,115.71 108.79,114.82 108.79,113.71 L108.79,110.44 Z M108.01,113.72 C108.01,114.38 107.47,114.92 106.81,114.92 L105.51,114.92 L105.51,109.26 L106.82,109.26 C107.48,109.26 108.01,109.8 108.01,110.46 L108.01,113.72 Z" id="Shape"></path>
            <path d="M110.63,108.79 L110.63,115.38 C110.63,115.64 110.83,115.77 111.03,115.77 C111.23,115.77 111.43,115.64 111.43,115.38 L111.43,108.79 C111.43,108.53 111.23,108.39 111.03,108.39 C110.83,108.39 110.63,108.53 110.63,108.79 Z" id="Shape"></path>
            <path d="M116.27,108.69 L114.98,114.19 L113.69,108.69 C113.64,108.48 113.48,108.38 113.31,108.38 C113.07,108.38 112.9,108.55 112.9,108.77 C112.9,108.81 112.9,108.84 112.91,108.88 L114.56,115.46 C114.61,115.67 114.8,115.77 114.98,115.77 C115.18,115.77 115.36,115.68 115.41,115.46 L117.05,108.88 C117.06,108.83 117.07,108.79 117.07,108.77 C117.07,108.55 116.89,108.38 116.65,108.38 C116.49,108.39 116.33,108.48 116.27,108.69 Z" id="Shape"></path>
            <path d="M118.54,108.79 L118.54,115.38 C118.54,115.64 118.74,115.77 118.94,115.77 C119.14,115.77 119.34,115.64 119.34,115.38 L119.34,108.79 C119.34,108.53 119.14,108.39 118.94,108.39 C118.74,108.39 118.54,108.53 118.54,108.79 Z" id="Shape"></path>
            <path d="M125.42,113.72 L125.42,110.44 C125.42,109.35 124.53,108.45 123.43,108.45 L121.73,108.45 C121.52,108.45 121.33,108.64 121.33,108.85 L121.33,115.31 C121.33,115.52 121.52,115.71 121.73,115.71 L123.43,115.71 C124.53,115.72 125.42,114.82 125.42,113.72 Z M124.64,113.72 C124.64,114.38 124.1,114.92 123.44,114.92 L122.14,114.92 L122.14,109.26 L123.45,109.26 C124.11,109.26 124.64,109.8 124.64,110.46 L124.64,113.72 Z" id="Shape"></path>
            <path d="M127.56,108.39 C127.36,108.39 127.16,108.53 127.16,108.79 L127.16,113.78 C127.16,114.89 128.05,115.77 129.16,115.77 L129.27,115.77 C130.36,115.77 131.26,114.9 131.26,113.78 L131.26,108.79 C131.26,108.53 131.06,108.39 130.86,108.39 C130.66,108.39 130.46,108.53 130.46,108.79 L130.46,113.78 C130.46,114.44 129.93,114.98 129.27,114.98 L129.16,114.98 C128.5,114.98 127.96,114.44 127.96,113.78 L127.96,108.79 C127.96,108.53 127.76,108.39 127.56,108.39 Z" id="Shape"></path>
            <path d="M136.35,113.98 L136.81,115.49 C136.87,115.69 137.03,115.76 137.19,115.76 C137.43,115.76 137.6,115.59 137.6,115.38 C137.6,115.35 137.59,115.31 137.58,115.25 L135.53,108.67 C135.47,108.47 135.27,108.38 135.05,108.38 C134.84,108.38 134.64,108.47 134.58,108.67 L132.53,115.25 C132.52,115.3 132.51,115.34 132.51,115.38 C132.51,115.59 132.68,115.76 132.92,115.76 C133.08,115.76 133.22,115.69 133.29,115.49 L133.76,113.98 L136.35,113.98 Z M135.05,109.82 L136.1,113.18 L134.01,113.18 L135.05,109.82 Z" id="Shape"></path>
            <path d="M142.13,115.72 C142.39,115.72 142.53,115.52 142.53,115.32 C142.53,115.12 142.39,114.92 142.13,114.92 L139.66,114.92 L139.66,108.79 C139.66,108.53 139.46,108.39 139.26,108.39 C139.06,108.39 138.86,108.53 138.86,108.79 L138.86,115.32 C138.86,115.53 139.05,115.72 139.26,115.72 L142.13,115.72 Z" id="Shape"></path>
            <path d="M99.38,128.38 C99.58,128.38 99.78,128.25 99.78,127.99 L99.78,125.04 L101.07,125.04 C102.17,125.04 103.07,124.15 103.07,123.04 C103.07,121.93 102.18,121.06 101.07,121.06 L99.38,121.06 C99.17,121.06 98.98,121.25 98.98,121.46 L98.98,127.99 C98.98,128.25 99.18,128.38 99.38,128.38 Z M99.78,121.86 L101.07,121.86 C101.73,121.86 102.27,122.4 102.27,123.04 C102.27,123.7 101.73,124.24 101.07,124.24 L99.78,124.24 L99.78,121.86 Z" id="Shape"></path>
            <path d="M106.19,121 C105.98,121 105.78,121.09 105.72,121.29 L103.67,127.87 C103.66,127.92 103.65,127.96 103.65,128 C103.65,128.21 103.82,128.38 104.06,128.38 C104.22,128.38 104.36,128.31 104.43,128.11 L104.9,126.6 L107.5,126.6 L107.96,128.11 C108.02,128.31 108.18,128.38 108.34,128.38 C108.58,128.38 108.75,128.21 108.75,128 C108.75,127.97 108.74,127.93 108.73,127.87 L106.68,121.29 C106.61,121.09 106.41,121 106.19,121 Z M105.15,125.79 L106.19,122.43 L107.24,125.79 L105.15,125.79 Z" id="Shape"></path>
            <path d="M112.72,121.06 L109.61,121.06 C109.35,121.06 109.21,121.26 109.21,121.46 C109.21,121.66 109.35,121.86 109.61,121.86 L110.77,121.86 L110.77,127.99 C110.77,128.25 110.97,128.38 111.17,128.38 C111.37,128.38 111.57,128.25 111.57,127.99 L111.57,121.86 L112.73,121.86 C112.99,121.86 113.13,121.66 113.13,121.46 C113.12,121.26 112.99,121.06 112.72,121.06 Z" id="Shape"></path>
            <path d="M116.95,121.06 L113.84,121.06 C113.58,121.06 113.44,121.26 113.44,121.46 C113.44,121.66 113.58,121.86 113.84,121.86 L115,121.86 L115,127.99 C115,128.25 115.2,128.38 115.4,128.38 C115.6,128.38 115.8,128.25 115.8,127.99 L115.8,121.86 L116.96,121.86 C117.22,121.86 117.36,121.66 117.36,121.46 C117.35,121.26 117.21,121.06 116.95,121.06 Z" id="Shape"></path>
            <path d="M122.14,121.86 C122.42,121.86 122.54,121.66 122.54,121.46 C122.54,121.26 122.42,121.06 122.14,121.06 L118.85,121.06 C118.64,121.06 118.45,121.25 118.45,121.46 L118.45,127.92 C118.45,128.13 118.64,128.32 118.85,128.32 L122.14,128.32 C122.42,128.32 122.54,128.12 122.54,127.92 C122.54,127.72 122.42,127.52 122.14,127.52 L119.25,127.52 L119.25,124.97 L121.26,124.97 C121.52,124.97 121.66,124.77 121.66,124.57 C121.66,124.37 121.52,124.17 121.26,124.17 L119.25,124.17 L119.25,121.86 L122.14,121.86 Z" id="Shape"></path>
            <path d="M127.1,128.16 C127.18,128.33 127.32,128.38 127.45,128.38 C127.7,128.38 127.87,128.21 127.87,127.99 C127.87,127.93 127.86,127.86 127.83,127.81 L126.53,125.09 C127.38,124.84 127.97,124.08 127.97,123.16 L127.97,123.07 C127.97,121.97 127.08,121.07 125.97,121.07 L124.2,121.07 C123.99,121.07 123.8,121.26 123.8,121.47 L123.8,128 C123.8,128.26 124,128.39 124.2,128.39 C124.4,128.39 124.6,128.26 124.6,128 L124.6,125.16 L125.67,125.16 L127.1,128.16 Z M124.59,121.86 L125.96,121.86 C126.62,121.86 127.16,122.4 127.16,123.06 L127.16,123.15 C127.16,123.81 126.67,124.35 126,124.35 L124.59,124.35 L124.59,121.86 Z" id="Shape"></path>
            <path d="M129.83,128.38 C130.03,128.38 130.23,128.25 130.23,127.99 L130.23,122.85 L132.52,128.03 C132.68,128.38 132.91,128.38 133.07,128.38 C133.31,128.38 133.52,128.26 133.52,127.92 L133.52,121.4 C133.52,121.14 133.33,121 133.13,121 C132.93,121 132.72,121.14 132.72,121.4 L132.72,126.54 L130.44,121.34 C130.31,121.06 130.15,121 129.9,121 C129.65,121 129.43,121.13 129.43,121.41 L129.43,127.99 C129.43,128.25 129.63,128.38 129.83,128.38 Z" id="Shape"></path>
            <path d="M137.18,127.59 L137.08,127.59 C136.4,127.59 135.79,127.2 135.79,126.45 C135.79,126.17 135.59,126.05 135.39,126.05 C135.19,126.05 134.99,126.18 134.99,126.44 C134.99,127.71 135.99,128.37 137.07,128.37 L137.16,128.37 C138.43,128.37 139.17,127.63 139.17,126.43 C139.17,125 138.17,124.66 137.12,124.1 C136.55,123.79 135.9,123.56 135.9,122.8 C135.9,122.43 136.18,121.8 137.06,121.8 L137.15,121.8 C137.79,121.8 138.23,122.18 138.29,122.69 C138.32,122.94 138.51,123.07 138.71,123.07 C138.91,123.07 139.09,122.94 139.09,122.68 C139.09,121.71 138.19,121 137.18,121 L137.07,121 C135.97,121 135.09,121.78 135.09,122.8 C135.09,124.15 136.11,124.4 137.12,124.97 C137.76,125.33 138.37,125.57 138.37,126.43 C138.37,127.18 138.01,127.59 137.18,127.59 Z" id="Shape"></path>
        </g>
    </g>
</svg>