<?xml version="1.0" encoding="utf-8"?>
<!-- Generator: Adobe Illustrator 23.0.4, SVG Export Plug-In . SVG Version: 6.00 Build 0)  -->
<svg version="1.1" id="Ebene_1" xmlns="http://www.w3.org/2000/svg" xmlns:xlink="http://www.w3.org/1999/xlink" x="0px" y="0px"
	 viewBox="0 0 339.7 343.5" style="enable-background:new 0 0 339.7 343.5;" xml:space="preserve">
<style type="text/css">
	.st0{fill:#16182E;}
</style>
<g>
	<path class="st0" d="M133.2,157.3L133.2,157.3c0.9,0,1.3,0.4,1.4,1c0.1,0.3,0.3,0.5,0.5,0.5c0.3,0,0.6-0.2,0.6-0.6v-0.1
		c-0.1-1.1-1-2-2.3-2h-0.2c-1.3,0-2.3,1.1-2.3,2.4v5.5c0,1.3,1,2.3,2.3,2.3h0.2c1.3,0,2.4-1,2.4-2.3v-1.8c0-1.3-1-2.3-2.4-2.3h-0.1
		c-0.2,0-0.9,0.1-1.3,0.5v-1.8C132,157.8,132.5,157.3,133.2,157.3z M133.3,161L133.3,161c0.8,0,1.4,0.5,1.4,1.2v1.8
		c0,0.7-0.6,1.2-1.3,1.2h-0.2c-0.7,0-1.2-0.6-1.2-1.2v-1.9C132,161.4,132.6,161,133.3,161z"/>
	<path class="st0" d="M137.5,165.5v0.3c0,0.4,0.3,0.5,0.6,0.5s0.6-0.2,0.6-0.5v-0.3c0-0.4-0.3-0.6-0.6-0.6
		C137.8,165,137.5,165.2,137.5,165.5z"/>
	<path class="st0" d="M147,165.9v-9.1c0-0.4-0.3-0.6-0.6-0.6c-0.3,0-0.6,0.2-0.6,0.6v9.1c0,0.4,0.3,0.5,0.6,0.5
		C146.7,166.4,147,166.2,147,165.9z"/>
	<path class="st0" d="M150.8,165.9v-7.1l3.2,7.2c0.2,0.5,0.5,0.5,0.8,0.5s0.6-0.2,0.6-0.6v-9c0-0.4-0.3-0.6-0.5-0.6
		c-0.3,0-0.6,0.2-0.6,0.6v7.1l-3.2-7.2c-0.2-0.4-0.4-0.5-0.7-0.5s-0.7,0.2-0.7,0.6v9.1c0,0.4,0.3,0.5,0.6,0.5
		C150.6,166.4,150.8,166.2,150.8,165.9z"/>
	<path class="st0" d="M158,156.8v9c0,0.3,0.3,0.6,0.6,0.6h2.4c1.5,0,2.8-1.2,2.8-2.8v-4.5c0-1.5-1.2-2.8-2.8-2.8h-2.4v-0.1
		C158.3,156.2,158,156.5,158,156.8z M159.1,157.3h1.8c1,0.1,1.7,0.8,1.7,1.7v4.5c0,0.9-0.7,1.7-1.7,1.7h-1.8V157.3z"/>
	<path class="st0" d="M166.2,156.7v9.1c0,0.4,0.3,0.5,0.6,0.5s0.6-0.2,0.6-0.5v-9.1c0-0.4-0.3-0.6-0.6-0.6
		C166.5,156.2,166.2,156.4,166.2,156.7z"/>
	<path class="st0" d="M172.3,166.4c0.3,0,0.5-0.1,0.6-0.4l2.3-9.1c0-0.1,0-0.1,0-0.1c0-0.3-0.2-0.5-0.6-0.5c-0.2,0-0.5,0.1-0.5,0.4
		l-1.8,7.6l-1.8-7.6c-0.1-0.3-0.3-0.4-0.5-0.4c-0.3,0-0.6,0.2-0.6,0.5c0,0.1,0,0.1,0,0.1l2.3,9.1C171.8,166.3,172,166.4,172.3,166.4
		z"/>
	<path class="st0" d="M177.2,156.7v9.1c0,0.4,0.3,0.5,0.6,0.5s0.6-0.2,0.6-0.5v-9.1c0-0.4-0.3-0.6-0.6-0.6
		C177.5,156.2,177.2,156.4,177.2,156.7z"/>
	<path class="st0" d="M186.7,163.6v-4.5c0-1.5-1.2-2.8-2.8-2.8h-2.4c-0.3,0-0.6,0.3-0.6,0.6v9c0,0.3,0.3,0.6,0.6,0.6h2.4
		C185.5,166.3,186.7,165.1,186.7,163.6z M184,165.3h-1.8v-7.9h1.8c0.9,0,1.6,0.7,1.6,1.7v4.5h0.1C185.7,164.5,185,165.3,184,165.3z"
		/>
	<path class="st0" d="M192.1,166.4c1.5,0,2.8-1.2,2.8-2.8v-6.9c0-0.4-0.3-0.6-0.6-0.6c-0.3,0-0.6,0.2-0.6,0.6v6.9
		c0,0.9-0.7,1.7-1.6,1.7H192c-0.9,0-1.7-0.7-1.7-1.7v-6.9c0-0.4-0.3-0.6-0.6-0.6s-0.6,0.2-0.6,0.6v6.9c0,1.5,1.2,2.8,2.8,2.8H192.1z
		"/>
	<path class="st0" d="M202.5,166c0.1,0.3,0.3,0.4,0.5,0.4c0.3,0,0.6-0.2,0.6-0.5c0,0,0-0.1,0-0.2l-2.8-9.1c-0.1-0.3-0.4-0.4-0.7-0.4
		c-0.3,0-0.6,0.1-0.7,0.4l-2.8,9.1c0,0.1,0,0.1,0,0.2c0,0.3,0.2,0.5,0.6,0.5c0.2,0,0.4-0.1,0.5-0.4l0.7-2.1h3.6L202.5,166z
		 M198.6,162.8l1.4-4.7l1.5,4.7H198.6z"/>
	<path class="st0" d="M205.9,156.2c-0.3,0-0.6,0.2-0.6,0.6v9.1c0,0.3,0.3,0.6,0.6,0.6h4c0.4,0,0.6-0.3,0.6-0.6s-0.2-0.6-0.6-0.6
		h-3.4v-8.5C206.5,156.4,206.2,156.2,205.9,156.2z"/>
	<path class="st0" d="M143.3,173.7c-0.3,0-0.6,0.3-0.6,0.6v9c0,0.4,0.3,0.5,0.6,0.5c0.3,0,0.6-0.2,0.6-0.5v-4.1h1.8
		c1.5,0,2.8-1.2,2.8-2.8c0-1.5-1.2-2.7-2.8-2.7H143.3z M147.3,176.5c0,0.9-0.7,1.7-1.7,1.7h-1.8v-3.3h1.8
		C146.6,174.8,147.3,175.6,147.3,176.5z"/>
	<path class="st0" d="M149.3,183.3c0,0.3,0.2,0.5,0.6,0.5c0.2,0,0.4-0.1,0.5-0.4l0.7-2.1h3.6l0.6,2.1c0.1,0.3,0.3,0.4,0.5,0.4
		c0.3,0,0.6-0.2,0.6-0.5c0,0,0-0.1,0-0.2l-2.8-9.1c-0.1-0.3-0.4-0.4-0.7-0.4s-0.6,0.1-0.7,0.4l-2.8,9.1
		C149.3,183.2,149.3,183.3,149.3,183.3z M152.8,175.6l1.5,4.7h-2.9L152.8,175.6z"/>
	<path class="st0" d="M161.8,173.7h-4.3c-0.4,0-0.6,0.3-0.6,0.6s0.2,0.6,0.6,0.6h1.6v8.5c0,0.4,0.3,0.5,0.6,0.5
		c0.3,0,0.6-0.2,0.6-0.5v-8.5h1.6c0.4,0,0.6-0.3,0.6-0.6C162.4,174,162.2,173.7,161.8,173.7z"/>
	<path class="st0" d="M167.7,173.7h-4.3c-0.4,0-0.6,0.3-0.6,0.6s0.2,0.6,0.6,0.6h1.6v8.5c0,0.4,0.3,0.5,0.6,0.5
		c0.3,0,0.6-0.2,0.6-0.5v-8.5h1.6c0.4,0,0.6-0.3,0.6-0.6C168.3,174,168.1,173.7,167.7,173.7z"/>
	<path class="st0" d="M175.5,174.2c0-0.3-0.2-0.6-0.6-0.6h-4.6c-0.3,0-0.6,0.3-0.6,0.6v9c0,0.3,0.3,0.6,0.6,0.6h4.6
		c0.4,0,0.6-0.3,0.6-0.6s-0.2-0.6-0.6-0.6h-4v-3.5h2.8c0.4,0,0.6-0.3,0.6-0.6s-0.2-0.6-0.6-0.6h-2.8v-3.2h4v0.1
		C175.3,174.8,175.5,174.5,175.5,174.2z"/>
	<path class="st0" d="M181.8,183.6c0.1,0.2,0.3,0.3,0.5,0.3c0.4,0,0.6-0.2,0.6-0.5c0-0.1,0-0.2-0.1-0.2l-1.8-3.8
		c1.2-0.3,2-1.4,2-2.7v-0.1c0-1.5-1.2-2.8-2.8-2.8h-2.4c-0.3,0-0.6,0.3-0.6,0.6v9c0,0.4,0.3,0.5,0.6,0.5s0.6-0.2,0.6-0.5v-3.9h1.5
		L181.8,183.6z M178.3,178.3v-3.5h1.9c0.9,0,1.7,0.7,1.7,1.7v0.1c0,0.9-0.7,1.7-1.6,1.7H178.3z"/>
	<path class="st0" d="M185.6,183.9c0.3,0,0.6-0.2,0.6-0.5v-7.1l3.2,7.2c0.2,0.5,0.5,0.5,0.8,0.5s0.6-0.2,0.6-0.6v-9
		c0-0.4-0.3-0.6-0.5-0.6s-0.6,0.2-0.6,0.6v7.1l-3.2-7.2c-0.2-0.4-0.4-0.5-0.7-0.5s-0.7,0.2-0.7,0.6v9.1
		C185,183.7,185.3,183.9,185.6,183.9z"/>
	<path class="st0" d="M195.6,183.8L195.6,183.8c1.9,0,2.9-1,2.9-2.7c0-2-1.4-2.4-2.8-3.2c-0.8-0.4-1.7-0.7-1.7-1.8
		c0-0.5,0.4-1.4,1.6-1.4h0.1c0.9,0,1.5,0.5,1.6,1.2c0,0.4,0.3,0.5,0.6,0.5s0.5-0.2,0.5-0.5c0-1.3-1.3-2.3-2.7-2.3h-0.1
		c-1.5,0-2.7,1.1-2.7,2.5c0,1.9,1.4,2.2,2.8,3c0.9,0.5,1.7,0.8,1.7,2c0,1.1-0.5,1.7-1.6,1.7h-0.1c-0.9,0-1.8-0.5-1.8-1.6
		c0-0.4-0.3-0.6-0.6-0.6s-0.6,0.2-0.6,0.5C192.7,182.9,194.1,183.8,195.6,183.8z"/>
	<polygon class="st0" points="49.5,139.7 52.4,139.7 51,135.1 	"/>
	<path class="st0" d="M57.4,134.3v3.5h2c0.9,0,1.6-0.7,1.6-1.7V136c-0.1-1-0.8-1.7-1.7-1.7H57.4z"/>
	<polygon class="st0" points="30.3,139.7 33.2,139.7 31.8,135.1 	"/>
	<path class="st0" d="M97,170.1c0-21.1,8.9-40.1,23.2-53.5L66.5,42.7C29.6,72.9,5.9,118.8,5.9,170.1c0,14.5,1.9,28.6,5.5,42.1
		L98.3,184C97.5,179.5,97,174.8,97,170.1z M96.8,133.2c1.4,0,2.7,1,2.7,2.3c0,0.4-0.2,0.5-0.5,0.5s-0.5-0.2-0.6-0.5
		c-0.1-0.7-0.7-1.2-1.6-1.2h-0.1c-1.2,0-1.6,0.9-1.6,1.4c0,1.1,0.9,1.4,1.7,1.8c1.5,0.8,2.8,1.3,2.8,3.2c0,1.7-1,2.7-2.8,2.7h-0.1
		v-0.1c-1.5,0-2.9-0.9-2.9-2.7c0-0.4,0.3-0.5,0.6-0.5c0.3,0,0.6,0.2,0.6,0.6c0,1,0.8,1.6,1.8,1.6h0.1c1.2,0,1.6-0.6,1.6-1.6
		c0-1.2-0.8-1.5-1.7-2c-1.4-0.8-2.8-1.1-2.8-3c0-1.4,1.2-2.5,2.7-2.5H96.8z M89.6,133.2c1.4,0,2.7,1,2.7,2.3c0,0.4-0.2,0.5-0.5,0.5
		s-0.5-0.2-0.6-0.5c-0.1-0.7-0.7-1.2-1.6-1.2h-0.1c-1.2,0-1.6,0.9-1.6,1.4c0,1.1,0.9,1.4,1.7,1.8c1.5,0.8,2.8,1.3,2.8,3.2
		c0,1.6-1,2.6-2.8,2.6h-0.1c-1.5,0-2.9-0.9-2.9-2.7c0-0.4,0.3-0.5,0.6-0.5c0.3,0,0.6,0.2,0.6,0.6c0,1,0.8,1.6,1.8,1.6h0.1
		c1.2,0,1.6-0.6,1.6-1.6c0-1.2-0.8-1.5-1.7-2c-1.4-0.8-2.8-1.1-2.8-3c0-1.4,1.2-2.5,2.7-2.5H89.6z M72.1,133c0.3,0,0.6,0.1,0.7,0.5
		l3.2,7.2v-7.1c0-0.4,0.3-0.6,0.6-0.6c0.3,0,0.6,0.2,0.6,0.6v9.1c0,0.5-0.3,0.6-0.6,0.6c-0.2,0-0.5,0-0.8-0.5l-3.2-7.2v7.1
		c0,0.4-0.3,0.5-0.6,0.5s-0.6-0.2-0.6-0.5v-9.1C71.4,133.2,71.7,133,72.1,133z M56.7,133h2.4c1.5,0,2.8,1.2,2.8,2.8v0.3H62
		c0,1.3-0.8,2.3-2,2.7l1.8,3.8c0,0.1,0.1,0.2,0.1,0.2c0,0.3-0.2,0.5-0.6,0.5c-0.2,0-0.4-0.1-0.5-0.3l-2-4.2h-1.5v3.9
		c0,0.4-0.3,0.5-0.6,0.5c-0.3,0-0.6-0.2-0.6-0.5v-9.1C56.1,133.3,56.4,133,56.7,133z M51.6,133.5l2.8,9.1c0,0.1,0,0.1,0,0.2
		c0.1,0.3-0.1,0.5-0.5,0.5c-0.2,0-0.4-0.1-0.5-0.4l-0.6-2.1h-3.6l-0.7,2.1c-0.1,0.3-0.3,0.4-0.5,0.4c-0.3,0-0.6-0.2-0.6-0.5
		c0,0,0-0.1,0-0.2l2.8-9.1c0.1-0.3,0.4-0.4,0.7-0.4C51.2,133.1,51.5,133.2,51.6,133.5z M37.6,133.5l1.6,7.3l1.7-7.4
		c0.1-0.2,0.2-0.4,0.6-0.4h0.2c0.3,0,0.5,0.2,0.6,0.4l1.7,7.4l1.6-7.3c0.1-0.3,0.3-0.4,0.5-0.4c0.4,0,0.6,0.3,0.6,0.7l-2.2,9.1
		c0,0.2-0.2,0.4-0.5,0.4h-0.3c-0.3,0-0.5-0.2-0.5-0.4l-1.7-7.5l-1.7,7.5c0,0.2-0.2,0.4-0.5,0.4H39c-0.3,0-0.5-0.2-0.5-0.4l-2-9.1
		c-0.1-0.4,0.2-0.7,0.6-0.7C37.3,133.1,37.6,133.2,37.6,133.5z M32.4,133.5l2.8,9.1c0,0.1,0,0.1,0,0.2c0.1,0.3-0.1,0.5-0.5,0.5
		c-0.2,0-0.4-0.1-0.5-0.4l-0.6-2.1H30l-0.7,2.1c-0.1,0.3-0.3,0.4-0.5,0.4c-0.3,0-0.6-0.2-0.6-0.5c0,0,0-0.1,0-0.2l2.8-9.1
		c0.1-0.3,0.4-0.4,0.7-0.4S32.3,133.2,32.4,133.5z M22,142.5v0.3c0,0.4-0.3,0.5-0.6,0.5c-0.3,0-0.6-0.2-0.6-0.5v-0.3
		c0-0.4,0.3-0.6,0.6-0.6S22,142.1,22,142.5z M16.6,133.1c1.3,0,2.4,1,2.4,2.3v0.1c0,0.4,0,0.9-0.4,1.5l-3.1,5.2h3
		c0.4,0,0.6,0.3,0.6,0.6c0.1,0.1-0.1,0.4-0.5,0.4h-3.8c-0.6,0-0.7-0.8-0.5-1.2l3.3-5.5c0.3-0.5,0.3-0.7,0.3-0.9v-0.1
		c0-0.7-0.5-1.3-1.2-1.3s-1.2,0.6-1.2,1.2v0.2c0,0.4-0.3,0.6-0.6,0.6s-0.6-0.2-0.6-0.6v-0.2C14.3,134.1,15.3,133.1,16.6,133.1z
		 M64.6,143.4c-0.3,0-0.6-0.3-0.6-0.6v-9c0-0.3,0.3-0.6,0.6-0.6h4.6c0.4,0,0.6,0.3,0.6,0.6s-0.2,0.6-0.6,0.6h-4v3.2H68v-0.1
		c0.4,0,0.6,0.3,0.6,0.6s-0.2,0.6-0.6,0.6h-2.8v3.5h4c0.4,0,0.6,0.3,0.6,0.6s-0.2,0.6-0.6,0.6H64.6z M80.3,143.4
		c-0.3,0-0.6-0.3-0.6-0.6v-9c0-0.3,0.3-0.6,0.6-0.6h4.6c0.4,0,0.6,0.3,0.6,0.6s-0.2,0.6-0.6,0.6h-4v3.2h2.8v-0.1
		c0.4,0,0.6,0.3,0.6,0.6s-0.2,0.6-0.6,0.6h-2.8v3.5h4c0.4,0,0.6,0.3,0.6,0.6s-0.2,0.6-0.6,0.6H80.3z"/>
	<path class="st0" d="M156.2,51.4L156.2,51.4c0-1-0.7-1.8-1.7-1.8h-1.9v3.5h2C155.6,53,156.2,52.3,156.2,51.4z"/>
	<polygon class="st0" points="169.5,50.3 168,55 170.9,55 	"/>
	<path class="st0" d="M148.3,55.8v-0.2c0-0.9-0.8-1.7-1.7-1.7h-1.7v3.5h1.7C147.5,57.4,148.3,56.7,148.3,55.8z"/>
	<path class="st0" d="M148.2,51.1c0-0.9-0.6-1.6-1.5-1.6H145v3.2h1.7C147.5,52.8,148.2,52.1,148.2,51.1z"/>
	<path class="st0" d="M170.4,96.8c12.8,0,24.9,3.3,35.4,9.1L259.5,32c-25.7-16.6-56.3-26.3-89.1-26.3c-32.8,0-63.4,9.7-89.1,26.3
		l53.7,73.9C145.5,100.1,157.5,96.8,170.4,96.8z M201,51.1c0-1.5,1.2-2.8,2.8-2.8h0.1c1.4,0,2.6,1,2.8,2.4v0.1
		c0,0.3-0.3,0.5-0.6,0.5c-0.2,0-0.5-0.1-0.6-0.5c-0.2-0.8-0.7-1.4-1.7-1.4h-0.1c-0.9,0-1.7,0.8-1.7,1.6v4.7c0,0.9,0.7,1.7,1.7,1.7
		h0.1c0.9,0,1.7-0.7,1.7-1.7V54H204c-0.4,0-0.6-0.3-0.6-0.6c0-0.3,0.2-0.6,0.6-0.6h2.1c0.3,0,0.6,0.3,0.6,0.6v2.3
		c0,1.5-1.2,2.8-2.8,2.8h-0.1c-1.5,0-2.8-1.2-2.8-2.8V51.1z M192.8,48.9L192.8,48.9c0.1-0.4,0.4-0.6,0.8-0.6c0.3,0,0.6,0.1,0.7,0.5
		l3.2,7.2v-7.1c0-0.4,0.3-0.6,0.6-0.6c0.3,0,0.5,0.2,0.5,0.6v9c0,0.5-0.3,0.6-0.6,0.6c-0.2,0-0.5,0-0.8-0.5l-3.2-7.2v7.1
		c0,0.4-0.3,0.5-0.6,0.5s-0.6-0.2-0.6-0.5V48.9z M189,48.9c0-0.4,0.3-0.6,0.6-0.6s0.6,0.2,0.6,0.6V58c0,0.4-0.3,0.5-0.6,0.5
		c-0.3,0-0.6-0.2-0.6-0.5V48.9z M180.6,48.9c0-0.4,0.3-0.6,0.6-0.6c0.3,0,0.6,0.2,0.6,0.6v3.8h3.5v-3.8c0-0.4,0.3-0.6,0.6-0.6
		c0.3,0,0.6,0.2,0.6,0.6V58c0,0.4-0.3,0.5-0.6,0.5s-0.6-0.1-0.6-0.5v-4.2h-3.5V58c0,0.4-0.3,0.5-0.6,0.5s-0.6-0.2-0.6-0.5V48.9z
		 M174.2,48.5h4.3c0.4,0,0.6,0.3,0.6,0.6s-0.2,0.6-0.6,0.6h-1.6v8.5c0,0.4-0.3,0.5-0.6,0.5s-0.6-0.2-0.6-0.5v-8.6h-1.6
		c-0.4,0-0.6-0.3-0.6-0.6C173.6,48.7,173.8,48.5,174.2,48.5z M166,57.9l2.8-9.1c0.1-0.3,0.4-0.4,0.7-0.4c0.3,0,0.6,0.1,0.7,0.4
		l2.8,9.1c0,0.1,0,0.1,0,0.2c0,0.3-0.2,0.5-0.6,0.5c-0.2,0-0.4-0.1-0.5-0.4l-0.6-2.1h-3.6l-0.7,2.1c-0.1,0.3-0.3,0.4-0.5,0.4
		c-0.3,0-0.6-0.2-0.6-0.5C165.9,58,165.9,58,166,57.9z M159.4,49c0-0.3,0.3-0.6,0.6-0.6h4.6c0.4,0,0.6,0.3,0.6,0.6
		c0,0.3-0.2,0.6-0.6,0.6h-4v3.2h2.8c0.4,0,0.6,0.3,0.6,0.6c0,0.3-0.2,0.6-0.6,0.6h-2.8v3.5h4c0.4,0,0.6,0.3,0.6,0.6
		c0,0.3-0.2,0.6-0.6,0.6H160c-0.3,0-0.6-0.3-0.6-0.6V49z M151.5,49h0.1c0-0.3,0.3-0.6,0.6-0.6h2.4c1.5,0,2.8,1.2,2.8,2.8v0.1
		c0,1.3-0.8,2.3-2,2.7l1.8,3.8c0,0.1,0.1,0.2,0.1,0.2c0,0.3-0.2,0.5-0.6,0.5c-0.2,0-0.4-0.1-0.5-0.3l-2-4.2h-1.5v3.9
		c0,0.4-0.3,0.5-0.6,0.5s-0.6-0.2-0.6-0.5V49z M144.4,48.4h2.2c1.6,0,2.7,1.1,2.7,2.7c0,1.1-0.5,1.9-1.1,2.2
		c0.6,0.4,1.3,1.1,1.3,2.3v0.1c0,1.5-1.2,2.8-2.8,2.8h-2.2c-0.3,0-0.6-0.3-0.6-0.6V49h-0.1C143.8,48.7,144.1,48.4,144.4,48.4z
		 M135.7,57.7c0-0.4,0.3-0.6,0.6-0.6s0.6,0.2,0.6,0.6V58c0,0.4-0.3,0.5-0.6,0.5c-0.3,0-0.6-0.2-0.6-0.5V57.7z M131.9,58.6
		c-0.3,0-0.6-0.2-0.6-0.5v-8l-0.7,1c-0.4,0.6-1.3-0.1-0.9-0.6l1.4-1.9c0.1-0.1,0.2-0.2,0.5-0.2h0.5c0.3,0,0.4,0.2,0.4,0.5v9.2h0
		C132.5,58.5,132.2,58.6,131.9,58.6z"/>
	<polygon class="st0" points="293.8,139.7 296.7,139.7 295.2,135 	"/>
	<path class="st0" d="M274.2,42.7l-53.7,73.9c14.3,13.4,23.2,32.4,23.2,53.5c0,4.7-0.4,9.4-1.3,13.8l86.9,28.2
		c3.6-13.4,5.5-27.5,5.5-42.1C334.8,118.8,311.1,72.9,274.2,42.7z M251.9,137.4h-0.2c-0.4,0-0.8,0.2-1.1,0.6
		c-0.1,0.2-0.3,0.3-0.5,0.3c-0.3,0-0.6-0.2-0.6-0.6v-4c0-0.3,0.3-0.5,0.5-0.5h3.3c0.4,0,0.6,0.3,0.6,0.5c0,0.3-0.2,0.5-0.5,0.5h-2.7
		v2.4c0.2-0.2,0.7-0.4,1.1-0.4h0.2c1.3,0,2.3,1,2.3,2.3v2.3c0,1.3-1,2.3-2.3,2.3h-0.2c-1.3,0-2.3-0.9-2.3-2.4c0-0.4,0.3-0.5,0.5-0.5
		c0.3,0,0.5,0.2,0.5,0.5c0,1,0.5,1.3,1.1,1.3h0.2c0.7,0,1.2-0.5,1.2-1.2v-2.3C253.1,138,252.6,137.4,251.9,137.4z M256,142.7v-0.3
		c0-0.4,0.3-0.5,0.5-0.5c0.3,0,0.5,0.2,0.5,0.5v0.3c0,0.4-0.3,0.5-0.5,0.5C256.3,143.2,256,143.1,256,142.7z M264.2,134.3
		c-0.4,0-0.5-0.3-0.5-0.5c0-0.3,0.2-0.5,0.5-0.5h4.1c0.5,0,0.8,0.5,0.6,1l-4.1,7.9h3.6c0.4,0,0.5,0.3,0.5,0.5c0,0.3-0.2,0.5-0.5,0.5
		h-4.3c-0.4,0-0.6-0.3-0.6-0.7c0-0.1,0-0.2,0.1-0.3l4.1-7.8H264.2z M270.2,139.3c0-0.3,0.2-0.5,0.5-0.5h3.8c0.4,0,0.6,0.3,0.6,0.5
		c0,0.3-0.2,0.5-0.5,0.5h-3.8C270.4,139.8,270.2,139.6,270.2,139.3z M285.3,133.7c0-0.3,0.3-0.5,0.5-0.5h4.5c0.4,0,0.5,0.3,0.5,0.5
		c0,0.3-0.2,0.5-0.5,0.5h-4v3.2h2.8c0.4,0,0.5,0.3,0.5,0.5c0,0.3-0.2,0.5-0.5,0.5h-2.8v3.5h4c0.4,0,0.5,0.3,0.5,0.5
		c0,0.3-0.2,0.5-0.5,0.5h-4.5c-0.3,0-0.5-0.3-0.5-0.5V133.7z M306.7,133.2h4.3c0.4,0,0.5,0.3,0.5,0.5c0,0.3-0.2,0.5-0.5,0.5h-1.6
		v8.4c0,0.4-0.3,0.5-0.5,0.5c-0.3,0-0.5-0.2-0.5-0.5v-8.4h-1.6c-0.4,0-0.5-0.3-0.5-0.5C306.2,133.4,306.4,133.2,306.7,133.2z
		 M314.2,133.6v3.8h3.4v-3.8c0-0.4,0.3-0.5,0.5-0.5s0.5,0.2,0.5,0.5v9.1c0,0.4-0.3,0.5-0.5,0.5s-0.5-0.1-0.5-0.5v-4.1h-3.4v4.1
		c0,0.4-0.3,0.5-0.5,0.5s-0.5-0.2-0.5-0.5v-9.1c0-0.4,0.3-0.5,0.5-0.5S314.2,133.3,314.2,133.6z M301.6,133.6v8.4h3.4
		c0.4,0,0.5,0.3,0.5,0.5c0,0.3-0.2,0.5-0.5,0.5H301c-0.3,0-0.5-0.3-0.5-0.5v-9c0-0.4,0.3-0.5,0.5-0.5
		C301.3,133.1,301.6,133.3,301.6,133.6z M295.9,133.5l2.8,9c0,0.1,0,0.1,0,0.2c0,0.3-0.2,0.5-0.6,0.5c-0.2,0-0.4-0.1-0.5-0.4
		l-0.6-2.1h-3.6l-0.7,2.1c-0.1,0.3-0.3,0.4-0.5,0.4c-0.3,0-0.6-0.2-0.6-0.5c0,0,0-0.1,0-0.2l2.8-9c0.1-0.3,0.4-0.4,0.6-0.4
		C295.6,133.1,295.8,133.2,295.9,133.5z M277.6,133.1c0.3,0,0.5,0.2,0.5,0.5v3.8h3.4v-3.8c0-0.4,0.3-0.5,0.5-0.5
		c0.3,0,0.5,0.2,0.5,0.5v9.1c0,0.4-0.3,0.5-0.5,0.5c-0.3,0-0.5-0.1-0.5-0.5v-4.1h-3.4v4.1c0,0.4-0.3,0.5-0.5,0.5s-0.5-0.2-0.5-0.5
		v-9.1C277,133.3,277.3,133.1,277.6,133.1z"/>
	<path class="st0" d="M246.8,259.5c0-0.9-0.7-1.6-1.7-1.6h-1.8v3.3h1.8C246,261.1,246.8,260.4,246.8,259.5z"/>
	<path class="st0" d="M227.1,257.7L227.1,257.7c-1,0-1.8,0.8-1.8,1.6v4.7c0,0.9,0.7,1.7,1.7,1.7h0.1c0.9,0,1.6-0.7,1.6-1.7v-4.7
		C228.7,258.5,228,257.7,227.1,257.7z"/>
	<path class="st0" d="M216.5,275.2h-0.1c-0.9,0-1.7,0.8-1.7,1.6v4.7c0,0.9,0.7,1.7,1.7,1.7h0.1c0.9,0,1.6-0.7,1.6-1.7v-4.7
		C218.1,276,217.4,275.2,216.5,275.2z"/>
	<path class="st0" d="M179.5,242.9v91.4c65.8-3.6,121.4-46.1,144.2-104.8l-86.9-28.2C226.2,223.5,204.8,239.7,179.5,242.9z
		 M208.9,266c0-0.4,0.3-0.6,0.6-0.6c0.3,0,0.6,0.2,0.6,0.6v0.3c0,0.4-0.3,0.5-0.6,0.5s-0.6-0.2-0.6-0.5V266z M201.9,263.9
		c0-0.1,0-0.2,0.1-0.3l2.9-6.6c0.1-0.2,0.3-0.3,0.5-0.3c0.3,0,0.6,0.2,0.6,0.5c0,0.1,0,0.2,0,0.2l-2.7,6h1.9v-1.2
		c0-0.4,0.3-0.6,0.6-0.6c0.3,0,0.6,0.2,0.6,0.6v1.2h0.7c0.4,0,0.6,0.3,0.6,0.6s-0.2,0.6-0.6,0.6h-0.7v1.8c0,0.4-0.3,0.5-0.6,0.5
		s-0.6-0.2-0.6-0.5v-1.8h-2.6C202.1,264.5,201.9,264.2,201.9,263.9z M210.5,284.3c-0.3,0-0.6-0.2-0.6-0.5v-7.1l-1.9,4.4
		c-0.1,0.3-0.4,0.4-0.6,0.4c-0.3,0-0.5-0.1-0.6-0.4l-2-4.4v7.1c0,0.4-0.3,0.5-0.6,0.5c-0.3,0-0.6-0.2-0.6-0.5v-9
		c0-0.4,0.1-0.6,0.7-0.6c0.4,0,0.6,0.2,0.7,0.4l2.3,5.2l2.3-5.2c0.1-0.2,0.3-0.4,0.7-0.4c0.5,0,0.6,0.2,0.6,0.6v9h0.2
		C211.1,284.2,210.8,284.3,210.5,284.3z M219.2,281.6c0,1.5-1.2,2.8-2.8,2.8h-0.1c-1.5,0-2.8-1.2-2.8-2.8v-4.7
		c0-1.5,1.2-2.8,2.8-2.8h0.1c1.5,0,2.8,1.2,2.8,2.8V281.6z M219.6,266.7v0.2c-1.5,0-2.8-1.2-2.8-2.8v-4.7c0-1.5,1.2-2.8,2.8-2.8h0.1
		c1.4,0,2.6,1,2.7,2.4v0.1c0,0.3-0.3,0.5-0.5,0.5s-0.5-0.1-0.6-0.5c-0.2-0.8-0.8-1.4-1.6-1.4h-0.1c-0.9,0-1.7,0.8-1.7,1.6v4.7
		c0,0.9,0.7,1.7,1.7,1.7h0.1c0.8,0,1.5-0.6,1.6-1.4c0.1-0.3,0.3-0.5,0.6-0.5c0.3,0,0.5,0.2,0.5,0.5v0.1c-0.2,1.3-1.4,2.3-2.7,2.3
		H219.6z M226.6,274.8l-2.3,9.1c-0.1,0.3-0.3,0.4-0.6,0.4c-0.2,0-0.5-0.1-0.6-0.4l-2.3-9.1v-0.1c0-0.3,0.2-0.5,0.6-0.5
		c0.2,0,0.5,0.1,0.5,0.4l1.8,7.6l1.8-7.6c0.1-0.3,0.3-0.4,0.5-0.4C226.3,274.2,226.6,274.4,226.6,274.8
		C226.7,274.7,226.6,274.7,226.6,274.8z M226.9,266.9c-1.5,0-2.8-1.2-2.8-2.8v-4.7c0-1.5,1.2-2.8,2.8-2.8h0.1c1.5,0,2.8,1.2,2.8,2.8
		v4.7c0,1.5-1.2,2.8-2.8,2.8H226.9z M232.4,278.6v-0.1c0.4,0,0.6,0.3,0.6,0.6s-0.2,0.6-0.6,0.6h-2.8v3.5h4c0.4,0,0.6,0.3,0.6,0.6
		s-0.2,0.6-0.6,0.6H229c-0.3,0-0.6-0.3-0.6-0.6v-9c0-0.3,0.3-0.6,0.6-0.6h4.6c0.4,0,0.6,0.3,0.6,0.6s-0.2,0.6-0.6,0.6h-4v3.2H232.4z
		 M249.8,278.6v-0.1c0.4,0,0.6,0.3,0.6,0.6s-0.2,0.6-0.6,0.6H247v3.5h4c0.4,0,0.6,0.3,0.6,0.6s-0.2,0.6-0.6,0.6h-4.6
		c-0.3,0-0.6-0.3-0.6-0.6v-9c0-0.3,0.3-0.6,0.6-0.6h4.6c0.4,0,0.6,0.3,0.6,0.6s-0.2,0.6-0.6,0.6h-4v3.2H249.8z M259,283.7
		c0,0.5-0.3,0.6-0.6,0.6c-0.2,0-0.5,0-0.8-0.5l-3.2-7.2v7.1c0,0.4-0.3,0.5-0.6,0.5s-0.6-0.2-0.6-0.5v-9.1c0-0.4,0.3-0.6,0.7-0.6
		s0.6,0.1,0.7,0.5l3.3,7.3v-7.1c0-0.4,0.3-0.6,0.6-0.6c0.3,0,0.5,0.2,0.5,0.6V283.7z M265.4,275.3h-1.6v8.5c0,0.4-0.3,0.5-0.6,0.5
		s-0.6-0.2-0.6-0.5v-8.5H261c-0.4,0-0.6-0.3-0.6-0.6s0.2-0.6,0.6-0.6h4.3c0.4,0,0.6,0.3,0.6,0.6C266,275,265.8,275.3,265.4,275.3z
		 M270,274.2L270,274.2c1.4-0.1,2.7,0.9,2.7,2.2c0,0.4-0.2,0.5-0.5,0.5s-0.5-0.2-0.6-0.5c-0.1-0.7-0.7-1.2-1.6-1.2h-0.1
		c-1.2,0-1.6,0.9-1.6,1.4c0,1.1,0.9,1.4,1.7,1.8c1.5,0.8,2.8,1.3,2.8,3.2c0,1.7-1,2.7-2.8,2.7h-0.1c-1.5,0-2.9-0.9-2.9-2.7
		c0-0.4,0.3-0.5,0.6-0.5s0.6,0.2,0.6,0.6c0,1,0.8,1.6,1.8,1.6h0.1c1.2,0,1.6-0.6,1.6-1.6c0-1.2-0.8-1.5-1.7-2
		c-1.4-0.8-2.8-1.1-2.8-3C267.2,275.3,268.4,274.2,270,274.2L270,274.2z M263.3,266.1l2.2-4.5l-2.1-4.2c-0.2-0.4,0.1-0.8,0.5-0.8
		c0.2,0,0.4,0.1,0.5,0.3l1.7,3.4l1.7-3.4c0.1-0.2,0.3-0.3,0.5-0.3c0.5,0,0.7,0.4,0.5,0.8l-2.1,4.2l2.2,4.5c0.2,0.4-0.1,0.8-0.5,0.8
		c-0.2,0-0.4-0.1-0.5-0.3l-1.9-3.7l-1.9,3.7c-0.1,0.2-0.3,0.3-0.5,0.3C263.3,266.9,263.1,266.5,263.3,266.1z M256.4,257.3
		c0-0.3,0.3-0.6,0.6-0.6h4.6c0.4,0,0.6,0.3,0.6,0.6s-0.2,0.6-0.6,0.6h-4v3.2h2.8c0.4,0,0.6,0.3,0.6,0.6s-0.2,0.6-0.6,0.6h-2.8v3.5h4
		c0.4,0,0.6,0.3,0.6,0.6s-0.2,0.6-0.6,0.6H257c-0.3,0-0.6-0.3-0.6-0.6V257.3z M249.5,257.2c0-0.4,0.3-0.6,0.6-0.6s0.6,0.2,0.6,0.6
		v8.5h3.4c0.4,0,0.6,0.3,0.6,0.6s-0.2,0.6-0.6,0.6h-4c-0.3,0-0.6-0.3-0.6-0.6V257.2z M242.1,257.3h0.1c0-0.3,0.3-0.6,0.6-0.6h2.3
		c1.5,0,2.8,1.2,2.8,2.7s-1.2,2.8-2.8,2.8h-1.8v4.1c0,0.4-0.3,0.5-0.6,0.5s-0.6-0.2-0.6-0.5V257.3z M242.7,274.1
		c0.5,0,0.6,0.2,0.6,0.6v9c0,0.4-0.3,0.5-0.6,0.5s-0.6-0.2-0.6-0.5v-7.1l-1.9,4.4c-0.1,0.3-0.4,0.4-0.6,0.4c-0.3,0-0.5-0.1-0.6-0.4
		l-2-4.4v7.1c0,0.4-0.3,0.5-0.6,0.5c-0.3,0-0.6-0.2-0.6-0.5v-9c0-0.4,0.1-0.6,0.7-0.6c0.4,0,0.6,0.2,0.7,0.4l2.3,5.2l2.5-5.2
		C242.1,274.3,242.3,274.1,242.7,274.1z M238.9,256.6c0.6,0,0.7,0.2,0.7,0.6v9.1c0,0.4-0.3,0.5-0.6,0.5s-0.6-0.2-0.6-0.5v-7.1
		l-1.9,4.4c-0.1,0.3-0.4,0.4-0.6,0.4c-0.3,0-0.5-0.1-0.6-0.4l-2-4.4v7.1c0,0.4-0.3,0.5-0.6,0.5c-0.3,0-0.6-0.2-0.6-0.5v-9.1
		c0-0.4,0.1-0.6,0.7-0.6c0.4,0,0.6,0.2,0.7,0.4l2.3,5.2l2.3-5.2C238.3,256.8,238.5,256.6,238.9,256.6z"/>
	<polygon class="st0" points="122.7,258.5 121.3,263.2 124.2,263.2 	"/>
	<path class="st0" d="M99.7,257.6h-0.1c-0.9,0-1.7,0.8-1.7,1.6v4.7c0,0.9,0.7,1.7,1.7,1.7h0.1c0.9,0,1.6-0.7,1.6-1.7v-4.7
		C101.3,258.4,100.6,257.6,99.7,257.6z"/>
	<path class="st0" d="M104,201.2l-86.9,28.2c22.8,58.7,78.4,101.1,144.2,104.8v-91.4C135.9,239.7,114.5,223.5,104,201.2z
		 M77.1,259.2L77.1,259.2c0,1.1-0.3,1.7-0.8,2.1c0.5,0.4,0.8,1.1,0.8,2.1v1c0,1.3-1.1,2.3-2.4,2.3h-0.3c-1.3,0-2.3-1-2.3-2.3
		c0-0.4,0.3-0.6,0.6-0.6s0.6,0.2,0.6,0.6c0,0.7,0.6,1.2,1.2,1.2h0.3c0.7,0,1.3-0.5,1.3-1.2v-1c0-1.4-0.6-1.6-1.7-1.6
		c-0.4,0-0.6-0.3-0.6-0.6s0.2-0.6,0.6-0.6c0.8,0,1.7,0,1.7-1.5v-0.3c0-0.8-0.7-1.2-1.3-1.2c-0.7,0-1.3,0.4-1.3,1.2
		c0,0.4-0.3,0.6-0.6,0.6c-0.3,0-0.6-0.2-0.6-0.6c0-1.6,1.2-2.3,2.4-2.3c1.2,0,2.4,0.8,2.4,2.3V259.2z M79.9,266.2
		c0,0.4-0.3,0.5-0.6,0.5s-0.6-0.2-0.6-0.5v-0.3c0-0.4,0.3-0.6,0.6-0.6c0.3,0,0.6,0.2,0.6,0.6V266.2z M93.7,266.7
		c-0.3,0-0.6-0.2-0.6-0.5v-7.1l-1.9,4.4c-0.1,0.3-0.4,0.4-0.6,0.4c-0.3,0-0.5-0.1-0.6-0.4l-2-4.4v7.1c0,0.4-0.3,0.5-0.6,0.5
		s-0.6-0.2-0.6-0.5v-9c0-0.4,0.1-0.6,0.7-0.6c0.4,0,0.6,0.2,0.7,0.4l2.3,5.2l2.3-5.2c0.1-0.2,0.3-0.4,0.7-0.4c0.5,0,0.6,0.2,0.6,0.6
		v9h0.2C94.3,266.6,94,266.7,93.7,266.7z M102.4,264c0,1.5-1.2,2.8-2.8,2.8h-0.1c-1.5,0-2.8-1.2-2.8-2.8v-4.7c0-1.5,1.2-2.8,2.8-2.8
		h0.1c1.5,0,2.8,1.2,2.8,2.8V264z M109.8,257.2l-2.3,9.1c-0.1,0.3-0.3,0.4-0.6,0.4c-0.2,0-0.5-0.1-0.6-0.4l-2.3-9.1v-0.1
		c0-0.3,0.2-0.5,0.6-0.5c0.2,0,0.5,0.1,0.5,0.4l1.8,7.6l1.8-7.6c0.1-0.3,0.3-0.4,0.5-0.4c0.3,0,0.6,0.2,0.6,0.5
		C109.9,257.1,109.9,257.1,109.8,257.2z M116.8,266.7c-0.2,0-0.5,0-0.8-0.5l-3.2-7.2v7.1c0,0.4-0.3,0.5-0.6,0.5
		c-0.3,0-0.6-0.2-0.6-0.5V257c0-0.4,0.3-0.6,0.7-0.6c0.3,0,0.6,0.1,0.7,0.5l3.2,7.2V257c0-0.4,0.3-0.6,0.6-0.6s0.5,0.2,0.5,0.6v9.1
		h0.1C117.4,266.6,117.1,266.7,116.8,266.7z M127.5,256.6h4.3c0.4,0,0.6,0.3,0.6,0.6c0,0.3-0.2,0.6-0.6,0.6h-1.6v8.5
		c0,0.4-0.3,0.5-0.6,0.5s-0.6-0.2-0.6-0.5v-8.5h-1.6c-0.4,0-0.6-0.3-0.6-0.6C126.9,256.9,127.1,256.6,127.5,256.6z M119.2,266.1
		l2.8-9.1c0.1-0.3,0.4-0.4,0.7-0.4c0.3,0,0.6,0.1,0.7,0.4l2.8,9.1c0,0.1,0,0.1,0,0.2c0,0.3-0.2,0.5-0.6,0.5c-0.2,0-0.4-0.1-0.5-0.4
		l-0.6-2.1h-3.6l-0.7,2.1c-0.1,0.3-0.3,0.4-0.5,0.4c-0.3,0-0.6-0.2-0.6-0.5C119.2,266.2,119.2,266.1,119.2,266.1z"/>
</g>
</svg>
