<?xml version="1.0" encoding="UTF-8"?>
<svg width="127px" height="109px" viewBox="0 0 127 109" version="1.1" xmlns="http://www.w3.org/2000/svg" xmlns:xlink="http://www.w3.org/1999/xlink">
    <!-- Generator: Sketch 49.3 (51167) - http://www.bohemiancoding.com/sketch -->
    <title>en bloc_grafik</title>
    <desc>Created with Sketch.</desc>
    <defs></defs>
    <g id="Page-1" stroke="none" stroke-width="1" fill="none" fill-rule="evenodd">
        <g id="en-bloc_grafik" fill-rule="nonzero">
            <g id="Group" transform="translate(2.000000, 0.000000)" fill="#000000">
                <path d="M5.14,7.97 C4.93,7.97 4.72,7.84 4.72,7.56 L4.72,2.18 L3.27,5.51 C3.18,5.72 2.99,5.8 2.81,5.8 C2.6,5.8 2.43,5.7 2.34,5.51 L0.84,2.18 L0.84,7.56 C0.84,7.83 0.63,7.97 0.42,7.97 C0.21,7.97 2.84217094e-14,7.84 2.84217094e-14,7.56 L2.84217094e-14,0.73 C2.84217094e-14,0.43 0.11,0.25 0.5,0.25 L0.53,0.25 C0.83,0.25 0.95,0.4 1.03,0.57 L2.79,4.51 L4.54,0.57 C4.62,0.4 4.74,0.25 5.05,0.25 L5.08,0.25 C5.46,0.25 5.56,0.44 5.56,0.73 L5.56,7.56 C5.55,7.84 5.35,7.97 5.14,7.97 Z" id="Shape"></path>
                <path d="M9.13,7.97 L9.02,7.97 C8.04,7.97 7.25,7.2 7.25,6.21 L7.25,4.32 C7.25,3.34 8.04,2.55 9.02,2.55 L9.13,2.55 C10.11,2.55 10.9,3.34 10.9,4.32 L10.9,6.21 C10.9,7.2 10.11,7.97 9.13,7.97 Z M10.06,4.32 C10.06,3.8 9.64,3.39 9.12,3.39 L9.01,3.39 C8.49,3.39 8.07,3.81 8.07,4.32 L8.07,6.21 C8.07,6.73 8.49,7.15 9.02,7.15 L9.12,7.15 C9.64,7.15 10.06,6.73 10.06,6.21 L10.06,4.32 Z" id="Shape"></path>
            </g>
            <rect id="Rectangle-path" fill="#16182E" opacity="0.2" x="0.32" y="10.1" width="13.97" height="13.97"></rect>
            <rect id="Rectangle-path" fill="#16182E" opacity="0.2" x="0.32" y="25.89" width="13.97" height="13.97"></rect>
            <rect id="Rectangle-path" fill="#16182E" opacity="0.2" x="0.32" y="41.69" width="13.97" height="13.97"></rect>
            <rect id="Rectangle-path" fill="#16182E" opacity="0.2" x="0.32" y="63.22" width="13.97" height="13.97"></rect>
            <rect id="Rectangle-path" fill="#16182E" opacity="0.2" x="0.32" y="79.02" width="13.97" height="13.97"></rect>
            <rect id="Rectangle-path" fill="#16182E" opacity="0.2" x="0.32" y="94.81" width="13.97" height="13.97"></rect>
            <g id="Group" transform="translate(19.000000, 0.000000)" fill="#000000">
                <path d="M4.58,1.15 L3.37,1.15 L3.37,7.56 C3.37,7.83 3.16,7.97 2.95,7.97 C2.74,7.97 2.53,7.84 2.53,7.56 L2.53,1.15 L1.32,1.15 C1.05,1.15 0.9,0.94 0.9,0.73 C0.9,0.52 1.04,0.31 1.32,0.31 L4.58,0.31 C4.86,0.31 5,0.52 5,0.73 C5,0.94 4.85,1.15 4.58,1.15 Z" id="Shape"></path>
                <path d="M9.12,7.97 C8.93,7.97 8.75,7.87 8.7,7.65 C8.49,7.86 8.14,7.97 7.75,7.97 L7.65,7.97 C6.7,7.97 5.88,7.43 5.88,6.21 L5.88,2.96 C5.88,2.68 6.09,2.54 6.3,2.54 C6.51,2.54 6.72,2.68 6.72,2.96 L6.72,6.21 C6.72,6.73 7.14,7.15 7.66,7.15 L7.76,7.15 C8.29,7.15 8.71,6.73 8.71,6.21 L8.71,2.96 C8.71,2.68 8.92,2.54 9.13,2.54 C9.34,2.54 9.55,2.68 9.55,2.96 L9.55,7.56 C9.54,7.83 9.33,7.97 9.12,7.97 Z" id="Shape"></path>
            </g>
            <rect id="Rectangle-path" fill="#16182E" opacity="0.2" x="19.05" y="10.1" width="13.97" height="13.97"></rect>
            <rect id="Rectangle-path" fill="#16182E" opacity="0.2" x="19.05" y="25.89" width="13.97" height="13.97"></rect>
            <rect id="Rectangle-path" fill="#16182E" opacity="0.2" x="19.05" y="41.69" width="13.97" height="13.97"></rect>
            <rect id="Rectangle-path" fill="#16182E" opacity="0.2" x="19.05" y="63.22" width="13.97" height="13.97"></rect>
            <rect id="Rectangle-path" fill="#16182E" opacity="0.2" x="19.05" y="79.02" width="13.97" height="13.97"></rect>
            <rect id="Rectangle-path" fill="#16182E" opacity="0.2" x="19.05" y="94.81" width="13.97" height="13.97"></rect>
            <g id="Group" transform="translate(38.000000, 0.000000)" fill="#000000">
                <path d="M7.06,7.65 C7.03,7.82 6.91,7.97 6.65,7.97 L6.45,7.97 C6.22,7.97 6.08,7.8 6.04,7.66 L4.72,2.02 L3.4,7.66 C3.37,7.83 3.22,7.97 2.99,7.97 L2.79,7.97 C2.56,7.97 2.42,7.82 2.38,7.65 L0.91,0.75 C0.85,0.48 1.03,0.24 1.33,0.24 C1.51,0.24 1.67,0.34 1.73,0.57 L2.92,6.1 L4.22,0.53 C4.26,0.35 4.39,0.23 4.64,0.23 L4.82,0.23 C5.05,0.23 5.19,0.35 5.24,0.53 L6.54,6.1 L7.73,0.57 C7.77,0.34 7.95,0.24 8.13,0.24 C8.43,0.24 8.6,0.47 8.55,0.75 L7.06,7.65 Z" id="Shape"></path>
                <path d="M12.92,5.65 L10.52,5.65 L10.52,6.21 C10.52,6.73 10.94,7.15 11.46,7.15 L11.57,7.15 C12,7.15 12.28,6.9 12.43,6.59 C12.51,6.4 12.65,6.33 12.79,6.33 C13.01,6.33 13.22,6.51 13.22,6.76 C13.22,6.83 13.21,6.89 13.18,6.95 C12.92,7.57 12.32,7.98 11.57,7.98 L11.46,7.98 C10.48,7.98 9.69,7.21 9.69,6.22 L9.69,4.33 C9.69,3.35 10.48,2.56 11.46,2.56 L11.57,2.56 C12.55,2.56 13.34,3.32 13.34,4.34 L13.34,5.24 C13.34,5.45 13.15,5.65 12.92,5.65 Z M12.5,4.33 C12.5,3.79 12.06,3.38 11.58,3.38 L11.47,3.38 C10.95,3.38 10.52,3.79 10.52,4.31 L10.52,4.86 L12.5,4.86 L12.5,4.33 Z" id="Shape"></path>
            </g>
            <rect id="Rectangle-path" fill="#16182E" opacity="0.2" x="37.78" y="10.1" width="13.97" height="13.97"></rect>
            <rect id="Rectangle-path" fill="#16182E" opacity="0.2" x="37.78" y="25.89" width="13.97" height="13.97"></rect>
            <rect id="Rectangle-path" fill="#16182E" opacity="0.2" x="37.78" y="41.69" width="13.97" height="13.97"></rect>
            <rect id="Rectangle-path" fill="#16182E" opacity="0.2" x="37.78" y="63.22" width="13.97" height="13.97"></rect>
            <rect id="Rectangle-path" fill="#16182E" opacity="0.2" x="37.78" y="79.02" width="13.97" height="13.97"></rect>
            <rect id="Rectangle-path" fill="#16182E" opacity="0.2" x="37.78" y="94.81" width="13.97" height="13.97"></rect>
            <g id="Group" transform="translate(57.000000, 0.000000)" fill="#000000">
                <path d="M4.04,1.15 L2.83,1.15 L2.83,7.56 C2.83,7.83 2.62,7.97 2.41,7.97 C2.2,7.97 1.99,7.84 1.99,7.56 L1.99,1.15 L0.78,1.15 C0.51,1.15 0.36,0.94 0.36,0.73 C0.36,0.52 0.5,0.31 0.78,0.31 L4.04,0.31 C4.32,0.31 4.46,0.52 4.46,0.73 C4.46,0.94 4.31,1.15 4.04,1.15 Z" id="Shape"></path>
                <path d="M8.85,7.97 C8.64,7.97 8.43,7.84 8.43,7.56 L8.43,4.31 C8.43,3.66 7.93,3.38 7.45,3.38 C6.95,3.38 6.45,3.69 6.45,4.26 L6.45,7.56 C6.45,7.83 6.24,7.97 6.03,7.97 C5.82,7.97 5.61,7.84 5.61,7.56 L5.61,0.66 C5.61,0.39 5.82,0.24 6.03,0.24 C6.24,0.24 6.45,0.38 6.45,0.66 L6.45,2.87 C6.64,2.66 7.02,2.54 7.41,2.54 L7.5,2.54 C8.48,2.54 9.27,3.33 9.27,4.31 L9.27,7.56 C9.26,7.84 9.06,7.97 8.85,7.97 Z" id="Shape"></path>
            </g>
            <rect id="Rectangle-path" fill="#16182E" opacity="0.2" x="56.51" y="10.1" width="13.97" height="13.97"></rect>
            <rect id="Rectangle-path" fill="#16182E" opacity="0.2" x="56.51" y="25.89" width="13.97" height="13.97"></rect>
            <rect id="Rectangle-path" fill="#16182E" opacity="0.2" x="56.51" y="41.69" width="13.97" height="13.97"></rect>
            <rect id="Rectangle-path" fill="#16182E" opacity="0.2" x="56.51" y="63.22" width="13.97" height="13.97"></rect>
            <rect id="Rectangle-path" fill="#16182E" opacity="0.2" x="56.51" y="79.02" width="13.97" height="13.97"></rect>
            <rect id="Rectangle-path" fill="#16182E" opacity="0.2" x="56.51" y="94.81" width="13.97" height="13.97"></rect>
            <g id="Group" transform="translate(76.000000, 0.000000)" fill="#000000">
                <path d="M4.78,1.15 L1.75,1.15 L1.75,3.57 L3.85,3.57 C4.12,3.57 4.27,3.78 4.27,3.99 C4.27,4.2 4.13,4.41 3.85,4.41 L1.75,4.41 L1.75,7.57 C1.75,7.84 1.54,7.98 1.33,7.98 C1.12,7.98 0.91,7.85 0.91,7.57 L0.91,0.74 C0.91,0.52 1.11,0.32 1.33,0.32 L4.77,0.32 C5.07,0.32 5.19,0.53 5.19,0.74 C5.19,0.95 5.08,1.15 4.78,1.15 Z" id="Shape"></path>
                <path d="M8.39,3.77 C8.27,3.77 8.15,3.72 8.05,3.62 C7.96,3.53 7.82,3.39 7.54,3.39 C6.88,3.39 6.8,3.77 6.8,4.13 L6.8,7.55 C6.8,7.85 6.59,7.98 6.38,7.98 C6.17,7.98 5.96,7.85 5.96,7.55 L5.96,2.97 C5.96,2.71 6.18,2.55 6.39,2.55 C6.53,2.55 6.68,2.6 6.75,2.77 C6.75,2.77 6.97,2.55 7.54,2.55 C7.97,2.55 8.42,2.7 8.68,3.09 C8.75,3.19 8.78,3.28 8.78,3.38 C8.8,3.6 8.61,3.77 8.39,3.77 Z" id="Shape"></path>
            </g>
            <rect id="Rectangle-path" fill="#16182E" opacity="0.2" x="75.24" y="10.1" width="13.97" height="13.97"></rect>
            <rect id="Rectangle-path" fill="#16182E" opacity="0.2" x="75.24" y="25.89" width="13.97" height="13.97"></rect>
            <rect id="Rectangle-path" fill="#16182E" opacity="0.2" x="75.24" y="41.69" width="13.97" height="13.97"></rect>
            <rect id="Rectangle-path" fill="#16182E" opacity="0.2" x="75.24" y="63.22" width="13.97" height="13.97"></rect>
            <rect id="Rectangle-path" fill="#16182E" opacity="0.2" x="75.24" y="79.02" width="13.97" height="13.97"></rect>
            <rect id="Rectangle-path" fill="#16182E" opacity="0.2" x="75.24" y="94.81" width="13.97" height="13.97"></rect>
            <g id="Group" transform="translate(95.000000, 0.000000)" fill="#000000">
                <path d="M2.49,7.97 L2.39,7.97 C1.26,7.97 0.21,7.28 0.21,5.95 C0.21,5.67 0.42,5.54 0.63,5.54 C0.84,5.54 1.05,5.66 1.05,5.96 C1.05,6.74 1.69,7.15 2.4,7.15 L2.51,7.15 C3.38,7.15 3.75,6.72 3.75,5.93 C3.75,5.03 3.11,4.77 2.44,4.4 C1.38,3.81 0.32,3.54 0.32,2.13 C0.32,1.06 1.23,0.25 2.39,0.25 L2.5,0.25 C3.56,0.25 4.5,1 4.5,2.01 C4.5,2.28 4.31,2.42 4.1,2.42 C3.89,2.42 3.69,2.29 3.66,2.02 C3.61,1.48 3.14,1.08 2.47,1.08 L2.37,1.08 C1.46,1.08 1.16,1.74 1.16,2.13 C1.16,2.93 1.84,3.17 2.44,3.49 C3.54,4.08 4.59,4.44 4.59,5.93 C4.59,7.2 3.82,7.97 2.49,7.97 Z" id="Shape"></path>
                <path d="M9.57,7.97 C9.54,7.97 9.5,7.97 9.49,7.96 C9.11,7.91 8.88,7.75 8.74,7.54 C8.42,7.82 8,7.97 7.55,7.97 L7.45,7.97 C6.57,7.97 5.68,7.43 5.68,6.4 L5.68,6.27 C5.68,4.53 8.19,4.83 8.46,4.47 C8.49,4.43 8.49,4.34 8.49,4.28 C8.49,3.62 8.08,3.39 7.6,3.39 L7.52,3.39 C7.07,3.39 6.84,3.58 6.63,3.94 C6.54,4.11 6.4,4.16 6.26,4.16 C6.05,4.16 5.84,4.01 5.84,3.78 C5.84,3.7 5.85,3.64 5.88,3.58 C6.23,2.79 6.95,2.56 7.52,2.56 L7.6,2.56 C8.58,2.56 9.33,3.32 9.33,4.25 L9.33,6.8 C9.33,7.01 9.43,7.13 9.62,7.16 C9.87,7.2 9.97,7.38 9.97,7.56 C9.98,7.77 9.84,7.97 9.57,7.97 Z M8.5,5.34 C7.69,5.54 6.52,5.54 6.52,6.29 L6.52,6.38 C6.52,6.85 6.89,7.15 7.46,7.15 L7.56,7.15 C8.08,7.15 8.51,6.74 8.51,6.21 L8.51,5.34 L8.5,5.34 Z" id="Shape"></path>
            </g>
            <rect id="Rectangle-path" fill="#16182E" opacity="0.2" x="93.97" y="10.1" width="13.97" height="13.97"></rect>
            <rect id="Rectangle-path" fill="#16182E" opacity="0.2" x="93.97" y="25.89" width="13.97" height="13.97"></rect>
            <rect id="Rectangle-path" fill="#16182E" opacity="0.2" x="93.97" y="41.69" width="13.97" height="13.97"></rect>
            <rect id="Rectangle-path" fill="#16182E" opacity="0.2" x="93.97" y="63.22" width="13.97" height="13.97"></rect>
            <rect id="Rectangle-path" fill="#16182E" opacity="0.2" x="93.97" y="79.02" width="13.97" height="13.97"></rect>
            <rect id="Rectangle-path" fill="#16182E" opacity="0.2" x="93.97" y="94.81" width="13.97" height="13.97"></rect>
            <g id="Group" transform="translate(113.000000, 0.000000)" fill="#000000">
                <path d="M3.22,7.97 L3.12,7.97 C1.99,7.97 0.94,7.28 0.94,5.95 C0.94,5.67 1.15,5.54 1.36,5.54 C1.57,5.54 1.78,5.66 1.78,5.96 C1.78,6.74 2.42,7.15 3.13,7.15 L3.24,7.15 C4.11,7.15 4.48,6.72 4.48,5.93 C4.48,5.03 3.84,4.77 3.17,4.4 C2.11,3.81 1.05,3.54 1.05,2.13 C1.05,1.06 1.96,0.25 3.12,0.25 L3.23,0.25 C4.29,0.25 5.23,1 5.23,2.01 C5.23,2.28 5.04,2.42 4.83,2.42 C4.62,2.42 4.42,2.29 4.39,2.02 C4.34,1.48 3.87,1.08 3.2,1.08 L3.1,1.08 C2.19,1.08 1.89,1.74 1.89,2.13 C1.89,2.93 2.57,3.17 3.17,3.49 C4.27,4.08 5.32,4.44 5.32,5.93 C5.32,7.2 4.55,7.97 3.22,7.97 Z" id="Shape"></path>
                <path d="M8.45,7.97 L8.34,7.97 C7.36,7.97 6.57,7.2 6.57,6.21 L6.57,4.32 C6.57,3.34 7.36,2.55 8.34,2.55 L8.45,2.55 C9.43,2.55 10.22,3.34 10.22,4.32 L10.22,6.21 C10.23,7.2 9.43,7.97 8.45,7.97 Z M9.39,4.32 C9.39,3.8 8.97,3.39 8.45,3.39 L8.34,3.39 C7.82,3.39 7.4,3.81 7.4,4.32 L7.4,6.21 C7.4,6.73 7.82,7.15 8.35,7.15 L8.45,7.15 C8.97,7.15 9.39,6.73 9.39,6.21 L9.39,4.32 Z" id="Shape"></path>
            </g>
            <rect id="Rectangle-path" fill="#16182E" opacity="0.2" x="112.71" y="10.1" width="13.97" height="13.97"></rect>
            <rect id="Rectangle-path" fill="#16182E" opacity="0.2" x="112.71" y="25.89" width="13.97" height="13.97"></rect>
            <rect id="Rectangle-path" fill="#16182E" opacity="0.2" x="112.71" y="41.69" width="13.97" height="13.97"></rect>
            <rect id="Rectangle-path" fill="#16182E" opacity="0.2" x="112.71" y="63.22" width="13.97" height="13.97"></rect>
            <rect id="Rectangle-path" fill="#16182E" opacity="0.2" x="112.71" y="79.02" width="13.97" height="13.97"></rect>
            <rect id="Rectangle-path" fill="#16182E" opacity="0.2" x="112.71" y="94.81" width="13.97" height="13.97"></rect>
            <rect id="Rectangle-path" fill="#16182E" x="56.51" y="10.1" width="13.97" height="13.97"></rect>
            <rect id="Rectangle-path" fill="#16182E" x="56.51" y="25.89" width="13.97" height="13.97"></rect>
            <rect id="Rectangle-path" fill="#16182E" x="56.51" y="41.69" width="13.97" height="13.97"></rect>
            <rect id="Rectangle-path" fill="#16182E" x="56.51" y="63.22" width="13.97" height="13.97"></rect>
            <rect id="Rectangle-path" fill="#16182E" x="56.51" y="79.02" width="13.97" height="13.97"></rect>
            <rect id="Rectangle-path" fill="#16182E" x="56.51" y="94.81" width="13.97" height="13.97"></rect>
        </g>
    </g>
</svg>