<?xml version="1.0" encoding="UTF-8"?>
<svg width="84px" height="18px" viewBox="0 0 84 18" version="1.1" xmlns="http://www.w3.org/2000/svg" xmlns:xlink="http://www.w3.org/1999/xlink">
    <!-- Generator: Sketch 49.3 (51167) - http://www.bohemiancoding.com/sketch -->
    <title>enbloc</title>
    <desc>Created with Sketch.</desc>
    <defs></defs>
    <g id="Page-1" stroke="none" stroke-width="1" fill="none" fill-rule="evenodd">
        <g id="enbloc" fill="#000000" fill-rule="nonzero">
            <path d="M8.98,17.58 L1.16,17.58 C0.66,17.58 0.21,17.13 0.21,16.63 L0.21,1.26 C0.21,0.76 0.66,0.31 1.16,0.31 L8.98,0.31 C9.65,0.31 9.93,0.78 9.93,1.26 C9.93,1.74 9.66,2.21 8.98,2.21 L2.11,2.21 L2.11,7.71 L6.88,7.71 C7.5,7.71 7.83,8.19 7.83,8.66 C7.83,9.13 7.51,9.61 6.88,9.61 L2.11,9.61 L2.11,15.68 L8.98,15.68 C9.65,15.68 9.93,16.15 9.93,16.63 C9.93,17.11 9.65,17.58 8.98,17.58 Z" id="Shape"></path>
            <path d="M21.58,17.71 C21.2,17.71 20.66,17.71 20.28,16.88 L14.83,4.56 L14.83,16.78 C14.83,17.4 14.36,17.7 13.88,17.7 C13.4,17.7 12.93,17.4 12.93,16.78 L12.93,1.13 C12.93,0.46 13.48,0.16 14.05,0.16 C14.63,0.16 15.03,0.28 15.32,0.96 L20.74,13.33 L20.74,1.11 C20.74,0.49 21.24,0.16 21.71,0.16 C22.18,0.16 22.63,0.49 22.63,1.11 L22.63,16.61 C22.65,17.43 22.15,17.71 21.58,17.71 Z" id="Shape"></path>
            <path d="M40.58,17.58 L36.73,17.58 C36.23,17.58 35.78,17.13 35.78,16.63 L35.78,1.26 C35.78,0.76 36.23,0.31 36.73,0.31 L40.58,0.31 C43.25,0.31 45.13,2.26 45.13,4.86 L45.13,4.88 C45.13,6.76 44.25,8.08 43.18,8.68 C44.23,9.28 45.33,10.58 45.33,12.6 L45.33,12.82 C45.33,15.46 43.2,17.58 40.58,17.58 Z M43.23,4.86 C43.23,3.26 42.16,2.21 40.58,2.21 L37.68,2.21 L37.68,7.73 L40.58,7.73 C42.08,7.73 43.23,6.56 43.23,4.88 L43.23,4.86 Z M43.43,12.61 C43.43,10.99 42.11,9.64 40.58,9.64 L37.68,9.64 L37.68,15.69 L40.58,15.69 C42.15,15.69 43.43,14.42 43.43,12.84 L43.43,12.61 Z" id="Shape"></path>
            <path d="M56.85,17.58 L50.03,17.58 C49.53,17.58 49.08,17.13 49.08,16.63 L49.08,1.11 C49.08,0.49 49.55,0.16 50.03,0.16 C50.51,0.16 50.98,0.49 50.98,1.11 L50.98,15.68 L56.85,15.68 C57.47,15.68 57.8,16.15 57.8,16.63 C57.8,17.11 57.48,17.58 56.85,17.58 Z" id="Shape"></path>
            <path d="M65.43,17.71 L65.18,17.71 C62.56,17.71 60.43,15.64 60.43,12.99 L60.43,4.89 C60.43,2.29 62.55,0.17 65.18,0.17 L65.43,0.17 C68.03,0.17 70.15,2.29 70.15,4.89 L70.15,12.99 C70.15,15.63 68.03,17.71 65.43,17.71 Z M68.25,4.91 C68.25,3.34 67,2.06 65.43,2.06 L65.18,2.06 C63.61,2.06 62.33,3.36 62.33,4.88 L62.33,12.98 C62.33,14.55 63.6,15.83 65.18,15.83 L65.43,15.83 C67,15.83 68.25,14.56 68.25,12.98 L68.25,4.91 Z" id="Shape"></path>
            <path d="M78.9,17.71 L78.65,17.71 C76.03,17.71 73.9,15.64 73.9,12.99 L73.9,4.89 C73.9,2.29 76.02,0.17 78.65,0.17 L78.9,0.17 C81.3,0.17 83.27,1.92 83.6,4.24 L83.6,4.39 C83.6,4.99 83.15,5.31 82.68,5.31 C82.26,5.31 81.85,5.06 81.73,4.49 C81.46,3.11 80.33,2.07 78.91,2.07 L78.66,2.07 C77.09,2.07 75.81,3.37 75.81,4.89 L75.81,12.99 C75.81,14.56 77.08,15.84 78.66,15.84 L78.91,15.84 C80.33,15.84 81.46,14.79 81.73,13.42 C81.85,12.84 82.28,12.59 82.68,12.59 C83.15,12.59 83.6,12.92 83.6,13.51 L83.6,13.68 C83.28,15.98 81.25,17.71 78.9,17.71 Z" id="Shape"></path>
        </g>
    </g>
</svg>