<svg width="1029px" height="143px" viewBox="0 0 1029 143" version="1.1" xmlns="http://www.w3.org/2000/svg">

    <g id="Page-1" stroke="none" stroke-width="1" fill="none" fill-rule="evenodd">
        <g id="NLC-header" fill="#FFFFFF" fill-rule="nonzero">
            <g id="Group" transform="translate(3.000000, 123.000000)">
                <path d="M12.7,19.3 C12.2,19.3 11.7,19 11.7,18.3 L11.7,5.4 L8.2,13.4 C8,13.9 7.5,14.1 7.1,14.1 C6.6,14.1 6.2,13.9 6,13.4 L2.4,5.4 L2.4,18.3 C2.4,19 1.9,19.3 1.4,19.3 C0.9,19.3 0.4,19 0.4,18.3 L0.4,1.9 C0.4,1.2 0.7,0.7 1.6,0.7 L1.7,0.7 C2.4,0.7 2.7,1.1 2.9,1.5 L7,11 L11.2,1.5 C11.4,1.1 11.7,0.7 12.4,0.7 L12.5,0.7 C13.4,0.7 13.7,1.1 13.7,1.9 L13.7,18.3 C13.7,19 13.2,19.3 12.7,19.3 Z" id="Path"></path>
                <path d="M24.8,19.3 L24.5,19.3 C21.7,19.3 19.5,17.1 19.5,14.3 L19.5,5.7 C19.5,3 21.7,0.7 24.5,0.7 L24.8,0.7 C27.5,0.7 29.8,2.9 29.8,5.7 L29.8,14.3 C29.8,17.1 27.6,19.3 24.8,19.3 Z M27.8,5.8 C27.8,4.1 26.5,2.8 24.8,2.8 L24.5,2.8 C22.8,2.8 21.5,4.2 21.5,5.8 L21.5,14.4 C21.5,16.1 22.8,17.4 24.5,17.4 L24.8,17.4 C26.5,17.4 27.8,16.1 27.8,14.4 L27.8,5.8 Z" id="Shape"></path>
                <path d="M44.8,2 L40.7,18.5 C40.6,19 40.1,19.3 39.6,19.3 C39.2,19.3 38.7,19.1 38.5,18.5 L34.4,2 C34.4,1.9 34.4,1.8 34.4,1.7 C34.4,1.1 34.8,0.7 35.4,0.7 C35.8,0.7 36.2,0.9 36.4,1.5 L39.6,15.3 L42.8,1.5 C42.9,1 43.4,0.7 43.8,0.7 C44.4,0.7 44.9,1.1 44.9,1.7 C44.8,1.8 44.8,1.9 44.8,2 Z" id="Path"></path>
                <path d="M59,19.2 L50.7,19.2 C50.2,19.2 49.7,18.7 49.7,18.2 L49.7,2 C49.7,1.5 50.2,1 50.7,1 L59,1 C59.7,1 60,1.5 60,2 C60,2.5 59.7,3 59,3 L51.7,3 L51.7,8.8 L56.7,8.8 C57.4,8.8 57.7,9.3 57.7,9.8 C57.7,10.3 57.4,10.8 56.7,10.8 L51.7,10.8 L51.7,17.2 L59,17.2 C59.7,17.2 60,17.7 60,18.2 C60,18.7 59.8,19.2 59,19.2 Z" id="Path"></path>
                <path d="M164.2,19.2 L159.9,19.2 C159.4,19.2 158.9,18.7 158.9,18.2 L158.9,2 C158.9,1.5 159.4,1 159.9,1 L164.2,1 C166.9,1 169.2,3.2 169.2,6 L169.2,14.2 C169.2,16.9 166.9,19.2 164.2,19.2 Z M167.2,5.9 C167.2,4.2 165.9,2.9 164.2,2.9 L160.9,2.9 L160.9,17.1 L164.2,17.1 C165.9,17.1 167.2,15.8 167.2,14.1 L167.2,5.9 Z" id="Shape"></path>
                <path d="M176.3,19.3 C175.8,19.3 175.3,19 175.3,18.3 L175.3,1.7 C175.3,1 175.8,0.7 176.3,0.7 C176.8,0.7 177.3,1 177.3,1.7 L177.3,18.3 C177.3,19 176.8,19.3 176.3,19.3 Z" id="Path"></path>
                <path d="M193.1,2.9 L185.8,2.9 L185.8,8.7 L190.8,8.7 C191.5,8.7 191.8,9.2 191.8,9.7 C191.8,10.2 191.5,10.7 190.8,10.7 L185.8,10.7 L185.8,18.3 C185.8,19 185.3,19.3 184.8,19.3 C184.3,19.3 183.8,19 183.8,18.3 L183.8,1.9 C183.8,1.4 184.3,0.9 184.8,0.9 L193.1,0.9 C193.8,0.9 194.1,1.4 194.1,1.9 C194.1,2.4 193.8,2.9 193.1,2.9 Z" id="Path"></path>
                <path d="M207.2,2.9 L200,2.9 L200,8.7 L205,8.7 C205.7,8.7 206,9.2 206,9.7 C206,10.2 205.7,10.7 205,10.7 L200,10.7 L200,18.3 C200,19 199.5,19.3 199,19.3 C198.5,19.3 198,19 198,18.3 L198,1.9 C198,1.4 198.5,0.9 199,0.9 L207.3,0.9 C208,0.9 208.3,1.4 208.3,1.9 C208.2,2.4 208,2.9 207.2,2.9 Z" id="Path"></path>
                <path d="M221.4,19.2 L213.1,19.2 C212.6,19.2 212.1,18.7 212.1,18.2 L212.1,2 C212.1,1.5 212.6,1 213.1,1 L221.4,1 C222.1,1 222.4,1.5 222.4,2 C222.4,2.5 222.1,3 221.4,3 L214.1,3 L214.1,8.8 L219.1,8.8 C219.8,8.8 220.1,9.3 220.1,9.8 C220.1,10.3 219.8,10.8 219.1,10.8 L214.1,10.8 L214.1,17.2 L221.4,17.2 C222.1,17.2 222.4,17.7 222.4,18.2 C222.4,18.7 222.1,19.2 221.4,19.2 Z" id="Path"></path>
                <path d="M233.9,11 L237.2,17.8 C237.3,17.9 237.3,18.1 237.3,18.2 C237.3,18.8 236.9,19.2 236.2,19.2 C235.9,19.2 235.5,19.1 235.3,18.6 L231.7,11 L229,11 L229,18.1 C229,18.8 228.5,19.1 228,19.1 C227.5,19.1 227,18.8 227,18.1 L227,1.7 C227,1.2 227.5,0.7 228,0.7 L232.4,0.7 C235.2,0.7 237.4,2.9 237.4,5.7 L237.4,5.9 C237.5,8.5 236,10.4 233.9,11 Z M235.5,5.9 C235.5,4.2 234.2,2.9 232.5,2.9 L229.1,2.9 L229.1,9.2 L232.6,9.2 C234.3,9.2 235.5,7.9 235.5,6.2 L235.5,5.9 Z" id="Shape"></path>
                <path d="M252,19.2 L243.7,19.2 C243.2,19.2 242.7,18.7 242.7,18.2 L242.7,2 C242.7,1.5 243.2,1 243.7,1 L252,1 C252.7,1 253,1.5 253,2 C253,2.5 252.7,3 252,3 L244.7,3 L244.7,8.8 L249.7,8.8 C250.4,8.8 250.7,9.3 250.7,9.8 C250.7,10.3 250.4,10.8 249.7,10.8 L244.7,10.8 L244.7,17.2 L252,17.2 C252.7,17.2 253,17.7 253,18.2 C253,18.7 252.7,19.2 252,19.2 Z" id="Path"></path>
                <path d="M266.8,19.3 C266.4,19.3 265.8,19.3 265.4,18.4 L259.6,5.4 L259.6,18.3 C259.6,19 259.1,19.3 258.6,19.3 C258.1,19.3 257.6,19 257.6,18.3 L257.6,1.8 C257.6,1.1 258.2,0.8 258.8,0.8 C259.4,0.8 259.8,0.9 260.1,1.6 L265.8,14.7 L265.8,1.8 C265.8,1.1 266.3,0.8 266.8,0.8 C267.3,0.8 267.8,1.1 267.8,1.8 L267.8,18.2 C267.9,19 267.4,19.3 266.8,19.3 Z" id="Path"></path>
                <path d="M281,2.9 L278.1,2.9 L278.1,18.3 C278.1,19 277.6,19.3 277.1,19.3 C276.6,19.3 276.1,19 276.1,18.3 L276.1,2.9 L273.2,2.9 C272.5,2.9 272.2,2.4 272.2,1.9 C272.2,1.4 272.5,0.9 273.2,0.9 L281,0.9 C281.7,0.9 282,1.4 282,1.9 C282,2.4 281.7,2.9 281,2.9 Z" id="Path"></path>
                <path d="M387.2,2.9 L384.3,2.9 L384.3,18.3 C384.3,19 383.8,19.3 383.3,19.3 C382.8,19.3 382.3,19 382.3,18.3 L382.3,2.9 L379.4,2.9 C378.7,2.9 378.4,2.4 378.4,1.9 C378.4,1.4 378.7,0.9 379.4,0.9 L387.2,0.9 C387.9,0.9 388.2,1.4 388.2,1.9 C388.3,2.4 387.9,2.9 387.2,2.9 Z" id="Path"></path>
                <path d="M401.8,19.3 C401.3,19.3 400.8,19 400.8,18.3 L400.8,10.7 L394.5,10.7 L394.5,18.3 C394.5,19 394,19.3 393.5,19.3 C393,19.3 392.5,19 392.5,18.3 L392.5,1.7 C392.5,1 393,0.7 393.5,0.7 C394,0.7 394.5,1 394.5,1.7 L394.5,8.7 L400.8,8.7 L400.8,1.7 C400.8,1 401.3,0.7 401.8,0.7 C402.3,0.7 402.8,1 402.8,1.7 L402.8,18.3 C402.8,19 402.3,19.3 401.8,19.3 Z" id="Path"></path>
                <path d="M410.3,19.3 C409.8,19.3 409.3,19 409.3,18.3 L409.3,1.7 C409.3,1 409.8,0.7 410.3,0.7 C410.8,0.7 411.3,1 411.3,1.7 L411.3,18.3 C411.3,19 410.8,19.3 410.3,19.3 Z" id="Path"></path>
                <path d="M427,19.3 C426.6,19.3 426,19.3 425.6,18.4 L419.8,5.4 L419.8,18.3 C419.8,19 419.3,19.3 418.8,19.3 C418.3,19.3 417.8,19 417.8,18.3 L417.8,1.8 C417.8,1.1 418.4,0.8 419,0.8 C419.6,0.8 420,0.9 420.3,1.6 L426,14.7 L426,1.8 C426,1.1 426.5,0.8 427,0.8 C427.5,0.8 428,1.1 428,1.8 L428,18.2 C428.1,19 427.6,19.3 427,19.3 Z" id="Path"></path>
                <path d="M443.6,19.3 C443.2,19.3 442.9,19.1 442.7,18.7 L438.6,10.3 L436.3,13.7 L436.3,18.3 C436.3,19 435.8,19.3 435.3,19.3 C434.8,19.3 434.3,19 434.3,18.3 L434.3,1.7 C434.3,1 434.8,0.7 435.3,0.7 C435.8,0.7 436.3,1 436.3,1.7 L436.3,10 L442.3,1.1 C442.5,0.8 442.7,0.7 443.1,0.7 C443.7,0.7 444.2,1.2 444.2,1.7 C444.2,1.9 444.1,2.1 444,2.3 L439.9,8.4 L444.5,17.9 C444.6,18.1 444.6,18.2 444.6,18.3 C444.7,18.9 444.2,19.3 443.6,19.3 Z" id="Path"></path>
                <path d="M548,19.2 L543.7,19.2 C543.2,19.2 542.7,18.7 542.7,18.2 L542.7,2 C542.7,1.5 543.2,1 543.7,1 L548,1 C550.7,1 553,3.2 553,6 L553,14.2 C553,16.9 550.8,19.2 548,19.2 Z M551,5.9 C551,4.2 549.7,2.9 548,2.9 L544.7,2.9 L544.7,17.1 L548,17.1 C549.7,17.1 551,15.8 551,14.1 L551,5.9 Z" id="Shape"></path>
                <path d="M560.1,19.3 C559.6,19.3 559.1,19 559.1,18.3 L559.1,1.7 C559.1,1 559.6,0.7 560.1,0.7 C560.6,0.7 561.1,1 561.1,1.7 L561.1,18.3 C561.1,19 560.6,19.3 560.1,19.3 Z" id="Path"></path>
                <path d="M576.9,2.9 L569.6,2.9 L569.6,8.7 L574.6,8.7 C575.3,8.7 575.6,9.2 575.6,9.7 C575.6,10.2 575.3,10.7 574.6,10.7 L569.6,10.7 L569.6,18.3 C569.6,19 569.1,19.3 568.6,19.3 C568.1,19.3 567.6,19 567.6,18.3 L567.6,1.9 C567.6,1.4 568.1,0.9 568.6,0.9 L576.9,0.9 C577.6,0.9 577.9,1.4 577.9,1.9 C577.9,2.4 577.6,2.9 576.9,2.9 Z" id="Path"></path>
                <path d="M591.1,2.9 L583.8,2.9 L583.8,8.7 L588.8,8.7 C589.5,8.7 589.8,9.2 589.8,9.7 C589.8,10.2 589.5,10.7 588.8,10.7 L583.8,10.7 L583.8,18.3 C583.8,19 583.3,19.3 582.8,19.3 C582.3,19.3 581.8,19 581.8,18.3 L581.8,1.9 C581.8,1.4 582.3,0.9 582.8,0.9 L591.1,0.9 C591.8,0.9 592.1,1.4 592.1,1.9 C592.1,2.4 591.8,2.9 591.1,2.9 Z" id="Path"></path>
                <path d="M605.2,19.2 L597,19.2 C596.5,19.2 596,18.7 596,18.2 L596,2 C596,1.5 596.5,1 597,1 L605.3,1 C606,1 606.3,1.5 606.3,2 C606.3,2.5 606,3 605.3,3 L598,3 L598,8.8 L603,8.8 C603.7,8.8 604,9.3 604,9.8 C604,10.3 603.7,10.8 603,10.8 L598,10.8 L598,17.2 L605.3,17.2 C606,17.2 606.3,17.7 606.3,18.2 C606.2,18.7 605.9,19.2 605.2,19.2 Z" id="Path"></path>
                <path d="M617.7,11 L621,17.8 C621.1,17.9 621.1,18.1 621.1,18.2 C621.1,18.8 620.7,19.2 620,19.2 C619.7,19.2 619.3,19.1 619.1,18.6 L615.5,11 L612.8,11 L612.8,18.1 C612.8,18.8 612.3,19.1 611.8,19.1 C611.3,19.1 610.8,18.8 610.8,18.1 L610.8,1.7 C610.8,1.2 611.3,0.7 611.8,0.7 L616.2,0.7 C619,0.7 621.2,2.9 621.2,5.7 L621.2,5.9 C621.4,8.5 619.9,10.4 617.7,11 Z M619.3,5.9 C619.3,4.2 618,2.9 616.3,2.9 L612.9,2.9 L612.9,9.2 L616.4,9.2 C618.1,9.2 619.3,7.9 619.3,6.2 L619.3,5.9 Z" id="Shape"></path>
                <path d="M635.8,19.2 L627.5,19.2 C627,19.2 626.5,18.7 626.5,18.2 L626.5,2 C626.5,1.5 627,1 627.5,1 L635.8,1 C636.5,1 636.8,1.5 636.8,2 C636.8,2.5 636.5,3 635.8,3 L628.5,3 L628.5,8.8 L633.5,8.8 C634.2,8.8 634.5,9.3 634.5,9.8 C634.5,10.3 634.2,10.8 633.5,10.8 L628.5,10.8 L628.5,17.2 L635.8,17.2 C636.5,17.2 636.8,17.7 636.8,18.2 C636.8,18.7 636.5,19.2 635.8,19.2 Z" id="Path"></path>
                <path d="M650.6,19.3 C650.2,19.3 649.6,19.3 649.2,18.4 L643.4,5.4 L643.4,18.3 C643.4,19 642.9,19.3 642.4,19.3 C641.9,19.3 641.4,19 641.4,18.3 L641.4,1.8 C641.4,1.1 642,0.8 642.6,0.8 C643.2,0.8 643.6,0.9 643.9,1.6 L649.6,14.7 L649.6,1.8 C649.6,1.1 650.1,0.8 650.6,0.8 C651.1,0.8 651.6,1.1 651.6,1.8 L651.6,18.2 C651.8,19 651.2,19.3 650.6,19.3 Z" id="Path"></path>
                <path d="M664.8,2.9 L661.9,2.9 L661.9,18.3 C661.9,19 661.4,19.3 660.9,19.3 C660.4,19.3 659.9,19 659.9,18.3 L659.9,2.9 L657,2.9 C656.3,2.9 656,2.4 656,1.9 C656,1.4 656.3,0.9 657,0.9 L664.8,0.9 C665.5,0.9 665.8,1.4 665.8,1.9 C665.9,2.4 665.5,2.9 664.8,2.9 Z" id="Path"></path>
                <path d="M775.1,19.3 C774.7,19.3 774.3,19.1 774.1,18.6 L772.9,14.8 L766.4,14.8 L765.2,18.6 C765,19.1 764.7,19.3 764.3,19.3 C763.7,19.3 763.3,18.9 763.3,18.3 C763.3,18.2 763.3,18.1 763.4,18 L768.6,1.5 C768.8,1 769.3,0.8 769.8,0.8 C770.4,0.8 770.9,1 771,1.5 L776.1,18 C776.1,18.1 776.2,18.2 776.2,18.3 C776.1,18.9 775.7,19.3 775.1,19.3 Z M769.7,4.4 L767.1,12.9 L772.4,12.9 L769.7,4.4 Z" id="Shape"></path>
                <path d="M785.7,19.3 L785.4,19.3 C782.6,19.3 780.4,17.1 780.4,14.3 L780.4,5.7 C780.4,3 782.6,0.7 785.4,0.7 L785.7,0.7 C788.2,0.7 790.3,2.5 790.7,5 L790.7,5.2 C790.7,5.8 790.2,6.2 789.7,6.2 C789.3,6.2 788.8,5.9 788.7,5.3 C788.4,3.8 787.2,2.7 785.7,2.7 L785.4,2.7 C783.7,2.7 782.4,4.1 782.4,5.7 L782.4,14.3 C782.4,16 783.7,17.3 785.4,17.3 L785.7,17.3 C787.2,17.3 788.4,16.2 788.7,14.7 C788.8,14.1 789.3,13.8 789.7,13.8 C790.2,13.8 790.7,14.1 790.7,14.8 L790.7,15 C790.3,17.5 788.1,19.3 785.7,19.3 Z" id="Path"></path>
                <path d="M802.4,2.9 L799.5,2.9 L799.5,18.3 C799.5,19 799,19.3 798.5,19.3 C798,19.3 797.5,19 797.5,18.3 L797.5,2.9 L794.6,2.9 C793.9,2.9 793.6,2.4 793.6,1.9 C793.6,1.4 793.9,0.9 794.6,0.9 L802.4,0.9 C803.1,0.9 803.4,1.4 803.4,1.9 C803.4,2.4 803.1,2.9 802.4,2.9 Z" id="Path"></path>
                <path d="M906.9,19.2 L902.6,19.2 C902.1,19.2 901.6,18.7 901.6,18.2 L901.6,2 C901.6,1.5 902.1,1 902.6,1 L906.9,1 C909.6,1 911.9,3.2 911.9,6 L911.9,14.2 C911.9,16.9 909.7,19.2 906.9,19.2 Z M909.9,5.9 C909.9,4.2 908.6,2.9 906.9,2.9 L903.6,2.9 L903.6,17.1 L906.9,17.1 C908.6,17.1 909.9,15.8 909.9,14.1 L909.9,5.9 Z" id="Shape"></path>
                <path d="M919.1,19.3 C918.6,19.3 918.1,19 918.1,18.3 L918.1,1.7 C918.1,1 918.6,0.7 919.1,0.7 C919.6,0.7 920.1,1 920.1,1.7 L920.1,18.3 C920.1,19 919.6,19.3 919.1,19.3 Z" id="Path"></path>
                <path d="M935.8,2.9 L928.5,2.9 L928.5,8.7 L933.5,8.7 C934.2,8.7 934.5,9.2 934.5,9.7 C934.5,10.2 934.2,10.7 933.5,10.7 L928.5,10.7 L928.5,18.3 C928.5,19 928,19.3 927.5,19.3 C927,19.3 926.5,19 926.5,18.3 L926.5,1.9 C926.5,1.4 927,0.9 927.5,0.9 L935.8,0.9 C936.5,0.9 936.8,1.4 936.8,1.9 C936.8,2.4 936.6,2.9 935.8,2.9 Z" id="Path"></path>
                <path d="M950,2.9 L942.7,2.9 L942.7,8.7 L947.7,8.7 C948.4,8.7 948.7,9.2 948.7,9.7 C948.7,10.2 948.4,10.7 947.7,10.7 L942.7,10.7 L942.7,18.3 C942.7,19 942.2,19.3 941.7,19.3 C941.2,19.3 940.7,19 940.7,18.3 L940.7,1.9 C940.7,1.4 941.2,0.9 941.7,0.9 L950,0.9 C950.7,0.9 951,1.4 951,1.9 C951,2.4 950.7,2.9 950,2.9 Z" id="Path"></path>
                <path d="M964.1,19.2 L955.8,19.2 C955.3,19.2 954.8,18.7 954.8,18.2 L954.8,2 C954.8,1.5 955.3,1 955.8,1 L964.1,1 C964.8,1 965.1,1.5 965.1,2 C965.1,2.5 964.8,3 964.1,3 L956.8,3 L956.8,8.8 L961.8,8.8 C962.5,8.8 962.8,9.3 962.8,9.8 C962.8,10.3 962.5,10.8 961.8,10.8 L956.8,10.8 L956.8,17.2 L964.1,17.2 C964.8,17.2 965.1,17.7 965.1,18.2 C965.1,18.7 964.8,19.2 964.1,19.2 Z" id="Path"></path>
                <path d="M976.6,11 L979.9,17.8 C980,17.9 980,18.1 980,18.2 C980,18.8 979.6,19.2 978.9,19.2 C978.6,19.2 978.2,19.1 978,18.6 L974.4,11 L971.7,11 L971.7,18.1 C971.7,18.8 971.2,19.1 970.7,19.1 C970.2,19.1 969.7,18.8 969.7,18.1 L969.7,1.7 C969.7,1.2 970.2,0.7 970.7,0.7 L975.1,0.7 C977.9,0.7 980.1,2.9 980.1,5.7 L980.1,5.9 C980.3,8.5 978.8,10.4 976.6,11 Z M978.3,5.9 C978.3,4.2 977,2.9 975.3,2.9 L971.9,2.9 L971.9,9.2 L975.4,9.2 C977.1,9.2 978.3,7.9 978.3,6.2 L978.3,5.9 Z" id="Shape"></path>
                <path d="M994.7,19.2 L986.4,19.2 C985.9,19.2 985.4,18.7 985.4,18.2 L985.4,2 C985.4,1.5 985.9,1 986.4,1 L994.7,1 C995.4,1 995.7,1.5 995.7,2 C995.7,2.5 995.4,3 994.7,3 L987.4,3 L987.4,8.8 L992.4,8.8 C993.1,8.8 993.4,9.3 993.4,9.8 C993.4,10.3 993.1,10.8 992.4,10.8 L987.4,10.8 L987.4,17.2 L994.7,17.2 C995.4,17.2 995.7,17.7 995.7,18.2 C995.7,18.7 995.4,19.2 994.7,19.2 Z" id="Path"></path>
                <path d="M1009.5,19.3 C1009.1,19.3 1008.5,19.3 1008.1,18.4 L1002.3,5.4 L1002.3,18.3 C1002.3,19 1001.8,19.3 1001.3,19.3 C1000.8,19.3 1000.3,19 1000.3,18.3 L1000.3,1.8 C1000.3,1.1 1000.9,0.8 1001.5,0.8 C1002.1,0.8 1002.5,0.9 1002.8,1.6 L1008.5,14.7 L1008.5,1.8 C1008.5,1.1 1009,0.8 1009.5,0.8 C1010,0.8 1010.5,1.1 1010.5,1.8 L1010.5,18.2 C1010.7,19 1010.1,19.3 1009.5,19.3 Z" id="Path"></path>
                <path d="M1023.8,2.9 L1020.9,2.9 L1020.9,18.3 C1020.9,19 1020.4,19.3 1019.9,19.3 C1019.4,19.3 1018.9,19 1018.9,18.3 L1018.9,2.9 L1016,2.9 C1015.3,2.9 1015,2.4 1015,1.9 C1015,1.4 1015.3,0.9 1016,0.9 L1023.8,0.9 C1024.5,0.9 1024.8,1.4 1024.8,1.9 C1024.8,2.4 1024.4,2.9 1023.8,2.9 Z" id="Path"></path>
            </g>
            <g id="Group">
                <path d="M984.3,75.1 L984.3,5.1 C984.3,2.3 986.3,0.8 988.5,0.8 C990.6,0.8 992.9,2.3 992.9,5.1 L992.9,60.3 L1017.4,4.4 C1018.8,1.4 1020.6,0.8 1023.2,0.8 C1025.8,0.8 1028.3,2.2 1028.3,5.2 L1028.3,75.9 C1028.3,78.7 1026.2,80.1 1024,80.1 C1021.8,80.1 1019.7,78.7 1019.7,75.9 L1019.7,20.7 L995,76.4 C993.3,80.1 990.8,80.1 989.1,80.1 C986.5,80.1 984.3,78.9 984.3,75.1 Z" id="Path"></path>
                <path d="M920,75.3 C920,73.2 921.2,71 924.3,71 L955.4,71 L955.4,43.5 L933.8,43.5 C931,43.5 929.5,41.4 929.5,39.2 C929.5,37.1 931,34.9 933.8,34.9 L955.4,34.9 L955.4,10.1 L924.3,10.1 C921.3,10.1 920,8 920,5.8 C920,3.7 921.2,1.5 924.3,1.5 L959.6,1.5 C961.9,1.5 963.9,3.5 963.9,5.8 L963.9,75.2 C963.9,77.5 961.9,79.5 959.6,79.5 L924.3,79.5 C921.3,79.5 920,77.4 920,75.3 Z" id="Path"></path>
                <path d="M862.6,58.8 L862.6,5.1 C862.6,2.3 864.7,0.8 866.9,0.8 C869,0.8 871.2,2.3 871.2,5.1 L871.2,58.7 C871.2,65.8 876.8,71.6 884,71.6 L885.1,71.6 C892.2,71.6 898,65.8 898,58.7 L898,5.1 C898,2.3 900.1,0.8 902.3,0.8 C904.5,0.8 906.6,2.3 906.6,5.1 L906.6,58.7 C906.6,70.7 897,80.0007905 885.1,80.0007905 L884,80.0007905 C872.2,80.1 862.6,70.7 862.6,58.8 Z" id="Path"></path>
                <path d="M797.5,24 L797.5,23 C797.5,11.1 807.1,1.5 819,1.5 L838,1.5 C840.3,1.5 842.3,3.5 842.3,5.8 L842.3,75.9 C842.3,78.7 840.2,80.1 838,80.1 C835.8,80.1 833.7,78.7 833.7,75.9 L833.7,45.4 L822.2,45.4 L806.8,77.7 C805.9,79.5 804.4,80.1 803.1,80.1 C800.4,80.1 798.6,78.3 798.6,75.9 C798.6,75.2 798.7,74.5 799.1,74 L813.1,44.8 C803.8,42.1 797.5,33.9 797.5,24 Z M806.1,24 C806.1,31.1 811.4,36.9 818.5,36.9 L833.6,36.9 L833.6,10.1 L819,10.1 C811.9,10.1 806.1,15.9 806.1,23 L806.1,24 Z" id="Shape"></path>
                <path d="M739.5,58.8 L739.5,22.2 C739.5,10.5 749.1,0.9 760.8,0.9 L761.9,0.9 C773.8,0.9 783.4,10.5 783.4,22.2 L783.4,58.8 C783.4,70.8 773.8,80.1 761.9,80.1 L760.8,80.1 C749.1,80.1 739.5,70.7 739.5,58.8 Z M748.1,58.8 C748.1,65.9 753.7,71.7 760.9,71.7 L762,71.7 C769.1,71.7 774.9,65.9 774.9,58.8 L774.9,22.2 C774.9,15.3 769.1,9.4 762,9.4 L760.9,9.4 C753.8,9.4 748.1,15.2 748.1,22.3 L748.1,58.8 Z" id="Shape"></path>
                <path d="M681.4,75.3 C681.4,73.2 682.9,71 685.7,71 L712.2,71 L712.2,5.1 C712.2,2.3 714.3,0.8 716.5,0.8 C718.7,0.8 720.8,2.3 720.8,5.1 L720.8,75.2 C720.8,77.5 718.8,79.5 716.5,79.5 L685.7,79.5 C682.9,79.5 681.4,77.4 681.4,75.3 Z" id="Path"></path>
                <path d="M624,75.3 C624,73.2 625.2,71 628.3,71 L659.4,71 L659.4,43.5 L637.8,43.5 C635,43.5 633.5,41.4 633.5,39.2 C633.5,37.1 635,34.9 637.8,34.9 L659.4,34.9 L659.4,10.1 L628.3,10.1 C625.3,10.1 624,8 624,5.8 C624,3.7 625.2,1.5 628.3,1.5 L663.6,1.5 C665.9,1.5 667.9,3.5 667.9,5.8 L667.9,75.2 C667.9,77.5 665.9,79.5 663.6,79.5 L628.3,79.5 C625.2,79.5 624,77.4 624,75.3 Z" id="Path"></path>
                <path d="M576.9,5.8 C576.9,3.7 578.4,1.5 581.2,1.5 L614.6,1.5 C617.4,1.5 618.9,3.6 618.9,5.8 C618.9,7.9 617.4,10.1 614.6,10.1 L602.2,10.1 L602.2,75.9 C602.2,78.7 600.1,80.1 597.9,80.1 C595.8,80.1 593.6,78.7 593.6,75.9 L593.6,10.1 L581.2,10.1 C578.4,10.1 576.9,7.9 576.9,5.8 Z" id="Path"></path>
                <path d="M555.3,75.9 L555.3,5.1 C555.3,2.3 557.4,0.8 559.6,0.8 C561.7,0.8 563.9,2.3 563.9,5.1 L563.9,75.9 C563.9,78.7 561.8,80.1 559.6,80.1 C557.5,80.1 555.3,78.8 555.3,75.9 Z" id="Path"></path>
                <path d="M491.7,61.9 L491.7,61.1 C491.7,58.4 493.7,56.9 495.9,56.9 C497.7,56.9 499.6,58 500.2,60.6 C501.4,66.8 506.5,71.6 513,71.6 L514.1,71.6 C521.2,71.6 527,65.8 527,58.7 L527,22.2 C527,15.3 521.2,9.4 514.1,9.4 L513,9.4 C506.6,9.4 501.5,14.1 500.2,20.4 C499.6,23 497.8,24.1 495.9,24.1 C493.8,24.1 491.7,22.6 491.7,19.9 L491.7,19.2 C493.2,8.7 502.1,0.8 512.9,0.8 L514,0.8 C525.9,0.8 535.5,10.4 535.5,22.1 L535.5,58.7 C535.5,70.7 525.9,80 514,80 L513,80 C502.4,80.1 493.2,72.3 491.7,61.9 Z" id="Path"></path>
                <path d="M396,61.9 L396,61.1 C396,58.4 398,56.9 400.2,56.9 C402,56.9 403.9,58 404.5,60.6 C405.7,66.8 410.8,71.6 417.3,71.6 L418.4,71.6 C425.5,71.6 431.3,65.8 431.3,58.7 L431.3,22.2 C431.3,15.3 425.5,9.4 418.4,9.4 L417.3,9.4 C410.9,9.4 405.8,14.1 404.5,20.4 C403.9,23 402.1,24.1 400.2,24.1 C398.1,24.1 396,22.6 396,19.9 L396,19.2 C397.5,8.7 406.4,0.8 417.2,0.8 L418.3,0.8 C430.2,0.8 439.8,10.4 439.8,22.1 L439.8,58.7 C439.8,70.7 430.2,80 418.3,80 L417.2,80 C406.6,80.1 397.5,72.3 396,61.9 Z" id="Path"></path>
                <path d="M339.1,58.8 L339.1,22.2 C339.1,10.5 348.7,0.9 360.4,0.9 L361.5,0.9 C373.4,0.9 383,10.5 383,22.2 L383,58.8 C383,70.8 373.4,80.1 361.5,80.1 L360.4,80.1 C348.7,80.1 339.1,70.7 339.1,58.8 Z M347.7,58.8 C347.7,65.9 353.3,71.7 360.5,71.7 L361.6,71.7 C368.7,71.7 374.5,65.9 374.5,58.8 L374.5,22.2 C374.5,15.3 368.7,9.4 361.6,9.4 L360.5,9.4 C353.4,9.4 347.7,15.2 347.7,22.3 L347.7,58.8 Z" id="Shape"></path>
                <path d="M272.5,76 C272.5,75.7 272.6,75.2 272.7,74.6 L294.7,3.9 C295.4,1.8 297.5,0.7 299.9,0.7 C302.2,0.7 304.3,1.7 305,3.9 L327,74.6 C327.1,75.2 327.2,75.6 327.2,76 C327.2,78.3 325.4,80.1 322.8,80.1 C321.1,80.1 319.5,79.3 318.8,77.2 L313.7,60.9 L285.8,60.9 L280.8,77.2 C280.1,79.3 278.4,80.1 276.7,80.1 C274.3,80.1 272.5,78.3 272.5,76 Z M288.6,52.3 L311.1,52.3 L299.9,16.2 L288.6,52.3 Z" id="Shape"></path>
                <path d="M216.8,61.9 L216.8,61.1 C216.8,58.4 218.8,56.9 221,56.9 C222.8,56.9 224.7,58 225.3,60.6 C226.5,66.8 231.6,71.6 238.1,71.6 L239.2,71.6 C246.3,71.6 252.1,65.8 252.1,58.7 L252.1,22.2 C252.1,15.3 246.3,9.4 239.2,9.4 L238,9.4 C231.6,9.4 226.5,14.1 225.2,20.4 C224.6,23 222.8,24.1 220.9,24.1 C218.8,24.1 216.7,22.6 216.7,19.9 L216.7,19.2 C218.2,8.7 227.1,0.8 237.9,0.8 L239,0.8 C250.9,0.8 260.5,10.4 260.5,22.1 L260.5,58.7 C260.5,70.7 250.9,80 239,80 L238,80 C227.4,80.1 218.3,72.3 216.8,61.9 Z" id="Path"></path>
                <path d="M158.2,75.9 L158.2,5.1 C158.2,2.3 160.3,0.8 162.5,0.8 C164.6,0.8 166.8,2.3 166.8,5.1 L166.8,34.9 L193.6,34.9 L193.6,5.1 C193.6,2.3 195.7,0.8 197.9,0.8 C200,0.8 202.2,2.3 202.2,5.1 L202.2,75.9 C202.2,78.7 200.1,80.1 197.9,80.1 C195.8,80.1 193.6,78.7 193.6,75.9 L193.6,43.5 L166.8,43.5 L166.8,75.9 C166.8,78.9 164.7,80.1 162.5,80.1 C160.3,80.1 158.2,79 158.2,75.9 Z" id="Path"></path>
                <path d="M128.2,75.9 L128.2,5.1 C128.2,2.3 130.3,0.8 132.5,0.8 C134.6,0.8 136.8,2.3 136.8,5.1 L136.8,75.9 C136.8,78.7 134.7,80.1 132.5,80.1 C130.3,80.1 128.2,78.8 128.2,75.9 Z" id="Path"></path>
                <path d="M62.8,75.1 L62.8,5.1 C62.8,2.3 64.8,0.8 67,0.8 C69.1,0.8 71.4,2.3 71.4,5.1 L71.4,60.3 L95.9,4.4 C97.3,1.4 99.1,0.8 101.7,0.8 C104.3,0.8 106.8,2.2 106.8,5.2 L106.8,75.9 C106.8,78.7 104.7,80.1 102.5,80.1 C100.3,80.1 98.2,78.7 98.2,75.9 L98.2,20.7 L73.5,76.4 C71.8,80.1 69.3,80.1 67.6,80.1 C65,80.1 62.8,78.9 62.8,75.1 Z" id="Path"></path>
                <path d="M0.1,58.8 L0.1,41.3 C0.1,39 2.1,37 4.4,37 L20.5,37 C23.3,37 24.8,39.1 24.8,41.3 C24.8,43.4 23.3,45.6 20.5,45.6 L8.7,45.6 L8.7,58.8 C8.7,65.9 14.5,71.7 21.6,71.7 L22.7,71.7 C29.8,71.7 35.6,65.9 35.6,58.8 L35.6,22.2 C35.6,15.3 29.8,9.4 22.7,9.4 L21.6,9.4 C14.3,9.4 10,14.1 8.7,20.5 C8.2,23.1 6.3,24.1 4.4,24.1 C2.3,24.1 0.1,22.6 0.1,19.9 L0.1,19.2 C1.6,8.6 10.6,0.8 21.6,0.8 L22.7,0.8 C34.6,0.8 44.2,10.3 44.2,22.3 L44.2,58.8 C44.2,70.8 34.6,80.1 22.7,80.1 L21.6,80.1 C9.7,80.1 0.1,70.7 0.1,58.8 Z" id="Path"></path>
            </g>
        </g>
    </g>
</svg>