<?xml version="1.0" encoding="UTF-8"?>
<svg width="218px" height="19px" viewBox="0 0 218 19" version="1.1" xmlns="http://www.w3.org/2000/svg" xmlns:xlink="http://www.w3.org/1999/xlink">
    <!-- Generator: Sketch 49.3 (51167) - http://www.bohemiancoding.com/sketch -->
    <title>individualpatterns</title>
    <desc>Created with Sketch.</desc>
    <defs></defs>
    <g id="Page-1" stroke="none" stroke-width="1" fill="none" fill-rule="evenodd">
        <g id="individualpatterns" fill="#000000" fill-rule="nonzero">
            <path d="M1.54,18.42 C1.07,18.42 0.59,18.12 0.59,17.5 L0.59,1.9 C0.59,1.28 1.06,0.96 1.54,0.96 C2.02,0.96 2.49,1.28 2.49,1.9 L2.49,17.49 C2.49,18.12 2.02,18.42 1.54,18.42 Z" id="Shape"></path>
            <path d="M15.82,18.42 C15.45,18.42 14.9,18.42 14.53,17.6 L9.11,5.34 L9.11,17.5 C9.11,18.12 8.64,18.42 8.16,18.42 C7.68,18.42 7.21,18.12 7.21,17.5 L7.21,1.93 C7.21,1.26 7.76,0.96 8.33,0.96 C8.9,0.96 9.3,1.08 9.6,1.76 L15,14.07 L15,1.9 C15,1.28 15.5,0.96 15.97,0.96 C16.44,0.96 16.89,1.28 16.89,1.9 L16.89,17.32 C16.89,18.14 16.39,18.42 15.82,18.42 Z" id="Shape"></path>
            <path d="M26.34,18.29 L22.31,18.29 C21.81,18.29 21.37,17.84 21.37,17.34 L21.37,2.04 C21.37,1.54 21.82,1.09 22.31,1.09 L26.34,1.09 C28.93,1.09 31.04,3.2 31.04,5.79 L31.04,13.55 C31.04,16.18 28.93,18.29 26.34,18.29 Z M29.18,5.83 C29.18,4.26 27.94,2.99 26.37,2.99 L23.26,2.99 L23.26,16.4 L26.34,16.4 C27.91,16.4 29.18,15.13 29.18,13.56 L29.18,5.83 Z" id="Shape"></path>
            <path d="M36.34,18.42 C35.87,18.42 35.39,18.12 35.39,17.5 L35.39,1.9 C35.39,1.28 35.86,0.96 36.34,0.96 C36.82,0.96 37.28,1.28 37.28,1.9 L37.28,17.49 C37.28,18.12 36.81,18.42 36.34,18.42 Z" id="Shape"></path>
            <path d="M50.59,2.13 L46.71,17.7 C46.59,18.2 46.16,18.42 45.69,18.42 C45.27,18.42 44.82,18.2 44.69,17.7 L40.79,2.13 C40.77,2.06 40.77,1.98 40.77,1.88 C40.77,1.36 41.17,0.96 41.74,0.96 C42.14,0.96 42.51,1.18 42.64,1.68 L45.7,14.69 L48.76,1.68 C48.88,1.18 49.28,0.96 49.66,0.96 C50.23,0.96 50.65,1.36 50.65,1.88 C50.64,1.9 50.61,2 50.59,2.13 Z" id="Shape"></path>
            <path d="M55.06,18.42 C54.59,18.42 54.11,18.12 54.11,17.5 L54.11,1.9 C54.11,1.28 54.58,0.96 55.06,0.96 C55.54,0.96 56,1.28 56,1.9 L56,17.49 C56.01,18.12 55.54,18.42 55.06,18.42 Z" id="Shape"></path>
            <path d="M65.71,18.29 L61.68,18.29 C61.18,18.29 60.73,17.84 60.73,17.34 L60.73,2.04 C60.73,1.54 61.18,1.09 61.68,1.09 L65.71,1.09 C68.3,1.09 70.41,3.2 70.41,5.79 L70.41,13.55 C70.41,16.18 68.3,18.29 65.71,18.29 Z M68.54,5.83 C68.54,4.26 67.3,2.99 65.73,2.99 L62.62,2.99 L62.62,16.4 L65.7,16.4 C67.27,16.4 68.53,15.13 68.53,13.56 L68.53,5.83 L68.54,5.83 Z" id="Shape"></path>
            <path d="M79.49,18.42 L79.24,18.42 C76.63,18.42 74.51,16.36 74.51,13.72 L74.51,1.9 C74.51,1.28 74.98,0.96 75.46,0.96 C75.94,0.96 76.41,1.28 76.41,1.9 L76.41,13.71 C76.41,15.28 77.68,16.54 79.25,16.54 L79.5,16.54 C81.07,16.54 82.31,15.27 82.31,13.71 L82.31,1.9 C82.31,1.28 82.78,0.96 83.25,0.96 C83.72,0.96 84.2,1.28 84.2,1.9 L84.2,13.71 C84.19,16.35 82.07,18.42 79.49,18.42 Z" id="Shape"></path>
            <path d="M98.26,18.42 C97.89,18.42 97.51,18.25 97.36,17.77 L96.27,14.19 L90.13,14.19 L89.01,17.77 C88.86,18.24 88.51,18.42 88.14,18.42 C87.57,18.42 87.17,18.02 87.17,17.52 C87.17,17.45 87.2,17.35 87.22,17.22 L92.07,1.65 C92.22,1.18 92.69,0.95 93.19,0.95 C93.71,0.95 94.18,1.17 94.33,1.65 L99.18,17.22 C99.2,17.34 99.23,17.44 99.23,17.52 C99.23,18.02 98.84,18.42 98.26,18.42 Z M93.19,4.34 L90.73,12.3 L95.68,12.3 L93.19,4.34 Z" id="Shape"></path>
            <path d="M109.95,18.29 L103.16,18.29 C102.66,18.29 102.21,17.84 102.21,17.34 L102.21,1.9 C102.21,1.28 102.68,0.96 103.16,0.96 C103.64,0.96 104.11,1.28 104.11,1.9 L104.11,16.4 L109.95,16.4 C110.57,16.4 110.9,16.87 110.9,17.35 C110.9,17.83 110.57,18.29 109.95,18.29 Z" id="Shape"></path>
            <path d="M127.41,10.51 L124.35,10.51 L124.35,17.5 C124.35,18.12 123.88,18.42 123.4,18.42 C122.92,18.42 122.45,18.12 122.45,17.5 L122.45,2.06 C122.45,1.56 122.9,1.11 123.4,1.11 L127.4,1.11 C130.01,1.11 132.12,3.17 132.12,5.79 C132.14,8.4 130.02,10.51 127.41,10.51 Z M127.41,3 L124.35,3 L124.35,8.62 L127.41,8.62 C128.98,8.62 130.24,7.35 130.24,5.78 C130.25,4.27 128.98,3 127.41,3 Z" id="Shape"></path>
            <path d="M144.6,18.42 C144.23,18.42 143.85,18.25 143.7,17.77 L142.61,14.19 L136.47,14.19 L135.35,17.77 C135.2,18.24 134.85,18.42 134.48,18.42 C133.91,18.42 133.51,18.02 133.51,17.52 C133.51,17.45 133.54,17.35 133.56,17.22 L138.41,1.65 C138.56,1.18 139.03,0.95 139.53,0.95 C140.05,0.95 140.53,1.17 140.67,1.65 L145.52,17.22 C145.55,17.34 145.57,17.44 145.57,17.52 C145.57,18.02 145.17,18.42 144.6,18.42 Z M139.52,4.34 L137.06,12.3 L142.01,12.3 L139.52,4.34 Z" id="Shape"></path>
            <path d="M154.99,3 L152.25,3 L152.25,17.5 C152.25,18.12 151.78,18.42 151.31,18.42 C150.84,18.42 150.36,18.12 150.36,17.5 L150.36,3 L147.62,3 C147,3 146.67,2.53 146.67,2.06 C146.67,1.59 146.99,1.11 147.62,1.11 L154.98,1.11 C155.6,1.11 155.93,1.58 155.93,2.06 C155.93,2.54 155.62,3 154.99,3 Z" id="Shape"></path>
            <path d="M164.99,3 L162.25,3 L162.25,17.5 C162.25,18.12 161.78,18.42 161.3,18.42 C160.83,18.42 160.36,18.12 160.36,17.5 L160.36,3 L157.62,3 C157,3 156.67,2.53 156.67,2.06 C156.67,1.59 156.99,1.11 157.62,1.11 L164.98,1.11 C165.6,1.11 165.92,1.58 165.92,2.06 C165.92,2.54 165.61,3 164.99,3 Z" id="Shape"></path>
            <path d="M177.28,18.29 L169.49,18.29 C168.99,18.29 168.54,17.84 168.54,17.34 L168.54,2.04 C168.54,1.54 168.99,1.09 169.49,1.09 L177.28,1.09 C177.95,1.09 178.22,1.56 178.22,2.04 C178.22,2.52 177.95,2.98 177.28,2.98 L170.44,2.98 L170.44,8.45 L175.19,8.45 C175.81,8.45 176.14,8.92 176.14,9.39 C176.14,9.86 175.82,10.34 175.19,10.34 L170.44,10.34 L170.44,16.38 L177.28,16.38 C177.95,16.38 178.22,16.85 178.22,17.33 C178.22,17.81 177.95,18.29 177.28,18.29 Z" id="Shape"></path>
            <path d="M187.65,10.63 L190.73,17.07 C190.81,17.19 190.83,17.34 190.83,17.49 C190.83,18.01 190.43,18.41 189.83,18.41 C189.53,18.41 189.21,18.29 189.01,17.89 L185.63,10.78 L183.09,10.78 L183.09,17.49 C183.09,18.11 182.62,18.41 182.14,18.41 C181.67,18.41 181.2,18.11 181.2,17.49 L181.2,2.05 C181.2,1.55 181.65,1.1 182.14,1.1 L186.32,1.1 C188.93,1.1 191.05,3.21 191.05,5.83 L191.05,6.05 C191.05,8.25 189.66,10.04 187.65,10.63 Z M189.17,5.83 C189.17,4.26 187.9,2.99 186.33,2.99 L183.1,2.99 L183.1,8.89 L186.43,8.89 C188,8.89 189.17,7.62 189.17,6.05 L189.17,5.83 Z" id="Shape"></path>
            <path d="M203.14,18.42 C202.77,18.42 202.22,18.42 201.85,17.6 L196.43,5.34 L196.43,17.5 C196.43,18.12 195.96,18.42 195.48,18.42 C195,18.42 194.53,18.12 194.53,17.5 L194.53,1.93 C194.53,1.26 195.08,0.96 195.65,0.96 C196.22,0.96 196.62,1.08 196.92,1.76 L202.32,14.07 L202.32,1.9 C202.32,1.28 202.82,0.96 203.29,0.96 C203.76,0.96 204.21,1.28 204.21,1.9 L204.21,17.32 C204.21,18.14 203.71,18.42 203.14,18.42 Z" id="Shape"></path>
            <path d="M212.84,18.42 L212.62,18.42 C210.06,18.42 207.7,16.85 207.7,13.84 C207.7,13.22 208.17,12.92 208.65,12.92 C209.13,12.92 209.6,13.19 209.6,13.87 C209.6,15.64 211.04,16.56 212.66,16.56 L212.91,16.56 C214.87,16.56 215.72,15.59 215.72,13.8 C215.72,11.76 214.28,11.19 212.76,10.34 C210.37,9 207.96,8.4 207.96,5.22 C207.96,2.81 210.02,0.97 212.64,0.97 L212.89,0.97 C215.28,0.97 217.42,2.66 217.42,4.95 C217.42,5.57 217,5.87 216.52,5.87 C216.04,5.87 215.6,5.57 215.52,4.97 C215.4,3.75 214.35,2.86 212.83,2.86 L212.61,2.86 C210.55,2.86 209.87,4.35 209.87,5.22 C209.87,7.04 211.41,7.58 212.75,8.3 C215.24,9.64 217.6,10.44 217.6,13.82 C217.59,16.68 215.85,18.42 212.84,18.42 Z" id="Shape"></path>
        </g>
    </g>
</svg>