<?xml version="1.0" encoding="UTF-8"?>
<svg width="133px" height="18px" viewBox="0 0 133 18" version="1.1" xmlns="http://www.w3.org/2000/svg" xmlns:xlink="http://www.w3.org/1999/xlink">
    <!-- Generator: Sketch 56.3 (81716) - https://sketch.com -->
    <title>Inspirations Titel_Zeichenfläche 1</title>
    <desc>Created with Sketch.</desc>
    <g id="Page-1" stroke="none" stroke-width="1" fill="none" fill-rule="evenodd">
        <g id="Inspirations-Titel_Zeichenfläche-1" fill="#000000" fill-rule="nonzero">
            <path d="M0.9,17.4375 C0.45,17.4375 0,17.1 0,16.5375 L0,0.9 C0,0.3375 0.45,0 0.9,0 C1.35,0 1.8,0.3375 1.8,0.9 L1.8,16.425 C1.9125,17.1 1.4625,17.4375 0.9,17.4375 Z" id="Path"></path>
            <path d="M15.1875,17.4375 C14.85,17.4375 14.2875,17.4375 13.95,16.65 L8.4375,4.3875 L8.4375,16.5375 C8.4375,17.1 7.9875,17.4375 7.5375,17.4375 C7.0875,17.4375 6.6375,17.1 6.6375,16.5375 L6.6375,1.0125 C6.6375,0.3375 7.2,0 7.7625,0 C8.325,0 8.6625,0.1125 9,0.7875 L14.4,13.05 L14.4,0.9 C14.4,0.225 14.85,0 15.4125,0 C15.975,0 16.3125,0.3375 16.3125,0.9 L16.3125,16.2 C16.2,17.1 15.75,17.4375 15.1875,17.4375 Z" id="Path"></path>
            <path d="M24.75,17.4375 L24.525,17.4375 C21.9375,17.4375 19.575,15.8625 19.575,12.9375 C19.575,12.2625 20.025,12.0375 20.475,12.0375 C20.925,12.0375 21.375,12.2625 21.375,12.9375 C21.375,14.7375 22.8375,15.6375 24.4125,15.6375 L24.6375,15.6375 C26.55,15.6375 27.45,14.625 27.45,12.9375 C27.45,10.9125 25.9875,10.35 24.525,9.45 C22.1625,8.1 19.8,7.5375 19.8,4.3875 C19.8,2.025 21.825,0.1125 24.4125,0.1125 L24.6375,0.1125 C27,0.1125 29.1375,1.8 29.1375,4.05 C29.1375,4.725 28.6875,4.95 28.2375,4.95 C27.7875,4.95 27.3375,4.6125 27.225,4.05 C27.1125,2.8125 26.1,1.9125 24.525,1.9125 L24.3,1.9125 C22.275,1.9125 21.6,3.375 21.6,4.275 C21.6,6.075 23.175,6.6375 24.525,7.3125 C27,8.6625 29.3625,9.45 29.3625,12.825 C29.475,15.6375 27.7875,17.4375 24.75,17.4375 Z" id="Path"></path>
            <path d="M37.9125,9.5625 L34.875,9.5625 L34.875,16.5375 C34.875,17.1 34.425,17.4375 33.975,17.4375 C33.525,17.4375 33.075,17.1 33.075,16.5375 L33.075,1.125 C33.075,0.675 33.525,0.225 33.975,0.225 L37.9125,0.225 C40.5,0.225 42.6375,2.25 42.6375,4.8375 C42.6375,7.425 40.5,9.5625 37.9125,9.5625 Z M37.9125,2.025 L34.875,2.025 L34.875,7.65 L37.9125,7.65 C39.4875,7.65 40.725,6.4125 40.725,4.8375 C40.725,3.2625 39.4875,2.025 37.9125,2.025 Z" id="Shape"></path>
            <path d="M46.6875,17.4375 C46.2375,17.4375 45.7875,17.1 45.7875,16.5375 L45.7875,0.9 C45.7875,0.225 46.2375,0 46.6875,0 C47.1375,0 47.5875,0.3375 47.5875,0.9 L47.5875,16.425 C47.5875,17.1 47.1375,17.4375 46.6875,17.4375 Z" id="Path"></path>
            <path d="M58.725,9.675 L61.7625,16.0875 C61.875,16.2 61.875,16.3125 61.875,16.5375 C61.875,17.1 61.425,17.4375 60.8625,17.4375 C60.525,17.4375 60.1875,17.325 60.075,16.875 L56.7,9.7875 L54.225,9.7875 L54.225,16.425 C54.225,16.9875 53.775,17.325 53.325,17.325 C52.875,17.325 52.425,16.9875 52.425,16.425 L52.425,1.125 C52.425,0.675 52.875,0.225 53.325,0.225 L57.375,0.225 C59.9625,0.225 62.1,2.3625 62.1,4.95 L62.1,5.175 C62.1,7.3125 60.75,9 58.725,9.675 Z M60.1875,4.8375 C60.1875,3.2625 58.95,2.025 57.375,2.025 L54.1125,2.025 L54.1125,7.875 L57.375,7.875 C58.95,7.875 60.075,6.6375 60.075,5.0625 L60.075,4.8375 L60.1875,4.8375 Z" id="Shape"></path>
            <path d="M75.15,17.4375 C74.8125,17.4375 74.3625,17.2125 74.25,16.7625 L73.125,13.1625 L67.05,13.1625 L65.925,16.7625 C65.8125,17.2125 65.475,17.4375 65.025,17.4375 C64.4625,17.4375 64.0125,16.9875 64.0125,16.5375 C64.0125,16.425 64.0125,16.3125 64.0125,16.2 L68.85,0.675 C68.9625,0.225 69.4125,-3.55271368e-15 69.975,-3.55271368e-15 C70.5375,-3.55271368e-15 70.9875,0.225 71.1,0.675 L75.9375,16.2 C75.9375,16.3125 75.9375,16.425 75.9375,16.5375 C76.05,16.9875 75.7125,17.4375 75.15,17.4375 Z M70.0875,3.375 L67.6125,11.25 L72.5625,11.25 L70.0875,3.375 Z" id="Shape"></path>
            <path d="M85.5,2.025 L82.8,2.025 L82.8,16.425 C82.8,16.9875 82.35,17.325 81.9,17.325 C81.45,17.325 81,16.9875 81,16.425 L81,2.025 L78.3,2.025 C77.7375,2.025 77.4,1.575 77.4,1.125 C77.4,0.675 77.7375,0.225 78.3,0.225 L85.5,0.225 C86.175,0.225 86.4,0.675 86.4,1.125 C86.4,1.575 86.0625,2.025 85.5,2.025 Z" id="Path"></path>
            <path d="M90.225,17.4375 C89.775,17.4375 89.325,17.1 89.325,16.5375 L89.325,0.9 C89.325,0.225 89.775,0 90.225,0 C90.675,0 91.125,0.3375 91.125,0.9 L91.125,16.425 C91.125,17.1 90.675,17.4375 90.225,17.4375 Z" id="Path"></path>
            <path d="M100.4625,17.4375 L100.125,17.4375 C97.5375,17.4375 95.4,15.4125 95.4,12.7125 L95.4,4.725 C95.5125,2.1375 97.5375,0 100.125,0 L100.35,0 C102.9375,0 105.075,2.1375 105.075,4.725 L105.075,12.7125 C105.075,15.3 102.9375,17.4375 100.4625,17.4375 Z M103.1625,4.725 C103.1625,3.15 101.925,1.9125 100.35,1.9125 L100.125,1.9125 C98.55,1.9125 97.3125,3.15 97.3125,4.725 L97.3125,12.7125 C97.3125,14.2875 98.55,15.525 100.125,15.525 L100.35,15.525 C101.925,15.525 103.1625,14.2875 103.1625,12.7125 L103.1625,4.725 Z" id="Shape"></path>
            <path d="M117.7875,17.4375 C117.45,17.4375 116.8875,17.4375 116.55,16.65 L111.0375,4.3875 L111.0375,16.5375 C111.0375,17.1 110.5875,17.4375 110.1375,17.4375 C109.6875,17.4375 109.125,17.1 109.125,16.425 L109.125,1.0125 C109.125,0.3375 109.6875,0 110.25,0 C110.8125,0 111.2625,0.1125 111.4875,0.7875 L116.8875,13.05 L116.8875,0.9 C116.8875,0.225 117.3375,0 117.9,0 C118.4625,0 118.8,0.3375 118.8,0.9 L118.8,16.2 C118.8,17.1 118.35,17.4375 117.7875,17.4375 Z" id="Path"></path>
            <path d="M127.35,17.4375 L127.125,17.4375 C124.5375,17.4375 122.175,15.8625 122.175,12.9375 C122.175,12.2625 122.625,12.0375 123.075,12.0375 C123.525,12.0375 123.975,12.2625 123.975,12.9375 C123.975,14.7375 125.4375,15.6375 127.0125,15.6375 L127.2375,15.6375 C129.15,15.6375 130.05,14.625 130.05,12.9375 C130.05,10.9125 128.5875,10.35 127.125,9.45 C124.7625,8.1 122.4,7.5375 122.4,4.3875 C122.4,2.025 124.425,0.1125 127.0125,0.1125 L127.2375,0.1125 C129.6,0.1125 131.7375,1.8 131.7375,4.05 C131.7375,4.725 131.2875,4.95 130.8375,4.95 C130.3875,4.95 129.9375,4.6125 129.825,4.05 C129.7125,2.8125 128.7,1.9125 127.125,1.9125 L127.125,1.9125 C125.1,1.9125 124.425,3.375 124.425,4.275 C124.425,6.075 126,6.6375 127.35,7.3125 C129.825,8.6625 132.1875,9.45 132.1875,12.825 C132.075,15.6375 130.3875,17.4375 127.35,17.4375 Z" id="Path"></path>
        </g>
    </g>
</svg>