<?xml version="1.0" encoding="UTF-8"?>
<svg width="71px" height="18px" viewBox="0 0 71 18" version="1.1" xmlns="http://www.w3.org/2000/svg" xmlns:xlink="http://www.w3.org/1999/xlink">
    <!-- Generator: Sketch 49.3 (51167) - http://www.bohemiancoding.com/sketch -->
    <title>movnat</title>
    <desc>Created with Sketch.</desc>
    <defs></defs>
    <g id="Page-1" stroke="none" stroke-width="1" fill="none" fill-rule="evenodd">
        <g id="movnat" fill="#000000" fill-rule="nonzero">
            <path d="M11.97,18.01 C11.5,18.01 11.02,17.71 11.02,17.09 L11.02,4.93 L7.74,12.47 C7.54,12.94 7.12,13.12 6.7,13.12 C6.23,13.12 5.83,12.9 5.63,12.47 L2.25,4.93 L2.25,17.09 C2.25,17.71 1.78,18.01 1.31,18.01 C0.84,18.01 0.36,17.71 0.36,17.09 L0.36,1.64 C0.36,0.97 0.61,0.55 1.48,0.55 L1.55,0.55 C2.22,0.55 2.5,0.9 2.67,1.27 L6.65,10.17 L10.6,1.27 C10.77,0.9 11.05,0.55 11.74,0.55 L11.81,0.55 C12.68,0.55 12.9,0.97 12.9,1.64 L12.9,17.09 C12.91,17.71 12.44,18.01 11.97,18.01 Z" id="Shape"></path>
            <path d="M20.99,18.01 L20.74,18.01 C18.53,18.01 16.74,16.27 16.74,14.03 L16.74,9.75 C16.74,7.54 18.53,5.75 20.74,5.75 L20.99,5.75 C23.2,5.75 24.99,7.54 24.99,9.75 L24.99,14.03 C25,16.27 23.21,18.01 20.99,18.01 Z M23.11,9.75 C23.11,8.58 22.16,7.64 21,7.64 L20.75,7.64 C19.58,7.64 18.64,8.59 18.64,9.75 L18.64,14.03 C18.64,15.2 19.59,16.14 20.78,16.14 L21,16.14 C22.17,16.14 23.11,15.2 23.11,14.03 L23.11,9.75 Z" id="Shape"></path>
            <path d="M36.44,6.99 L33.06,17.39 C32.91,17.81 32.46,18.01 32.16,18.01 L31.94,18.01 C31.62,18.01 31.17,17.86 31.02,17.39 L27.64,6.99 C27.62,6.87 27.59,6.74 27.59,6.67 C27.59,6.17 27.99,5.75 28.56,5.75 C28.93,5.75 29.28,5.92 29.43,6.4 L32.04,14.41 L34.65,6.4 C34.8,5.93 35.15,5.75 35.52,5.75 C36.09,5.75 36.52,6.17 36.52,6.67 C36.51,6.79 36.49,6.89 36.44,6.99 Z" id="Shape"></path>
            <path d="M48.35,18.01 C47.98,18.01 47.43,18.01 47.06,17.19 L41.64,4.93 L41.64,17.09 C41.64,17.71 41.17,18.01 40.69,18.01 C40.21,18.01 39.74,17.71 39.74,17.09 L39.74,1.52 C39.74,0.85 40.29,0.55 40.86,0.55 C41.43,0.55 41.83,0.67 42.13,1.35 L47.53,13.66 L47.53,1.5 C47.53,0.88 48.03,0.55 48.5,0.55 C48.97,0.55 49.42,0.87 49.42,1.5 L49.42,16.92 C49.42,17.73 48.92,18.01 48.35,18.01 Z" id="Shape"></path>
            <path d="M61.68,18.01 C61.61,18.01 61.53,18.01 61.51,17.99 C60.64,17.87 60.14,17.52 59.82,17.04 C59.1,17.66 58.15,18.01 57.13,18.01 L56.91,18.01 C54.92,18.01 52.91,16.79 52.91,14.45 L52.91,14.15 C52.91,10.22 58.58,10.89 59.2,10.07 C59.27,9.97 59.27,9.77 59.27,9.65 C59.27,8.16 58.35,7.63 57.26,7.63 L57.09,7.63 C56.07,7.63 55.55,8.05 55.08,8.87 C54.88,9.24 54.56,9.37 54.23,9.37 C53.76,9.37 53.28,9.02 53.28,8.5 C53.28,8.33 53.3,8.18 53.38,8.05 C54.18,6.26 55.79,5.74 57.09,5.74 L57.26,5.74 C59.47,5.74 61.16,7.46 61.16,9.57 L61.16,15.34 C61.16,15.81 61.38,16.09 61.81,16.16 C62.38,16.26 62.61,16.66 62.61,17.06 C62.6,17.56 62.28,18.01 61.68,18.01 Z M59.27,12.06 C57.43,12.51 54.79,12.51 54.79,14.2 L54.79,14.4 C54.79,15.47 55.64,16.14 56.9,16.14 L57.12,16.14 C58.29,16.14 59.26,15.22 59.26,14.03 L59.26,12.06 L59.27,12.06 Z" id="Shape"></path>
            <path d="M69.54,18.01 C67.72,18.01 66.28,16.57 66.28,14.75 L66.28,7.71 L65.41,7.71 C64.79,7.71 64.46,7.24 64.46,6.76 C64.46,6.28 64.78,5.81 65.41,5.81 L66.28,5.81 L66.28,1.48 C66.28,0.86 66.75,0.53 67.22,0.53 C67.69,0.53 68.17,0.85 68.17,1.48 L68.17,5.81 L69.51,5.81 C70.13,5.81 70.46,6.28 70.46,6.76 C70.46,7.24 70.14,7.71 69.51,7.71 L68.17,7.71 L68.17,14.72 C68.17,15.59 68.84,16.09 69.61,16.14 C70.21,16.19 70.48,16.61 70.48,17.09 C70.48,17.57 70.21,18.01 69.54,18.01 Z" id="Shape"></path>
        </g>
    </g>
</svg>