<?xml version="1.0" encoding="utf-8"?>
<!-- Generator: Adobe Illustrator 23.0.0, SVG Export Plug-In . SVG Version: 6.00 Build 0)  -->
<svg version="1.1" id="Ebene_1" xmlns="http://www.w3.org/2000/svg" xmlns:xlink="http://www.w3.org/1999/xlink" x="0px" y="0px"
	 viewBox="0 0 595.28 841.89" style="enable-background:new 0 0 595.28 841.89;" xml:space="preserve">
<g>
	<path d="M217.76,432.55h-1.96c-0.5,0-0.94-0.45-0.94-0.95v-18.36c0-0.5,0.45-0.94,0.94-0.94h1.96c0.62,0,0.95,0.47,0.95,0.94
		s-0.32,0.95-0.95,0.95h-1.02v16.46h1.02c0.62,0,0.95,0.47,0.95,0.95S218.38,432.55,217.76,432.55z"/>
	<path d="M230.79,429.76c-0.37,0-0.92,0-1.29-0.82l-5.42-12.26v12.16c0,0.62-0.47,0.92-0.94,0.92c-0.47,0-0.95-0.3-0.95-0.92v-15.57
		c0-0.67,0.55-0.97,1.12-0.97s0.97,0.12,1.27,0.8l5.4,12.31v-12.16c0-0.62,0.5-0.94,0.97-0.94s0.92,0.32,0.92,0.94v15.42
		C231.86,429.49,231.36,429.76,230.79,429.76z"/>
	<path d="M245.07,429.64h-7.78c-0.5,0-0.95-0.45-0.95-0.95v-15.3c0-0.5,0.45-0.95,0.95-0.95h7.78c0.67,0,0.95,0.47,0.95,0.95
		s-0.27,0.95-0.95,0.95h-6.84v5.47h4.75c0.62,0,0.94,0.47,0.94,0.95s-0.32,0.95-0.94,0.95h-4.75v6.04h6.84
		c0.67,0,0.95,0.47,0.95,0.94C246.01,429.17,245.74,429.64,245.07,429.64z"/>
	<path d="M253.97,429.76h-0.25c-2.61,0-4.73-2.06-4.73-4.7v-11.81c0-0.62,0.47-0.94,0.95-0.94s0.95,0.32,0.95,0.94v11.81
		c0,1.57,1.27,2.83,2.84,2.83h0.25c1.57,0,2.81-1.27,2.81-2.83v-11.81c0-0.62,0.47-0.94,0.95-0.94c0.47,0,0.94,0.32,0.94,0.94v11.81
		C258.67,427.7,256.56,429.76,253.97,429.76z"/>
	<path d="M269.59,421.98l3.08,6.44c0.07,0.12,0.1,0.27,0.1,0.42c0,0.52-0.4,0.92-0.99,0.92c-0.3,0-0.62-0.12-0.82-0.52l-3.38-7.11
		h-2.54v6.71c0,0.62-0.47,0.92-0.95,0.92c-0.47,0-0.94-0.3-0.94-0.92V413.4c0-0.5,0.45-0.95,0.94-0.95h4.18
		c2.61,0,4.73,2.11,4.73,4.73v0.22C272.99,419.59,271.6,421.38,269.59,421.98z M271.1,417.18c0-1.57-1.27-2.83-2.84-2.83h-3.23v5.89
		h3.33c1.57,0,2.74-1.27,2.74-2.83V417.18z"/>
	<path d="M281.08,429.76h-0.25c-2.61,0-4.73-2.06-4.73-4.7V417c0-2.59,2.11-4.7,4.73-4.7h0.25c2.59,0,4.7,2.11,4.7,4.7v8.06
		C285.78,427.7,283.66,429.76,281.08,429.76z M283.89,417.03c0-1.57-1.24-2.84-2.81-2.84h-0.25c-1.57,0-2.84,1.29-2.84,2.81v8.06
		c0,1.57,1.27,2.83,2.84,2.83h0.25c1.57,0,2.81-1.27,2.81-2.83V417.03z"/>
	<path d="M291.8,432.55h-1.96c-0.62,0-0.95-0.47-0.95-0.95s0.32-0.95,0.95-0.95h1.02v-16.46h-1.02c-0.62,0-0.95-0.47-0.95-0.95
		s0.32-0.94,0.95-0.94h1.96c0.5,0,0.95,0.45,0.95,0.94v18.36C292.74,432.1,292.29,432.55,291.8,432.55z"/>
	<path d="M311.07,429.64h-3.83c-0.5,0-0.95-0.45-0.95-0.95v-15.3c0-0.5,0.45-0.95,0.95-0.95h3.83c2.66,0,4.53,1.94,4.53,4.53V417
		c0,1.87-0.87,3.18-1.94,3.78c1.04,0.6,2.14,1.89,2.14,3.91v0.22C315.8,427.52,313.68,429.64,311.07,429.64z M313.71,416.98
		c0-1.59-1.07-2.64-2.64-2.64h-2.88v5.5h2.88c1.49,0,2.64-1.17,2.64-2.84V416.98z M313.91,424.69c0-1.62-1.32-2.96-2.83-2.96h-2.88
		v6.02h2.88c1.57,0,2.83-1.27,2.83-2.84V424.69z"/>
	<path d="M320.72,429.76c-0.47,0-0.95-0.3-0.95-0.92v-15.59c0-0.62,0.47-0.94,0.95-0.94s0.95,0.32,0.95,0.94v15.59
		C321.67,429.46,321.19,429.76,320.72,429.76z"/>
	<path d="M330.99,429.76h-0.25c-2.61,0-4.73-2.06-4.73-4.7V417c0-2.59,2.11-4.7,4.73-4.7h0.25c2.59,0,4.7,2.11,4.7,4.7v8.06
		C335.69,427.7,333.58,429.76,330.99,429.76z M333.8,417.03c0-1.57-1.24-2.84-2.81-2.84h-0.25c-1.57,0-2.83,1.29-2.83,2.81v8.06
		c0,1.57,1.27,2.83,2.83,2.83h0.25c1.57,0,2.81-1.27,2.81-2.83V417.03z"/>
	<path d="M357.1,429.76c-0.47,0-0.94-0.25-0.94-0.92v-7.14h-5.89v7.14c0,0.62-0.47,0.92-0.95,0.92s-0.95-0.3-0.95-0.92v-15.59
		c0-0.62,0.47-0.94,0.95-0.94s0.95,0.32,0.95,0.94v6.57h5.89v-6.57c0-0.62,0.47-0.94,0.94-0.94c0.47,0,0.95,0.32,0.95,0.94v15.59
		C358.05,429.51,357.58,429.76,357.1,429.76z"/>
	<path d="M372.13,429.76c-0.37,0-0.75-0.17-0.9-0.65l-1.09-3.58h-6.14l-1.12,3.58c-0.15,0.47-0.5,0.65-0.87,0.65
		c-0.57,0-0.97-0.4-0.97-0.9c0-0.08,0.03-0.17,0.05-0.3l4.85-15.57c0.15-0.47,0.62-0.7,1.12-0.7c0.52,0,0.99,0.22,1.14,0.7
		l4.85,15.57c0.02,0.12,0.05,0.22,0.05,0.3C373.1,429.37,372.7,429.76,372.13,429.76z M367.05,415.69l-2.46,7.96h4.95L367.05,415.69
		z"/>
	<path d="M380.68,429.76h-0.25c-2.61,0-4.73-2.06-4.73-4.7V417c0-2.59,2.11-4.7,4.73-4.7h0.25c2.39,0,4.35,1.74,4.68,4.05v0.15
		c0,0.6-0.45,0.92-0.92,0.92c-0.42,0-0.82-0.25-0.95-0.82c-0.27-1.37-1.39-2.41-2.81-2.41h-0.25c-1.57,0-2.83,1.29-2.83,2.81v8.06
		c0,1.57,1.27,2.83,2.83,2.83h0.25c1.42,0,2.54-1.04,2.81-2.41c0.12-0.57,0.55-0.82,0.95-0.82c0.47,0,0.92,0.32,0.92,0.92v0.17
		C385.03,428.05,383.02,429.76,380.68,429.76z"/>
	<path d="M397.29,429.76c-0.37,0-0.65-0.17-0.82-0.52l-3.86-7.93l-2.14,3.16v4.38c0,0.62-0.47,0.92-0.95,0.92s-0.95-0.3-0.95-0.92
		v-15.59c0-0.62,0.47-0.94,0.95-0.94s0.95,0.32,0.95,0.94v7.86l5.7-8.38c0.17-0.27,0.42-0.42,0.75-0.42c0.57,0,1,0.45,1,0.94
		c0,0.2-0.05,0.37-0.17,0.55l-3.91,5.72l4.35,8.9c0.08,0.17,0.1,0.3,0.1,0.42C398.29,429.37,397.87,429.76,397.29,429.76z"/>
	<path d="M405.43,429.76h-0.22c-2.56,0-4.92-1.57-4.92-4.58c0-0.62,0.47-0.92,0.95-0.92c0.47,0,0.94,0.27,0.94,0.95
		c0,1.77,1.44,2.69,3.06,2.69h0.25c1.96,0,2.81-0.97,2.81-2.76c0-2.04-1.44-2.61-2.96-3.46c-2.39-1.34-4.8-1.94-4.8-5.12
		c0-2.41,2.06-4.25,4.68-4.25h0.25c2.39,0,4.53,1.69,4.53,3.98c0,0.62-0.42,0.92-0.89,0.92s-0.92-0.3-1-0.9
		c-0.12-1.22-1.17-2.11-2.69-2.11h-0.22c-2.06,0-2.74,1.49-2.74,2.36c0,1.82,1.54,2.36,2.88,3.08c2.49,1.34,4.85,2.14,4.85,5.52
		C410.18,428.02,408.44,429.76,405.43,429.76z"/>
</g>
</svg>
