<?xml version="1.0" encoding="UTF-8"?>
<svg width="197px" height="21px" viewBox="0 0 197 21" version="1.1" xmlns="http://www.w3.org/2000/svg" xmlns:xlink="http://www.w3.org/1999/xlink">
    <!-- Generator: Sketch 49.3 (51167) - http://www.bohemiancoding.com/sketch -->
    <title>neuro bio hacks</title>
    <desc>Created with Sketch.</desc>
    <defs></defs>
    <g id="Page-1" stroke="none" stroke-width="1" fill="none" fill-rule="evenodd">
        <g id="neuro-bio-hacks" fill="#000000" fill-rule="nonzero">
            <path d="M3.76,20.55 L1.8,20.55 C1.3,20.55 0.86,20.1 0.86,19.6 L0.86,1.24 C0.86,0.74 1.31,0.3 1.8,0.3 L3.76,0.3 C4.38,0.3 4.71,0.77 4.71,1.24 C4.71,1.71 4.39,2.19 3.76,2.19 L2.74,2.19 L2.74,18.65 L3.76,18.65 C4.38,18.65 4.71,19.12 4.71,19.6 C4.71,20.08 4.38,20.55 3.76,20.55 Z" id="Shape"></path>
            <path d="M16.79,17.76 C16.42,17.76 15.87,17.76 15.5,16.94 L10.08,4.68 L10.08,16.84 C10.08,17.46 9.61,17.76 9.14,17.76 C8.67,17.76 8.19,17.46 8.19,16.84 L8.19,1.27 C8.19,0.6 8.74,0.3 9.31,0.3 C9.88,0.3 10.28,0.42 10.58,1.1 L15.98,13.41 L15.98,1.25 C15.98,0.63 16.48,0.31 16.95,0.31 C17.42,0.31 17.87,0.63 17.87,1.25 L17.87,16.67 C17.86,17.49 17.36,17.76 16.79,17.76 Z" id="Shape"></path>
            <path d="M31.07,17.64 L23.29,17.64 C22.79,17.64 22.34,17.19 22.34,16.69 L22.34,1.39 C22.34,0.89 22.79,0.44 23.29,0.44 L31.07,0.44 C31.74,0.44 32.02,0.91 32.02,1.39 C32.02,1.87 31.75,2.34 31.07,2.34 L24.23,2.34 L24.23,7.81 L28.98,7.81 C29.6,7.81 29.92,8.28 29.92,8.76 C29.92,9.24 29.6,9.71 28.98,9.71 L24.23,9.71 L24.23,15.75 L31.07,15.75 C31.74,15.75 32.02,16.22 32.02,16.69 C32.01,17.17 31.74,17.64 31.07,17.64 Z" id="Shape"></path>
            <path d="M39.97,17.76 L39.72,17.76 C37.11,17.76 34.99,15.7 34.99,13.06 L34.99,1.25 C34.99,0.63 35.46,0.31 35.94,0.31 C36.42,0.31 36.89,0.63 36.89,1.25 L36.89,13.06 C36.89,14.63 38.16,15.89 39.73,15.89 L39.98,15.89 C41.55,15.89 42.79,14.62 42.79,13.06 L42.79,1.25 C42.79,0.63 43.26,0.31 43.74,0.31 C44.21,0.31 44.68,0.63 44.68,1.25 L44.68,13.06 C44.67,15.7 42.56,17.76 39.97,17.76 Z" id="Shape"></path>
            <path d="M55.59,9.98 L58.67,16.42 C58.74,16.54 58.77,16.69 58.77,16.84 C58.77,17.36 58.37,17.76 57.78,17.76 C57.48,17.76 57.16,17.64 56.96,17.24 L53.58,10.13 L51.04,10.13 L51.04,16.84 C51.04,17.46 50.57,17.76 50.09,17.76 C49.62,17.76 49.15,17.46 49.15,16.84 L49.15,1.4 C49.15,0.9 49.6,0.45 50.09,0.45 L54.27,0.45 C56.88,0.45 59,2.56 59,5.18 L59,5.4 C58.99,7.59 57.6,9.38 55.59,9.98 Z M57.1,5.18 C57.1,3.61 55.83,2.35 54.26,2.35 L51.03,2.35 L51.03,8.24 L54.36,8.24 C55.93,8.24 57.1,6.97 57.1,5.41 L57.1,5.18 Z" id="Shape"></path>
            <path d="M67.08,17.76 L66.83,17.76 C64.22,17.76 62.1,15.7 62.1,13.06 L62.1,5 C62.1,2.41 64.21,0.3 66.83,0.3 L67.08,0.3 C69.67,0.3 71.78,2.41 71.78,5 L71.78,13.06 C71.78,15.7 69.66,17.76 67.08,17.76 Z M69.89,5.03 C69.89,3.46 68.65,2.19 67.08,2.19 L66.83,2.19 C65.26,2.19 63.99,3.48 63.99,5 L63.99,13.06 C63.99,14.63 65.26,15.89 66.83,15.89 L67.08,15.89 C68.65,15.89 69.89,14.62 69.89,13.06 L69.89,5.03 Z" id="Shape"></path>
            <path d="M77.8,20.55 L75.84,20.55 C75.22,20.55 74.89,20.08 74.89,19.6 C74.89,19.12 75.21,18.65 75.84,18.65 L76.86,18.65 L76.86,2.19 L75.84,2.19 C75.22,2.19 74.89,1.72 74.89,1.24 C74.89,0.76 75.21,0.3 75.84,0.3 L77.8,0.3 C78.3,0.3 78.75,0.75 78.75,1.24 L78.75,19.6 C78.74,20.1 78.29,20.55 77.8,20.55 Z" id="Shape"></path>
            <path d="M97.07,17.64 L93.24,17.64 C92.74,17.64 92.29,17.19 92.29,16.69 L92.29,1.39 C92.29,0.89 92.74,0.44 93.24,0.44 L97.07,0.44 C99.73,0.44 101.6,2.38 101.6,4.97 L101.6,5 C101.6,6.87 100.73,8.18 99.66,8.78 C100.7,9.38 101.8,10.67 101.8,12.69 L101.8,12.91 C101.8,15.52 99.68,17.64 97.07,17.64 Z M99.71,4.98 C99.71,3.39 98.64,2.34 97.07,2.34 L94.19,2.34 L94.19,7.84 L97.07,7.84 C98.56,7.84 99.71,6.67 99.71,5 L99.71,4.98 Z M99.91,12.69 C99.91,11.07 98.59,9.73 97.08,9.73 L94.2,9.73 L94.2,15.75 L97.08,15.75 C98.65,15.75 99.91,14.48 99.91,12.91 L99.91,12.69 Z" id="Shape"></path>
            <path d="M106.72,17.76 C106.25,17.76 105.77,17.46 105.77,16.84 L105.77,1.25 C105.77,0.63 106.24,0.31 106.72,0.31 C107.2,0.31 107.67,0.63 107.67,1.25 L107.67,16.84 C107.67,17.46 107.19,17.76 106.72,17.76 Z" id="Shape"></path>
            <path d="M116.99,17.76 L116.74,17.76 C114.13,17.76 112.01,15.7 112.01,13.06 L112.01,5 C112.01,2.41 114.12,0.3 116.74,0.3 L116.99,0.3 C119.58,0.3 121.69,2.41 121.69,5 L121.69,13.06 C121.69,15.7 119.58,17.76 116.99,17.76 Z M119.8,5.03 C119.8,3.46 118.56,2.19 116.99,2.19 L116.74,2.19 C115.17,2.19 113.91,3.48 113.91,5 L113.91,13.06 C113.91,14.63 115.18,15.89 116.74,15.89 L116.99,15.89 C118.56,15.89 119.8,14.62 119.8,13.06 L119.8,5.03 Z" id="Shape"></path>
            <path d="M143.1,17.76 C142.63,17.76 142.16,17.51 142.16,16.84 L142.16,9.7 L136.27,9.7 L136.27,16.84 C136.27,17.46 135.8,17.76 135.32,17.76 C134.84,17.76 134.37,17.46 134.37,16.84 L134.37,1.25 C134.37,0.63 134.84,0.31 135.32,0.31 C135.8,0.31 136.27,0.63 136.27,1.25 L136.27,7.82 L142.16,7.82 L142.16,1.25 C142.16,0.63 142.63,0.31 143.1,0.31 C143.57,0.31 144.05,0.63 144.05,1.25 L144.05,16.84 C144.05,17.51 143.58,17.76 143.1,17.76 Z" id="Shape"></path>
            <path d="M158.13,17.76 C157.76,17.76 157.38,17.59 157.23,17.11 L156.14,13.53 L150,13.53 L148.88,17.11 C148.73,17.58 148.38,17.76 148.01,17.76 C147.44,17.76 147.04,17.36 147.04,16.86 C147.04,16.78 147.07,16.69 147.09,16.56 L151.94,0.99 C152.09,0.52 152.56,0.29 153.06,0.29 C153.58,0.29 154.05,0.51 154.2,0.99 L159.05,16.56 C159.07,16.68 159.1,16.78 159.1,16.86 C159.1,17.37 158.7,17.76 158.13,17.76 Z M153.05,3.69 L150.59,11.65 L155.54,11.65 L153.05,3.69 Z" id="Shape"></path>
            <path d="M166.68,17.76 L166.43,17.76 C163.82,17.76 161.7,15.7 161.7,13.06 L161.7,5 C161.7,2.41 163.81,0.3 166.43,0.3 L166.68,0.3 C169.07,0.3 171.03,2.04 171.36,4.35 L171.36,4.5 C171.36,5.1 170.91,5.42 170.44,5.42 C170.02,5.42 169.62,5.17 169.49,4.6 C169.22,3.23 168.1,2.19 166.68,2.19 L166.43,2.19 C164.86,2.19 163.6,3.48 163.6,5 L163.6,13.06 C163.6,14.63 164.87,15.89 166.43,15.89 L166.68,15.89 C168.1,15.89 169.22,14.85 169.49,13.48 C169.61,12.91 170.04,12.66 170.44,12.66 C170.91,12.66 171.36,12.98 171.36,13.58 L171.36,13.75 C171.03,16.05 169.02,17.76 166.68,17.76 Z" id="Shape"></path>
            <path d="M183.29,17.76 C182.92,17.76 182.64,17.59 182.47,17.24 L178.61,9.31 L176.47,12.47 L176.47,16.85 C176.47,17.47 176,17.77 175.52,17.77 C175.04,17.77 174.57,17.47 174.57,16.85 L174.57,1.26 C174.57,0.64 175.04,0.32 175.52,0.32 C176,0.32 176.47,0.64 176.47,1.26 L176.47,9.12 L182.17,0.74 C182.34,0.47 182.59,0.32 182.92,0.32 C183.49,0.32 183.92,0.77 183.92,1.26 C183.92,1.46 183.87,1.63 183.75,1.81 L179.84,7.53 L184.19,16.43 C184.27,16.6 184.29,16.73 184.29,16.85 C184.29,17.37 183.87,17.76 183.29,17.76 Z" id="Shape"></path>
            <path d="M191.43,17.76 L191.21,17.76 C188.65,17.76 186.29,16.19 186.29,13.18 C186.29,12.56 186.76,12.26 187.24,12.26 C187.71,12.26 188.18,12.53 188.18,13.21 C188.18,14.98 189.62,15.9 191.24,15.9 L191.49,15.9 C193.45,15.9 194.3,14.93 194.3,13.14 C194.3,11.1 192.86,10.53 191.34,9.68 C188.95,8.34 186.54,7.74 186.54,4.56 C186.54,2.15 188.6,0.31 191.22,0.31 L191.47,0.31 C193.86,0.31 196,2 196,4.29 C196,4.91 195.58,5.21 195.11,5.21 C194.64,5.21 194.19,4.91 194.11,4.31 C193.99,3.09 192.94,2.2 191.42,2.2 L191.2,2.2 C189.14,2.2 188.46,3.69 188.46,4.56 C188.46,6.38 190,6.92 191.34,7.64 C193.83,8.98 196.19,9.78 196.19,13.16 C196.18,16.02 194.44,17.76 191.43,17.76 Z" id="Shape"></path>
        </g>
    </g>
</svg>