<?xml version="1.0" encoding="UTF-8"?>
<svg width="159px" height="18px" viewBox="0 0 159 18" version="1.1" xmlns="http://www.w3.org/2000/svg" xmlns:xlink="http://www.w3.org/1999/xlink">
    <!-- Generator: Sketch 49.3 (51167) - http://www.bohemiancoding.com/sketch -->
    <title>Qualifications</title>
    <desc>Created with Sketch.</desc>
    <defs></defs>
    <g id="Page-1" stroke="none" stroke-width="1" fill="none" fill-rule="evenodd">
        <g id="Qualifications" fill="#000000" fill-rule="nonzero">
            <path d="M9.8,15.8 L10.2,16.3 C10.4,16.5 10.5,16.7 10.5,16.9 C10.5,17.4 10.1,17.8 9.5,17.8 C9.3,17.8 9,17.7 8.8,17.5 L8.4,17.1 C7.6,17.6 6.8,17.8 5.8,17.8 L5.6,17.8 C3,17.8 0.9,15.7 0.9,13.1 L0.9,5 C0.9,2.4 3,0.3 5.6,0.3 L5.8,0.3 C8.4,0.3 10.5,2.4 10.5,5 L10.5,13.1 C10.5,14.1 10.3,15 9.8,15.8 Z M8.7,5.1 C8.7,3.5 7.5,2.3 5.9,2.3 L5.7,2.3 C4.1,2.3 2.9,3.6 2.9,5.1 L2.9,13.2 C2.9,14.8 4.2,16 5.7,16 L5.9,16 C6.3,16 6.7,15.9 7.1,15.7 L6.7,15.3 C6.5,15.1 6.4,14.9 6.4,14.6 C6.4,14.1 6.9,13.6 7.4,13.6 C7.6,13.6 7.9,13.7 8.1,13.9 L8.5,14.3 C8.7,13.9 8.8,13.9 8.8,13.1 L8.8,5.1 L8.7,5.1 Z" id="Shape"></path>
            <path d="M19.6,17.8 L19.4,17.8 C16.8,17.8 14.7,15.7 14.7,13.1 L14.7,1.3 C14.7,0.7 15.2,0.4 15.6,0.4 C16,0.4 16.5,0.7 16.5,1.3 L16.5,13.1 C16.5,14.7 17.8,15.9 19.3,15.9 L19.5,15.9 C21.1,15.9 22.3,14.6 22.3,13.1 L22.3,1.3 C22.3,0.7 22.8,0.4 23.2,0.4 C23.7,0.4 24.1,0.7 24.1,1.3 L24.1,13.1 C24.3,15.8 22.2,17.8 19.6,17.8 Z" id="Shape"></path>
            <path d="M38.4,17.8 C38,17.8 37.7,17.6 37.5,17.2 L36.4,13.6 L30.3,13.6 L29.2,17.2 C29.1,17.7 28.7,17.8 28.3,17.8 C27.7,17.8 27.3,17.4 27.3,16.9 C27.3,16.8 27.3,16.7 27.3,16.6 L32.2,1 C32.3,0.5 32.8,0.3 33.3,0.3 C33.8,0.3 34.3,0.5 34.4,1 L39.3,16.6 C39.3,16.7 39.3,16.8 39.3,16.9 C39.4,17.4 39,17.8 38.4,17.8 Z M33.3,3.8 L30.8,11.8 L35.7,11.8 L33.3,3.8 Z" id="Shape"></path>
            <path d="M50.1,17.7 L43.3,17.7 C42.8,17.7 42.4,17.3 42.4,16.8 L42.4,1.4 C42.4,0.8 42.9,0.5 43.3,0.5 C43.8,0.5 44.2,0.8 44.2,1.4 L44.2,15.9 L50,15.9 C50.6,15.9 50.9,16.4 50.9,16.8 C50.9,17.2 50.7,17.7 50.1,17.7 Z" id="Shape"></path>
            <path d="M55.2,17.8 C54.7,17.8 54.3,17.5 54.3,16.9 L54.3,1.3 C54.3,0.7 54.8,0.4 55.2,0.4 C55.6,0.4 56.1,0.7 56.1,1.3 L56.1,16.9 C56.2,17.5 55.7,17.8 55.2,17.8 Z" id="Shape"></path>
            <path d="M69.6,2.4 L62.8,2.4 L62.8,7.9 L67.6,7.9 C68.2,7.9 68.5,8.4 68.5,8.8 C68.5,9.2 68.2,9.7 67.6,9.7 L62.8,9.7 L62.8,16.8 C62.8,17.4 62.3,17.7 61.9,17.7 C61.5,17.7 61,17.4 61,16.8 L61,1.4 C61,0.9 61.4,0.5 61.9,0.5 L69.7,0.5 C70.4,0.5 70.6,1 70.6,1.4 C70.6,1.8 70.3,2.4 69.6,2.4 Z" id="Shape"></path>
            <path d="M74,17.8 C73.5,17.8 73.1,17.5 73.1,16.9 L73.1,1.3 C73.1,0.7 73.6,0.4 74,0.4 C74.4,0.4 74.9,0.7 74.9,1.3 L74.9,16.9 C74.9,17.5 74.5,17.8 74,17.8 Z" id="Shape"></path>
            <path d="M84.3,17.8 L84,17.8 C81.4,17.8 79.3,15.7 79.3,13.1 L79.3,5 C79.3,2.4 81.4,0.3 84,0.3 L84.2,0.3 C86.6,0.3 88.6,2 88.9,4.4 L88.9,4.5 C88.9,5.1 88.5,5.4 88,5.4 C87.6,5.4 87.2,5.2 87.1,4.6 C86.8,3.2 85.7,2.2 84.3,2.2 L84,2.2 C82.4,2.2 81.2,3.5 81.2,5 L81.2,13.1 C81.2,14.7 82.5,15.9 84,15.9 L84.2,15.9 C85.6,15.9 86.7,14.9 87,13.5 C87.1,12.9 87.5,12.7 87.9,12.7 C88.4,12.7 88.8,13 88.8,13.6 L88.8,13.8 C88.6,16.1 86.6,17.8 84.3,17.8 Z" id="Shape"></path>
            <path d="M101.8,17.8 C101.4,17.8 101.1,17.6 100.9,17.2 L99.8,13.6 L93.7,13.6 L92.6,17.2 C92.5,17.7 92.1,17.8 91.7,17.8 C91.1,17.8 90.7,17.4 90.7,16.9 C90.7,16.8 90.7,16.7 90.7,16.6 L95.6,1 C95.7,0.5 96.2,0.3 96.7,0.3 C97.2,0.3 97.7,0.5 97.8,1 L102.7,16.6 C102.7,16.7 102.7,16.8 102.7,16.9 C102.7,17.4 102.3,17.8 101.8,17.8 Z M96.7,3.8 L94.2,11.8 L99.1,11.8 L96.7,3.8 Z" id="Shape"></path>
            <path d="M112.2,2.4 L109.5,2.4 L109.5,16.9 C109.5,17.5 109,17.8 108.6,17.8 C108.2,17.8 107.7,17.5 107.7,16.9 L107.7,2.4 L105,2.4 C104.4,2.4 104.1,1.9 104.1,1.5 C104.1,1.1 104.4,0.6 105,0.6 L112.4,0.6 C113,0.6 113.3,1.1 113.3,1.5 C113.3,1.9 112.8,2.4 112.2,2.4 Z" id="Shape"></path>
            <path d="M116.9,17.8 C116.4,17.8 116,17.5 116,16.9 L116,1.3 C116,0.7 116.5,0.4 116.9,0.4 C117.3,0.4 117.8,0.7 117.8,1.3 L117.8,16.9 C117.9,17.5 117.4,17.8 116.9,17.8 Z" id="Shape"></path>
            <path d="M127.2,17.8 L127,17.8 C124.4,17.8 122.3,15.7 122.3,13.1 L122.3,5 C122.3,2.4 124.4,0.3 127,0.3 L127.2,0.3 C129.8,0.3 131.9,2.4 131.9,5 L131.9,13.1 C131.9,15.8 129.8,17.8 127.2,17.8 Z M130,5.1 C130,3.5 128.8,2.3 127.2,2.3 L127,2.3 C125.4,2.3 124.2,3.6 124.2,5.1 L124.2,13.2 C124.2,14.8 125.5,16 127,16 L127.2,16 C128.8,16 130,14.7 130,13.2 L130,5.1 Z" id="Shape"></path>
            <path d="M144.6,17.8 C144.2,17.8 143.7,17.8 143.3,17 L137.9,4.7 L137.9,16.9 C137.9,17.5 137.4,17.8 137,17.8 C136.6,17.8 136.1,17.5 136.1,16.9 L136.1,1.3 C136.1,0.6 136.6,0.3 137.2,0.3 C137.8,0.3 138.2,0.4 138.5,1.1 L143.9,13.4 L143.9,1.2 C143.9,0.6 144.4,0.3 144.9,0.3 C145.4,0.3 145.8,0.6 145.8,1.2 L145.8,16.6 C145.7,17.6 145.2,17.8 144.6,17.8 Z" id="Shape"></path>
            <path d="M154.3,17.8 L154.1,17.8 C151.5,17.8 149.2,16.2 149.2,13.2 C149.2,12.6 149.7,12.3 150.1,12.3 C150.5,12.3 151,12.6 151,13.2 C151,15 152.4,15.9 154.1,15.9 L154.3,15.9 C156.3,15.9 157.1,14.9 157.1,13.1 C157.1,11.1 155.7,10.5 154.1,9.6 C151.7,8.3 149.3,7.7 149.3,4.5 C149.3,2.1 151.4,0.2 154,0.2 L154.2,0.2 C156.6,0.2 158.7,1.9 158.7,4.2 C158.7,4.8 158.3,5.1 157.8,5.1 C157.3,5.1 156.9,4.8 156.8,4.2 C156.7,3 155.6,2.1 154.1,2.1 L154,2.1 C151.9,2.1 151.3,3.6 151.3,4.5 C151.3,6.3 152.8,6.9 154.2,7.6 C156.7,8.9 159,9.7 159,13.1 C159,16.1 157.3,17.8 154.3,17.8 Z" id="Shape"></path>
        </g>
    </g>
</svg>