<?xml version="1.0" encoding="UTF-8"?>
<svg width="91px" height="18px" viewBox="0 0 91 18" version="1.1" xmlns="http://www.w3.org/2000/svg" xmlns:xlink="http://www.w3.org/1999/xlink">
    <!-- Generator: Sketch 49.3 (51167) - http://www.bohemiancoding.com/sketch -->
    <title>training</title>
    <desc>Created with Sketch.</desc>
    <defs></defs>
    <g id="Page-1" stroke="none" stroke-width="1" fill="none" fill-rule="evenodd">
        <g id="training" fill="#000000" fill-rule="nonzero">
            <path d="M9.18,2.59 L6.44,2.59 L6.44,17.09 C6.44,17.71 5.97,18.01 5.49,18.01 C5.01,18.01 4.55,17.71 4.55,17.09 L4.55,2.59 L1.81,2.59 C1.19,2.59 0.87,2.12 0.87,1.65 C0.87,1.18 1.19,0.7 1.81,0.7 L9.17,0.7 C9.79,0.7 10.12,1.17 10.12,1.65 C10.12,2.13 9.8,2.59 9.18,2.59 Z" id="Shape"></path>
            <path d="M19.18,10.22 L22.26,16.66 C22.33,16.78 22.36,16.93 22.36,17.08 C22.36,17.6 21.96,18 21.37,18 C21.07,18 20.75,17.88 20.55,17.48 L17.17,10.37 L14.63,10.37 L14.63,17.09 C14.63,17.71 14.16,18.01 13.68,18.01 C13.2,18.01 12.73,17.71 12.73,17.09 L12.73,1.64 C12.73,1.14 13.18,0.69 13.68,0.69 L17.86,0.69 C20.47,0.69 22.59,2.8 22.59,5.41 L22.59,5.63 C22.58,7.84 21.19,9.63 19.18,10.22 Z M20.69,5.42 C20.69,3.85 19.42,2.59 17.86,2.59 L14.63,2.59 L14.63,8.49 L17.96,8.49 C19.53,8.49 20.7,7.22 20.7,5.65 L20.7,5.42 L20.69,5.42 Z" id="Shape"></path>
            <path d="M35.67,18.01 C35.3,18.01 34.92,17.84 34.77,17.36 L33.68,13.78 L27.54,13.78 L26.42,17.36 C26.27,17.83 25.92,18.01 25.55,18.01 C24.98,18.01 24.58,17.61 24.58,17.11 C24.58,17.03 24.6,16.94 24.63,16.81 L29.48,1.24 C29.63,0.77 30.1,0.54 30.6,0.54 C31.12,0.54 31.6,0.76 31.74,1.24 L36.59,16.81 C36.61,16.93 36.64,17.03 36.64,17.11 C36.64,17.61 36.24,18.01 35.67,18.01 Z M30.59,3.93 L28.13,11.89 L33.08,11.89 L30.59,3.93 Z" id="Shape"></path>
            <path d="M40.81,18.01 C40.34,18.01 39.86,17.71 39.86,17.09 L39.86,1.49 C39.86,0.87 40.33,0.55 40.81,0.55 C41.29,0.55 41.76,0.87 41.76,1.49 L41.76,17.09 C41.76,17.71 41.29,18.01 40.81,18.01 Z" id="Shape"></path>
            <path d="M55.09,18.01 C54.72,18.01 54.17,18.01 53.8,17.19 L48.38,4.93 L48.38,17.09 C48.38,17.71 47.91,18.01 47.43,18.01 C46.95,18.01 46.48,17.71 46.48,17.09 L46.48,1.52 C46.48,0.85 47.03,0.55 47.6,0.55 C48.17,0.55 48.57,0.67 48.87,1.35 L54.27,13.66 L54.27,1.5 C54.27,0.88 54.77,0.56 55.24,0.56 C55.71,0.56 56.16,0.88 56.16,1.5 L56.16,16.92 C56.16,17.74 55.66,18.01 55.09,18.01 Z" id="Shape"></path>
            <path d="M61.83,18.01 C61.36,18.01 60.88,17.71 60.88,17.09 L60.88,1.49 C60.88,0.87 61.35,0.55 61.83,0.55 C62.3,0.55 62.77,0.87 62.77,1.49 L62.77,17.09 C62.77,17.71 62.3,18.01 61.83,18.01 Z" id="Shape"></path>
            <path d="M76.1,18.01 C75.73,18.01 75.18,18.01 74.81,17.19 L69.39,4.93 L69.39,17.09 C69.39,17.71 68.92,18.01 68.45,18.01 C67.98,18.01 67.5,17.71 67.5,17.09 L67.5,1.52 C67.5,0.85 68.05,0.55 68.62,0.55 C69.19,0.55 69.59,0.67 69.89,1.35 L75.29,13.66 L75.29,1.5 C75.29,0.88 75.79,0.56 76.26,0.56 C76.73,0.56 77.18,0.88 77.18,1.5 L77.18,16.92 C77.17,17.74 76.68,18.01 76.1,18.01 Z" id="Shape"></path>
            <path d="M86.25,18.01 L86,18.01 C83.39,18.01 81.27,15.95 81.27,13.31 L81.27,5.28 C81.27,2.64 83.38,0.55 86,0.55 L86.25,0.55 C88.66,0.55 90.65,2.27 90.98,4.6 L90.98,4.75 C90.98,5.35 90.51,5.67 90.03,5.67 C89.61,5.67 89.18,5.45 89.08,4.87 C88.81,3.48 87.86,2.43 86.25,2.43 L86,2.43 C84.43,2.43 83.17,3.72 83.17,5.24 L83.17,13.3 C83.17,14.87 84.44,16.14 86,16.14 L86.25,16.14 C87.82,16.14 89.08,14.87 89.08,13.3 L89.08,10.39 L86.47,10.39 C85.85,10.39 85.52,9.92 85.52,9.44 C85.52,8.96 85.84,8.5 86.47,8.5 L90.03,8.5 C90.53,8.5 90.98,8.95 90.98,9.44 L90.98,13.3 C90.98,15.95 88.86,18.01 86.25,18.01 Z" id="Shape"></path>
        </g>
    </g>
</svg>