<?xml version="1.0" encoding="UTF-8"?>
<svg width="173px" height="18px" viewBox="0 0 173 18" version="1.1" xmlns="http://www.w3.org/2000/svg" xmlns:xlink="http://www.w3.org/1999/xlink">
    <!-- Generator: Sketch 49.3 (51167) - http://www.bohemiancoding.com/sketch -->
    <title>weeklyroutine</title>
    <desc>Created with Sketch.</desc>
    <defs></defs>
    <g id="Page-1" stroke="none" stroke-width="1" fill="none" fill-rule="evenodd">
        <g id="weeklyroutine" transform="translate(-1.000000, 0.000000)" fill="#000000" fill-rule="nonzero">
            <path d="M14.93,16.98 C14.86,17.36 14.58,17.7 14.01,17.7 L13.56,17.7 C13.04,17.7 12.71,17.32 12.64,17 L9.64,4.18 L6.64,17 C6.57,17.38 6.24,17.7 5.72,17.7 L5.27,17.7 C4.75,17.7 4.42,17.35 4.35,16.98 L1,1.31 C0.88,0.69 1.27,0.16 1.95,0.16 C2.35,0.16 2.72,0.39 2.85,0.91 L5.55,13.48 L8.5,0.83 C8.6,0.43 8.88,0.16 9.45,0.16 L9.85,0.16 C10.37,0.16 10.7,0.44 10.8,0.83 L13.75,13.48 L16.45,0.91 C16.55,0.39 16.95,0.16 17.35,0.16 C18.02,0.16 18.42,0.69 18.3,1.31 L14.93,16.98 Z" id="Shape"></path>
            <path d="M30.33,17.58 L22.51,17.58 C22.01,17.58 21.56,17.13 21.56,16.63 L21.56,1.26 C21.56,0.76 22.01,0.31 22.51,0.31 L30.33,0.31 C31,0.31 31.28,0.78 31.28,1.26 C31.28,1.74 31.01,2.21 30.33,2.21 L23.46,2.21 L23.46,7.71 L28.23,7.71 C28.85,7.71 29.18,8.19 29.18,8.66 C29.18,9.13 28.86,9.61 28.23,9.61 L23.46,9.61 L23.46,15.68 L30.33,15.68 C31,15.68 31.28,16.15 31.28,16.63 C31.28,17.11 31,17.58 30.33,17.58 Z" id="Shape"></path>
            <path d="M43.05,17.58 L35.23,17.58 C34.73,17.58 34.28,17.13 34.28,16.63 L34.28,1.26 C34.28,0.76 34.73,0.31 35.23,0.31 L43.05,0.31 C43.72,0.31 44,0.78 44,1.26 C44,1.74 43.73,2.21 43.05,2.21 L36.18,2.21 L36.18,7.71 L40.95,7.71 C41.57,7.71 41.9,8.19 41.9,8.66 C41.9,9.13 41.58,9.61 40.95,9.61 L36.18,9.61 L36.18,15.68 L43.05,15.68 C43.72,15.68 44,16.15 44,16.63 C44,17.11 43.73,17.58 43.05,17.58 Z" id="Shape"></path>
            <path d="M55.75,17.71 C55.38,17.71 55.1,17.54 54.93,17.18 L51.06,9.21 L48.91,12.38 L48.91,16.78 C48.91,17.4 48.44,17.7 47.96,17.7 C47.48,17.7 47.01,17.4 47.01,16.78 L47.01,1.11 C47.01,0.49 47.48,0.16 47.96,0.16 C48.44,0.16 48.91,0.49 48.91,1.11 L48.91,9.01 L54.63,0.59 C54.8,0.32 55.05,0.17 55.38,0.17 C55.95,0.17 56.38,0.62 56.38,1.12 C56.38,1.32 56.33,1.5 56.21,1.67 L52.29,7.42 L56.66,16.37 C56.74,16.54 56.76,16.67 56.76,16.79 C56.75,17.31 56.33,17.71 55.75,17.71 Z" id="Shape"></path>
            <path d="M67.53,17.58 L60.71,17.58 C60.21,17.58 59.76,17.13 59.76,16.63 L59.76,1.11 C59.76,0.49 60.23,0.16 60.71,0.16 C61.19,0.16 61.66,0.49 61.66,1.11 L61.66,15.68 L67.53,15.68 C68.15,15.68 68.48,16.15 68.48,16.63 C68.48,17.11 68.15,17.58 67.53,17.58 Z" id="Shape"></path>
            <path d="M76.13,10.91 L76.13,16.78 C76.13,17.4 75.66,17.7 75.18,17.7 C74.71,17.7 74.23,17.4 74.23,16.78 L74.23,10.91 L70.31,1.49 C70.03,0.82 70.51,0.16 71.23,0.16 C71.55,0.16 71.88,0.33 72.05,0.76 L75.17,8.26 L78.29,0.76 C78.46,0.34 78.81,0.16 79.14,0.16 C79.86,0.16 80.31,0.81 80.04,1.49 L76.13,10.91 Z" id="Shape"></path>
            <path d="M98.48,9.88 L101.58,16.35 C101.66,16.47 101.68,16.62 101.68,16.77 C101.68,17.29 101.28,17.69 100.68,17.69 C100.38,17.69 100.06,17.57 99.86,17.16 L96.46,10.01 L93.91,10.01 L93.91,16.76 C93.91,17.38 93.43,17.68 92.96,17.68 C92.49,17.68 92.01,17.38 92.01,16.76 L92.01,1.24 C92.01,0.74 92.46,0.29 92.96,0.29 L97.16,0.29 C99.78,0.29 101.91,2.41 101.91,5.04 L101.91,5.26 C101.9,7.48 100.5,9.28 98.48,9.88 Z M100,5.06 C100,3.48 98.73,2.21 97.15,2.21 L93.9,2.21 L93.9,8.13 L97.25,8.13 C98.83,8.13 100,6.85 100,5.28 L100,5.06 Z" id="Shape"></path>
            <path d="M110.03,17.71 L109.78,17.71 C107.16,17.71 105.03,15.64 105.03,12.99 L105.03,4.89 C105.03,2.29 107.15,0.17 109.78,0.17 L110.03,0.17 C112.63,0.17 114.75,2.29 114.75,4.89 L114.75,12.99 C114.75,15.63 112.63,17.71 110.03,17.71 Z M112.85,4.91 C112.85,3.34 111.6,2.06 110.03,2.06 L109.78,2.06 C108.21,2.06 106.93,3.36 106.93,4.88 L106.93,12.98 C106.93,14.55 108.2,15.83 109.78,15.83 L110.03,15.83 C111.61,15.83 112.85,14.56 112.85,12.98 L112.85,4.91 Z" id="Shape"></path>
            <path d="M123.88,17.71 L123.63,17.71 C121.01,17.71 118.88,15.64 118.88,12.99 L118.88,1.12 C118.88,0.5 119.36,0.17 119.83,0.17 C120.3,0.17 120.78,0.5 120.78,1.12 L120.78,12.99 C120.78,14.56 122.05,15.84 123.63,15.84 L123.88,15.84 C125.46,15.84 126.7,14.57 126.7,12.99 L126.7,1.12 C126.7,0.5 127.18,0.17 127.65,0.17 C128.12,0.17 128.6,0.5 128.6,1.12 L128.6,12.99 C128.6,15.63 126.48,17.71 123.88,17.71 Z" id="Shape"></path>
            <path d="M139.58,2.21 L136.83,2.21 L136.83,16.78 C136.83,17.4 136.36,17.7 135.88,17.7 C135.41,17.7 134.93,17.4 134.93,16.78 L134.93,2.21 L132.18,2.21 C131.56,2.21 131.23,1.74 131.23,1.26 C131.23,0.79 131.56,0.31 132.18,0.31 L139.58,0.31 C140.2,0.31 140.53,0.78 140.53,1.26 C140.53,1.74 140.2,2.21 139.58,2.21 Z" id="Shape"></path>
            <path d="M144.35,17.71 C143.88,17.71 143.4,17.41 143.4,16.79 L143.4,1.12 C143.4,0.5 143.88,0.17 144.35,0.17 C144.82,0.17 145.3,0.5 145.3,1.12 L145.3,16.79 C145.3,17.41 144.83,17.71 144.35,17.71 Z" id="Shape"></path>
            <path d="M158.7,17.71 C158.32,17.71 157.78,17.71 157.4,16.88 L151.95,4.56 L151.95,16.78 C151.95,17.4 151.47,17.7 151,17.7 C150.53,17.7 150.05,17.4 150.05,16.78 L150.05,1.13 C150.05,0.46 150.6,0.16 151.17,0.16 C151.75,0.16 152.14,0.28 152.44,0.96 L157.86,13.33 L157.86,1.11 C157.86,0.49 158.36,0.16 158.83,0.16 C159.31,0.16 159.75,0.49 159.75,1.11 L159.75,16.61 C159.77,17.43 159.28,17.71 158.7,17.71 Z" id="Shape"></path>
            <path d="M173.05,17.58 L165.23,17.58 C164.73,17.58 164.28,17.13 164.28,16.63 L164.28,1.26 C164.28,0.76 164.73,0.31 165.23,0.31 L173.05,0.31 C173.72,0.31 174,0.78 174,1.26 C174,1.74 173.73,2.21 173.05,2.21 L166.18,2.21 L166.18,7.71 L170.95,7.71 C171.57,7.71 171.9,8.19 171.9,8.66 C171.9,9.13 171.57,9.61 170.95,9.61 L166.18,9.61 L166.18,15.68 L173.05,15.68 C173.72,15.68 174,16.15 174,16.63 C174,17.11 173.72,17.58 173.05,17.58 Z" id="Shape"></path>
        </g>
    </g>
</svg>