<?xml version="1.0" encoding="utf-8"?>
<!-- Generator: Adobe Illustrator 23.0.0, SVG Export Plug-In . SVG Version: 6.00 Build 0)  -->
<svg version="1.1" id="Ebene_1" xmlns="http://www.w3.org/2000/svg" xmlns:xlink="http://www.w3.org/1999/xlink" x="0px" y="0px"
	 viewBox="0 0 595.28 841.89" style="enable-background:new 0 0 595.28 841.89;" xml:space="preserve">
<style type="text/css">
	.st0{opacity:0.2;fill:#16182E;}
	.st1{fill:#16182E;}
</style>
<g>
	<path d="M214.14,392.72c-0.21,0-0.42-0.13-0.42-0.41v-5.38l-1.45,3.33c-0.09,0.21-0.28,0.29-0.46,0.29c-0.21,0-0.38-0.1-0.47-0.29
		l-1.5-3.33v5.38c0,0.27-0.21,0.41-0.42,0.41s-0.42-0.13-0.42-0.41v-6.83c0-0.3,0.11-0.48,0.5-0.48h0.03c0.3,0,0.42,0.15,0.5,0.32
		l1.76,3.94l1.75-3.94c0.08-0.17,0.2-0.32,0.51-0.32h0.03c0.38,0,0.48,0.19,0.48,0.48v6.83
		C214.55,392.59,214.35,392.72,214.14,392.72z"/>
	<path d="M218.13,392.72h-0.11c-0.98,0-1.77-0.77-1.77-1.76v-1.89c0-0.98,0.79-1.77,1.77-1.77h0.11c0.98,0,1.77,0.79,1.77,1.77v1.89
		C219.9,391.95,219.11,392.72,218.13,392.72z M219.06,389.07c0-0.52-0.42-0.93-0.94-0.93h-0.11c-0.52,0-0.94,0.42-0.94,0.93v1.89
		c0,0.52,0.42,0.94,0.95,0.94h0.1c0.52,0,0.94-0.42,0.94-0.94V389.07z"/>
</g>
<rect x="207.32" y="394.85" class="st0" width="13.97" height="13.97"/>
<rect x="207.32" y="410.65" class="st0" width="13.97" height="13.97"/>
<rect x="207.32" y="426.44" class="st0" width="13.97" height="13.97"/>
<rect x="207.32" y="447.97" class="st0" width="13.97" height="13.97"/>
<rect x="207.32" y="463.77" class="st0" width="13.97" height="13.97"/>
<rect x="207.32" y="479.56" class="st0" width="13.97" height="13.97"/>
<g>
	<path d="M230.58,385.9h-1.21v6.41c0,0.27-0.21,0.41-0.42,0.41s-0.42-0.13-0.42-0.41v-6.41h-1.21c-0.27,0-0.42-0.21-0.42-0.42
		s0.14-0.42,0.42-0.42h3.26c0.28,0,0.42,0.21,0.42,0.42S230.85,385.9,230.58,385.9z"/>
	<path d="M235.12,392.72c-0.19,0-0.37-0.1-0.42-0.32c-0.21,0.21-0.56,0.32-0.95,0.32h-0.1c-0.95,0-1.77-0.54-1.77-1.76v-3.25
		c0-0.28,0.21-0.42,0.42-0.42s0.42,0.14,0.42,0.42v3.25c0,0.52,0.42,0.94,0.94,0.94h0.1c0.53,0,0.95-0.42,0.95-0.94v-3.25
		c0-0.28,0.21-0.42,0.42-0.42s0.42,0.14,0.42,0.42v4.6C235.54,392.58,235.33,392.72,235.12,392.72z"/>
</g>
<rect x="226.05" y="394.85" class="st0" width="13.97" height="13.97"/>
<rect x="226.05" y="410.65" class="st0" width="13.97" height="13.97"/>
<rect x="226.05" y="426.44" class="st0" width="13.97" height="13.97"/>
<rect x="226.05" y="447.97" class="st0" width="13.97" height="13.97"/>
<rect x="226.05" y="463.77" class="st0" width="13.97" height="13.97"/>
<rect x="226.05" y="479.56" class="st0" width="13.97" height="13.97"/>
<g>
	<path d="M252.06,392.4c-0.03,0.17-0.15,0.32-0.41,0.32h-0.2c-0.23,0-0.37-0.17-0.41-0.31l-1.32-5.64l-1.32,5.64
		c-0.03,0.17-0.18,0.31-0.41,0.31h-0.2c-0.23,0-0.37-0.15-0.41-0.32l-1.47-6.9c-0.06-0.27,0.12-0.51,0.42-0.51
		c0.18,0,0.34,0.1,0.4,0.33l1.19,5.53l1.3-5.57c0.04-0.18,0.17-0.3,0.42-0.3h0.18c0.23,0,0.37,0.12,0.42,0.3l1.3,5.57l1.19-5.53
		c0.04-0.23,0.22-0.33,0.4-0.33c0.3,0,0.47,0.23,0.42,0.51L252.06,392.4z"/>
	<path d="M257.92,390.4h-2.4v0.56c0,0.52,0.42,0.94,0.94,0.94h0.11c0.43,0,0.71-0.25,0.86-0.56c0.08-0.19,0.22-0.26,0.36-0.26
		c0.22,0,0.43,0.18,0.43,0.43c0,0.07-0.01,0.13-0.04,0.19c-0.26,0.62-0.86,1.03-1.61,1.03h-0.11c-0.98,0-1.77-0.77-1.77-1.76v-1.89
		c0-0.98,0.79-1.77,1.77-1.77h0.11c0.98,0,1.77,0.76,1.77,1.78v0.9C258.34,390.2,258.15,390.4,257.92,390.4z M257.5,389.08
		c0-0.54-0.44-0.95-0.92-0.95h-0.11c-0.52,0-0.95,0.41-0.95,0.93v0.55h1.98V389.08z"/>
</g>
<rect x="244.78" y="394.85" class="st0" width="13.97" height="13.97"/>
<rect x="244.78" y="410.65" class="st0" width="13.97" height="13.97"/>
<rect x="244.78" y="426.44" class="st0" width="13.97" height="13.97"/>
<rect x="244.78" y="447.97" class="st0" width="13.97" height="13.97"/>
<rect x="244.78" y="463.77" class="st0" width="13.97" height="13.97"/>
<rect x="244.78" y="479.56" class="st0" width="13.97" height="13.97"/>
<g>
	<path d="M268.04,385.9h-1.21v6.41c0,0.27-0.21,0.41-0.42,0.41s-0.42-0.13-0.42-0.41v-6.41h-1.21c-0.27,0-0.42-0.21-0.42-0.42
		s0.14-0.42,0.42-0.42h3.26c0.28,0,0.42,0.21,0.42,0.42S268.31,385.9,268.04,385.9z"/>
	<path d="M272.85,392.72c-0.21,0-0.42-0.13-0.42-0.41v-3.25c0-0.65-0.5-0.93-0.98-0.93c-0.5,0-1,0.31-1,0.88v3.3
		c0,0.27-0.21,0.41-0.42,0.41s-0.42-0.13-0.42-0.41v-6.9c0-0.27,0.21-0.42,0.42-0.42s0.42,0.14,0.42,0.42v2.21
		c0.19-0.21,0.57-0.33,0.96-0.33h0.09c0.98,0,1.77,0.79,1.77,1.77v3.25C273.26,392.59,273.06,392.72,272.85,392.72z"/>
</g>
<rect x="263.51" y="394.85" class="st0" width="13.97" height="13.97"/>
<rect x="263.51" y="410.65" class="st0" width="13.97" height="13.97"/>
<rect x="263.51" y="426.44" class="st0" width="13.97" height="13.97"/>
<rect x="263.51" y="447.97" class="st0" width="13.97" height="13.97"/>
<rect x="263.51" y="463.77" class="st0" width="13.97" height="13.97"/>
<rect x="263.51" y="479.56" class="st0" width="13.97" height="13.97"/>
<g>
	<path d="M287.78,385.9h-3.03v2.42h2.1c0.27,0,0.42,0.21,0.42,0.42s-0.14,0.42-0.42,0.42h-2.1v3.16c0,0.27-0.21,0.41-0.42,0.41
		s-0.42-0.13-0.42-0.41v-6.83c0-0.22,0.2-0.42,0.42-0.42h3.44c0.3,0,0.42,0.21,0.42,0.42S288.08,385.9,287.78,385.9z"/>
	<path d="M291.39,388.52c-0.12,0-0.24-0.05-0.34-0.15c-0.09-0.09-0.23-0.23-0.51-0.23c-0.66,0-0.74,0.38-0.74,0.74v3.42
		c0,0.3-0.21,0.43-0.42,0.43s-0.42-0.13-0.42-0.43v-4.58c0-0.26,0.22-0.42,0.43-0.42c0.14,0,0.29,0.05,0.36,0.22
		c0,0,0.22-0.22,0.79-0.22c0.43,0,0.88,0.15,1.14,0.54c0.07,0.1,0.1,0.19,0.1,0.29C291.8,388.35,291.61,388.52,291.39,388.52z"/>
</g>
<rect x="282.24" y="394.85" class="st0" width="13.97" height="13.97"/>
<rect x="282.24" y="410.65" class="st0" width="13.97" height="13.97"/>
<rect x="282.24" y="426.44" class="st0" width="13.97" height="13.97"/>
<rect x="282.24" y="447.97" class="st0" width="13.97" height="13.97"/>
<rect x="282.24" y="463.77" class="st0" width="13.97" height="13.97"/>
<rect x="282.24" y="479.56" class="st0" width="13.97" height="13.97"/>
<g>
	<path d="M304.49,392.72h-0.1c-1.13,0-2.18-0.69-2.18-2.02c0-0.28,0.21-0.41,0.42-0.41s0.42,0.12,0.42,0.42
		c0,0.78,0.64,1.19,1.35,1.19h0.11c0.87,0,1.24-0.43,1.24-1.22c0-0.9-0.64-1.16-1.31-1.53c-1.06-0.59-2.12-0.86-2.12-2.27
		c0-1.07,0.91-1.88,2.07-1.88h0.11c1.06,0,2,0.75,2,1.76c0,0.27-0.19,0.41-0.4,0.41s-0.41-0.13-0.44-0.4
		c-0.05-0.54-0.52-0.94-1.19-0.94h-0.1c-0.91,0-1.21,0.66-1.21,1.05c0,0.8,0.68,1.04,1.28,1.36c1.1,0.59,2.15,0.95,2.15,2.44
		C306.59,391.95,305.82,392.72,304.49,392.72z"/>
	<path d="M311.57,392.72c-0.03,0-0.07,0-0.08-0.01c-0.38-0.05-0.61-0.21-0.75-0.42c-0.32,0.28-0.74,0.43-1.19,0.43h-0.1
		c-0.88,0-1.77-0.54-1.77-1.57v-0.13c0-1.74,2.51-1.44,2.78-1.8c0.03-0.04,0.03-0.13,0.03-0.19c0-0.66-0.41-0.89-0.89-0.89h-0.08
		c-0.45,0-0.68,0.19-0.89,0.55c-0.09,0.17-0.23,0.22-0.37,0.22c-0.21,0-0.42-0.15-0.42-0.38c0-0.08,0.01-0.14,0.04-0.2
		c0.35-0.79,1.07-1.02,1.64-1.02h0.08c0.98,0,1.73,0.76,1.73,1.69v2.55c0,0.21,0.1,0.33,0.29,0.36c0.25,0.04,0.35,0.22,0.35,0.4
		C311.98,392.52,311.84,392.72,311.57,392.72z M310.5,390.09c-0.81,0.2-1.98,0.2-1.98,0.95v0.09c0,0.47,0.37,0.77,0.94,0.77h0.1
		c0.52,0,0.95-0.41,0.95-0.94V390.09z"/>
</g>
<rect x="300.97" y="394.85" class="st0" width="13.97" height="13.97"/>
<rect x="300.97" y="410.65" class="st0" width="13.97" height="13.97"/>
<rect x="300.97" y="426.44" class="st0" width="13.97" height="13.97"/>
<rect x="300.97" y="447.97" class="st0" width="13.97" height="13.97"/>
<rect x="300.97" y="463.77" class="st0" width="13.97" height="13.97"/>
<rect x="300.97" y="479.56" class="st0" width="13.97" height="13.97"/>
<g>
	<path d="M323.22,392.72h-0.1c-1.13,0-2.18-0.69-2.18-2.02c0-0.28,0.21-0.41,0.42-0.41s0.42,0.12,0.42,0.42
		c0,0.78,0.64,1.19,1.35,1.19h0.11c0.87,0,1.24-0.43,1.24-1.22c0-0.9-0.64-1.16-1.31-1.53c-1.06-0.59-2.12-0.86-2.12-2.27
		c0-1.07,0.91-1.88,2.07-1.88h0.11c1.06,0,2,0.75,2,1.76c0,0.27-0.19,0.41-0.4,0.41s-0.41-0.13-0.44-0.4
		c-0.05-0.54-0.52-0.94-1.19-0.94h-0.1c-0.91,0-1.21,0.66-1.21,1.05c0,0.8,0.68,1.04,1.28,1.36c1.1,0.59,2.15,0.95,2.15,2.44
		C325.32,391.95,324.55,392.72,323.22,392.72z"/>
	<path d="M328.45,392.72h-0.11c-0.98,0-1.77-0.77-1.77-1.76v-1.89c0-0.98,0.79-1.77,1.77-1.77h0.11c0.98,0,1.77,0.79,1.77,1.77v1.89
		C330.23,391.95,329.43,392.72,328.45,392.72z M329.39,389.07c0-0.52-0.42-0.93-0.94-0.93h-0.11c-0.52,0-0.94,0.42-0.94,0.93v1.89
		c0,0.52,0.42,0.94,0.95,0.94h0.1c0.52,0,0.94-0.42,0.94-0.94V389.07z"/>
</g>
<rect x="319.71" y="394.85" class="st0" width="13.97" height="13.97"/>
<rect x="319.71" y="410.65" class="st0" width="13.97" height="13.97"/>
<rect x="319.71" y="426.44" class="st0" width="13.97" height="13.97"/>
<rect x="319.71" y="447.97" class="st0" width="13.97" height="13.97"/>
<rect x="319.71" y="463.77" class="st0" width="13.97" height="13.97"/>
<rect x="319.71" y="479.56" class="st0" width="13.97" height="13.97"/>
<rect x="244.78" y="410.65" class="st1" width="13.97" height="13.97"/>
</svg>
