<?xml version="1.0" encoding="UTF-8"?>
<svg width="127px" height="110px" viewBox="0 0 127 110" version="1.1" xmlns="http://www.w3.org/2000/svg" xmlns:xlink="http://www.w3.org/1999/xlink">
    <!-- Generator: Sketch 49.3 (51167) - http://www.bohemiancoding.com/sketch -->
    <title>weekly routine_grafik</title>
    <desc>Created with Sketch.</desc>
    <defs></defs>
    <g id="Page-1" stroke="none" stroke-width="1" fill="none" fill-rule="evenodd">
        <g id="weekly-routine_grafik" fill-rule="nonzero">
            <g id="Group" transform="translate(2.000000, 1.000000)" fill="#000000">
                <path d="M5.14,7.72 C4.93,7.72 4.72,7.59 4.72,7.31 L4.72,1.93 L3.27,5.26 C3.18,5.47 2.99,5.55 2.81,5.55 C2.6,5.55 2.43,5.45 2.34,5.26 L0.84,1.93 L0.84,7.31 C0.84,7.58 0.63,7.72 0.42,7.72 C0.21,7.72 2.84217094e-14,7.59 2.84217094e-14,7.31 L2.84217094e-14,0.48 C2.84217094e-14,0.18 0.11,0 0.5,0 L0.53,0 C0.83,0 0.95,0.15 1.03,0.32 L2.79,4.26 L4.54,0.32 C4.62,0.15 4.74,0 5.05,0 L5.08,0 C5.46,0 5.56,0.19 5.56,0.48 L5.56,7.31 C5.55,7.59 5.35,7.72 5.14,7.72 Z" id="Shape"></path>
                <path d="M9.13,7.72 L9.02,7.72 C8.04,7.72 7.25,6.95 7.25,5.96 L7.25,4.07 C7.25,3.09 8.04,2.3 9.02,2.3 L9.13,2.3 C10.11,2.3 10.9,3.09 10.9,4.07 L10.9,5.96 C10.9,6.95 10.11,7.72 9.13,7.72 Z M10.06,4.07 C10.06,3.55 9.64,3.14 9.12,3.14 L9.01,3.14 C8.49,3.14 8.07,3.56 8.07,4.07 L8.07,5.96 C8.07,6.48 8.49,6.9 9.02,6.9 L9.12,6.9 C9.64,6.9 10.06,6.48 10.06,5.96 L10.06,4.07 Z" id="Shape"></path>
            </g>
            <rect id="Rectangle-path" fill="#16182E" opacity="0.2" x="0.32" y="10.85" width="13.97" height="13.97"></rect>
            <rect id="Rectangle-path" fill="#16182E" opacity="0.2" x="0.32" y="26.65" width="13.97" height="13.97"></rect>
            <rect id="Rectangle-path" fill="#16182E" opacity="0.2" x="0.32" y="42.44" width="13.97" height="13.97"></rect>
            <rect id="Rectangle-path" fill="#16182E" opacity="0.2" x="0.32" y="63.97" width="13.97" height="13.97"></rect>
            <rect id="Rectangle-path" fill="#16182E" opacity="0.2" x="0.32" y="79.77" width="13.97" height="13.97"></rect>
            <rect id="Rectangle-path" fill="#16182E" opacity="0.2" x="0.32" y="95.56" width="13.97" height="13.97"></rect>
            <g id="Group" transform="translate(19.000000, 1.000000)" fill="#000000">
                <path d="M4.58,0.9 L3.37,0.9 L3.37,7.31 C3.37,7.58 3.16,7.72 2.95,7.72 C2.74,7.72 2.53,7.59 2.53,7.31 L2.53,0.9 L1.32,0.9 C1.05,0.9 0.9,0.69 0.9,0.48 C0.9,0.27 1.04,0.06 1.32,0.06 L4.58,0.06 C4.86,0.06 5,0.27 5,0.48 C5,0.69 4.85,0.9 4.58,0.9 Z" id="Shape"></path>
                <path d="M9.12,7.72 C8.93,7.72 8.75,7.62 8.7,7.4 C8.49,7.61 8.14,7.72 7.75,7.72 L7.65,7.72 C6.7,7.72 5.88,7.18 5.88,5.96 L5.88,2.71 C5.88,2.43 6.09,2.29 6.3,2.29 C6.51,2.29 6.72,2.43 6.72,2.71 L6.72,5.96 C6.72,6.48 7.14,6.9 7.66,6.9 L7.76,6.9 C8.29,6.9 8.71,6.48 8.71,5.96 L8.71,2.71 C8.71,2.43 8.92,2.29 9.13,2.29 C9.34,2.29 9.55,2.43 9.55,2.71 L9.55,7.31 C9.54,7.58 9.33,7.72 9.12,7.72 Z" id="Shape"></path>
            </g>
            <rect id="Rectangle-path" fill="#16182E" opacity="0.2" x="19.05" y="10.85" width="13.97" height="13.97"></rect>
            <rect id="Rectangle-path" fill="#16182E" opacity="0.2" x="19.05" y="26.65" width="13.97" height="13.97"></rect>
            <rect id="Rectangle-path" fill="#16182E" opacity="0.2" x="19.05" y="42.44" width="13.97" height="13.97"></rect>
            <rect id="Rectangle-path" fill="#16182E" opacity="0.2" x="19.05" y="63.97" width="13.97" height="13.97"></rect>
            <rect id="Rectangle-path" fill="#16182E" opacity="0.2" x="19.05" y="79.77" width="13.97" height="13.97"></rect>
            <rect id="Rectangle-path" fill="#16182E" opacity="0.2" x="19.05" y="95.56" width="13.97" height="13.97"></rect>
            <g id="Group" transform="translate(38.000000, 0.000000)" fill="#000000">
                <path d="M7.06,8.4 C7.03,8.57 6.91,8.72 6.65,8.72 L6.45,8.72 C6.22,8.72 6.08,8.55 6.04,8.41 L4.72,2.77 L3.4,8.41 C3.37,8.58 3.22,8.72 2.99,8.72 L2.79,8.72 C2.56,8.72 2.42,8.57 2.38,8.4 L0.91,1.5 C0.85,1.23 1.03,0.99 1.33,0.99 C1.51,0.99 1.67,1.09 1.73,1.32 L2.92,6.85 L4.22,1.28 C4.26,1.1 4.39,0.98 4.64,0.98 L4.82,0.98 C5.05,0.98 5.19,1.1 5.24,1.28 L6.54,6.85 L7.73,1.32 C7.77,1.09 7.95,0.99 8.13,0.99 C8.43,0.99 8.6,1.22 8.55,1.5 L7.06,8.4 Z" id="Shape"></path>
                <path d="M12.92,6.4 L10.52,6.4 L10.52,6.96 C10.52,7.48 10.94,7.9 11.46,7.9 L11.57,7.9 C12,7.9 12.28,7.65 12.43,7.34 C12.51,7.15 12.65,7.08 12.79,7.08 C13.01,7.08 13.22,7.26 13.22,7.51 C13.22,7.58 13.21,7.64 13.18,7.7 C12.92,8.32 12.32,8.73 11.57,8.73 L11.46,8.73 C10.48,8.73 9.69,7.96 9.69,6.97 L9.69,5.08 C9.69,4.1 10.48,3.31 11.46,3.31 L11.57,3.31 C12.55,3.31 13.34,4.07 13.34,5.09 L13.34,5.99 C13.34,6.2 13.15,6.4 12.92,6.4 Z M12.5,5.08 C12.5,4.54 12.06,4.13 11.58,4.13 L11.47,4.13 C10.95,4.13 10.52,4.54 10.52,5.06 L10.52,5.61 L12.5,5.61 L12.5,5.08 Z" id="Shape"></path>
            </g>
            <rect id="Rectangle-path" fill="#16182E" opacity="0.2" x="37.78" y="10.85" width="13.97" height="13.97"></rect>
            <rect id="Rectangle-path" fill="#16182E" opacity="0.2" x="37.78" y="26.65" width="13.97" height="13.97"></rect>
            <rect id="Rectangle-path" fill="#16182E" opacity="0.2" x="37.78" y="42.44" width="13.97" height="13.97"></rect>
            <rect id="Rectangle-path" fill="#16182E" opacity="0.2" x="37.78" y="63.97" width="13.97" height="13.97"></rect>
            <rect id="Rectangle-path" fill="#16182E" opacity="0.2" x="37.78" y="79.77" width="13.97" height="13.97"></rect>
            <rect id="Rectangle-path" fill="#16182E" opacity="0.2" x="37.78" y="95.56" width="13.97" height="13.97"></rect>
            <g id="Group" transform="translate(57.000000, 0.000000)" fill="#000000">
                <path d="M4.04,1.9 L2.83,1.9 L2.83,8.31 C2.83,8.58 2.62,8.72 2.41,8.72 C2.2,8.72 1.99,8.59 1.99,8.31 L1.99,1.9 L0.78,1.9 C0.51,1.9 0.36,1.69 0.36,1.48 C0.36,1.27 0.5,1.06 0.78,1.06 L4.04,1.06 C4.32,1.06 4.46,1.27 4.46,1.48 C4.46,1.69 4.31,1.9 4.04,1.9 Z" id="Shape"></path>
                <path d="M8.85,8.72 C8.64,8.72 8.43,8.59 8.43,8.31 L8.43,5.06 C8.43,4.41 7.93,4.13 7.45,4.13 C6.95,4.13 6.45,4.44 6.45,5.01 L6.45,8.31 C6.45,8.58 6.24,8.72 6.03,8.72 C5.82,8.72 5.61,8.59 5.61,8.31 L5.61,1.41 C5.61,1.14 5.82,0.99 6.03,0.99 C6.24,0.99 6.45,1.13 6.45,1.41 L6.45,3.62 C6.64,3.41 7.02,3.29 7.41,3.29 L7.5,3.29 C8.48,3.29 9.27,4.08 9.27,5.06 L9.27,8.31 C9.26,8.59 9.06,8.72 8.85,8.72 Z" id="Shape"></path>
            </g>
            <rect id="Rectangle-path" fill="#16182E" opacity="0.2" x="56.51" y="10.85" width="13.97" height="13.97"></rect>
            <rect id="Rectangle-path" fill="#16182E" opacity="0.2" x="56.51" y="26.65" width="13.97" height="13.97"></rect>
            <rect id="Rectangle-path" fill="#16182E" opacity="0.2" x="56.51" y="42.44" width="13.97" height="13.97"></rect>
            <rect id="Rectangle-path" fill="#16182E" opacity="0.2" x="56.51" y="63.97" width="13.97" height="13.97"></rect>
            <rect id="Rectangle-path" fill="#16182E" opacity="0.2" x="56.51" y="79.77" width="13.97" height="13.97"></rect>
            <rect id="Rectangle-path" fill="#16182E" opacity="0.2" x="56.51" y="95.56" width="13.97" height="13.97"></rect>
            <g id="Group" transform="translate(76.000000, 1.000000)" fill="#000000">
                <path d="M4.78,0.9 L1.75,0.9 L1.75,3.32 L3.85,3.32 C4.12,3.32 4.27,3.53 4.27,3.74 C4.27,3.95 4.13,4.16 3.85,4.16 L1.75,4.16 L1.75,7.32 C1.75,7.59 1.54,7.73 1.33,7.73 C1.12,7.73 0.91,7.6 0.91,7.32 L0.91,0.49 C0.91,0.27 1.11,0.07 1.33,0.07 L4.77,0.07 C5.07,0.07 5.19,0.28 5.19,0.49 C5.19,0.7 5.08,0.9 4.78,0.9 Z" id="Shape"></path>
                <path d="M8.39,3.52 C8.27,3.52 8.15,3.47 8.05,3.37 C7.96,3.28 7.82,3.14 7.54,3.14 C6.88,3.14 6.8,3.52 6.8,3.88 L6.8,7.3 C6.8,7.6 6.59,7.73 6.38,7.73 C6.17,7.73 5.96,7.6 5.96,7.3 L5.96,2.72 C5.96,2.46 6.18,2.3 6.39,2.3 C6.53,2.3 6.68,2.35 6.75,2.52 C6.75,2.52 6.97,2.3 7.54,2.3 C7.97,2.3 8.42,2.45 8.68,2.84 C8.75,2.94 8.78,3.03 8.78,3.13 C8.8,3.35 8.61,3.52 8.39,3.52 Z" id="Shape"></path>
            </g>
            <rect id="Rectangle-path" fill="#16182E" opacity="0.2" x="75.24" y="10.85" width="13.97" height="13.97"></rect>
            <rect id="Rectangle-path" fill="#16182E" opacity="0.2" x="75.24" y="26.65" width="13.97" height="13.97"></rect>
            <rect id="Rectangle-path" fill="#16182E" opacity="0.2" x="75.24" y="42.44" width="13.97" height="13.97"></rect>
            <rect id="Rectangle-path" fill="#16182E" opacity="0.2" x="75.24" y="63.97" width="13.97" height="13.97"></rect>
            <rect id="Rectangle-path" fill="#16182E" opacity="0.2" x="75.24" y="79.77" width="13.97" height="13.97"></rect>
            <rect id="Rectangle-path" fill="#16182E" opacity="0.2" x="75.24" y="95.56" width="13.97" height="13.97"></rect>
            <g id="Group" transform="translate(95.000000, 1.000000)" fill="#000000">
                <path d="M2.49,7.72 L2.39,7.72 C1.26,7.72 0.21,7.03 0.21,5.7 C0.21,5.42 0.42,5.29 0.63,5.29 C0.84,5.29 1.05,5.41 1.05,5.71 C1.05,6.49 1.69,6.9 2.4,6.9 L2.51,6.9 C3.38,6.9 3.75,6.47 3.75,5.68 C3.75,4.78 3.11,4.52 2.44,4.15 C1.38,3.56 0.32,3.29 0.32,1.88 C0.32,0.81 1.23,5.68434189e-14 2.39,5.68434189e-14 L2.5,5.68434189e-14 C3.56,5.68434189e-14 4.5,0.75 4.5,1.76 C4.5,2.03 4.31,2.17 4.1,2.17 C3.89,2.17 3.69,2.04 3.66,1.77 C3.61,1.23 3.14,0.83 2.47,0.83 L2.37,0.83 C1.46,0.83 1.16,1.49 1.16,1.88 C1.16,2.68 1.84,2.92 2.44,3.24 C3.54,3.83 4.59,4.19 4.59,5.68 C4.59,6.95 3.82,7.72 2.49,7.72 Z" id="Shape"></path>
                <path d="M9.57,7.72 C9.54,7.72 9.5,7.72 9.49,7.71 C9.11,7.66 8.88,7.5 8.74,7.29 C8.42,7.57 8,7.72 7.55,7.72 L7.45,7.72 C6.57,7.72 5.68,7.18 5.68,6.15 L5.68,6.02 C5.68,4.28 8.19,4.58 8.46,4.22 C8.49,4.18 8.49,4.09 8.49,4.03 C8.49,3.37 8.08,3.14 7.6,3.14 L7.52,3.14 C7.07,3.14 6.84,3.33 6.63,3.69 C6.54,3.86 6.4,3.91 6.26,3.91 C6.05,3.91 5.84,3.76 5.84,3.53 C5.84,3.45 5.85,3.39 5.88,3.33 C6.23,2.54 6.95,2.31 7.52,2.31 L7.6,2.31 C8.58,2.31 9.33,3.07 9.33,4 L9.33,6.55 C9.33,6.76 9.43,6.88 9.62,6.91 C9.87,6.95 9.97,7.13 9.97,7.31 C9.98,7.52 9.84,7.72 9.57,7.72 Z M8.5,5.09 C7.69,5.29 6.52,5.29 6.52,6.04 L6.52,6.13 C6.52,6.6 6.89,6.9 7.46,6.9 L7.56,6.9 C8.08,6.9 8.51,6.49 8.51,5.96 L8.51,5.09 L8.5,5.09 Z" id="Shape"></path>
            </g>
            <rect id="Rectangle-path" fill="#16182E" opacity="0.2" x="93.97" y="10.85" width="13.97" height="13.97"></rect>
            <rect id="Rectangle-path" fill="#16182E" opacity="0.2" x="93.97" y="26.65" width="13.97" height="13.97"></rect>
            <rect id="Rectangle-path" fill="#16182E" opacity="0.2" x="93.97" y="42.44" width="13.97" height="13.97"></rect>
            <rect id="Rectangle-path" fill="#16182E" opacity="0.2" x="93.97" y="63.97" width="13.97" height="13.97"></rect>
            <rect id="Rectangle-path" fill="#16182E" opacity="0.2" x="93.97" y="79.77" width="13.97" height="13.97"></rect>
            <rect id="Rectangle-path" fill="#16182E" opacity="0.2" x="93.97" y="95.56" width="13.97" height="13.97"></rect>
            <g id="Group" transform="translate(113.000000, 1.000000)" fill="#000000">
                <path d="M3.22,7.72 L3.12,7.72 C1.99,7.72 0.94,7.03 0.94,5.7 C0.94,5.42 1.15,5.29 1.36,5.29 C1.57,5.29 1.78,5.41 1.78,5.71 C1.78,6.49 2.42,6.9 3.13,6.9 L3.24,6.9 C4.11,6.9 4.48,6.47 4.48,5.68 C4.48,4.78 3.84,4.52 3.17,4.15 C2.11,3.56 1.05,3.29 1.05,1.88 C1.05,0.81 1.96,5.68434189e-14 3.12,5.68434189e-14 L3.23,5.68434189e-14 C4.29,5.68434189e-14 5.23,0.75 5.23,1.76 C5.23,2.03 5.04,2.17 4.83,2.17 C4.62,2.17 4.42,2.04 4.39,1.77 C4.34,1.23 3.87,0.83 3.2,0.83 L3.1,0.83 C2.19,0.83 1.89,1.49 1.89,1.88 C1.89,2.68 2.57,2.92 3.17,3.24 C4.27,3.83 5.32,4.19 5.32,5.68 C5.32,6.95 4.55,7.72 3.22,7.72 Z" id="Shape"></path>
                <path d="M8.45,7.72 L8.34,7.72 C7.36,7.72 6.57,6.95 6.57,5.96 L6.57,4.07 C6.57,3.09 7.36,2.3 8.34,2.3 L8.45,2.3 C9.43,2.3 10.22,3.09 10.22,4.07 L10.22,5.96 C10.23,6.95 9.43,7.72 8.45,7.72 Z M9.39,4.07 C9.39,3.55 8.97,3.14 8.45,3.14 L8.34,3.14 C7.82,3.14 7.4,3.56 7.4,4.07 L7.4,5.96 C7.4,6.48 7.82,6.9 8.35,6.9 L8.45,6.9 C8.97,6.9 9.39,6.48 9.39,5.96 L9.39,4.07 Z" id="Shape"></path>
            </g>
            <rect id="Rectangle-path" fill="#16182E" opacity="0.2" x="112.71" y="10.85" width="13.97" height="13.97"></rect>
            <rect id="Rectangle-path" fill="#16182E" opacity="0.2" x="112.71" y="26.65" width="13.97" height="13.97"></rect>
            <rect id="Rectangle-path" fill="#16182E" opacity="0.2" x="112.71" y="42.44" width="13.97" height="13.97"></rect>
            <rect id="Rectangle-path" fill="#16182E" opacity="0.2" x="112.71" y="63.97" width="13.97" height="13.97"></rect>
            <rect id="Rectangle-path" fill="#16182E" opacity="0.2" x="112.71" y="79.77" width="13.97" height="13.97"></rect>
            <rect id="Rectangle-path" fill="#16182E" opacity="0.2" x="112.71" y="95.56" width="13.97" height="13.97"></rect>
            <rect id="Rectangle-path" fill="#16182E" x="37.78" y="26.65" width="13.97" height="13.97"></rect>
        </g>
    </g>
</svg>